<svg width="29" height="35" viewBox="0 0 29 35" fill="none" xmlns="http://www.w3.org/2000/svg">
<path d="M17.2558 18.7656C17.8498 17.9575 18.4976 17.1776 19.1953 16.4274L16.3135 13.6289C16.3652 13.8397 17.1203 17.367 17.2558 18.7656Z" fill="url(#paint0_linear_481_15483)"/>
<path d="M20.886 6.15234H15.3447C15.3534 7.10038 15.4036 8.02982 15.4967 8.95776L20.886 6.15234Z" fill="url(#paint1_linear_481_15483)"/>
<path d="M27.3864 13.5396C27.1935 13.3589 27.0085 13.1802 26.8319 13.002C22.6448 15.5783 19.4204 18.9445 17.3974 22.8241C17.2778 27.4761 16.2293 31.6254 14.4526 34.5382C14.6645 34.8169 15.027 34.9985 15.4347 34.9985H21.1807C21.7823 34.9985 22.2871 34.6038 22.3517 34.0831C22.364 33.9833 22.3724 33.8511 22.3851 33.6511C22.7338 28.1519 24.4955 23.6367 27.6216 20.23C28.5304 19.3214 29.0193 18.1585 28.999 16.9523C28.9781 15.7058 28.4054 14.4938 27.3864 13.5396Z" fill="url(#paint2_linear_481_15483)"/>
<path d="M15.4612 2.93051C15.4298 3.32704 15.4064 3.71599 15.3872 4.10145H24.5812C24.6014 3.67013 24.6288 3.23333 24.6639 2.78969L24.7978 1.09575C24.8203 0.81228 24.7065 0.533385 24.4837 0.32565C24.261 0.117915 23.9492 0 23.6228 0H15.4002C15.5599 0.39305 15.6286 0.814194 15.5951 1.23664L15.4612 2.93051Z" fill="url(#paint3_linear_481_15483)"/>
<path d="M25.4664 11.3306C25.0511 10.6592 24.7827 9.94682 24.7014 9.1357C24.6189 8.31283 24.5684 7.48127 24.5488 6.63379L16.5581 10.7934L20.7595 14.8733C22.1688 13.5789 23.7419 12.3921 25.4664 11.3306Z" fill="url(#paint4_linear_481_15483)"/>
<path d="M7.44874 8.71511L12.2712 4.35547H2.51025C2.57456 4.39341 7.44874 8.71511 7.44874 8.71511Z" fill="url(#paint5_linear_481_15483)"/>
<path d="M12.9936 6.6582L9.09668 10.1812L14.1697 14.6897C13.4364 11.8812 13.0559 9.33244 12.9936 6.6582Z" fill="url(#paint6_linear_481_15483)"/>
<path d="M2.03279 6.83398C1.95843 9.43597 1.58117 11.9268 0.868652 14.6633L5.81295 10.1936L2.03279 6.83398Z" fill="url(#paint7_linear_481_15483)"/>
<path d="M1.88243 2.30512H13.1489L13.2446 1.09575C13.267 0.81228 13.1533 0.533385 12.9305 0.32565C12.7078 0.117915 12.3961 0 12.0696 0H2.96192C2.63554 0 2.32384 0.117915 2.10109 0.325582C1.87834 0.533249 1.76458 0.812143 1.78695 1.09562L1.88243 2.30512Z" fill="url(#paint8_linear_481_15483)"/>
<path d="M14.3915 24.0703C12.6002 26.5972 10.1586 27.9889 7.51643 27.9889C4.87426 27.9889 2.43262 26.5972 0.641307 24.0703C0.4133 23.7487 0.199741 23.4127 0 23.0645C0.168414 27.8117 1.3846 32.0466 3.32674 34.5485C3.54579 34.8306 3.91136 34.9997 4.30252 34.9997H10.7303C11.1214 34.9997 11.4871 34.8306 11.706 34.5485C13.6482 32.0464 14.8644 27.8116 15.0328 23.0645C14.833 23.4126 14.6195 23.7487 14.3915 24.0703Z" fill="url(#paint9_linear_481_15483)"/>
<path d="M7.51708 25.939C9.31176 25.939 11.0416 24.8931 12.3877 22.994C13.4032 21.5615 14.0999 19.7892 14.4286 17.8495L7.46337 11.6592L0.606934 17.8576C0.936224 19.7941 1.63241 21.5635 2.64643 22.9941C3.99256 24.8931 5.72231 25.939 7.51708 25.939Z" fill="url(#paint10_linear_481_15483)"/>
<defs>
<linearGradient id="paint0_linear_481_15483" x1="16.3135" y1="16.6189" x2="19.1954" y2="16.6207" gradientUnits="userSpaceOnUse">
<stop stop-color="#957DF3"/>
<stop offset="1" stop-color="#662D91"/>
</linearGradient>
<linearGradient id="paint1_linear_481_15483" x1="15.3447" y1="7.78535" x2="20.8861" y2="7.79767" gradientUnits="userSpaceOnUse">
<stop stop-color="#957DF3"/>
<stop offset="1" stop-color="#662D91"/>
</linearGradient>
<linearGradient id="paint2_linear_481_15483" x1="14.4526" y1="25.8059" x2="29.0001" y2="25.8167" gradientUnits="userSpaceOnUse">
<stop stop-color="#957DF3"/>
<stop offset="1" stop-color="#662D91"/>
</linearGradient>
<linearGradient id="paint3_linear_481_15483" x1="15.3872" y1="2.38741" x2="24.8008" y2="2.41174" gradientUnits="userSpaceOnUse">
<stop stop-color="#957DF3"/>
<stop offset="1" stop-color="#662D91"/>
</linearGradient>
<linearGradient id="paint4_linear_481_15483" x1="16.5581" y1="11.4299" x2="25.4667" y2="11.4408" gradientUnits="userSpaceOnUse">
<stop stop-color="#957DF3"/>
<stop offset="1" stop-color="#662D91"/>
</linearGradient>
<linearGradient id="paint5_linear_481_15483" x1="2.51025" y1="6.89317" x2="12.2714" y2="6.91777" gradientUnits="userSpaceOnUse">
<stop stop-color="#957DF3"/>
<stop offset="1" stop-color="#662D91"/>
</linearGradient>
<linearGradient id="paint6_linear_481_15483" x1="9.09668" y1="11.3333" x2="14.1698" y2="11.3369" gradientUnits="userSpaceOnUse">
<stop stop-color="#957DF3"/>
<stop offset="1" stop-color="#662D91"/>
</linearGradient>
<linearGradient id="paint7_linear_481_15483" x1="0.868652" y1="11.3914" x2="5.81311" y2="11.3949" gradientUnits="userSpaceOnUse">
<stop stop-color="#957DF3"/>
<stop offset="1" stop-color="#662D91"/>
</linearGradient>
<linearGradient id="paint8_linear_481_15483" x1="1.78418" y1="1.34178" x2="13.2474" y2="1.40596" gradientUnits="userSpaceOnUse">
<stop stop-color="#957DF3"/>
<stop offset="1" stop-color="#662D91"/>
</linearGradient>
<linearGradient id="paint9_linear_481_15483" x1="-8.00901e-08" y1="30.0118" x2="15.0333" y2="30.0331" gradientUnits="userSpaceOnUse">
<stop stop-color="#957DF3"/>
<stop offset="1" stop-color="#662D91"/>
</linearGradient>
<linearGradient id="paint10_linear_481_15483" x1="0.606934" y1="19.9713" x2="14.4291" y2="19.9864" gradientUnits="userSpaceOnUse">
<stop stop-color="#957DF3"/>
<stop offset="1" stop-color="#662D91"/>
</linearGradient>
</defs>
</svg>
