<svg width="35" height="33" viewBox="0 0 35 33" fill="none" xmlns="http://www.w3.org/2000/svg">
<path d="M19.3521 26.4087C18.1665 27.5943 17.5 29.2014 17.5 30.8785V33.0003H19.6219C21.299 33.0003 22.906 32.3339 24.0917 31.1482L34.0185 21.2214C35.3267 19.9132 35.3267 17.7899 34.0185 16.4818C32.7104 15.1737 30.5871 15.1737 29.279 16.4818L19.3521 26.4087ZM17.29 24.3466L24.6794 16.9587H21.8765C19.969 16.9499 19.9704 14.0493 21.8765 14.042H27.6777C29.6742 12.3095 32.8008 12.1053 35.0015 13.5666V8.20866C35.0015 4.18803 31.7304 0.916992 27.7098 0.916992H7.29167C3.27104 0.916992 0 4.18803 0 8.20866V22.792C0 26.8126 3.27104 30.0837 7.29167 30.0837H14.6227C14.8065 27.9166 15.734 25.9026 17.29 24.3466ZM21.8765 8.20866H27.7098C29.6173 8.21741 29.6158 11.118 27.7098 11.1253H21.8765C19.969 11.1166 19.9704 8.21595 21.8765 8.20866ZM10.2083 25.7087C9.40188 25.7087 8.75 25.0553 8.75 24.2503V22.792H8.35917C6.80313 22.792 5.35063 21.9549 4.57042 20.606C4.16646 19.9089 4.40563 19.0178 5.10125 18.6139C5.80125 18.2085 6.69229 18.4491 7.09333 19.1462C7.35438 19.5953 7.83854 19.8753 8.35771 19.8753H11.6652C13.1192 19.9701 13.7681 17.6149 12.1844 17.3087L7.74958 16.5693C2.6425 15.6228 3.74208 8.17949 8.74854 8.20866V6.75033C8.75729 4.84283 11.6579 4.84428 11.6652 6.75033V8.20866H12.056C13.6121 8.20866 15.0646 9.0472 15.8448 10.3962C16.2488 11.0932 16.0096 11.9843 15.314 12.3882C14.6125 12.7907 13.7229 12.553 13.3219 11.856C13.0608 11.4053 12.5767 11.1268 12.0575 11.1268H8.75C7.29604 11.032 6.64708 13.3872 8.23083 13.6935L12.6656 14.4328C17.7727 15.3793 16.6731 22.8226 11.6667 22.7935V24.2518C11.6667 25.0568 11.0148 25.7101 10.2083 25.7101V25.7087Z" fill="url(#paint0_linear_481_15552)"/>
<defs>
<linearGradient id="paint0_linear_481_15552" x1="-1.86477e-07" y1="19.5924" x2="35.0026" y2="19.6354" gradientUnits="userSpaceOnUse">
<stop stop-color="#957DF3"/>
<stop offset="1" stop-color="#662D91"/>
</linearGradient>
</defs>
</svg>
