<svg width="33" height="35" viewBox="0 0 33 35" fill="none" xmlns="http://www.w3.org/2000/svg">
<path d="M2.27509 7.75258C2.76942 7.17942 3.35058 6.68733 3.99738 6.29425L12.7474 1.04425C13.8799 0.3623 15.1769 0.00195312 16.4989 0.00195313C17.821 0.00195312 19.118 0.3623 20.2505 1.04425L29.0005 6.29425C29.648 6.68693 30.2297 7.17906 30.7243 7.75258L16.4997 16.2882L2.27509 7.75258ZM17.958 18.8126V34.8382C18.7663 34.6787 19.5415 34.3828 20.2505 33.9632L29.0005 28.7132C30.0781 28.0624 30.9699 27.145 31.5901 26.0495C32.2102 24.954 32.5378 23.7173 32.5413 22.4584V12.5417C32.5362 11.776 32.4091 11.0159 32.1651 10.2901L17.958 18.8126ZM15.0413 18.8126L0.834258 10.2901C0.590205 11.0159 0.4632 11.776 0.458008 12.5417V22.4584C0.461618 23.7169 0.789132 24.9532 1.40902 26.0485C2.02891 27.1437 2.9203 28.0609 3.99738 28.7117L12.7474 33.9618C13.4569 34.3813 14.2326 34.6772 15.0413 34.8368V18.8126Z" fill="url(#paint0_linear_481_15576)"/>
<defs>
<linearGradient id="paint0_linear_481_15576" x1="0.458008" y1="20.2798" x2="32.5424" y2="20.313" gradientUnits="userSpaceOnUse">
<stop stop-color="#957DF3"/>
<stop offset="1" stop-color="#662D91"/>
</linearGradient>
</defs>
</svg>
