<svg width="23" height="31" viewBox="0 0 23 31" fill="none" xmlns="http://www.w3.org/2000/svg">
<path d="M22.4375 0.1875H2.75C2.02488 0.187762 1.32953 0.475932 0.816795 0.98867C0.304057 1.50141 0.0158874 2.19675 0.015625 2.92188V28.0781C0.0158874 28.8032 0.304057 29.4986 0.816795 30.0113C1.32953 30.5241 2.02488 30.8122 2.75 30.8125H22.4375C22.5824 30.8121 22.7213 30.7543 22.8237 30.6518C22.9262 30.5494 22.9839 30.4105 22.9844 30.2656V0.734375C22.9839 0.589468 22.9262 0.450619 22.8237 0.348154C22.7213 0.245689 22.5824 0.187933 22.4375 0.1875ZM7.87969 8.66406C7.88012 8.51916 7.93788 8.38031 8.04034 8.27784C8.14281 8.17538 8.28166 8.11762 8.42656 8.11719H11.2922C12.3075 8.11719 13.2812 8.52051 13.9991 9.23842C14.717 9.95633 15.1203 10.93 15.1203 11.9453C15.1203 12.9606 14.717 13.9343 13.9991 14.6522C13.2812 15.3701 12.3075 15.7734 11.2922 15.7734H8.42656C8.28166 15.773 8.14281 15.7152 8.04034 15.6128C7.93788 15.5103 7.88012 15.3715 7.87969 15.2266V8.66406ZM7.125 17.4141H15.875C16.02 17.4141 16.1591 17.4717 16.2617 17.5742C16.3643 17.6768 16.4219 17.8159 16.4219 17.9609C16.4219 18.106 16.3643 18.2451 16.2617 18.3476C16.1591 18.4502 16.02 18.5078 15.875 18.5078H7.125C6.97996 18.5078 6.84086 18.4502 6.7383 18.3476C6.63574 18.2451 6.57812 18.106 6.57812 17.9609C6.57812 17.8159 6.63574 17.6768 6.7383 17.5742C6.84086 17.4717 6.97996 17.4141 7.125 17.4141ZM21.8906 29.7188H2.75C2.31488 29.7188 1.89758 29.5459 1.5899 29.2382C1.28223 28.9305 1.10938 28.5132 1.10938 28.0781C1.10938 27.643 1.28223 27.2257 1.5899 26.918C1.89758 26.6104 2.31488 26.4375 2.75 26.4375H21.8906V29.7188Z" fill="url(#paint0_linear_481_15388)"/>
<path d="M14.0268 11.9453C14.0256 12.6701 13.7371 13.365 13.2246 13.8775C12.712 14.39 12.0172 14.6785 11.2924 14.6797H8.97363V9.21094H11.2924C12.0172 9.21213 12.712 9.5006 13.2246 10.0131C13.7371 10.5257 14.0256 11.2205 14.0268 11.9453Z" fill="url(#paint1_linear_481_15388)"/>
<defs>
<linearGradient id="paint0_linear_481_15388" x1="0.0156249" y1="18.014" x2="22.9851" y2="18.0334" gradientUnits="userSpaceOnUse">
<stop stop-color="#957DF3"/>
<stop offset="1" stop-color="#662D91"/>
</linearGradient>
<linearGradient id="paint1_linear_481_15388" x1="8.97363" y1="12.3942" x2="14.0269" y2="12.3995" gradientUnits="userSpaceOnUse">
<stop stop-color="#957DF3"/>
<stop offset="1" stop-color="#662D91"/>
</linearGradient>
</defs>
</svg>
