<svg width="35" height="35" viewBox="0 0 35 35" fill="none" xmlns="http://www.w3.org/2000/svg">
<path d="M34.1562 7.60579L23.8613 3.4656C23.5272 3.33087 23.147 3.49168 23.011 3.82533L21.8664 6.67703C20.6995 5.5926 18.8745 5.65956 17.79 6.82648C16.7056 7.9934 16.7726 9.81846 17.9395 10.9029C18.4618 11.3883 19.1455 11.663 19.8584 11.674L18.7138 14.5257C18.5791 14.8599 18.7399 15.24 19.0735 15.376L23.2072 17.0373C23.2842 17.0677 23.3664 17.0833 23.4492 17.0831C23.8104 17.0831 24.1032 16.7902 24.1032 16.429C24.1032 16.2875 24.0574 16.1498 23.9724 16.0366C23.8052 15.6437 23.8052 15.1998 23.9724 14.807C24.3095 14.0204 25.2034 13.6352 26.0065 13.9305C26.8057 14.2759 27.1736 15.2036 26.8283 16.0027C26.6555 16.4027 26.3249 16.7132 25.915 16.8607C25.5715 16.9725 25.3837 17.3417 25.4956 17.6851C25.5558 17.87 25.6951 18.0185 25.8757 18.0903L30.0094 19.7516C30.0864 19.782 30.1686 19.7977 30.2514 19.7974C30.5194 19.7977 30.7605 19.6344 30.8597 19.3854L34.9017 9.3652C35.1802 8.67345 34.8468 7.88687 34.1562 7.60579Z" fill="url(#paint0_linear_481_15442)"/>
<path d="M16.4276 2.89052C16.4266 2.89036 16.4257 2.8902 16.4248 2.88995L5.80941 0.895075C5.07474 0.755679 4.36623 1.23821 4.22683 1.97288C4.22675 1.97337 4.22667 1.97386 4.22659 1.97427L2.15323 12.8709C2.08578 13.2258 2.3187 13.5681 2.67361 13.6355C2.67459 13.6357 2.67549 13.6359 2.67647 13.6361L5.69822 14.2117C5.50936 14.5116 5.37838 14.8445 5.31232 15.1928C5.0135 16.7575 6.03972 18.2682 7.60447 18.5671C7.60569 18.5673 7.60684 18.5675 7.60807 18.5677C7.78703 18.602 7.96878 18.6195 8.15093 18.62C9.52805 18.6071 10.7049 17.6246 10.9634 16.272C11.029 15.924 11.029 15.5669 10.9634 15.2189L13.9851 15.7945C14.34 15.862 14.6824 15.629 14.7498 15.2741C14.75 15.2731 14.7501 15.2722 14.7504 15.2713L15.581 10.8956C15.6637 10.544 15.4456 10.1919 15.0939 10.1093C14.895 10.0625 14.6856 10.1115 14.528 10.2416C13.8539 10.7924 12.8609 10.6926 12.31 10.0185C12.013 9.65511 11.8934 9.17822 11.9837 8.7176C12.1431 7.86177 12.966 7.29715 13.8219 7.4565C14.2809 7.54193 14.6784 7.82661 14.9073 8.2336C15.087 8.54706 15.4866 8.65555 15.8001 8.47593C15.9657 8.38101 16.0816 8.21839 16.1174 8.03084L16.948 3.6552C17.0155 3.30037 16.7825 2.95797 16.4276 2.89052Z" fill="url(#paint1_linear_481_15442)"/>
<path d="M15.6922 25.4812L15.6791 25.5074C15.3347 25.4227 14.9777 25.4028 14.626 25.4485L15.3651 22.466C15.4515 22.1157 15.2379 21.7615 14.8877 21.6746L10.5709 20.6019C10.2197 20.5175 9.86646 20.7337 9.78209 21.085C9.73802 21.2683 9.77522 21.4618 9.88412 21.6157C10.1623 21.9908 10.2583 22.4706 10.1457 22.9238C9.9326 23.7817 9.06434 24.3045 8.20646 24.0913C7.34858 23.8782 6.82583 23.0099 7.03897 22.1521C7.15368 21.7034 7.45977 21.3279 7.87616 21.1252C8.20025 20.9657 8.33368 20.5736 8.17417 20.2495C8.08808 20.0746 7.92849 19.9472 7.73881 19.9021L3.44819 18.8229C3.09787 18.7365 2.74369 18.9501 2.65679 19.3004L0.0405562 29.8176C-0.140372 30.5431 0.301035 31.2779 1.02655 31.4589C1.02712 31.459 1.02761 31.4591 1.0281 31.4593L11.7939 34.1278H11.9509C12.2588 34.1368 12.5311 33.9297 12.6049 33.6308L13.344 30.6483C13.6324 30.8523 13.9562 31.001 14.2989 31.0865C15.8644 31.4003 17.3879 30.3855 17.7016 28.82C17.9953 27.355 17.1242 25.9076 15.6922 25.4812Z" fill="url(#paint2_linear_481_15442)"/>
<defs>
<linearGradient id="paint0_linear_481_15442" x1="17.0186" y1="12.9523" x2="35.0006" y2="12.9745" gradientUnits="userSpaceOnUse">
<stop stop-color="#957DF3"/>
<stop offset="1" stop-color="#662D91"/>
</linearGradient>
<linearGradient id="paint1_linear_481_15442" x1="2.1416" y1="11.2026" x2="16.9601" y2="11.2165" gradientUnits="userSpaceOnUse">
<stop stop-color="#957DF3"/>
<stop offset="1" stop-color="#662D91"/>
</linearGradient>
<linearGradient id="paint2_linear_481_15442" x1="-9.46114e-08" y1="27.7239" x2="17.759" y2="27.7471" gradientUnits="userSpaceOnUse">
<stop stop-color="#957DF3"/>
<stop offset="1" stop-color="#662D91"/>
</linearGradient>
</defs>
</svg>
