<svg width="35" height="34" viewBox="0 0 35 34" fill="none" xmlns="http://www.w3.org/2000/svg">
<path d="M26.25 6.29134C26.25 5.42605 26.5066 4.58019 26.9873 3.86072C27.468 3.14126 28.1513 2.5805 28.9507 2.24937C29.7502 1.91823 30.6298 1.8316 31.4785 2.00041C32.3272 2.16922 33.1067 2.58589 33.7186 3.19775C34.3304 3.8096 34.7471 4.58915 34.9159 5.43782C35.0847 6.28649 34.9981 7.16615 34.667 7.96558C34.3358 8.76501 33.7751 9.44829 33.0556 9.92902C32.3361 10.4098 31.4903 10.6663 30.625 10.6663C29.4647 10.6663 28.3519 10.2054 27.5314 9.38493C26.7109 8.56446 26.25 7.45166 26.25 6.29134ZM5.10415 4.83301H13.2869C13.8605 4.83442 14.4258 4.97119 14.9366 5.23219C15.4475 5.4932 15.8895 5.87107 16.2269 6.33509L5.30832 13.9782C4.83298 14.3108 4.50923 14.8187 4.40832 15.39C4.3074 15.9613 4.43757 16.5493 4.7702 17.0247C5.10282 17.5 5.61065 17.8238 6.18198 17.9247C6.7533 18.0256 7.34131 17.8954 7.81665 17.5628L18.7439 9.91384L23.7285 17.0261C24.0615 17.5015 24.5697 17.8251 25.1413 17.9257C25.7129 18.0264 26.3011 17.8958 26.7764 17.5628C27.2518 17.2298 27.5754 16.7216 27.676 16.15C27.7767 15.5784 27.6461 14.9902 27.3131 14.5149L19.8552 3.86905C19.1142 2.8154 18.1306 1.95545 16.9874 1.36178C15.8442 0.768109 14.575 0.458133 13.2869 0.458008H5.10415C4.52399 0.458008 3.96759 0.688476 3.55736 1.09871C3.14712 1.50895 2.91665 2.06535 2.91665 2.64551C2.91665 3.22567 3.14712 3.78207 3.55736 4.1923C3.96759 4.60254 4.52399 4.83301 5.10415 4.83301ZM1.08936 25.833C2.23446 26.4605 3.53334 26.7524 4.83682 26.675C6.1403 26.5976 7.39552 26.1541 8.45832 25.3955C8.5431 25.33 8.64722 25.2945 8.75436 25.2945C8.86151 25.2945 8.96562 25.33 9.0504 25.3955C10.2485 26.2259 11.6716 26.6709 13.1294 26.6709C14.5871 26.6709 16.0102 26.2259 17.2083 25.3955C17.2931 25.33 17.3972 25.2945 17.5044 25.2945C17.6115 25.2945 17.7156 25.33 17.8004 25.3955C18.9985 26.2259 20.4216 26.6709 21.8794 26.6709C23.3371 26.6709 24.7602 26.2259 25.9583 25.3955C26.0431 25.33 26.1472 25.2945 26.2544 25.2945C26.3615 25.2945 26.4656 25.33 26.5504 25.3955C27.7417 26.2408 29.1643 26.699 30.625 26.708C31.7788 26.7085 32.9122 26.4041 33.9106 25.8257C34.1591 25.6815 34.3767 25.4898 34.5511 25.2614C34.7255 25.0331 34.8532 24.7727 34.927 24.495C35.0007 24.2173 35.019 23.9279 34.9809 23.6431C34.9427 23.3583 34.8489 23.0839 34.7047 22.8354C34.5605 22.5869 34.3687 22.3693 34.1404 22.1949C33.9121 22.0205 33.6516 21.8928 33.374 21.8191C32.8132 21.6701 32.2162 21.7501 31.7144 22.0413C31.3006 22.2554 30.8349 22.3486 30.3706 22.3101C29.9063 22.2717 29.4623 22.1032 29.0894 21.8241C28.2625 21.2363 27.2732 20.9205 26.2587 20.9205C25.2443 20.9205 24.2549 21.2363 23.4281 21.8241C22.9752 22.1403 22.4361 22.3098 21.8837 22.3098C21.3314 22.3098 20.7923 22.1403 20.3394 21.8241C19.5125 21.2363 18.5232 20.9205 17.5087 20.9205C16.4943 20.9205 15.505 21.2363 14.6781 21.8241C14.2252 22.1403 13.6861 22.3098 13.1337 22.3098C12.5814 22.3098 12.0423 22.1403 11.5894 21.8241C10.7625 21.2363 9.77321 20.9205 8.75874 20.9205C7.74426 20.9205 6.75495 21.2363 5.92811 21.8241C5.55428 22.1055 5.10843 22.2754 4.64211 22.3141C4.17578 22.3528 3.70802 22.2587 3.2929 22.0428C2.79029 21.7506 2.19218 21.67 1.63016 21.8188C1.06814 21.9676 0.588237 22.3335 0.296029 22.8361C0.00382098 23.3387 -0.0767566 23.9369 0.0720223 24.4989C0.220801 25.0609 0.586749 25.5408 1.08936 25.833ZM31.7144 29.3403C31.3006 29.5544 30.8349 29.6475 30.3706 29.6091C29.9063 29.5707 29.4623 29.4022 29.0894 29.123C28.2625 28.5352 27.2732 28.2194 26.2587 28.2194C25.2443 28.2194 24.2549 28.5352 23.4281 29.123C22.9752 29.4392 22.4361 29.6088 21.8837 29.6088C21.3314 29.6088 20.7923 29.4392 20.3394 29.123C19.5125 28.5352 18.5232 28.2194 17.5087 28.2194C16.4943 28.2194 15.505 28.5352 14.6781 29.123C14.2252 29.4392 13.6861 29.6088 13.1337 29.6088C12.5814 29.6088 12.0423 29.4392 11.5894 29.123C10.7625 28.5352 9.77321 28.2194 8.75874 28.2194C7.74426 28.2194 6.75495 28.5352 5.92811 29.123C5.55428 29.4044 5.10843 29.5743 4.64211 29.613C4.17578 29.6518 3.70802 29.5577 3.2929 29.3418C3.04451 29.1971 2.77006 29.1027 2.48521 29.0641C2.20036 29.0255 1.91069 29.0434 1.63274 29.1167C1.0714 29.2648 0.591882 29.6298 0.299675 30.1314C0.00746679 30.6331 -0.0734949 31.2303 0.0746002 31.7916C0.222695 32.353 0.587716 32.8325 1.08936 33.1247C2.23456 33.7519 3.53338 34.0435 4.83679 33.9661C6.14019 33.8887 7.39538 33.4455 8.45832 32.6872C8.5431 32.6217 8.64722 32.5861 8.75436 32.5861C8.86151 32.5861 8.96562 32.6217 9.0504 32.6872C10.2485 33.5176 11.6716 33.9626 13.1294 33.9626C14.5871 33.9626 16.0102 33.5176 17.2083 32.6872C17.2931 32.6217 17.3972 32.5861 17.5044 32.5861C17.6115 32.5861 17.7156 32.6217 17.8004 32.6872C18.9985 33.5176 20.4216 33.9626 21.8794 33.9626C23.3371 33.9626 24.7602 33.5176 25.9583 32.6872C26.0431 32.6217 26.1472 32.5861 26.2544 32.5861C26.3615 32.5861 26.4656 32.6217 26.5504 32.6872C27.7417 33.5325 29.1643 33.9907 30.625 33.9997C31.7788 34.0001 32.9122 33.6958 33.9106 33.1174C34.1591 32.9732 34.3767 32.7814 34.5511 32.5531C34.7255 32.3248 34.8532 32.0644 34.927 31.7867C35.0007 31.509 35.019 31.2195 34.9809 30.9348C34.9427 30.65 34.8489 30.3756 34.7047 30.1271C34.5605 29.8786 34.3687 29.6609 34.1404 29.4866C33.9121 29.3122 33.6516 29.1845 33.374 29.1107C32.8132 28.9618 32.2162 29.0418 31.7144 29.333V29.3403Z" fill="url(#paint0_linear_481_15512)"/>
<defs>
<linearGradient id="paint0_linear_481_15512" x1="-0.000976749" y1="19.9823" x2="35.0014" y2="20.0234" gradientUnits="userSpaceOnUse">
<stop stop-color="#957DF3"/>
<stop offset="1" stop-color="#662D91"/>
</linearGradient>
</defs>
</svg>
