<svg width="35" height="35" viewBox="0 0 35 35" fill="none" xmlns="http://www.w3.org/2000/svg">
<path d="M10.3906 14.1504H11.5527V15.3125C11.5527 15.8788 12.0118 16.3379 12.5781 16.3379C13.1444 16.3379 13.6035 15.8788 13.6035 15.3125V14.1504H14.7656C15.3319 14.1504 15.791 13.6913 15.791 13.125C15.791 12.5587 15.3319 12.0996 14.7656 12.0996H13.6035V10.9375C13.6035 10.3712 13.1444 9.91211 12.5781 9.91211C12.0118 9.91211 11.5527 10.3712 11.5527 10.9375V12.0996H10.3906C9.82434 12.0996 9.36523 12.5587 9.36523 13.125C9.36523 13.6913 9.82434 14.1504 10.3906 14.1504Z" fill="url(#paint0_linear_481_15411)"/>
<path d="M22.2438 16.0376C22.6441 16.4381 23.2934 16.4381 23.6939 16.0376L24.8828 14.8486L26.0719 16.0376C26.4723 16.4381 27.1215 16.4381 27.522 16.0376C27.9224 15.6372 27.9224 14.988 27.522 14.5875L26.333 13.3985L27.522 12.2094C27.9224 11.809 27.9224 11.1598 27.522 10.7593C27.1216 10.3589 26.4723 10.3589 26.0719 10.7593L24.8828 11.9484L23.6938 10.7593C23.2934 10.3589 22.6441 10.3589 22.2437 10.7593C21.8432 11.1598 21.8432 11.809 22.2437 12.2094L23.4327 13.3985L22.2437 14.5875C21.8432 14.988 21.8432 15.6372 22.2438 16.0376Z" fill="url(#paint1_linear_481_15411)"/>
<path d="M6.25628 10.4126C6.57135 10.8853 7.20839 11.0102 7.67823 10.6971C8.14943 10.3829 8.27678 9.74625 7.96267 9.27512L5.77517 5.99387C5.46099 5.5226 4.82436 5.39532 4.35323 5.70943C3.88203 6.02361 3.75467 6.66024 4.06878 7.13137L6.25628 10.4126Z" fill="url(#paint2_linear_481_15411)"/>
<path d="M14.5874 6.74068C14.9878 7.14113 15.6371 7.1412 16.0376 6.74068L20.4809 2.29732C20.8814 1.89687 20.8814 1.24766 20.4809 0.847212C20.0805 0.446763 19.4313 0.446763 19.0308 0.847212L14.5874 5.29057C14.187 5.69102 14.187 6.34023 14.5874 6.74068Z" fill="url(#paint3_linear_481_15411)"/>
<path d="M14.7669 2.59766C15.3332 2.59766 15.7923 2.13855 15.7923 1.57227C15.7923 1.00598 15.3332 0.546875 14.7669 0.546875C14.1942 0.546875 13.7412 1.01151 13.7412 1.57227C13.7412 2.13855 14.2007 2.59766 14.7669 2.59766Z" fill="url(#paint4_linear_481_15411)"/>
<path d="M20.235 5.53711C19.6687 5.53711 19.21 5.99621 19.21 6.5625C19.21 7.12879 19.6694 7.58789 20.2357 7.58789C20.802 7.58789 21.2611 7.12879 21.2611 6.5625C21.2611 6.00086 20.8068 5.53711 20.235 5.53711Z" fill="url(#paint5_linear_481_15411)"/>
<path d="M3.82454 17.7887L3.91641 18.248C4.01389 18.7354 4.44196 19.0724 4.92075 19.0724C5.57098 19.0724 6.0538 18.4781 5.92734 17.8457L5.83546 17.3865C5.49797 15.6989 4.67629 14.1637 3.45943 12.9468C3.05905 12.5464 2.40977 12.5464 2.00932 12.9468C1.60887 13.3473 1.60887 13.9965 2.00932 14.3969C2.93894 15.3266 3.56662 16.4995 3.82454 17.7887Z" fill="url(#paint6_linear_481_15411)"/>
<path d="M29.0729 17.8458C28.9465 18.4783 29.4296 19.0725 30.0795 19.0725C30.5583 19.0725 30.9865 18.7354 31.0839 18.248L31.1758 17.7887C31.4336 16.4995 32.0613 15.3267 32.991 14.3969C33.3915 13.9965 33.3915 13.3473 32.991 12.9468C32.5906 12.5464 31.9414 12.5464 31.5409 12.9468C30.3239 14.1638 29.5024 15.699 29.1648 17.3865L29.0729 17.8458Z" fill="url(#paint7_linear_481_15411)"/>
<path d="M28.0688 7.83443L29.1626 6.74068C29.563 6.34023 29.563 5.69102 29.1626 5.29057C28.7622 4.89012 28.1129 4.89012 27.7124 5.29057L26.6187 6.38432C26.2182 6.78477 26.2182 7.43398 26.6187 7.83443C27.0191 8.23481 27.6684 8.23488 28.0688 7.83443Z" fill="url(#paint8_linear_481_15411)"/>
<path d="M2.1875 23.9255V25.8395H13.5393C14.9577 25.8395 16.3174 26.223 17.5 26.9408C18.6826 26.223 20.0423 25.8395 21.4607 25.8395H32.8125V23.9255C32.8125 22.7928 31.8944 21.8747 30.7617 21.8747C29.4485 21.8747 28.1395 21.7687 26.8481 21.5596C24.9726 21.2549 23.7224 20.8496 22.4547 20.4275C20.0151 19.6114 17.5 21.4366 17.5 23.9979C17.5 21.4416 14.9901 19.6097 12.5453 20.4275C11.1228 20.9011 9.95955 21.266 8.15186 21.5596C6.86055 21.7687 5.55146 21.8747 4.23828 21.8747C3.10557 21.8747 2.1875 22.7928 2.1875 23.9255Z" fill="url(#paint9_linear_481_15411)"/>
<path d="M33.9746 27.8906H21.4608C19.9752 27.8906 18.5505 28.4808 17.5 29.5312C16.4495 28.4808 15.0248 27.8906 13.5392 27.8906H1.02539C0.459102 27.8906 0 28.3497 0 28.916V30.625C0 31.1913 0.459102 31.6504 1.02539 31.6504H14.0975C14.4856 31.6504 14.8193 31.9253 14.8936 32.3061C15.1369 33.5532 16.2295 34.4531 17.5 34.4531C18.7705 34.4531 19.8631 33.5532 20.1064 32.3061C20.1807 31.9253 20.5144 31.6504 20.9025 31.6504H33.9746C34.5409 31.6504 35 31.1913 35 30.625V28.916C35 28.3497 34.5409 27.8906 33.9746 27.8906Z" fill="url(#paint10_linear_481_15411)"/>
<defs>
<linearGradient id="paint0_linear_481_15411" x1="9.36523" y1="13.6525" x2="15.7912" y2="13.6597" gradientUnits="userSpaceOnUse">
<stop stop-color="#957DF3"/>
<stop offset="1" stop-color="#662D91"/>
</linearGradient>
<linearGradient id="paint1_linear_481_15411" x1="21.9434" y1="13.8811" x2="27.8225" y2="13.8877" gradientUnits="userSpaceOnUse">
<stop stop-color="#957DF3"/>
<stop offset="1" stop-color="#662D91"/>
</linearGradient>
<linearGradient id="paint2_linear_481_15411" x1="3.89648" y1="8.64093" x2="8.13511" y2="8.64472" gradientUnits="userSpaceOnUse">
<stop stop-color="#957DF3"/>
<stop offset="1" stop-color="#662D91"/>
</linearGradient>
<linearGradient id="paint3_linear_481_15411" x1="14.2871" y1="4.32706" x2="20.7815" y2="4.33437" gradientUnits="userSpaceOnUse">
<stop stop-color="#957DF3"/>
<stop offset="1" stop-color="#662D91"/>
</linearGradient>
<linearGradient id="paint4_linear_481_15411" x1="13.7412" y1="1.74061" x2="15.7924" y2="1.74292" gradientUnits="userSpaceOnUse">
<stop stop-color="#957DF3"/>
<stop offset="1" stop-color="#662D91"/>
</linearGradient>
<linearGradient id="paint5_linear_481_15411" x1="19.21" y1="6.73085" x2="21.2611" y2="6.73316" gradientUnits="userSpaceOnUse">
<stop stop-color="#957DF3"/>
<stop offset="1" stop-color="#662D91"/>
</linearGradient>
<linearGradient id="paint6_linear_481_15411" x1="1.70898" y1="16.387" x2="5.94769" y2="16.3901" gradientUnits="userSpaceOnUse">
<stop stop-color="#957DF3"/>
<stop offset="1" stop-color="#662D91"/>
</linearGradient>
<linearGradient id="paint7_linear_481_15411" x1="29.0527" y1="16.387" x2="33.2915" y2="16.3902" gradientUnits="userSpaceOnUse">
<stop stop-color="#957DF3"/>
<stop offset="1" stop-color="#662D91"/>
</linearGradient>
<linearGradient id="paint8_linear_481_15411" x1="26.3184" y1="6.82062" x2="29.463" y2="6.82416" gradientUnits="userSpaceOnUse">
<stop stop-color="#957DF3"/>
<stop offset="1" stop-color="#662D91"/>
</linearGradient>
<linearGradient id="paint9_linear_481_15411" x1="2.1875" y1="24.1365" x2="32.8127" y2="24.2938" gradientUnits="userSpaceOnUse">
<stop stop-color="#957DF3"/>
<stop offset="1" stop-color="#662D91"/>
</linearGradient>
<linearGradient id="paint10_linear_481_15411" x1="-1.86469e-07" y1="31.7106" x2="34.9999" y2="31.9207" gradientUnits="userSpaceOnUse">
<stop stop-color="#957DF3"/>
<stop offset="1" stop-color="#662D91"/>
</linearGradient>
</defs>
</svg>
