<svg width="35" height="33" viewBox="0 0 35 33" fill="none" xmlns="http://www.w3.org/2000/svg">
<path d="M33.4279 1.47875C32.9239 1.06089 32.3329 0.760792 31.6982 0.600335C31.0634 0.439878 30.4008 0.42311 29.7588 0.551255L23.7475 2.00959C22.4034 2.25413 21.1878 2.96264 20.3126 4.01161C19.4374 5.06058 18.9581 6.38345 18.9583 7.74959V29.3329L17.5 29.5969L16.0417 29.3329V7.74959C16.047 6.39698 15.5796 5.085 14.7204 4.04039C13.8611 2.99578 12.6639 2.28417 11.3356 2.02855L5.15667 0.52938C4.52633 0.414918 3.87855 0.440286 3.25909 0.603692C2.63964 0.767099 2.06363 1.06455 1.57176 1.47504C1.0799 1.88553 0.684195 2.39903 0.412601 2.97926C0.141007 3.55948 0.00015567 4.19228 0 4.83292L0 29.3825L17.5 32.566L35 29.3825V4.83292C35.0001 4.19274 34.8593 3.5604 34.5876 2.98073C34.3159 2.40106 33.92 1.88828 33.4279 1.47875Z" fill="url(#paint0_linear_481_15583)"/>
<defs>
<linearGradient id="paint0_linear_481_15583" x1="-1.86469e-07" y1="19.1482" x2="35.0011" y2="19.1911" gradientUnits="userSpaceOnUse">
<stop stop-color="#957DF3"/>
<stop offset="1" stop-color="#662D91"/>
</linearGradient>
</defs>
</svg>
