<svg width="27" height="31" viewBox="0 0 27 31" fill="none" xmlns="http://www.w3.org/2000/svg">
<path d="M18.9688 19.2568C18.6571 19.2574 18.3493 19.3251 18.0662 19.4554C17.7831 19.5856 17.5313 19.7753 17.3281 20.0115C17.1253 19.7748 16.8736 19.5848 16.5904 19.4546C16.3072 19.3243 15.9992 19.2568 15.6875 19.2568C15.3758 19.2568 15.0678 19.3243 14.7846 19.4546C14.5014 19.5848 14.2497 19.7748 14.0469 20.0115C13.7874 19.7102 13.4502 19.4859 13.0719 19.363C12.6937 19.2402 12.289 19.2236 11.902 19.315C11.515 19.4064 11.1605 19.6023 10.8771 19.8813C10.5938 20.1604 10.3926 20.5119 10.2953 20.8975H4.75V21.9912H10.2953C10.3974 22.3732 10.6012 22.7204 10.8848 22.9958C11.1685 23.2713 11.5215 23.4647 11.9063 23.5556C12.2911 23.6464 12.6933 23.6313 13.0703 23.5119C13.4472 23.3924 13.7847 23.173 14.0469 22.8771C14.252 23.1101 14.5044 23.2968 14.7873 23.4247C15.0702 23.5526 15.377 23.6187 15.6875 23.6187C15.998 23.6187 16.3048 23.5526 16.5877 23.4247C16.8706 23.2968 17.123 23.1101 17.3281 22.8771C17.5904 23.173 17.9279 23.3923 18.3048 23.5117C18.6817 23.6312 19.0839 23.6463 19.4687 23.5554C19.8535 23.4645 20.2065 23.2711 20.4901 22.9957C20.7738 22.7202 20.9775 22.3731 21.0797 21.9911L22.25 21.9912V20.8975H21.0797C20.9588 20.4291 20.686 20.014 20.304 19.7171C19.9221 19.4203 19.4525 19.2584 18.9688 19.2568Z" fill="url(#paint0_linear_481_15429)"/>
<path d="M24.9844 0.1875C24.5496 0.188768 24.1331 0.362026 23.8257 0.669429C23.5183 0.976831 23.345 1.39339 23.3438 1.82812V29.1719C23.3437 29.607 23.5166 30.0243 23.8243 30.332C24.132 30.6396 24.5493 30.8125 24.9844 30.8125C25.4195 30.8125 25.8368 30.6396 26.1445 30.332C26.4521 30.0243 26.625 29.607 26.625 29.1719V1.82812C26.6237 1.39339 26.4505 0.976831 26.1431 0.669429C25.8357 0.362026 25.4191 0.188768 24.9844 0.1875Z" fill="url(#paint1_linear_481_15429)"/>
<path d="M14.5938 1.42384C14.2821 1.42442 13.9743 1.49212 13.6912 1.62235C13.4081 1.75258 13.1563 1.94228 12.9531 2.17853C12.7503 1.94183 12.4986 1.75183 12.2154 1.62156C11.9322 1.49129 11.6242 1.42384 11.3125 1.42384C11.0008 1.42384 10.6928 1.49129 10.4096 1.62156C10.1264 1.75183 9.87471 1.94183 9.67188 2.17853C9.4124 1.87718 9.07516 1.65285 8.69693 1.53002C8.31871 1.40719 7.91402 1.39057 7.52699 1.48196C7.13997 1.57336 6.78546 1.76927 6.50215 2.04833C6.21883 2.32738 6.01757 2.67887 5.92031 3.06447H4.75V4.15822H5.92031C6.01757 4.54381 6.21883 4.8953 6.50215 5.17436C6.78546 5.45341 7.13997 5.64932 7.52699 5.74072C7.91402 5.83212 8.31871 5.81549 8.69693 5.69266C9.07516 5.56983 9.4124 5.34551 9.67188 5.04415C9.87471 5.28085 10.1264 5.47086 10.4096 5.60113C10.6928 5.7314 11.0008 5.79885 11.3125 5.79885C11.6242 5.79885 11.9322 5.7314 12.2154 5.60113C12.4986 5.47086 12.7503 5.28085 12.9531 5.04415C13.2126 5.34551 13.5498 5.56983 13.9281 5.69266C14.3063 5.81549 14.711 5.83212 15.098 5.74072C15.485 5.64932 15.8395 5.45341 16.1229 5.17436C16.4062 4.8953 16.6074 4.54381 16.7047 4.15822H22.25V3.06447H16.7047C16.5838 2.59607 16.311 2.18097 15.929 1.88412C15.5471 1.58726 15.0775 1.42539 14.5938 1.42384Z" fill="url(#paint2_linear_481_15429)"/>
<path d="M4.75 26.8418H22.25V27.9355H4.75V26.8418Z" fill="url(#paint3_linear_481_15429)"/>
<path d="M2.01562 0.1875C1.58089 0.188768 1.16433 0.362026 0.856929 0.669429C0.549527 0.976831 0.376268 1.39339 0.375 1.82812V29.1719C0.375 29.607 0.547851 30.0243 0.855528 30.332C1.1632 30.6396 1.5805 30.8125 2.01562 30.8125C2.45075 30.8125 2.86805 30.6396 3.17572 30.332C3.4834 30.0243 3.65625 29.607 3.65625 29.1719V1.82812C3.65498 1.39339 3.48172 0.976831 3.17432 0.669429C2.86692 0.362026 2.45036 0.188768 2.01562 0.1875Z" fill="url(#paint4_linear_481_15429)"/>
<path d="M17.3281 7.36818C17.0165 7.36875 16.7087 7.43646 16.4255 7.56669C16.1424 7.69692 15.8907 7.88661 15.6875 8.12287C15.4847 7.88617 15.233 7.69616 14.9498 7.56589C14.6666 7.43562 14.3586 7.36817 14.0469 7.36817C13.7352 7.36817 13.4271 7.43562 13.1439 7.56589C12.8607 7.69616 12.6091 7.88617 12.4062 8.12287C12.1468 7.82151 11.8095 7.59719 11.4313 7.47436C11.0531 7.35153 10.6484 7.3349 10.2614 7.4263C9.87434 7.5177 9.51984 7.71361 9.23652 7.99266C8.9532 8.27172 8.75194 8.62321 8.65469 9.0088H4.75V10.1026H8.65469C8.75194 10.4881 8.9532 10.8396 9.23652 11.1187C9.51984 11.3977 9.87434 11.5937 10.2614 11.6851C10.6484 11.7765 11.0531 11.7598 11.4313 11.637C11.8095 11.5142 12.1468 11.2898 12.4062 10.9885C12.6091 11.2252 12.8607 11.4152 13.1439 11.5455C13.4271 11.6757 13.7352 11.7432 14.0469 11.7432C14.3586 11.7432 14.6666 11.6757 14.9498 11.5455C15.233 11.4152 15.4847 11.2252 15.6875 10.9885C15.947 11.2898 16.2842 11.5142 16.6624 11.637C17.0407 11.7598 17.4454 11.7765 17.8324 11.6851C18.2194 11.5937 18.5739 11.3977 18.8572 11.1187C19.1405 10.8396 19.3418 10.4881 19.4391 10.1026H22.25V9.0088H19.4391C19.3181 8.54041 19.0454 8.12531 18.6634 7.82845C18.2815 7.5316 17.8119 7.36973 17.3281 7.36818Z" fill="url(#paint5_linear_481_15429)"/>
<path d="M4.75 14.9531H22.25V16.0469H4.75V14.9531Z" fill="url(#paint6_linear_481_15429)"/>
<defs>
<linearGradient id="paint0_linear_481_15429" x1="4.75" y1="21.7959" x2="22.2502" y2="21.8749" gradientUnits="userSpaceOnUse">
<stop stop-color="#957DF3"/>
<stop offset="1" stop-color="#662D91"/>
</linearGradient>
<linearGradient id="paint1_linear_481_15429" x1="23.3437" y1="18.014" x2="26.6251" y2="18.0144" gradientUnits="userSpaceOnUse">
<stop stop-color="#957DF3"/>
<stop offset="1" stop-color="#662D91"/>
</linearGradient>
<linearGradient id="paint2_linear_481_15429" x1="4.75" y1="3.97049" x2="22.2502" y2="4.04929" gradientUnits="userSpaceOnUse">
<stop stop-color="#957DF3"/>
<stop offset="1" stop-color="#662D91"/>
</linearGradient>
<linearGradient id="paint3_linear_481_15429" x1="4.75" y1="27.4785" x2="22.2449" y2="27.7936" gradientUnits="userSpaceOnUse">
<stop stop-color="#957DF3"/>
<stop offset="1" stop-color="#662D91"/>
</linearGradient>
<linearGradient id="paint4_linear_481_15429" x1="0.375" y1="18.014" x2="3.65636" y2="18.0144" gradientUnits="userSpaceOnUse">
<stop stop-color="#957DF3"/>
<stop offset="1" stop-color="#662D91"/>
</linearGradient>
<linearGradient id="paint5_linear_481_15429" x1="4.75" y1="9.91482" x2="22.2502" y2="9.99363" gradientUnits="userSpaceOnUse">
<stop stop-color="#957DF3"/>
<stop offset="1" stop-color="#662D91"/>
</linearGradient>
<linearGradient id="paint6_linear_481_15429" x1="4.75" y1="15.5898" x2="22.2449" y2="15.9049" gradientUnits="userSpaceOnUse">
<stop stop-color="#957DF3"/>
<stop offset="1" stop-color="#662D91"/>
</linearGradient>
</defs>
</svg>
