<svg width="35" height="35" viewBox="0 0 35 35" fill="none" xmlns="http://www.w3.org/2000/svg">
<g clip-path="url(#clip0_481_15456)">
<path d="M10.2259 8.16698L10.502 8.99555L11.0158 9.12401V8.34001C11.0158 8.26208 11.0324 8.18506 11.0646 8.1141C11.0968 8.04313 11.1438 7.97987 11.2024 7.92854L14.0321 5.45251L14.3664 3.80505C14.3912 3.68307 14.4568 3.57319 14.5525 3.49352C14.6481 3.41386 14.768 3.36917 14.8925 3.36684L15.6781 3.35251C15.7143 3.3519 15.7492 3.33939 15.7776 3.31693C15.8059 3.29447 15.8261 3.2633 15.835 3.22824C15.8438 3.19317 15.8409 3.15616 15.8266 3.12293C15.8124 3.08969 15.7876 3.06207 15.756 3.04434L12.5235 1.20996C9.9611 2.52556 8.01815 4.79516 7.11328 7.5297L9.76163 7.79581C9.86656 7.80633 9.96621 7.84697 10.0486 7.91282C10.1309 7.97867 10.1925 8.06694 10.2259 8.16698Z" fill="url(#paint0_linear_481_15456)"/>
<path d="M12.6065 17.4402C12.5804 17.4694 12.5614 17.5041 12.551 17.5418C12.5406 17.5794 12.539 17.619 12.5463 17.6574L13.1517 20.7745L14.0212 18.5334C14.065 18.4202 14.1453 18.3248 14.2495 18.2624L15.8397 17.3082V16.7092C15.8394 16.4266 15.9282 16.1511 16.0935 15.9218C16.2587 15.6926 16.4921 15.5213 16.7603 15.4323L17.1347 15.3073L17.9994 13.8664C18.038 13.8021 18.0605 13.7294 18.0651 13.6545C18.0698 13.5796 18.0563 13.5047 18.026 13.4361C17.9956 13.3675 17.9492 13.3072 17.8907 13.2603C17.8322 13.2133 17.7632 13.1812 17.6896 13.1664L16.6506 12.9586C16.5614 12.9408 16.478 12.9011 16.4081 12.8429C16.3381 12.7848 16.2838 12.7101 16.25 12.6256L15.7086 11.2726C15.69 11.2257 15.6577 11.1855 15.6159 11.1572C15.5742 11.1289 15.5249 11.1139 15.4744 11.114H13.0466C12.9246 11.114 12.8061 11.0732 12.71 10.9981C12.6139 10.923 12.5456 10.8179 12.5161 10.6996L12.4299 10.354C12.4203 10.314 12.4009 10.277 12.3734 10.2464C12.3459 10.2158 12.3111 10.1927 12.2723 10.179C12.2338 10.1638 12.1921 10.1588 12.1511 10.1643C12.1101 10.1698 12.0712 10.1857 12.0381 10.2105L10.625 11.2199V11.8205L11.593 14.1861L12.2563 14.3519C12.5214 14.4182 12.7649 14.552 12.963 14.7402C13.1612 14.9284 13.3072 15.1647 13.387 15.4261C13.4669 15.6875 13.4777 15.965 13.4185 16.2318C13.3593 16.4987 13.2321 16.7456 13.0492 16.9487L12.6065 17.4402Z" fill="url(#paint1_linear_481_15456)"/>
<path d="M24.73 7.73934L21.7615 6.62607C21.6884 6.5986 21.6221 6.5558 21.5669 6.50056L20.8681 5.80177C20.7071 5.65319 20.499 5.56608 20.2802 5.55573C20.0614 5.54538 19.846 5.61245 19.6718 5.74516L18.5791 6.61891C18.5441 6.64705 18.5171 6.68402 18.5011 6.72602C18.485 6.76802 18.4804 6.81354 18.4878 6.85789L18.7428 8.38794L20.4782 9.54469C20.5074 9.56419 20.5403 9.57736 20.5749 9.58334C20.6095 9.58932 20.645 9.58798 20.679 9.57941L21.2614 9.43389C21.5357 9.36487 21.8247 9.38419 22.0874 9.4891C22.3501 9.59402 22.5729 9.77917 22.7242 10.0182L24.2706 12.4518C24.3261 12.5395 24.3557 12.6411 24.3557 12.7449V16.0864C24.3558 16.2286 24.4057 16.3663 24.4967 16.4757L25.801 18.0408C27.1253 16.5011 27.9932 14.6221 28.3069 12.6156C28.6206 10.6091 28.3677 8.55481 27.5767 6.68431L25.1376 7.72966C25.0082 7.78567 24.862 7.78914 24.73 7.73934Z" fill="url(#paint2_linear_481_15456)"/>
<path d="M23.6559 17.1751C23.4014 16.8692 23.2618 16.4838 23.2615 16.0859V12.9037L21.8004 10.6039C21.7718 10.5594 21.73 10.5249 21.6808 10.5053C21.6316 10.4857 21.5775 10.4819 21.5261 10.4946L20.9443 10.6401C20.7623 10.6857 20.5728 10.6928 20.388 10.6607C20.2032 10.6287 20.0271 10.5584 19.8711 10.4542L17.9386 9.16604C17.8764 9.12457 17.8233 9.07078 17.7827 9.00801C17.7421 8.94523 17.7148 8.87479 17.7025 8.80106L17.4085 7.03706C17.3693 6.80081 17.3937 6.55837 17.4793 6.33469C17.5648 6.111 17.7084 5.91415 17.8953 5.76437L18.988 4.89068C19.3755 4.59747 19.8541 4.45046 20.3395 4.47557C20.8248 4.50067 21.2857 4.69626 21.6409 5.02789L22.2559 5.64291L24.9082 6.63756L27.0975 5.69918C25.8521 3.40078 23.8211 1.62736 21.3759 0.703078C18.9306 -0.2212 16.2344 -0.234588 13.78 0.665361L16.2961 2.09325C16.536 2.22948 16.7244 2.44073 16.8325 2.69452C16.9406 2.94831 16.9623 3.23059 16.8943 3.49793C16.8263 3.76527 16.6724 4.00287 16.4562 4.17419C16.24 4.34551 15.9735 4.44105 15.6977 4.44613L15.3508 4.45225L15.067 5.85067C15.0432 5.96813 14.9814 6.07452 14.8913 6.15347L12.1094 8.58772V9.07892C12.4098 9.05629 12.7089 9.13731 12.9568 9.30848C13.2047 9.47964 13.3865 9.73061 13.4717 10.0195H15.4745C15.7437 10.0187 16.0069 10.099 16.2298 10.2499C16.4527 10.4009 16.625 10.6155 16.7241 10.8658L17.1553 11.9438L17.9041 12.0936C18.1496 12.1427 18.3797 12.2501 18.575 12.4067C18.7703 12.5633 18.9251 12.7646 19.0264 12.9936C19.1277 13.2225 19.1724 13.4725 19.1569 13.7223C19.1414 13.9722 19.066 14.2147 18.9372 14.4293L17.9687 16.0432C17.9016 16.1551 17.7967 16.2394 17.6728 16.2806L17.1062 16.4697C17.0559 16.4863 17.0121 16.5183 16.9811 16.5613C16.9501 16.6043 16.9334 16.6559 16.9335 16.7089V17.6174C16.9335 17.7118 16.909 17.8046 16.8625 17.8868C16.816 17.969 16.749 18.0377 16.668 18.0863L14.9727 19.1031L14.1086 21.3304C15.9854 21.9481 17.9951 22.0425 19.9215 21.6034C21.848 21.1644 23.6183 20.2086 25.0421 18.8388L23.6559 17.1751Z" fill="url(#paint3_linear_481_15456)"/>
<path d="M11.9551 20.3491L11.4729 17.8653C11.4337 17.6608 11.4423 17.45 11.4979 17.2493C11.5535 17.0486 11.6547 16.8635 11.7936 16.7083L12.2361 16.2161C12.2927 16.1533 12.3322 16.0768 12.3505 15.9942C12.3689 15.9116 12.3656 15.8256 12.3409 15.7447C12.3162 15.6638 12.2709 15.5906 12.2096 15.5323C12.1482 15.4741 12.0728 15.4327 11.9907 15.4122L11.0588 15.1791C10.9755 15.1583 10.8982 15.1181 10.8334 15.0619C10.7685 15.0057 10.7177 14.935 10.6852 14.8555L9.57192 12.1343C9.54516 12.0686 9.53138 11.9984 9.53134 11.9274V10.9378C9.53131 10.8507 9.5521 10.7649 9.59195 10.6875C9.63181 10.6102 9.6896 10.5434 9.76048 10.4929L10.336 10.0816L9.94533 9.98397C9.85611 9.96161 9.77397 9.91713 9.70649 9.85464C9.63901 9.79214 9.58837 9.71366 9.55923 9.62642L9.30012 8.84871L6.82032 8.59961C6.32163 10.8494 6.55017 13.1995 7.473 15.3111C8.39583 17.4227 9.96528 19.1867 11.9551 20.3489V20.3491Z" fill="url(#paint4_linear_481_15456)"/>
<path d="M7.10938 20.1296V16.9533C7.10912 16.6194 7.03257 16.29 6.88558 15.9902C6.73859 15.6904 6.52504 15.4282 6.26124 15.2236C5.99743 15.0189 5.69036 14.8773 5.36345 14.8094C5.03655 14.7415 4.69846 14.7493 4.375 14.832V19.9994C4.80002 19.772 5.27871 19.664 5.76018 19.687C6.24165 19.7099 6.70791 19.8629 7.10938 20.1297V20.1296Z" fill="url(#paint5_linear_481_15456)"/>
<path d="M10.8 24.8281L10.1454 24.663L6.77666 21.2594C6.62673 21.1063 6.44803 20.9844 6.25082 20.9006C6.0536 20.8168 5.84177 20.7729 5.62751 20.7712C5.41324 20.7696 5.20076 20.8103 5.00229 20.8911C4.80382 20.9718 4.62328 21.091 4.47103 21.2418C4.31879 21.3926 4.19785 21.572 4.11518 21.7697C4.0325 21.9674 3.98972 22.1794 3.98928 22.3937C3.98885 22.608 4.03078 22.8202 4.11266 23.0182C4.19454 23.2162 4.31475 23.3961 4.46638 23.5475L8.45917 27.5763C8.56129 27.6794 8.61829 27.8188 8.61763 27.9638C8.61697 28.1089 8.55872 28.2478 8.45567 28.3499C8.35263 28.452 8.21324 28.509 8.06817 28.5083C7.9231 28.5077 7.78423 28.4494 7.68212 28.3464L3.68993 24.3173C3.26648 23.8941 2.99633 23.3418 2.92231 22.7477C2.84828 22.1537 2.9746 21.5519 3.28125 21.0378V15.3125C3.28125 14.7323 3.05078 14.1759 2.64055 13.7657C2.23031 13.3555 1.67391 13.125 1.09375 13.125C0.803669 13.125 0.52547 13.2402 0.320352 13.4454C0.115234 13.6505 0 13.9287 0 14.2188L0 23.4398C7.99082e-06 24.602 0.411289 25.7267 1.16102 26.6148L6.5625 33.0125V34.4531C6.5625 34.5982 6.62012 34.7373 6.72268 34.8398C6.82523 34.9424 6.96433 35 7.10938 35H13.6719C13.8169 35 13.956 34.9424 14.0586 34.8398C14.1611 34.7373 14.2188 34.5982 14.2188 34.4531V29.217C14.2188 28.2092 13.8826 27.2303 13.2633 26.4353C12.644 25.6403 11.7771 25.0747 10.8 24.8281Z" fill="url(#paint6_linear_481_15456)"/>
<path d="M27.8906 20.1296C28.2921 19.8629 28.7583 19.7099 29.2398 19.6869C29.7213 19.664 30.2 19.7719 30.625 19.9993V14.832C30.3015 14.7493 29.9635 14.7415 29.6365 14.8094C29.3096 14.8773 29.0026 15.0189 28.7388 15.2236C28.475 15.4282 28.2614 15.6904 28.1144 15.9902C27.9674 16.29 27.8909 16.6194 27.8906 16.9533V20.1296Z" fill="url(#paint7_linear_481_15456)"/>
<path d="M33.9062 13.125C33.3261 13.125 32.7697 13.3555 32.3595 13.7657C31.9492 14.1759 31.7188 14.7323 31.7188 15.3125V21.0378C32.0255 21.5519 32.1519 22.1537 32.078 22.7478C32.004 23.3419 31.7339 23.8943 31.3105 24.3175L27.3183 28.3466C27.2161 28.4497 27.0773 28.5079 26.9322 28.5086C26.7871 28.5092 26.6478 28.4522 26.5447 28.3501C26.4417 28.248 26.3834 28.1091 26.3828 27.9641C26.3821 27.819 26.4391 27.6796 26.5412 27.5766L30.534 23.5477C30.6856 23.3963 30.8058 23.2165 30.8877 23.0184C30.9696 22.8204 31.0115 22.6082 31.0111 22.3939C31.0107 22.1796 30.9679 21.9676 30.8852 21.7699C30.8025 21.5722 30.6816 21.3928 30.5294 21.242C30.3771 21.0913 30.1966 20.9721 29.9981 20.8913C29.7996 20.8105 29.5871 20.7698 29.3729 20.7714C29.1586 20.7731 28.9468 20.8171 28.7496 20.9008C28.5524 20.9846 28.3736 21.1066 28.2237 21.2597L24.855 24.6632L24.2004 24.8283C23.2233 25.0748 22.3563 25.6403 21.7369 26.4353C21.1176 27.2303 20.7812 28.2092 20.7813 29.217V34.4531C20.7813 34.5982 20.8389 34.7373 20.9414 34.8398C21.044 34.9424 21.1831 35 21.3281 35H27.8906C28.0357 35 28.1748 34.9424 28.2773 34.8398C28.3799 34.7373 28.4375 34.5982 28.4375 34.4531V33.0125L33.839 26.6148C34.5887 25.7267 35 24.602 35 23.4398V14.2188C35 13.9287 34.8848 13.6505 34.6796 13.4454C34.4745 13.2402 34.1963 13.125 33.9062 13.125Z" fill="url(#paint8_linear_481_15456)"/>
</g>
<defs>
<linearGradient id="paint0_linear_481_15456" x1="7.11328" y1="5.81664" x2="15.8403" y2="5.82748" gradientUnits="userSpaceOnUse">
<stop stop-color="#957DF3"/>
<stop offset="1" stop-color="#662D91"/>
</linearGradient>
<linearGradient id="paint1_linear_481_15456" x1="10.625" y1="16.3395" x2="18.0663" y2="16.3454" gradientUnits="userSpaceOnUse">
<stop stop-color="#957DF3"/>
<stop offset="1" stop-color="#662D91"/>
</linearGradient>
<linearGradient id="paint2_linear_481_15456" x1="18.4844" y1="12.8227" x2="28.4381" y2="12.8317" gradientUnits="userSpaceOnUse">
<stop stop-color="#957DF3"/>
<stop offset="1" stop-color="#662D91"/>
</linearGradient>
<linearGradient id="paint3_linear_481_15456" x1="12.1094" y1="12.7333" x2="27.098" y2="12.7449" gradientUnits="userSpaceOnUse">
<stop stop-color="#957DF3"/>
<stop offset="1" stop-color="#662D91"/>
</linearGradient>
<linearGradient id="paint4_linear_481_15456" x1="6.5625" y1="15.4388" x2="12.3624" y2="15.4421" gradientUnits="userSpaceOnUse">
<stop stop-color="#957DF3"/>
<stop offset="1" stop-color="#662D91"/>
</linearGradient>
<linearGradient id="paint5_linear_481_15456" x1="4.375" y1="17.8872" x2="7.10947" y2="17.8887" gradientUnits="userSpaceOnUse">
<stop stop-color="#957DF3"/>
<stop offset="1" stop-color="#662D91"/>
</linearGradient>
<linearGradient id="paint6_linear_481_15456" x1="-7.57531e-08" y1="25.8582" x2="14.2192" y2="25.8686" gradientUnits="userSpaceOnUse">
<stop stop-color="#957DF3"/>
<stop offset="1" stop-color="#662D91"/>
</linearGradient>
<linearGradient id="paint7_linear_481_15456" x1="27.8906" y1="17.8871" x2="30.6251" y2="17.8887" gradientUnits="userSpaceOnUse">
<stop stop-color="#957DF3"/>
<stop offset="1" stop-color="#662D91"/>
</linearGradient>
<linearGradient id="paint8_linear_481_15456" x1="20.7812" y1="25.8582" x2="35.0005" y2="25.8686" gradientUnits="userSpaceOnUse">
<stop stop-color="#957DF3"/>
<stop offset="1" stop-color="#662D91"/>
</linearGradient>
<clipPath id="clip0_481_15456">
<rect width="35" height="35" fill="white"/>
</clipPath>
</defs>
</svg>
