<svg width="31" height="35" viewBox="0 0 31 35" fill="none" xmlns="http://www.w3.org/2000/svg">
<path d="M19.8753 10.1938L21.4503 14.6125H18.3003L19.8753 10.1938ZM6.75033 26.25V0H5.29199C2.87116 0 0.916992 1.95417 0.916992 4.375V27.3729C1.71908 26.6583 2.75449 26.25 3.83366 26.25H6.75033ZM0.916992 32.0833C0.916992 33.6875 2.22949 35 3.83366 35H30.0837V29.1667H3.83366C2.22949 29.1667 0.916992 30.4792 0.916992 32.0833ZM30.0837 2.91667V26.25H9.66699V0H27.167C28.7712 0 30.0837 1.3125 30.0837 2.91667ZM26.6274 20.4458L21.9316 7.29167C21.6107 6.41667 20.8087 5.84792 19.8753 5.84792C18.942 5.84792 18.1399 6.41667 17.8191 7.30625L13.1232 20.4604H16.2149L17.2503 17.5438H22.4857L23.5212 20.4604H26.6128L26.6274 20.4458Z" fill="url(#paint0_linear_481_15589)"/>
<defs>
<linearGradient id="paint0_linear_481_15589" x1="0.916992" y1="20.3731" x2="30.0846" y2="20.4005" gradientUnits="userSpaceOnUse">
<stop stop-color="#957DF3"/>
<stop offset="1" stop-color="#662D91"/>
</linearGradient>
</defs>
</svg>
