<svg width="35" height="35" viewBox="0 0 35 35" fill="none" xmlns="http://www.w3.org/2000/svg">
<path d="M28.6929 4.02186C26.8452 2.48427 24.699 1.34605 22.3897 0.678921C20.0803 0.0117881 17.6578 -0.169796 15.2748 0.14561C10.8663 0.718324 6.84109 2.94732 4.01635 6.38C1.19161 9.81268 -0.220866 14.1917 0.0657269 18.628C0.35232 23.0642 2.3165 27.2251 5.55943 30.2658C8.80237 33.3065 13.081 34.9991 17.5265 34.9998H27.7085C29.6417 34.9975 31.495 34.2285 32.862 32.8615C34.2289 31.4946 34.9979 29.6413 35.0002 27.7081V16.4921V16.4002C34.8459 14.0165 34.2069 11.6893 33.1224 9.56092C32.0379 7.43257 30.5307 5.5478 28.6929 4.02186ZM11.6669 10.2081H17.5002C17.887 10.2081 18.2579 10.3618 18.5314 10.6352C18.8049 10.9087 18.9585 11.2797 18.9585 11.6664C18.9585 12.0532 18.8049 12.4242 18.5314 12.6976C18.2579 12.9711 17.887 13.1248 17.5002 13.1248H11.6669C11.2801 13.1248 10.9092 12.9711 10.6357 12.6976C10.3622 12.4242 10.2085 12.0532 10.2085 11.6664C10.2085 11.2797 10.3622 10.9087 10.6357 10.6352C10.9092 10.3618 11.2801 10.2081 11.6669 10.2081ZM23.3335 24.7914H11.6669C11.2801 24.7914 10.9092 24.6378 10.6357 24.3643C10.3622 24.0908 10.2085 23.7199 10.2085 23.3331C10.2085 22.9463 10.3622 22.5754 10.6357 22.3019C10.9092 22.0284 11.2801 21.8748 11.6669 21.8748H23.3335C23.7203 21.8748 24.0913 22.0284 24.3647 22.3019C24.6382 22.5754 24.7919 22.9463 24.7919 23.3331C24.7919 23.7199 24.6382 24.0908 24.3647 24.3643C24.0913 24.6378 23.7203 24.7914 23.3335 24.7914ZM23.3335 18.9581H11.6669C11.2801 18.9581 10.9092 18.8045 10.6357 18.531C10.3622 18.2575 10.2085 17.8866 10.2085 17.4998C10.2085 17.113 10.3622 16.7421 10.6357 16.4686C10.9092 16.1951 11.2801 16.0414 11.6669 16.0414H23.3335C23.7203 16.0414 24.0913 16.1951 24.3647 16.4686C24.6382 16.7421 24.7919 17.113 24.7919 17.4998C24.7919 17.8866 24.6382 18.2575 24.3647 18.531C24.0913 18.8045 23.7203 18.9581 23.3335 18.9581Z" fill="url(#paint0_linear_481_15564)"/>
<defs>
<linearGradient id="paint0_linear_481_15564" x1="0.0292967" y1="20.371" x2="35.0013" y2="20.4103" gradientUnits="userSpaceOnUse">
<stop stop-color="#957DF3"/>
<stop offset="1" stop-color="#662D91"/>
</linearGradient>
</defs>
</svg>
