<svg width="35" height="35" viewBox="0 0 35 35" fill="none" xmlns="http://www.w3.org/2000/svg">
<path d="M14.3073 7.27815C12.4588 5.92331 10.5623 4.25347 9.21248 2.22871L8.03082 0.456265C7.78049 0.0807619 7.31387 -0.0864475 6.88027 0.0437106C6.44769 0.174894 6.15232 0.573435 6.15232 1.02509V17.1133C5.54665 16.7601 4.85192 16.5429 4.10154 16.5429C1.83947 16.5429 0 18.3824 0 20.6445C0 22.9066 1.83947 24.746 4.10154 24.746C6.36361 24.746 8.20309 22.9065 8.20309 20.6444V4.3919C9.65203 6.22341 11.4645 7.73678 13.0947 8.9324C13.8958 9.5192 14.3554 10.4245 14.3554 11.4158C14.3554 13.1121 12.9755 14.492 11.2792 14.492C10.7125 14.492 10.2539 14.9506 10.2539 15.5174C10.2539 16.0842 10.7125 16.5428 11.2792 16.5428C14.1061 16.5428 16.4062 14.2427 16.4062 11.4158C16.4062 9.78854 15.6221 8.24244 14.3073 7.27815Z" fill="url(#paint0_linear_481_15471)"/>
<path d="M33.6931 8.37932L19.201 12.4809C18.7604 12.6071 18.457 13.0096 18.457 13.4673V27.368C17.8513 27.0148 17.1566 26.7976 16.4062 26.7976C14.1442 26.7976 12.3047 28.6371 12.3047 30.8992C12.3047 33.1613 14.1442 35.0008 16.4062 35.0008C18.6683 35.0008 20.5078 33.1613 20.5078 30.8992C20.5078 30.6654 20.5078 18.3428 20.5078 18.3428L32.9491 14.8271V23.2664C32.3435 22.9131 31.6487 22.696 30.8984 22.696C28.6363 22.696 26.7968 24.5355 26.7968 26.7976C26.7968 29.0597 28.6363 30.8992 30.8984 30.8992C33.1604 30.8992 34.9999 29.0597 34.9999 26.7976C34.9999 26.5638 34.9999 9.3657 34.9999 9.3657C34.9999 8.68749 34.3512 8.19345 33.6931 8.37932Z" fill="url(#paint1_linear_481_15471)"/>
<defs>
<linearGradient id="paint0_linear_481_15471" x1="-8.74071e-08" y1="14.4044" x2="16.4067" y2="14.4167" gradientUnits="userSpaceOnUse">
<stop stop-color="#957DF3"/>
<stop offset="1" stop-color="#662D91"/>
</linearGradient>
<linearGradient id="paint1_linear_481_15471" x1="12.3047" y1="23.8589" x2="35.0006" y2="23.8807" gradientUnits="userSpaceOnUse">
<stop stop-color="#957DF3"/>
<stop offset="1" stop-color="#662D91"/>
</linearGradient>
</defs>
</svg>
