<svg width="32" height="35" viewBox="0 0 32 35" fill="none" xmlns="http://www.w3.org/2000/svg">
<path d="M31.542 18.2292C31.542 18.8093 31.3115 19.3657 30.9013 19.776C30.4911 20.1862 29.9347 20.4167 29.3545 20.4167H25.1691C24.2883 20.414 23.4231 20.1845 22.6568 19.7502C21.8905 19.316 21.249 18.6917 20.7941 17.9375L19.0076 14.9713L16.3972 21.334L20.2093 23.5025C20.9936 23.9493 21.6457 24.5958 22.0994 25.3763C22.553 26.1567 22.7919 27.0433 22.792 27.946V32.8125C22.792 33.3927 22.5615 33.9491 22.1513 34.3593C21.7411 34.7695 21.1847 35 20.6045 35C20.0243 35 19.4679 34.7695 19.0577 34.3593C18.6475 33.9491 18.417 33.3927 18.417 32.8125V27.946C18.417 27.8175 18.3829 27.6913 18.3184 27.5801C18.2539 27.469 18.1611 27.3769 18.0495 27.3131L12.0966 23.9254C11.0577 23.2931 10.2777 22.3117 9.89641 21.1568C9.51511 20.002 9.55734 18.7491 10.0155 17.6225L11.8545 13.125H9.28199C9.14654 13.1251 9.0138 13.163 8.89866 13.2344C8.78352 13.3057 8.69053 13.4077 8.63012 13.529L6.51991 17.7494C6.26038 18.2684 5.8053 18.6631 5.25476 18.8466C4.70422 19.0301 4.10333 18.9874 3.58428 18.7279C3.06523 18.4684 2.67054 18.0133 2.48703 17.4628C2.30351 16.9122 2.34622 16.3113 2.60574 15.7923L4.71595 11.5719C5.13758 10.722 5.78878 10.0073 6.59578 9.50854C7.40278 9.0098 8.33332 8.74703 9.28199 8.75H17.4837C18.3644 8.75269 19.2297 8.98221 19.9959 9.41644C20.7622 9.85067 21.4037 10.475 21.8587 11.2292L24.542 15.6888C24.6071 15.7968 24.6991 15.8861 24.809 15.948C24.9189 16.0098 25.043 16.0421 25.1691 16.0417H29.3545C29.9347 16.0417 30.4911 16.2721 30.9013 16.6824C31.3115 17.0926 31.542 17.649 31.542 18.2292ZM9.75012 24.5729C9.48335 24.4662 9.19817 24.4131 8.91086 24.4166C8.62356 24.4201 8.33977 24.4802 8.07569 24.5934C7.81161 24.7066 7.57242 24.8708 7.37179 25.0764C7.17115 25.2821 7.013 25.5253 6.90637 25.7921C6.8522 25.9273 6.7588 26.0431 6.6382 26.1247C6.51759 26.2063 6.37532 26.25 6.2297 26.25H3.10449C2.52433 26.25 1.96793 26.4805 1.5577 26.8907C1.14746 27.3009 0.916992 27.8573 0.916992 28.4375C0.916992 29.0177 1.14746 29.5741 1.5577 29.9843C1.96793 30.3945 2.52433 30.625 3.10449 30.625H6.2297C7.25059 30.6283 8.2488 30.324 9.09422 29.7517C9.93964 29.1794 10.593 28.3657 10.9693 27.4167C11.076 27.1499 11.1291 26.8647 11.1256 26.5774C11.1221 26.2901 11.062 26.0063 10.9488 25.7422C10.8356 25.4782 10.6714 25.239 10.4658 25.0383C10.2601 24.8377 10.0169 24.6796 9.75012 24.5729ZM19.1462 7.29167C19.8672 7.29167 20.5721 7.07784 21.1717 6.67723C21.7712 6.27663 22.2385 5.70722 22.5145 5.04104C22.7904 4.37485 22.8626 3.64179 22.7219 2.93457C22.5813 2.22735 22.234 1.57772 21.7242 1.06784C21.2143 0.557963 20.5646 0.210731 19.8574 0.0700553C19.1502 -0.07062 18.4171 0.00157968 17.751 0.277524C17.0848 0.553469 16.5154 1.02076 16.1148 1.62032C15.7141 2.21987 15.5003 2.92476 15.5003 3.64584C15.5003 4.61277 15.8844 5.5401 16.5682 6.22383C17.2519 6.90755 18.1792 7.29167 19.1462 7.29167Z" fill="url(#paint0_linear_481_15595)"/>
<defs>
<linearGradient id="paint0_linear_481_15595" x1="0.916992" y1="20.3731" x2="31.543" y2="20.4033" gradientUnits="userSpaceOnUse">
<stop stop-color="#957DF3"/>
<stop offset="1" stop-color="#662D91"/>
</linearGradient>
</defs>
</svg>
