<svg width="35" height="35" viewBox="0 0 35 35" fill="none" xmlns="http://www.w3.org/2000/svg">
<g clip-path="url(#clip0_481_15505)">
<path d="M35 4.37462V30.0573L17.5 35.058L0 30.0573V5.83295C0 4.44753 0.634375 3.17441 1.74125 2.34024C2.10438 2.06608 2.50396 1.87941 2.91667 1.73066V27.8582L17.5 32.0246L32.0833 27.8582V0.272325C32.496 0.421075 32.8971 0.607742 33.2588 0.881909C34.3656 1.71608 35 2.9892 35 4.37462ZM18.9583 4.91566V25.7159L17.5 26.1329L16.0417 25.7159V4.91566C16.0417 2.97316 14.7365 1.24212 12.759 0.682117L10.325 0.100242C8.03396 -0.446633 5.83333 1.2917 5.83333 3.64691V25.8325L17.5 29.1663L29.1667 25.8325V3.69649C29.1667 1.36753 27.0127 -0.364966 24.7377 0.135242L22.1302 0.708367C20.2621 1.24212 18.9569 2.97316 18.9569 4.91566H18.9583Z" fill="url(#paint0_linear_481_15505)"/>
</g>
<defs>
<linearGradient id="paint0_linear_481_15505" x1="-1.86469e-07" y1="20.4065" x2="35.0011" y2="20.4458" gradientUnits="userSpaceOnUse">
<stop stop-color="#957DF3"/>
<stop offset="1" stop-color="#662D91"/>
</linearGradient>
<clipPath id="clip0_481_15505">
<rect width="35" height="35" fill="white"/>
</clipPath>
</defs>
</svg>
