<svg width="35" height="36" viewBox="0 0 35 36" fill="none" xmlns="http://www.w3.org/2000/svg">
<path d="M29.1667 15.8125C28.1836 15.8462 27.2064 15.9791 26.25 16.2092V13.625C26.25 12.4647 25.7891 11.3519 24.9686 10.5314C24.1481 9.71094 23.0353 9.25 21.875 9.25H18.5617C18.7926 8.29378 18.9255 7.31651 18.9583 6.33333C18.9583 4.78624 18.3438 3.30251 17.2498 2.20854C16.1558 1.11458 14.6721 0.5 13.125 0.5C11.5779 0.5 10.0942 1.11458 9.00021 2.20854C7.90625 3.30251 7.29167 4.78624 7.29167 6.33333C7.32447 7.31651 7.45738 8.29378 7.68833 9.25H4.375C3.21468 9.25 2.10188 9.71094 1.28141 10.5314C0.460936 11.3519 0 12.4647 0 13.625L0 35.5H9.53167L9.1875 34.0417C8.94147 33.0871 8.79486 32.1097 8.75 31.125C8.75 29.9647 9.21094 28.8519 10.0314 28.0314C10.8519 27.2109 11.9647 26.75 13.125 26.75C14.2853 26.75 15.3981 27.2109 16.2186 28.0314C17.0391 28.8519 17.5 29.9647 17.5 31.125C17.4551 32.1097 17.3085 33.0871 17.0625 34.0417L16.7169 35.5H26.25V27.0825C27.2064 27.3126 28.1836 27.4455 29.1667 27.4792C30.7138 27.4792 32.1975 26.8646 33.2915 25.7706C34.3854 24.6767 35 23.1929 35 21.6458C35 20.0987 34.3854 18.615 33.2915 17.521C32.1975 16.4271 30.7138 15.8125 29.1667 15.8125Z" fill="url(#paint0_linear_481_15558)"/>
<defs>
<linearGradient id="paint0_linear_481_15558" x1="-1.86469e-07" y1="20.8731" x2="35.0011" y2="20.9125" gradientUnits="userSpaceOnUse">
<stop stop-color="#957DF3"/>
<stop offset="1" stop-color="#662D91"/>
</linearGradient>
</defs>
</svg>
