<svg width="35" height="35" viewBox="0 0 35 35" fill="none" xmlns="http://www.w3.org/2000/svg">
<path d="M35 11.6667H0V10.2083C0 6.18771 3.27104 2.91667 7.29167 2.91667H8.75V1.45833C8.75 0.653333 9.40188 0 10.2083 0C11.0148 0 11.6667 0.653333 11.6667 1.45833V2.91667H23.3333V1.45833C23.3333 0.653333 23.9852 0 24.7917 0C25.5981 0 26.25 0.653333 26.25 1.45833V2.91667H27.7083C31.729 2.91667 35 6.18771 35 10.2083V11.6667ZM14.5833 32.8781C14.5833 31.5773 14.856 30.3217 15.3635 29.1667H8.75C7.94354 29.1667 7.29167 28.5133 7.29167 27.7083C7.29167 26.9033 7.94354 26.25 8.75 26.25C8.75 26.25 14.6154 26.25 17.3833 26.2515L20.3015 23.3333H8.75C7.94354 23.3333 7.29167 22.68 7.29167 21.875C7.29167 21.07 7.94354 20.4167 8.75 20.4167H23.2196L27.2169 16.4194C28.401 15.2352 29.9746 14.5833 31.6488 14.5833H0V27.7083C0 31.729 3.27104 35 7.29167 35H14.5833V32.8781ZM29.279 18.4815C30.5871 17.1733 32.7104 17.1733 34.0185 18.4815C35.3267 19.7896 35.3267 21.9129 34.0185 23.221L24.0917 33.1479C22.906 34.3335 21.299 35 19.6219 35H17.5V32.8781C17.5 31.201 18.1665 29.594 19.3521 28.4083L29.279 18.4815Z" fill="url(#paint0_linear_481_15570)"/>
<defs>
<linearGradient id="paint0_linear_481_15570" x1="-1.86469e-07" y1="20.3731" x2="35.0011" y2="20.4125" gradientUnits="userSpaceOnUse">
<stop stop-color="#957DF3"/>
<stop offset="1" stop-color="#662D91"/>
</linearGradient>
</defs>
</svg>
