<svg width="35" height="29" viewBox="0 0 35 29" fill="none" xmlns="http://www.w3.org/2000/svg">
<path d="M33.8801 26.0959H17.1245V24.5216C17.1245 24.4642 17.1689 24.4025 17.2404 24.356C17.265 24.3445 17.2894 24.3322 17.3133 24.3188C17.3682 24.2966 17.4312 24.2819 17.5 24.2819C17.5744 24.2819 17.6424 24.2985 17.7001 24.324C17.7114 24.3301 17.7227 24.3357 17.7342 24.3414C17.8203 24.389 17.8756 24.4579 17.8756 24.5216C17.8756 25.1404 18.3767 25.6415 18.9955 25.6415C19.6143 25.6415 20.1154 25.1404 20.1154 24.5216C20.1154 24.0773 19.991 23.6605 19.7743 23.2995C21.1564 21.932 24.7502 19.1076 30.8541 19.1076C31.4729 19.1076 31.974 18.6059 31.974 17.9871C31.974 17.3683 31.4729 16.8672 30.8541 16.8672C23.4693 16.8672 19.2505 20.5759 17.8539 22.0654C17.7381 22.0505 17.6201 22.0421 17.5001 22.0421C17.3801 22.0421 17.2621 22.0505 17.1463 22.0654C15.7497 20.576 11.5309 16.8672 4.14613 16.8672C3.52735 16.8672 3.02622 17.3683 3.02622 17.9871C3.02622 18.6059 3.52735 19.1076 4.14613 19.1076C10.252 19.1076 13.8462 21.934 15.2259 23.2995C15.2184 23.3119 15.2106 23.324 15.2035 23.3365C12.954 22.4983 7.99852 20.9862 2.4384 21.4179C1.82202 21.4658 1.36094 22.0033 1.40825 22.6209C1.45617 23.2367 1.99367 23.7014 2.61128 23.6504C8.12922 23.2227 13.1425 24.9348 14.8848 25.6171V26.096H1.11991C0.501134 26.0959 0 26.5982 0 27.2164C0 27.8346 0.501134 28.3357 1.11991 28.3357H33.8801C34.4983 28.3357 35 27.8352 35 27.2164C35 26.5976 34.4989 26.0959 33.8801 26.0959Z" fill="url(#paint0_linear_481_15397)"/>
<path d="M21.1084 22.9729C20.5345 23.201 20.2555 23.852 20.4842 24.4265C20.6583 24.8651 21.0799 25.1326 21.5252 25.1326C21.663 25.1326 21.8025 25.1065 21.9384 25.0537C21.9857 25.0343 26.7723 23.1621 32.378 23.6511C32.984 23.7002 33.5367 23.2482 33.5901 22.6318C33.6441 22.0155 33.1879 21.4725 32.5709 21.4191C26.421 20.8866 21.3226 22.8874 21.1084 22.9729Z" fill="url(#paint1_linear_481_15397)"/>
<path d="M26.2654 15.3929C27.9592 15.3929 28.973 14.6303 29.5256 13.9902C30.2039 13.204 30.5776 12.1478 30.5776 11.0157C30.5776 9.35957 29.7331 7.62388 28.1388 6.88794L29.7362 4.09906C29.9346 3.75262 29.9339 3.32614 29.7332 2.981C29.533 2.63579 29.1635 2.42285 28.7643 2.42285H23.7751C23.1563 2.42285 22.6552 2.9246 22.6552 3.54276C22.6552 4.16099 23.1563 4.66268 23.7751 4.66268H26.8321L25.4434 7.08816C25.2451 7.4346 25.2457 7.86109 25.4464 8.20623C25.6467 8.55144 26.0161 8.76437 26.4153 8.76437C27.9356 8.76437 28.3372 10.2367 28.3372 11.0157C28.3372 11.6109 28.157 12.1472 27.8295 12.5269C27.4703 12.9425 26.9444 13.153 26.2655 13.153C24.8223 13.153 24.5535 12.1277 24.5425 12.0847C24.4006 11.4828 23.7969 11.1116 23.1951 11.2517C22.5933 11.3937 22.2202 11.9967 22.3622 12.5991C22.5902 13.565 23.6998 15.3929 26.2654 15.3929Z" fill="url(#paint2_linear_481_15397)"/>
<path d="M16.1571 7.85001C14.6259 8.77702 12.7197 9.93152 12.7197 12.5141C12.7197 13.1323 13.2209 13.634 13.8396 13.634H19.7565C20.3753 13.634 20.8764 13.1323 20.8764 12.5141C20.8764 11.8959 20.3753 11.3942 19.7565 11.3942H15.2678C15.6403 10.8075 16.3422 10.3568 17.3177 9.76589C18.9035 8.80614 20.8764 7.61096 20.8764 4.8616C20.8764 2.54712 19.0473 0.664062 16.7996 0.664062C14.5501 0.664062 12.7203 2.54719 12.7197 4.8616C12.7197 5.47976 13.2209 5.98151 13.8396 5.98151C14.4584 5.98151 14.9595 5.48037 14.9595 4.8616C14.9595 3.78174 15.7852 2.90389 16.7996 2.90389C17.8128 2.90389 18.6366 3.78236 18.6366 4.8616C18.6366 6.27989 17.7406 6.89081 16.1571 7.85001Z" fill="url(#paint3_linear_481_15397)"/>
<path d="M5.7401 8.66884L8.03208 6.30645V14.2732C8.03208 14.8915 8.53321 15.3932 9.15199 15.3932C9.77015 15.3932 10.2719 14.892 10.2719 14.2739V3.54491C10.2719 3.08869 9.99587 2.67861 9.57301 2.50689C9.15014 2.33579 8.66665 2.4371 8.34816 2.76474L4.13245 7.10911C3.70172 7.55316 3.71266 8.26176 4.15671 8.69249C4.60015 9.12321 5.30814 9.11228 5.7401 8.66884Z" fill="url(#paint4_linear_481_15397)"/>
<defs>
<linearGradient id="paint0_linear_481_15397" x1="-1.86469e-07" y1="23.5429" x2="35.0008" y2="23.6631" gradientUnits="userSpaceOnUse">
<stop stop-color="#957DF3"/>
<stop offset="1" stop-color="#662D91"/>
</linearGradient>
<linearGradient id="paint1_linear_481_15397" x1="20.4043" y1="23.5431" x2="33.5947" y2="23.5946" gradientUnits="userSpaceOnUse">
<stop stop-color="#957DF3"/>
<stop offset="1" stop-color="#662D91"/>
</linearGradient>
<linearGradient id="paint2_linear_481_15397" x1="22.332" y1="9.97256" x2="30.5779" y2="9.97846" gradientUnits="userSpaceOnUse">
<stop stop-color="#957DF3"/>
<stop offset="1" stop-color="#662D91"/>
</linearGradient>
<linearGradient id="paint3_linear_481_15397" x1="12.7197" y1="8.21373" x2="20.8767" y2="8.2195" gradientUnits="userSpaceOnUse">
<stop stop-color="#957DF3"/>
<stop offset="1" stop-color="#662D91"/>
</linearGradient>
<linearGradient id="paint4_linear_481_15397" x1="3.81641" y1="9.97355" x2="10.2721" y2="9.97717" gradientUnits="userSpaceOnUse">
<stop stop-color="#957DF3"/>
<stop offset="1" stop-color="#662D91"/>
</linearGradient>
</defs>
</svg>
