<svg width="81" height="71" viewBox="0 0 81 71" fill="none" xmlns="http://www.w3.org/2000/svg">
<g id="head">
<path id="Vector" d="M73.1443 26.1576C68.5443 22.4876 82.9544 15.9676 80.7144 7.79756C78.4744 -0.372435 61.4444 5.42757 61.4444 5.42757C74.1244 -2.42243 43.5344 -1.04243 28.7244 5.01757C9.84435 12.7476 16.1444 19.9276 16.1444 19.9276C-10.8556 29.8476 4.24435 38.6376 4.24435 38.6376C0.90435 45.9676 11.4143 48.6376 11.4143 48.6376C11.4058 50.5007 11.8998 52.3316 12.8443 53.9376C13.2875 53.1163 13.9911 52.4655 14.8443 52.0876C14.7043 51.7176 14.5943 51.3576 14.5043 51.0276C8.38435 29.0276 33.5043 22.0276 47.2243 24.7376C59.8744 27.2676 67.5144 38.6176 68.3044 48.9276C68.8681 49.1345 69.3528 49.5131 69.6901 50.0101C70.0273 50.507 70.2002 51.0972 70.1843 51.6976C70.8294 52.1309 71.3252 52.7524 71.6044 53.4776C74.2444 48.4776 74.6743 43.3676 73.9843 41.6176C72.7443 38.5376 79.8244 30.5176 79.6044 29.4276C79.3844 28.3376 77.7644 29.8476 73.1443 26.1576Z" fill="#562D1E"/>
<path id="Vector_2" d="M73.1456 26.1576C68.5456 22.4876 82.9556 15.9676 80.7156 7.79756C78.4756 -0.372435 61.4456 5.42757 61.4456 5.42757C74.1256 -2.42243 43.5356 -1.04243 28.7256 5.01757C25.8439 6.14269 23.0914 7.57425 20.5156 9.28757C21.4823 8.86757 22.5523 8.44757 23.7256 8.02757C38.3056 2.80757 68.6656 2.24757 56.2556 9.15757C56.2556 9.15757 73.0356 4.23757 75.4456 11.7876C77.8556 19.3376 63.6956 24.9876 68.3556 28.4576C73.0156 31.9276 74.6056 30.6476 74.8456 31.6576C75.0856 32.6676 70.4256 36.5476 71.7156 39.4076C72.6268 41.9354 73.3553 44.5254 73.8956 47.1576C74.3819 45.3636 74.4129 43.4766 73.9856 41.6676C72.7456 38.5876 79.8256 30.5676 79.6056 29.4776C79.3856 28.3876 77.7656 29.8476 73.1456 26.1576Z" fill="#805143"/>
<path id="Vector_3" d="M68.9844 49.3081C69.3661 49.5895 69.6757 49.9573 69.8878 50.3814C70.0998 50.8056 70.2083 51.2739 70.2044 51.7481C70.851 52.1728 71.345 52.793 71.6144 53.5181C72.6487 51.5685 73.4092 49.4856 73.8744 47.3281C72.2842 48.0824 70.6514 48.7435 68.9844 49.3081Z" fill="#3E1E14"/>
<path id="Vector_4" d="M12.8447 53.9873C13.2879 53.166 13.9914 52.5152 14.8447 52.1373C14.7047 51.7673 14.5947 51.4073 14.5047 51.0773C13.3469 47.3569 13.2568 43.3863 14.2447 39.6173C9.73797 36.0541 6.16533 31.4485 3.83471 26.1973C-5.01529 33.2673 4.22471 38.6373 4.22471 38.6373C0.884705 45.9673 11.3947 48.6373 11.3947 48.6373C11.3831 50.5192 11.8844 52.3687 12.8447 53.9873Z" fill="#3E1E14"/>
<path id="Vector_5" d="M43.0852 25.4081C55.6752 28.0181 63.5452 38.5181 64.6152 47.9081L68.3251 48.9981C67.5452 38.6881 59.9052 27.3181 47.2452 24.7881C43.1242 24.055 38.9061 24.055 34.7852 24.7881C37.5664 24.6769 40.3513 24.8849 43.0852 25.4081Z" fill="#F29D61"/>
<path id="Vector_6" d="M64.6846 51.3477C63.8846 60.8477 53.5746 67.7477 39.2346 66.9577C29.8346 66.4477 23.2346 63.0477 18.7246 59.1277C22.8946 64.5877 30.2746 70.1277 42.2146 70.5377C56.7646 71.0077 67.4046 63.0077 68.3246 52.4077L64.6846 51.3477Z" fill="#F29D61"/>
<path id="Vector_7" d="M68.1451 52.377C68.1451 52.827 68.0651 53.287 68.0051 53.737C68.2961 53.8719 68.5319 54.1026 68.6732 54.3905C68.8144 54.6785 68.8526 55.0062 68.7811 55.3189C68.7097 55.6316 68.533 55.9103 68.2807 56.1084C68.0284 56.3064 67.7158 56.4118 67.3951 56.407C67.2651 56.827 67.1151 57.2369 66.9551 57.6369C67.2811 57.748 67.6263 57.7918 67.9697 57.7658C68.3131 57.7398 68.6477 57.6444 68.9533 57.4856C69.2589 57.3267 69.5291 57.1076 69.7477 56.8414C69.9663 56.5753 70.1287 56.2676 70.2251 55.937C70.3473 55.5667 70.3893 55.1746 70.3485 54.7869C70.3076 54.3991 70.1847 54.0245 69.988 53.6878C69.7913 53.3511 69.5253 53.0602 69.2076 52.8342C68.8898 52.6082 68.5276 52.4523 68.1451 52.377Z" fill="#F29D61"/>
<path id="Vector_8" d="M16.634 55.9877C16.4943 56.1256 16.3229 56.2272 16.1349 56.2835C15.9469 56.3398 15.7479 56.3491 15.5554 56.3106C15.3629 56.2721 15.1828 56.1869 15.0309 56.0627C14.879 55.9384 14.7598 55.7787 14.684 55.5977C14.5481 55.2287 14.5502 54.823 14.6899 54.4555C14.8296 54.088 15.0974 53.7833 15.444 53.5977L15.234 53.0977C14.8806 53.218 14.5545 53.4071 14.2746 53.654C13.9946 53.9009 13.7662 54.2008 13.6026 54.5363C13.439 54.8719 13.3434 55.2365 13.3214 55.6091C13.2993 55.9818 13.3511 56.3551 13.474 56.7077C13.6255 57.0655 13.8748 57.3735 14.1932 57.5963C14.5116 57.8191 14.8863 57.9478 15.2745 57.9677C15.6626 57.9875 16.0485 57.8976 16.3879 57.7084C16.7274 57.5192 17.0067 57.2382 17.194 56.8977C16.994 56.6077 16.814 56.2877 16.634 55.9877Z" fill="#F29D61"/>
<path id="Vector_9" d="M33.1454 49.1578C33.2653 48.7057 33.2024 48.2246 32.9704 47.8185C32.7383 47.4125 32.3558 47.114 31.9054 46.9878C31.536 46.8559 31.135 46.8403 30.7565 46.9431C30.3779 47.046 30.0399 47.2623 29.788 47.5631C29.5361 47.8638 29.3824 48.2344 29.3475 48.6252C29.3126 49.0159 29.3982 49.408 29.5928 49.7486C29.7874 50.0892 30.0817 50.362 30.4361 50.5303C30.7904 50.6986 31.1878 50.7543 31.5748 50.69C31.9618 50.6256 32.3197 50.4443 32.6006 50.1703C32.8814 49.8964 33.0715 49.543 33.1454 49.1578Z" fill="#472D18"/>
<path id="Vector_10" d="M53.916 50.1974C54.0329 49.7468 53.9685 49.2682 53.7367 48.8644C53.5049 48.4607 53.1241 48.1638 52.676 48.0374C52.4468 48.0139 52.2151 48.036 51.9944 48.1022C51.7737 48.1685 51.5682 48.2777 51.3898 48.4236C51.2115 48.5694 51.0636 48.7491 50.9549 48.9523C50.8461 49.1554 50.7785 49.3781 50.756 49.6074C50.6744 49.8299 50.6422 50.0675 50.6618 50.3037C50.6814 50.5399 50.7523 50.769 50.8695 50.9749C50.9867 51.1809 51.1474 51.3589 51.3404 51.4964C51.5334 51.6339 51.7541 51.7277 51.9871 51.7712C52.22 51.8147 52.4597 51.8069 52.6893 51.7483C52.919 51.6897 53.1331 51.5817 53.3167 51.4319C53.5003 51.282 53.6491 51.094 53.7526 50.8808C53.8561 50.6676 53.9119 50.4344 53.916 50.1974Z" fill="#472D18"/>
<path id="Vector_11" d="M25.3242 26.847C30.7242 26.007 30.2342 31.417 39.9942 29.717C39.9942 29.717 30.1242 26.717 37.5142 22.207L25.3242 26.847Z" fill="#562D1E"/>
<path id="Vector_12" d="M68.8956 50.4077L59.8956 47.7677C59.7856 42.6277 56.6956 38.3577 52.5856 37.9577C52.3656 37.9577 52.1456 37.9577 51.9256 37.9577C47.7656 37.9577 44.1856 42.1177 43.7856 47.5277L40.3956 47.4577C40.3956 42.1777 36.7656 37.6677 31.9456 37.1777C31.6356 37.1777 31.3356 37.1777 31.0256 37.1777C26.3156 37.1777 22.3056 41.2377 21.8656 46.5777C21.8004 47.2896 21.8004 48.0059 21.8656 48.7177L15.5156 50.5877C15.6753 50.8635 15.7869 51.1645 15.8456 51.4777L22.0056 49.6677C22.8256 53.9877 26.0956 57.3977 30.2456 57.8277C30.5556 57.8277 30.8656 57.8277 31.1756 57.8277C35.8856 57.8277 39.8956 53.7677 40.3256 48.4277L43.7256 48.5077C43.7256 53.7777 46.8556 58.2077 51.0356 58.6077C51.2556 58.6077 51.4856 58.6077 51.6956 58.6077C55.8656 58.6077 59.4456 54.4577 59.8356 49.0477C59.8356 48.9277 59.8356 48.8077 59.8356 48.6977L68.9456 51.3677L68.8956 50.4077ZM39.6456 48.3577C39.2356 53.3577 35.5256 57.1477 31.1756 57.1877C30.9025 57.2027 30.6288 57.2027 30.3556 57.1877C25.6556 56.7077 22.1956 51.9977 22.6256 46.6677C23.0356 41.6677 26.7356 37.8777 31.0856 37.8377C31.3621 37.823 31.6392 37.823 31.9156 37.8377C36.6156 38.3177 40.0656 43.0277 39.6456 48.3577ZM59.2656 48.4877C59.2656 48.6477 59.2656 48.8177 59.2656 48.9777C58.8856 54.0577 55.5856 57.9177 51.7556 57.9777C51.5559 57.9928 51.3553 57.9928 51.1556 57.9777C47.0756 57.5777 44.0756 52.9777 44.4656 47.6077C44.8456 42.5377 48.1456 38.6677 51.9856 38.6077H52.5856C56.2956 38.9677 59.1056 42.8577 59.2856 47.6077H59.1756L59.2656 48.4877Z" fill="#FD0000"/>
<path id="Vector_13" d="M17.5642 6.9574C16.7835 9.53327 16.2347 12.1738 15.9242 14.8474C15.5947 14.7408 15.2465 14.7044 14.902 14.7406C14.5575 14.7767 14.2245 14.8847 13.9242 15.0574C13.6201 15.2162 13.3537 15.4386 13.1432 15.7095C12.9327 15.9804 12.783 16.2935 12.7042 16.6274C10.2621 15.4524 7.73495 14.463 5.14425 13.6674C2.91425 12.9974 4.54425 16.3474 7.14425 21.0374C9.74425 25.7274 12.1442 29.1574 13.7542 28.1374C14.7542 27.5174 15.9242 25.3074 16.2042 22.9874C16.5476 23.2584 16.9598 23.4282 17.3944 23.4776C17.829 23.5271 18.2688 23.4543 18.6642 23.2674C19.0162 23.0296 19.2957 22.6993 19.4721 22.313C19.6485 21.9266 19.715 21.4991 19.6642 21.0774C21.7842 22.0774 24.2442 22.2474 25.3142 21.6774C27.0342 20.8374 25.3142 16.8774 22.7442 12.3074C20.1742 7.73739 18.2442 4.7074 17.5642 6.9574Z" fill="#ED1C24"/>
<path id="Vector_14" d="M47.0644 60.6571C47.0644 60.6571 41.8044 61.6571 38.1244 60.2171C38.1903 59.9014 38.1443 59.5726 37.9944 59.2871C37.8559 59.5844 37.6601 59.8514 37.4181 60.0728C37.1761 60.2941 36.8928 60.4655 36.5844 60.5771C36.0944 60.6571 37.0544 61.0571 37.5844 60.6671C38.9419 61.5058 40.3958 62.1774 41.9144 62.6671C43.6244 63.0871 44.2844 62.3871 45.2144 61.5571C46.7044 61.3371 47.0644 60.6571 47.0644 60.6571Z" fill="#FFABAB"/>
<path id="Vector_15" d="M41.0753 61.7677C41.6931 62.0748 42.3859 62.1984 43.0718 62.124C43.7576 62.0495 44.4078 61.7801 44.9453 61.3477C42.9318 61.5689 40.8945 61.3991 38.9453 60.8477L41.0753 61.7677Z" fill="white"/>
</g>
</svg>
