<svg width="22" height="12" viewBox="0 0 22 12" fill="none" xmlns="http://www.w3.org/2000/svg">
<path d="M21.8546 6.35263L16.8547 11.3526C16.6751 11.5623 16.3595 11.5867 16.1497 11.4071C15.94 11.2275 15.9156 10.9118 16.0952 10.7021C16.112 10.6826 16.1302 10.6643 16.1497 10.6476L20.2946 6.49765H0.499976C0.223863 6.49765 0 6.27379 0 5.99763C0 5.72148 0.223863 5.49766 0.499976 5.49766H20.2946L16.1497 1.35275C15.94 1.17314 15.9156 0.857497 16.0952 0.647771C16.2749 0.438044 16.5905 0.413596 16.8002 0.593246C16.8197 0.610003 16.838 0.628221 16.8547 0.647771L21.8546 5.6477C22.0485 5.84265 22.0485 6.1576 21.8546 6.35263Z" fill="#30C5FF"/>
</svg>
