<svg width="42" height="34" viewBox="0 0 42 34" fill="none" xmlns="http://www.w3.org/2000/svg">
<path d="M36.9783 6.04343H32.5956L30.1761 2.39126C29.263 1.02169 27.6652 0.199951 26.0217 0.199951H15.9783C14.3348 0.199951 12.737 1.02169 11.8239 2.39126L9.40435 6.04343H5.02174C2.23696 6.04343 0 8.28039 0 11.0652V28.7782C0 31.563 2.23696 33.8 5.02174 33.8H36.9783C39.763 33.8 42 31.563 42 28.7782V11.0652C42 8.28039 39.763 6.04343 36.9783 6.04343ZM21 29.6913C14.7457 29.6913 9.67826 24.6239 9.67826 18.3695C9.67826 12.1152 14.7457 7.09343 21 7.09343C27.2543 7.09343 32.3217 12.1608 32.3217 18.4152C32.3217 24.6239 27.2543 29.6913 21 29.6913ZM36.3391 13.1195C36.2935 13.1195 36.2478 13.1195 36.1565 13.1195H34.3304C33.5087 13.0739 32.8696 12.3891 32.9152 11.5673C32.9609 10.7913 33.5543 10.1978 34.3304 10.1521H36.1565C36.9783 10.1065 37.663 10.7456 37.7087 11.5673C37.7543 12.3891 37.1609 13.0739 36.3391 13.1195Z" fill="url(#paint0_linear_557_16355)"/>
<path d="M20.9992 12.1151C17.5297 12.1151 14.6992 14.9455 14.6992 18.4151C14.6992 21.8847 17.5297 24.6695 20.9992 24.6695C24.4688 24.6695 27.2992 21.839 27.2992 18.3695C27.2992 14.8999 24.4688 12.1151 20.9992 12.1151Z" fill="url(#paint1_linear_557_16355)"/>
<defs>
<linearGradient id="paint0_linear_557_16355" x1="-2.23763e-07" y1="19.7582" x2="42.0013" y2="19.8173" gradientUnits="userSpaceOnUse">
<stop stop-color="#957DF3"/>
<stop offset="1" stop-color="#662D91"/>
</linearGradient>
<linearGradient id="paint1_linear_557_16355" x1="14.6992" y1="19.4229" x2="27.2996" y2="19.4371" gradientUnits="userSpaceOnUse">
<stop stop-color="#957DF3"/>
<stop offset="1" stop-color="#662D91"/>
</linearGradient>
</defs>
</svg>
