<svg width="42" height="26" viewBox="0 0 42 26" fill="none" xmlns="http://www.w3.org/2000/svg">
<path d="M23.7571 0.661865H4.59519C2.06783 0.661865 0 2.7297 0 5.25705V20.7428C0 23.2702 2.06783 25.338 4.59519 25.338H23.7571C26.2845 25.338 28.3523 23.2702 28.3523 20.7428V5.25705C28.3523 2.68375 26.2845 0.661865 23.7571 0.661865Z" fill="white"/>
<path d="M38.5981 3.18925C38.3224 3.2352 38.0467 3.37306 37.8169 3.51091L30.6484 7.64658V18.3074L37.8629 22.4431C39.1955 23.2243 40.8498 22.7647 41.6309 21.4321C41.8607 21.0186 41.9985 20.5591 41.9985 20.0536V5.85446C41.9985 4.15424 40.3902 2.77568 38.5981 3.18925Z" fill="white"/>
</svg>
