<svg width="42" height="34" viewBox="0 0 42 34" fill="none" xmlns="http://www.w3.org/2000/svg">
<path d="M6.42463 0.956055C6.4235 0.956055 6.42223 0.956055 6.4211 0.956055C6.02387 0.956055 5.65025 1.1109 5.36813 1.39232C5.08289 1.67684 4.92578 2.05569 4.92578 2.45901V24.9956C4.92578 25.822 5.60075 26.496 6.43057 26.4981C9.92889 26.5064 15.79 27.2356 19.8333 31.4668V7.88169C19.8333 7.60155 19.7617 7.33838 19.6267 7.1206C16.3081 1.77626 9.93087 0.964257 6.42463 0.956055Z" fill="url(#paint0_linear_513_25609)"/>
<path d="M37.0734 24.9957V2.45901C37.0734 2.05569 36.9163 1.67684 36.631 1.39232C36.3489 1.1109 35.975 0.956055 35.5782 0.956055C35.5769 0.956055 35.5757 0.956055 35.5745 0.956055C32.0684 0.964398 25.6912 1.7764 22.3725 7.12074C22.2374 7.33852 22.166 7.60169 22.166 7.88184V31.4668C26.2093 27.2356 32.0704 26.5064 35.5687 26.4981C36.3984 26.496 37.0734 25.822 37.0734 24.9957Z" fill="url(#paint1_linear_513_25609)"/>
<path d="M40.4973 6.15332H39.4075V24.9955C39.4075 27.1056 37.6883 28.8262 35.575 28.8314C32.6077 28.8385 27.7151 29.4187 24.25 32.6983C30.2429 31.2309 36.5604 32.1848 40.1608 33.0053C40.6104 33.1077 41.0749 33.0019 41.4351 32.7148C41.794 32.4284 41.9999 32.0004 41.9999 31.5409V7.65599C42.0001 6.82744 41.3258 6.15332 40.4973 6.15332Z" fill="url(#paint2_linear_513_25609)"/>
<path d="M2.59241 24.9955V6.15332H1.50267C0.674265 6.15332 0 6.82744 0 7.65599V31.5405C0 32.0001 0.2059 32.428 0.56481 32.7144C0.92471 33.0013 1.38883 33.1075 1.8391 33.0048C5.43951 32.1842 11.7572 31.2305 17.7498 32.6978C14.2849 29.4184 9.39219 28.8383 6.42489 28.8313C4.31173 28.8262 2.59241 27.1056 2.59241 24.9955Z" fill="url(#paint3_linear_513_25609)"/>
<defs>
<linearGradient id="paint0_linear_513_25609" x1="4.92578" y1="18.7161" x2="19.8338" y2="18.7243" gradientUnits="userSpaceOnUse">
<stop stop-color="#957DF3"/>
<stop offset="1" stop-color="#662D91"/>
</linearGradient>
<linearGradient id="paint1_linear_513_25609" x1="22.166" y1="18.7161" x2="37.0739" y2="18.7243" gradientUnits="userSpaceOnUse">
<stop stop-color="#957DF3"/>
<stop offset="1" stop-color="#662D91"/>
</linearGradient>
<linearGradient id="paint2_linear_513_25609" x1="24.25" y1="21.8058" x2="42.0005" y2="21.819" gradientUnits="userSpaceOnUse">
<stop stop-color="#957DF3"/>
<stop offset="1" stop-color="#662D91"/>
</linearGradient>
<linearGradient id="paint3_linear_513_25609" x1="-9.45655e-08" y1="21.8056" x2="17.7504" y2="21.8188" gradientUnits="userSpaceOnUse">
<stop stop-color="#957DF3"/>
<stop offset="1" stop-color="#662D91"/>
</linearGradient>
</defs>
</svg>
