<svg width="42" height="34" viewBox="0 0 42 34" fill="none" xmlns="http://www.w3.org/2000/svg">
<path d="M39.0037 10.5117C38.8339 9.23492 38.81 7.0359 39.9958 6.2975C40.017 6.28396 40.0328 6.26441 40.0514 6.24761C41.0209 5.93752 41.6918 5.50232 41.1652 4.91672L26.8632 0.607422L3.70522 3.82711C3.70522 3.82711 1.05333 4.20615 1.29023 8.32618C1.41883 10.5686 2.12213 11.6698 2.73719 12.2118L0.836863 12.7845C0.309419 13.3701 0.980256 13.8054 1.94991 14.115C1.96834 14.1323 1.98388 14.1518 2.00544 14.1653C3.19056 14.9043 3.16775 17.1031 2.99728 18.3801C-1.26025 19.589 0.268056 19.983 0.268056 19.983L1.20199 20.209C0.545064 20.8026 -0.107347 21.9283 0.0148627 24.0633C0.251887 28.1826 2.4301 28.4668 2.4301 28.4668L17.5846 33.3926L40.4585 27.8521C40.4585 27.8521 41.9873 27.4576 37.7286 26.2485C37.5574 24.9735 37.5336 22.775 38.7215 22.0341C38.7433 22.0209 38.7592 22.001 38.7769 21.9845C39.7465 21.6744 40.4169 21.2395 39.89 20.6539L38.8958 20.3537C39.5589 19.9539 40.5549 18.9089 40.7109 16.1945C40.8186 14.3274 40.3315 13.2339 39.7677 12.5901L41.7328 12.1146C41.733 12.1153 43.2618 11.7207 39.0037 10.5117ZM19.8711 10.4589L23.7176 9.66836L36.7167 6.99704L38.6534 6.5987C38.0346 7.7313 38.0605 9.2813 38.1629 10.2775C38.1854 10.5029 38.2112 10.7087 38.2363 10.8651L36.1165 11.3922L19.7094 15.4738L19.8711 10.4589ZM3.34799 14.4677L5.28442 14.8661L17.7682 17.4324L18.8588 17.6557L22.1294 18.3279L22.2907 23.3429L5.42781 19.1476L3.76538 18.7344C3.78982 18.5778 3.81564 18.3722 3.83908 18.1462C3.94086 17.1507 3.96731 15.6004 3.34799 14.4677ZM2.59568 8.12789C2.57224 7.03201 2.76752 6.23947 3.16223 5.83661C3.41342 5.57941 3.70985 5.52589 3.91316 5.52589C4.02058 5.52589 4.09792 5.5408 4.10318 5.5408L14.0814 8.79384L19.0596 10.4169L18.8963 15.4669L4.93032 11.5514L4.1933 11.3449C4.16623 11.3373 4.1295 11.332 4.10118 11.3308C4.04364 11.3266 2.66286 11.1995 2.59568 8.12789ZM17.6207 31.2047L2.91806 27.0827C2.89086 27.0748 2.85451 27.0695 2.82619 27.0681C2.76765 27.0642 1.38624 26.9373 1.31943 23.8664C1.29562 22.7691 1.49191 21.9773 1.88586 21.5741C2.13768 21.3169 2.43424 21.2634 2.63717 21.2634C2.74484 21.2634 2.82192 21.2778 2.82756 21.2778L17.783 26.1546L17.6207 31.2047ZM36.8866 26.0146C36.9098 26.2407 36.9356 26.4462 36.9606 26.6028L18.4334 31.2118L18.5954 26.1969L22.5563 25.3825L23.1413 25.524L25.3338 24.8114L35.4404 22.7346L37.3778 22.336C36.7583 23.4685 36.784 25.0191 36.8866 26.0146ZM37.9071 19.1991C37.8734 19.1998 37.8397 19.2043 37.808 19.2144L36.4106 19.6056L23.1057 23.3363L22.943 18.2863L27.3082 16.8626L37.878 13.4155C37.8794 13.4149 38.4341 13.2917 38.8412 13.7057C39.2352 14.1085 39.4308 14.9011 39.4077 15.9969C39.3388 19.0676 37.9574 19.1952 37.9071 19.1991Z" fill="white"/>
</svg>
