<svg width="22" height="22" viewBox="0 0 22 22" fill="none" xmlns="http://www.w3.org/2000/svg">
<path d="M11 22C17.0736 22 22 17.0736 22 11C22 4.92642 17.0736 0 11 0C4.92642 0 0 4.92642 0 11C0 17.0736 4.92642 22 11 22ZM10.2143 4.71429C10.2143 4.28214 10.5678 3.92856 11 3.92856C11.4322 3.92856 11.7857 4.28214 11.7857 4.71429V10.6229L15.4197 13.53C15.7575 13.8011 15.8125 14.2961 15.5414 14.6339C15.3882 14.8264 15.1604 14.9286 14.9286 14.9286C14.7557 14.9286 14.5828 14.8735 14.4375 14.7557L10.509 11.6129C10.3243 11.4636 10.2143 11.2397 10.2143 11V4.71429H10.2143Z" fill="url(#paint0_linear_631_33199)"/>
<defs>
<linearGradient id="paint0_linear_631_33199" x1="-1.17209e-07" y1="12.806" x2="22.0007" y2="12.8307" gradientUnits="userSpaceOnUse">
<stop stop-color="#957DF3"/>
<stop offset="1" stop-color="#662D91"/>
</linearGradient>
</defs>
</svg>
