<svg width="20" height="26" viewBox="0 0 20 26" fill="none" xmlns="http://www.w3.org/2000/svg">
<path d="M19.5913 5.57537L14.1746 0.158691C14.0731 0.0571289 13.9355 0 13.7916 0H2.41663C1.2217 0 0.25 0.971699 0.25 2.16668V23.8334C0.25 25.0283 1.2217 26 2.41668 26H17.5834C18.7783 26 19.75 25.0283 19.75 23.8333V5.95832C19.75 5.81445 19.6929 5.67694 19.5913 5.57537ZM14.3333 1.8493L17.9007 5.41668H15.4166C14.8194 5.41668 14.3333 4.93055 14.3333 4.33337V1.8493ZM18.6667 23.8333C18.6667 24.4305 18.1806 24.9166 17.5834 24.9166H2.41668C1.8195 24.9166 1.33337 24.4305 1.33337 23.8333V2.16668C1.33337 1.5695 1.8195 1.08337 2.41668 1.08337H13.25V4.33337C13.25 5.5283 14.2217 6.5 15.4167 6.5H18.6667V23.8333Z" fill="url(#paint0_linear_694_44586)"/>
<path d="M12.7617 15.9008C12.2603 15.5061 11.7837 15.1005 11.4663 14.7831C11.0537 14.3705 10.6861 13.9706 10.3666 13.5897C10.8649 12.0499 11.0834 11.2559 11.0834 10.8327C11.0834 9.03474 10.4338 8.66602 9.45837 8.66602C8.71727 8.66602 7.83337 9.05109 7.83337 10.8845C7.83337 11.6928 8.27613 12.6741 9.15368 13.8145C8.93893 14.4699 8.68659 15.2258 8.40308 16.078C8.26658 16.4869 8.1185 16.8656 7.96189 17.2158C7.83699 17.271 7.71336 17.329 7.59109 17.3898C7.16052 17.6051 6.75163 17.7987 6.37234 17.9786C4.64258 18.7974 3.5 19.3391 3.5 20.4087C3.5 21.1852 4.34373 21.666 5.125 21.666C6.13214 21.666 7.65294 20.3208 8.76378 18.0547C9.91692 17.5998 11.3505 17.2628 12.4819 17.0518C13.3886 17.749 14.3899 18.416 14.875 18.416C16.2181 18.416 16.5 17.6395 16.5 16.9883C16.5 15.7076 15.0368 15.7076 14.3333 15.7076C14.1149 15.7077 13.5288 15.7722 12.7617 15.9008ZM5.125 20.5827C4.81554 20.5827 4.60607 20.4367 4.58332 20.4087C4.58332 20.0246 5.72854 19.4819 6.83623 18.9572C6.90656 18.9239 6.97801 18.8905 7.05047 18.8561C6.23691 20.0358 5.43233 20.5827 5.125 20.5827ZM8.91668 10.8845C8.91668 9.74938 9.269 9.74938 9.45837 9.74938C9.84136 9.74938 10.0001 9.74938 10.0001 10.8327C10.0001 11.0612 9.84771 11.6325 9.56892 12.5244C9.14357 11.8695 8.91668 11.3083 8.91668 10.8845ZM9.33192 16.7064C9.36601 16.6116 9.39881 16.5164 9.43034 16.4208C9.63133 15.8177 9.81226 15.2761 9.97359 14.7884C10.1984 15.0359 10.4407 15.2893 10.7004 15.549C10.802 15.6506 11.0538 15.8791 11.3892 16.1652C10.7215 16.3107 10.0111 16.4911 9.33192 16.7064ZM15.4167 16.9884C15.4167 17.2317 15.4167 17.3327 14.9142 17.3359C14.7666 17.3042 14.4254 17.1032 14.0043 16.8165C14.1572 16.7995 14.2698 16.7911 14.3333 16.7911C15.1337 16.7911 15.3606 16.8693 15.4167 16.9884Z" fill="url(#paint1_linear_694_44586)"/>
<defs>
<linearGradient id="paint0_linear_694_44586" x1="0.25" y1="9.89552" x2="19.75" y2="9.89552" gradientUnits="userSpaceOnUse">
<stop stop-color="#6CD4FF"/>
<stop offset="1" stop-color="#00B2F7"/>
</linearGradient>
<linearGradient id="paint1_linear_694_44586" x1="3.5" y1="13.6138" x2="16.5" y2="13.6138" gradientUnits="userSpaceOnUse">
<stop stop-color="#6CD4FF"/>
<stop offset="1" stop-color="#00B2F7"/>
</linearGradient>
</defs>
</svg>
