<svg width="32" height="32" viewBox="0 0 32 32" fill="none" xmlns="http://www.w3.org/2000/svg">
<path d="M21.1932 15.404C20.9665 14.952 20.5052 14.6667 19.9999 14.6667H17.3332V1.33331C17.3332 0.597313 16.7372 0 15.9999 0C15.2626 0 14.6666 0.597313 14.6666 1.33331V14.6666H11.9999C11.4946 14.6666 11.0332 14.9519 10.8066 15.4039C10.5826 15.8559 10.6306 16.3959 10.9333 16.7999L14.9333 22.1332C14.9506 22.1559 14.9773 22.1639 14.996 22.1852C15.084 22.2892 15.188 22.3692 15.304 22.4426C15.352 22.4719 15.3893 22.5106 15.4413 22.5346C15.612 22.6146 15.7986 22.6666 16 22.6666C16.2013 22.6666 16.388 22.6146 16.56 22.5346C16.6106 22.5106 16.6493 22.4719 16.696 22.4426C16.812 22.3692 16.916 22.2892 17.004 22.1852C17.0213 22.1639 17.0493 22.1559 17.0666 22.1332L21.0666 16.7999C21.3706 16.396 21.4186 15.856 21.1932 15.404Z" fill="#828282"/>
<path d="M30.6667 20C29.9294 20 29.3334 20.5973 29.3334 21.3333V25.3333C29.3334 27.5386 27.5387 29.3333 25.3334 29.3333H6.66669C4.46138 29.3333 2.66669 27.5386 2.66669 25.3333V21.3333C2.66669 20.5973 2.07069 20 1.33337 20C0.596 20 0 20.5973 0 21.3333V25.3333C0 29.0093 2.99069 32 6.66669 32H25.3334C29.0093 32 32 29.0093 32 25.3333V21.3333C32 20.5973 31.404 20 30.6667 20Z" fill="#828282"/>
</svg>
