<svg width="22" height="22" viewBox="0 0 22 22" fill="none" xmlns="http://www.w3.org/2000/svg">
<path d="M21.4065 9.56876C21.406 9.56826 21.4054 9.56775 21.4049 9.56725L12.4309 0.593495C12.0483 0.210812 11.5398 0 10.9988 0C10.4579 0 9.94928 0.210644 9.5666 0.593327L0.59721 9.56255C0.594189 9.56557 0.591168 9.56876 0.588146 9.57178C-0.197361 10.3618 -0.196019 11.6436 0.592007 12.4317C0.952031 12.7919 1.42753 13.0005 1.93593 13.0223C1.95657 13.0243 1.97739 13.0253 1.99837 13.0253H2.35604V19.6295C2.35604 20.9363 3.41933 21.9996 4.7265 21.9996H8.23745C8.59328 21.9996 8.88197 21.7111 8.88197 21.3551V16.1774C8.88197 15.5811 9.36703 15.096 9.96338 15.096H12.0342C12.6306 15.096 13.1157 15.5811 13.1157 16.1774V21.3551C13.1157 21.7111 13.4042 21.9996 13.7602 21.9996H17.2711C18.5783 21.9996 19.6416 20.9363 19.6416 19.6295V13.0253H19.9732C20.514 13.0253 21.0226 12.8147 21.4054 12.432C22.1943 11.6426 22.1946 10.3586 21.4065 9.56876Z" fill="#ABABAB"/>
</svg>
