<svg width="20" height="20" viewBox="0 0 20 20" fill="none" xmlns="http://www.w3.org/2000/svg">
<path d="M14.2642 0.526367H5.73787C4.35595 0.526367 3.03063 1.07533 2.05347 2.05249C1.07631 3.02966 0.527344 4.35498 0.527344 5.73689V14.2632C0.527344 15.6451 1.07631 16.9704 2.05347 17.9476C3.03063 18.9248 4.35595 19.4737 5.73787 19.4737H14.2642C15.6461 19.4737 16.9714 18.9248 17.9486 17.9476C18.9257 16.9704 19.4747 15.6451 19.4747 14.2632V5.73689C19.4747 4.35498 18.9257 3.02966 17.9486 2.05249C16.9714 1.07533 15.6461 0.526367 14.2642 0.526367ZM17.8168 13.5148C17.8168 14.6555 17.3637 15.7495 16.5571 16.5561C15.7505 17.3627 14.6565 17.8158 13.5158 17.8158H6.48629C5.34558 17.8158 4.25159 17.3627 3.44499 16.5561C2.63838 15.7495 2.18524 14.6555 2.18524 13.5148V6.48531C2.18524 5.3446 2.63838 4.25061 3.44499 3.44401C4.25159 2.63741 5.34558 2.18426 6.48629 2.18426H13.5158C14.6565 2.18426 15.7505 2.63741 16.5571 3.44401C17.3637 4.25061 17.8168 5.3446 17.8168 6.48531V13.5148Z" fill="white"/>
<path d="M13.4583 6.58002L13.4133 6.53502L13.3754 6.49712C12.4799 5.60472 11.267 5.1039 10.0028 5.10449C9.36433 5.10883 8.73301 5.23892 8.14487 5.48732C7.55673 5.73573 7.0233 6.09758 6.57505 6.5522C6.1268 7.00683 5.77252 7.54532 5.53246 8.13691C5.29239 8.7285 5.17123 9.36159 5.17591 10C5.17495 11.2957 5.68567 12.5393 6.59696 13.4603C7.04334 13.9121 7.57524 14.2704 8.16162 14.5144C8.748 14.7584 9.37711 14.8831 10.0122 14.8813C10.9649 14.8614 11.8912 14.5646 12.6781 14.0272C13.465 13.4899 14.0785 12.7351 14.4438 11.8551C14.8092 10.975 14.9105 10.0076 14.7355 9.07098C14.5605 8.13431 14.1167 7.26881 13.4583 6.58002ZM10.0028 13.2116C9.36572 13.2205 8.74043 13.0398 8.2064 12.6924C7.67238 12.3449 7.25374 11.8465 7.00375 11.2605C6.75376 10.6745 6.68371 10.0274 6.8025 9.40151C6.92129 8.77559 7.22356 8.19914 7.67086 7.74548C8.11816 7.29182 8.69029 6.98145 9.31447 6.85384C9.93865 6.72623 10.5867 6.78715 11.1762 7.02884C11.7656 7.27054 12.2699 7.6821 12.6248 8.21117C12.9797 8.74025 13.1693 9.36293 13.1693 10C13.1725 10.4189 13.093 10.8342 12.9355 11.2223C12.7781 11.6105 12.5456 11.9637 12.2516 12.262C11.9575 12.5603 11.6075 12.7976 11.2216 12.9606C10.8358 13.1235 10.4216 13.2088 10.0028 13.2116Z" fill="white"/>
<path d="M16.2596 4.87928C16.2608 5.03126 16.2321 5.18199 16.175 5.32285C16.1179 5.46371 16.0336 5.59193 15.9269 5.70016C15.8202 5.8084 15.6932 5.89453 15.5532 5.95362C15.4132 6.01271 15.2629 6.04361 15.1109 6.04454C14.9602 6.04447 14.811 6.0145 14.6719 5.95636C14.5329 5.89822 14.4068 5.81308 14.3009 5.70585C14.1404 5.54306 14.0313 5.33675 13.987 5.11251C13.9427 4.88826 13.9652 4.65595 14.0517 4.44437C14.1382 4.23279 14.2849 4.05125 14.4736 3.92227C14.6623 3.79328 14.8847 3.72252 15.1132 3.71875C15.3807 3.7187 15.6397 3.81258 15.8451 3.98401L15.8688 4.0077C15.907 4.03879 15.9419 4.07371 15.973 4.11191L15.999 4.14033C16.1686 4.34919 16.2606 4.61027 16.2596 4.87928Z" fill="white"/>
</svg>
