<svg width="20" height="14" viewBox="0 0 20 14" fill="none" xmlns="http://www.w3.org/2000/svg">
<path d="M18.5795 2.67087C18.2195 1.55298 17.0282 0.892187 15.9221 0.738239C11.9795 0.319024 8.00363 0.319024 4.06105 0.738239C2.96448 0.892187 1.77316 1.56245 1.41316 2.67087C0.851863 5.5307 0.851863 8.47236 1.41316 11.3322C1.78263 12.4477 2.97395 13.1109 4.08 13.2648C8.0227 13.6817 11.9984 13.6817 15.9411 13.2648C17.0376 13.1109 18.229 12.4382 18.5889 11.3322C19.1471 8.47175 19.1439 5.53008 18.5795 2.67087ZM7.84816 10.4488V3.55192L13.4637 7.00034C11.5713 8.16324 9.73342 9.29534 7.84816 10.4488Z" fill="white"/>
</svg>
