<svg width="25" height="14" viewBox="0 0 25 14" fill="none" xmlns="http://www.w3.org/2000/svg">
<path fill-rule="evenodd" clip-rule="evenodd" d="M12.3217 13.895H13.7345C13.7345 13.895 14.1612 13.8481 14.3791 13.6132C14.5796 13.3976 14.5732 12.9927 14.5732 12.9927C14.5732 12.9927 14.5456 11.097 15.4254 10.8178C16.2927 10.5429 17.4065 12.65 18.5869 13.4602C19.4796 14.0734 20.1579 13.9389 20.1579 13.9389L23.3143 13.895C23.3143 13.895 24.9655 13.7932 24.1825 12.495C24.1184 12.3888 23.7266 11.5347 21.8357 9.77951C19.8566 7.94255 20.1216 8.23967 22.5057 5.06212C23.9576 3.12697 24.5381 1.94554 24.3568 1.43953C24.1838 0.957593 23.116 1.08498 23.116 1.08498L19.5621 1.10712C19.5621 1.10712 19.2986 1.07118 19.1032 1.18797C18.9123 1.30252 18.7894 1.56949 18.7894 1.56949C18.7894 1.56949 18.2269 3.06697 17.4767 4.34049C15.8942 7.02776 15.2615 7.16958 15.0029 7.00273C14.4012 6.61384 14.5514 5.44043 14.5514 4.60681C14.5514 2.00266 14.9464 0.916843 13.7823 0.635764C13.396 0.542391 13.1117 0.480785 12.1237 0.470838C10.8556 0.457683 9.78235 0.474688 9.17463 0.772453C8.77033 0.970428 8.45845 1.41162 8.6484 1.43697C8.88328 1.46841 9.41528 1.5804 9.69732 1.96447C10.0615 2.45989 10.0487 3.57266 10.0487 3.57266C10.0487 3.57266 10.2579 6.63822 9.55999 7.01909C9.08093 7.28028 8.4238 6.747 7.01294 4.30905C6.29003 3.06023 5.74424 1.67986 5.74424 1.67986C5.74424 1.67986 5.63899 1.42189 5.45128 1.28391C5.22347 1.11674 4.90517 1.06348 4.90517 1.06348L1.52804 1.08562C1.52804 1.08562 1.02107 1.09974 0.834971 1.32017C0.669403 1.51622 0.821815 1.9218 0.821815 1.9218C0.821815 1.9218 3.46576 8.10747 6.45945 11.2247C9.20447 14.0827 12.3217 13.895 12.3217 13.895Z" fill="white"/>
</svg>
