<svg width="22" height="32" viewBox="0 0 22 32" fill="none" xmlns="http://www.w3.org/2000/svg">
<path d="M10.9987 0C5.11722 0 0.332031 4.78519 0.332031 10.6667C0.332031 12.4323 0.773469 14.1829 1.61266 15.7357L10.4154 31.6562C10.5326 31.8685 10.7559 32 10.9987 32C11.2415 32 11.4648 31.8685 11.582 31.6562L20.388 15.7304C21.224 14.1829 21.6654 12.4323 21.6654 10.6666C21.6654 4.78519 16.8802 0 10.9987 0ZM10.9987 16C8.05797 16 5.66541 13.6074 5.66541 10.6667C5.66541 7.72594 8.05797 5.33337 10.9987 5.33337C13.9395 5.33337 16.332 7.72594 16.332 10.6667C16.332 13.6074 13.9395 16 10.9987 16Z" fill="#6C379D"/>
</svg>
