<svg width="24" height="18" viewBox="0 0 24 18" fill="none" xmlns="http://www.w3.org/2000/svg">
<path d="M14.0057 11.7031C13.4086 12.1012 12.7151 12.3116 12 12.3116C11.285 12.3116 10.5914 12.1012 9.99431 11.7031L0.159797 5.14655C0.105234 5.11017 0.0520781 5.07225 0 5.03325V15.7769C0 17.0086 0.999609 17.9862 2.20936 17.9862H21.7906C23.0224 17.9862 24 16.9866 24 15.7769V5.0332C23.9478 5.0723 23.8945 5.11031 23.8398 5.14673L14.0057 11.7031Z" fill="url(#paint0_linear_694_44311)"/>
<path d="M0.939844 3.97697L10.7744 10.5336C11.1466 10.7818 11.5733 10.9058 12 10.9058C12.4267 10.9058 12.8534 10.7817 13.2256 10.5336L23.0602 3.97697C23.6487 3.58486 24 2.92861 24 2.22033C24 1.00247 23.0092 0.0117188 21.7914 0.0117188H2.20861C0.990797 0.0117656 0 1.00252 0 2.2215C0 2.92861 0.351375 3.58486 0.939844 3.97697Z" fill="url(#paint1_linear_694_44311)"/>
<defs>
<linearGradient id="paint0_linear_694_44311" x1="-1.27864e-07" y1="12.573" x2="24.0007" y2="12.6231" gradientUnits="userSpaceOnUse">
<stop stop-color="#957DF3"/>
<stop offset="1" stop-color="#662D91"/>
</linearGradient>
<linearGradient id="paint1_linear_694_44311" x1="-1.27865e-07" y1="6.35307" x2="24.0007" y2="6.4126" gradientUnits="userSpaceOnUse">
<stop stop-color="#957DF3"/>
<stop offset="1" stop-color="#662D91"/>
</linearGradient>
</defs>
</svg>
