<svg width="26" height="32" viewBox="0 0 26 32" fill="none" xmlns="http://www.w3.org/2000/svg">
<path d="M24.1124 6.64175L18.0859 0.940375C17.4449 0.333937 16.6059 0 15.7236 0H4.25C2.35456 0 0.8125 1.54206 0.8125 3.4375V28.5625C0.8125 30.4579 2.35456 32 4.25 32H21.75C23.6454 32 25.1875 30.4579 25.1875 28.5625V9.13888C25.1875 8.19831 24.7956 7.28813 24.1124 6.64175ZM22.2913 7.5H17.625C17.4527 7.5 17.3125 7.35981 17.3125 7.1875V2.78975L22.2913 7.5ZM21.75 30.125H4.25C3.38844 30.125 2.6875 29.4241 2.6875 28.5625V3.4375C2.6875 2.57594 3.38844 1.875 4.25 1.875H15.4375V7.1875C15.4375 8.39369 16.4188 9.375 17.625 9.375H23.3125V28.5625C23.3125 29.4241 22.6116 30.125 21.75 30.125Z" fill="#6C379D"/>
<path d="M19.6875 12.5H5.9375C5.41975 12.5 5 12.9197 5 13.4375C5 13.9553 5.41975 14.375 5.9375 14.375H19.6875C20.2052 14.375 20.625 13.9553 20.625 13.4375C20.625 12.9197 20.2052 12.5 19.6875 12.5Z" fill="#6C379D"/>
<path d="M19.6875 17.5H5.9375C5.41975 17.5 5 17.9197 5 18.4375C5 18.9553 5.41975 19.375 5.9375 19.375H19.6875C20.2052 19.375 20.625 18.9553 20.625 18.4375C20.625 17.9197 20.2052 17.5 19.6875 17.5Z" fill="#6C379D"/>
<path d="M10.4825 22.5H5.9375C5.41975 22.5 5 22.9197 5 23.4375C5 23.9553 5.41975 24.375 5.9375 24.375H10.4825C11.0002 24.375 11.42 23.9553 11.42 23.4375C11.42 22.9197 11.0002 22.5 10.4825 22.5Z" fill="#6C379D"/>
</svg>
