<svg width="29" height="28" viewBox="0 0 29 28" fill="none" xmlns="http://www.w3.org/2000/svg">
<path d="M27.9224 16.9691C27.517 16.9691 27.1885 17.2976 27.1885 17.703V24.2193C27.1871 25.4345 26.2024 26.4195 24.9869 26.421H4.39498C3.17949 26.4195 2.19478 25.4345 2.19334 24.2193V5.09518C2.19478 3.87969 3.17949 2.89497 4.39498 2.89354H10.911C11.3164 2.89354 11.6449 2.56501 11.6449 2.15966C11.6449 1.75431 11.3164 1.42578 10.911 1.42578H4.39498C2.36936 1.42807 0.727879 3.06956 0.725586 5.09518V24.2193C0.727879 26.2449 2.36936 27.8864 4.39498 27.8887H24.9869C27.0125 27.8864 28.654 26.2449 28.6563 24.2193V17.7033C28.6563 17.2979 28.3278 16.9691 27.9224 16.9691Z" fill="#828282"/>
<path d="M12.2012 13.1064L22.9167 2.39062L26.3725 5.84645L15.657 16.5622L12.2012 13.1064Z" fill="#828282"/>
<path d="M10.4531 18.3112L14.2722 17.2534L11.5109 14.4922L10.4531 18.3112Z" fill="#828282"/>
<path d="M27.3281 0.575497C26.6111 -0.139749 25.4504 -0.139749 24.7334 0.575497L23.9551 1.35381L27.4109 4.80964L28.1892 4.03132C28.9047 3.31436 28.9047 2.15362 28.1892 1.43666L27.3281 0.575497Z" fill="#828282"/>
</svg>
