<svg width="42" height="40" viewBox="0 0 42 40" fill="none" xmlns="http://www.w3.org/2000/svg">
<path d="M36.2727 0.90918H5.72727C4.20967 0.913612 2.75549 1.51844 1.68238 2.59156C0.609263 3.66467 0.00443217 5.11885 0 6.63645L0 27.6365C0.00443217 29.1541 0.609263 30.6082 1.68238 31.6813C2.75549 32.7545 4.20967 33.3593 5.72727 33.3637H14.49L19.6445 38.5374C20.0065 38.8922 20.4931 39.091 21 39.091C21.5069 39.091 21.9935 38.8922 22.3555 38.5374L27.51 33.3637H36.2727C37.7903 33.3593 39.2445 32.7545 40.3176 31.6813C41.3907 30.6082 41.9956 29.1541 42 27.6365V6.63645C41.9956 5.11885 41.3907 3.66467 40.3176 2.59156C39.2445 1.51844 37.7903 0.913612 36.2727 0.90918ZM30.5264 24.7537C30.5754 25.0531 30.5525 25.3599 30.4595 25.6487C30.3666 25.9375 30.2063 26.2 29.9918 26.4146C29.6327 26.776 29.1458 26.9817 28.6364 26.9874C28.5274 26.983 28.4189 26.9702 28.3118 26.9492L24.4936 26.3192C23.3822 26.7622 22.1965 26.989 21 26.9874C18.9541 26.9914 16.9608 26.3393 15.3128 25.1268C13.6649 23.9143 12.4492 22.2053 11.8442 20.2508C11.2393 18.2964 11.277 16.1994 11.9519 14.268C12.6267 12.3366 13.9031 10.6724 15.5936 9.51999C17.2841 8.36755 19.2996 7.78755 21.344 7.86518C23.3885 7.9428 25.3542 8.67396 26.9524 9.95127C28.5506 11.2286 29.6972 12.9847 30.2236 14.9618C30.7501 16.9388 30.6287 19.0326 29.8773 20.9355L30.5264 24.7537Z" fill="url(#paint0_linear_614_34964)"/>
<defs>
<linearGradient id="paint0_linear_614_34964" x1="-2.23763e-07" y1="23.1344" x2="42.0013" y2="23.1864" gradientUnits="userSpaceOnUse">
<stop stop-color="#957DF3"/>
<stop offset="1" stop-color="#662D91"/>
</linearGradient>
</defs>
</svg>
