<svg width="42" height="42" viewBox="0 0 42 42" fill="none" xmlns="http://www.w3.org/2000/svg">
<path d="M30.9282 0H11.0718C4.95904 0 0 4.95904 0 11.0718V21.9412C0 27.9325 4.77687 32.8106 10.748 32.9928V42L19.7552 32.9928H30.9282C37.041 32.9928 42 28.054 42 21.9412V11.0718C42 4.95904 37.041 0 30.9282 0ZM34.5311 20.7065L28.56 19.2492V19.7552C28.56 21.4149 27.2039 22.7913 25.5239 22.7913H10.5051C8.82506 22.7913 7.46892 21.4149 7.46892 19.7552V11.8005C7.46892 10.1205 8.82506 8.76434 10.5051 8.76434H25.5239C27.2039 8.76434 28.56 10.1205 28.56 11.8005V12.2863L34.5311 10.8289V20.7065Z" fill="white"/>
<path d="M12.344 15.7717C13.4552 15.7717 14.3559 14.8709 14.3559 13.7598C14.3559 12.6486 13.4552 11.7478 12.344 11.7478C11.2328 11.7478 10.332 12.6486 10.332 13.7598C10.332 14.8709 11.2328 15.7717 12.344 15.7717Z" fill="white"/>
</svg>
