<svg width="38" height="36" viewBox="0 0 38 36" fill="none" xmlns="http://www.w3.org/2000/svg">
<path d="M31.7969 0.9375H6.20312C3.13184 0.9375 0.625 3.44434 0.625 6.51562V23.565C0.625 26.5444 2.97435 28.9856 5.91441 29.13V32.8968C5.91441 33.7369 6.38689 34.485 7.13503 34.8393C7.43688 34.9969 7.765 35.0625 8.07999 35.0625C8.55247 35.0625 9.02503 34.905 9.41877 34.59L13.1069 31.6762C15.1807 30.0356 17.7925 29.13 20.4307 29.13H31.7969C34.8682 29.13 37.375 26.6362 37.375 23.5518V6.51562C37.375 3.44434 34.8682 0.9375 31.7969 0.9375ZM11.125 13.485C10.4031 13.485 9.8125 12.8944 9.8125 12.1725C9.8125 11.4506 10.4031 10.86 11.125 10.86H26.875C27.5969 10.86 28.1875 11.4506 28.1875 12.1725C28.1875 12.8944 27.5969 13.485 26.875 13.485H11.125ZM20.3125 17.9081C20.3125 18.63 19.7219 19.2206 19 19.2206H11.125C10.4031 19.2206 9.8125 18.63 9.8125 17.9081C9.8125 17.1731 10.4031 16.5956 11.125 16.5956H19C19.7219 16.5956 20.3125 17.1731 20.3125 17.9081Z" fill="white"/>
</svg>
