<svg width="30" height="38" viewBox="0 0 30 38" fill="none" xmlns="http://www.w3.org/2000/svg">
<path d="M20.25 0.625093H20.8275C21.1528 0.625942 21.4662 0.747552 21.7069 0.966343L29.0044 7.52884C29.1403 7.65156 29.2491 7.80136 29.3237 7.96864C29.3983 8.13591 29.4371 8.31694 29.4375 8.50009H21.5625C21.2144 8.50009 20.8806 8.36181 20.6344 8.11567C20.3883 7.86953 20.25 7.53569 20.25 7.18759V0.625093ZM29.4375 11.1251V33.4376C29.3931 34.518 28.9244 35.5374 28.1332 36.2745C27.342 37.0116 26.2921 37.4071 25.2113 37.3751H4.78875C3.70787 37.4071 2.65795 37.0116 1.86677 36.2745C1.07558 35.5374 0.606939 34.518 0.5625 33.4376V4.56259C0.606939 3.48215 1.07558 2.4628 1.86677 1.72567C2.65795 0.988541 3.70787 0.593086 4.78875 0.625093H17.625V7.18759C17.625 8.23188 18.0398 9.2334 18.7783 9.97183C19.5167 10.7103 20.5182 11.1251 21.5625 11.1251H29.4375ZM21.5625 29.5001C21.5625 29.152 21.4242 28.8182 21.1781 28.572C20.9319 28.3259 20.5981 28.1876 20.25 28.1876H9.75C9.4019 28.1876 9.06806 28.3259 8.82192 28.572C8.57578 28.8182 8.4375 29.152 8.4375 29.5001C8.4375 29.8482 8.57578 30.182 8.82192 30.4282C9.06806 30.6743 9.4019 30.8126 9.75 30.8126H20.25C20.5981 30.8126 20.9319 30.6743 21.1781 30.4282C21.4242 30.182 21.5625 29.8482 21.5625 29.5001ZM21.5625 22.9376C21.5625 22.5895 21.4242 22.2557 21.1781 22.0095C20.9319 21.7634 20.5981 21.6251 20.25 21.6251H9.75C9.4019 21.6251 9.06806 21.7634 8.82192 22.0095C8.57578 22.2557 8.4375 22.5895 8.4375 22.9376C8.4375 23.2857 8.57578 23.6195 8.82192 23.8657C9.06806 24.1118 9.4019 24.2501 9.75 24.2501H20.25C20.5981 24.2501 20.9319 24.1118 21.1781 23.8657C21.4242 23.6195 21.5625 23.2857 21.5625 22.9376ZM21.5625 16.3751C21.5625 16.027 21.4242 15.6932 21.1781 15.447C20.9319 15.2009 20.5981 15.0626 20.25 15.0626H9.75C9.4019 15.0626 9.06806 15.2009 8.82192 15.447C8.57578 15.6932 8.4375 16.027 8.4375 16.3751C8.4375 16.7232 8.57578 17.057 8.82192 17.3032C9.06806 17.5493 9.4019 17.6876 9.75 17.6876H20.25C20.5981 17.6876 20.9319 17.5493 21.1781 17.3032C21.4242 17.057 21.5625 16.7232 21.5625 16.3751Z" fill="url(#paint0_linear_379_14696)"/>
<defs>
<linearGradient id="paint0_linear_379_14696" x1="0.5625" y1="22.0172" x2="29.4384" y2="22.0427" gradientUnits="userSpaceOnUse">
<stop stop-color="#957DF3"/>
<stop offset="1" stop-color="#662D91"/>
</linearGradient>
</defs>
</svg>
