<svg width="42" height="42" viewBox="0 0 42 42" fill="none" xmlns="http://www.w3.org/2000/svg">
<path d="M34.4315 4.82623C32.2142 2.98113 29.6389 1.61526 26.8676 0.814705C24.0964 0.0141458 21.1894 -0.203755 18.3298 0.174732C13.0396 0.861988 8.2093 3.53678 4.81962 7.656C1.42993 11.7752 -0.265039 17.0301 0.0788723 22.3536C0.422784 27.6771 2.7798 32.6701 6.67132 36.319C10.5628 39.9678 15.6972 41.9989 21.0318 41.9997H33.2503C35.57 41.997 37.794 41.0742 39.4344 39.4338C41.0747 37.7935 41.9975 35.5695 42.0003 33.2497V19.7905V19.6802C41.815 16.8198 41.0483 14.0271 39.7469 11.4731C38.4455 8.91909 36.6369 6.65736 34.4315 4.82623ZM14.0003 12.2497H21.0003C21.4644 12.2497 21.9095 12.4341 22.2377 12.7623C22.5659 13.0905 22.7503 13.5356 22.7503 13.9997C22.7503 14.4639 22.5659 14.909 22.2377 15.2372C21.9095 15.5654 21.4644 15.7497 21.0003 15.7497H14.0003C13.5361 15.7497 13.091 15.5654 12.7628 15.2372C12.4346 14.909 12.2503 14.4639 12.2503 13.9997C12.2503 13.5356 12.4346 13.0905 12.7628 12.7623C13.091 12.4341 13.5361 12.2497 14.0003 12.2497ZM28.0003 29.7497H14.0003C13.5361 29.7497 13.091 29.5654 12.7628 29.2372C12.4346 28.909 12.2503 28.4639 12.2503 27.9997C12.2503 27.5356 12.4346 27.0905 12.7628 26.7623C13.091 26.4341 13.5361 26.2497 14.0003 26.2497H28.0003C28.4644 26.2497 28.9095 26.4341 29.2377 26.7623C29.5659 27.0905 29.7503 27.5356 29.7503 27.9997C29.7503 28.4639 29.5659 28.909 29.2377 29.2372C28.9095 29.5654 28.4644 29.7497 28.0003 29.7497ZM28.0003 22.7497H14.0003C13.5361 22.7497 13.091 22.5654 12.7628 22.2372C12.4346 21.909 12.2503 21.4639 12.2503 20.9997C12.2503 20.5356 12.4346 20.0905 12.7628 19.7623C13.091 19.4341 13.5361 19.2497 14.0003 19.2497H28.0003C28.4644 19.2497 28.9095 19.4341 29.2377 19.7623C29.5659 20.0905 29.7503 20.5356 29.7503 20.9997C29.7503 21.4639 29.5659 21.909 29.2377 22.2372C28.9095 22.5654 28.4644 22.7497 28.0003 22.7497Z" fill="white"/>
</svg>
