<svg width="42" height="40" viewBox="0 0 42 40" fill="none" xmlns="http://www.w3.org/2000/svg">
<path d="M30.6418 9.7171C33.0468 9.7171 34.9964 7.76746 34.9964 5.36246C34.9964 2.95745 33.0468 1.00781 30.6418 1.00781C28.2367 1.00781 26.2871 2.95745 26.2871 5.36246C26.2871 7.76746 28.2367 9.7171 30.6418 9.7171Z" fill="white"/>
<path d="M41.7391 22.9123L35.0372 11.409C34.7162 10.8579 34.0643 10.4685 33.5731 10.4685C33.4553 10.4685 27.9863 10.4685 27.8685 10.4685C27.3773 10.4685 26.7254 10.8579 26.4044 11.409L21.355 20.076L15.7497 10.4548C15.3929 9.84233 14.7487 9.50284 14.0873 9.50403C14.0752 9.5033 14.0631 9.5022 14.0508 9.5022H8.66175C8.64944 9.5022 8.63741 9.5033 8.62528 9.50403C7.96385 9.50275 7.31978 9.84224 6.96293 10.4548L0.260996 21.9581C-0.272117 22.873 0.0375186 24.0469 0.952463 24.58C1.25613 24.7569 1.58818 24.8409 1.91591 24.8409C2.57587 24.8409 3.21819 24.4998 3.5744 23.8885L6.5304 18.8147V20.987L5.20745 30.5199C5.09603 31.3229 5.7198 32.0393 6.53049 32.0393V37.8744C6.53049 38.9715 7.38362 39.9059 8.47997 39.9449C9.63107 39.9859 10.5772 39.0649 10.5772 37.9229V32.0392H12.1758V37.8743C12.1758 38.9715 13.029 39.9059 14.1255 39.9448C15.2766 39.9857 16.2225 39.0648 16.2225 37.9228V32.0391C17.0332 32.0391 17.657 31.3227 17.5456 30.5197L16.2225 20.9866V18.8841L19.1379 23.8883C19.2371 24.0585 19.9255 25.2612 20.3938 25.5341C20.6975 25.7109 21.0295 25.795 21.3573 25.795C22.0172 25.795 22.6595 25.454 23.0157 24.8426L25.8884 19.9117L25.8608 36.8832C25.8608 38.0007 26.7666 38.9065 27.884 38.9065C27.8887 38.9065 27.8932 38.9059 27.8979 38.9058C27.9026 38.9058 27.9071 38.9065 27.9119 38.9065C29.0293 38.9065 29.9353 38.0007 29.9353 36.8832L29.9075 26.6428C29.9075 26.2171 30.2288 25.8454 30.6537 25.8179C31.1192 25.7878 31.5061 26.1564 31.5061 26.6154V36.8346C31.5061 37.9317 32.3593 38.8661 33.4556 38.9052C34.6067 38.9462 35.5529 38.0252 35.5529 36.8832V19.9118L38.4256 24.8427C38.7818 25.4541 39.4241 25.7951 40.0841 25.7951C40.4118 25.7951 40.744 25.711 41.0475 25.5342C41.9626 25.001 42.2721 23.8272 41.7391 22.9123Z" fill="white"/>
<path d="M4.55014 8.67568L5.62803 8.5796C6.24785 8.5244 6.6847 7.94499 6.56337 7.33454C6.37837 6.40168 6.31445 5.10702 7.08895 4.30643C7.08812 4.34014 7.08637 4.37358 7.08637 4.40738C7.08637 6.81226 9.03604 8.76193 11.4409 8.76193C13.8457 8.76193 15.7954 6.81226 15.7954 4.40738C15.7954 4.37358 15.7936 4.34014 15.7927 4.30643C16.5673 5.10711 16.5033 6.40168 16.3182 7.33454C16.1972 7.94499 16.6338 8.5244 17.2536 8.5796L18.3314 8.67568C18.9012 8.72647 19.4062 8.31185 19.4672 7.7431C19.6155 6.36209 19.5897 4.29017 18.8087 3.46745C17.6559 2.25307 16.23 2.24076 15.3089 2.4082C14.5846 1.00938 13.125 0.0527344 11.441 0.0527344C9.75708 0.0527344 8.29736 1.00929 7.57292 2.4082C6.65191 2.24085 5.22581 2.25307 4.07315 3.46745C3.29231 4.29017 3.2665 6.36219 3.41447 7.7431C3.47555 8.31185 3.98047 8.72647 4.55014 8.67568Z" fill="white"/>
</svg>
