<svg width="26" height="31" viewBox="0 0 26 31" fill="none" xmlns="http://www.w3.org/2000/svg">
<path d="M12.7364 14.9328C14.7879 14.9328 16.5641 14.1971 18.0158 12.7454C19.4671 11.2939 20.2031 9.51792 20.2031 7.46619C20.2031 5.41516 19.4673 3.63896 18.0156 2.18702C16.5639 0.735786 14.7877 0 12.7364 0C10.6847 0 8.90874 0.735786 7.45727 2.18726C6.0058 3.63873 5.26978 5.41492 5.26978 7.46619C5.26978 9.51792 6.0058 11.2941 7.45727 12.7456C8.90921 14.1968 10.6854 14.9328 12.7364 14.9328ZM8.742 3.47175C9.85573 2.35802 11.1622 1.81664 12.7364 1.81664C14.3104 1.81664 15.6171 2.35802 16.7311 3.47175C17.8448 4.58572 18.3865 5.89244 18.3865 7.46619C18.3865 9.04041 17.8448 10.3469 16.7311 11.4609C15.6171 12.5748 14.3104 13.1162 12.7364 13.1162C11.1627 13.1162 9.8562 12.5746 8.742 11.4609C7.62803 10.3471 7.08642 9.04041 7.08642 7.46619C7.08642 5.89244 7.62803 4.58572 8.742 3.47175Z" fill="white"/>
<path d="M25.801 23.8379C25.7592 23.2338 25.6745 22.5749 25.5498 21.8791C25.424 21.1781 25.262 20.5154 25.0681 19.9097C24.8675 19.2836 24.5953 18.6654 24.2583 18.0729C23.9089 17.458 23.4983 16.9225 23.0376 16.4819C22.5558 16.0209 21.966 15.6503 21.2839 15.38C20.6042 15.1111 19.8509 14.9748 19.0451 14.9748C18.7286 14.9748 18.4226 15.1047 17.8315 15.4895C17.4678 15.7267 17.0423 16.0011 16.5674 16.3045C16.1613 16.5633 15.6112 16.8057 14.9317 17.0252C14.2687 17.2397 13.5956 17.3485 12.931 17.3485C12.2669 17.3485 11.5938 17.2397 10.9304 17.0252C10.2516 16.8059 9.70123 16.5635 9.29585 16.3047C8.82542 16.0041 8.3997 15.7298 8.03051 15.4893C7.43994 15.1045 7.1339 14.9746 6.81744 14.9746C6.01141 14.9746 5.25836 15.1111 4.57887 15.3802C3.89724 15.6501 3.30714 16.0207 2.8249 16.4821C2.36417 16.923 1.95359 17.4582 1.6045 18.0729C1.26794 18.6654 0.995483 19.2834 0.794922 19.9099C0.601219 20.5156 0.439209 21.1781 0.313385 21.8791C0.188507 22.574 0.104073 23.2331 0.0622101 23.8386C0.0210571 24.4306 0.000244141 25.0467 0.000244141 25.6692C0.000244141 27.2874 0.514656 28.5974 1.52905 29.5636C2.53091 30.5169 3.85632 31.0004 5.46862 31.0004H20.3953C22.0071 31.0004 23.3326 30.5169 24.3346 29.5636C25.3493 28.5981 25.8637 27.2876 25.8637 25.6689C25.8635 25.0443 25.8424 24.4282 25.801 23.8379ZM23.0821 28.2474C22.4201 28.8774 21.5412 29.1837 20.3951 29.1837H5.46862C4.32225 29.1837 3.44337 28.8774 2.78162 28.2476C2.13239 27.6296 1.81689 26.786 1.81689 25.6692C1.81689 25.0883 1.83604 24.5148 1.87436 23.9642C1.91173 23.424 1.98812 22.8306 2.10141 22.2C2.21328 21.5773 2.35566 20.9929 2.525 20.4638C2.68748 19.9565 2.9091 19.4541 3.18392 18.9702C3.44621 18.509 3.748 18.1133 4.08101 17.7945C4.39249 17.4963 4.7851 17.2522 5.24772 17.0692C5.67557 16.8998 6.15639 16.8071 6.67838 16.7931C6.742 16.827 6.85529 16.8915 7.03882 17.0112C7.41227 17.2546 7.84272 17.5322 8.31858 17.8362C8.85499 18.1782 9.54607 18.487 10.3717 18.7536C11.2158 19.0265 12.0767 19.1651 12.9313 19.1651C13.7858 19.1651 14.6469 19.0265 15.4905 18.7538C16.3169 18.4868 17.0078 18.1782 17.5449 17.8357C18.0319 17.5244 18.4502 17.2548 18.8237 17.0112C19.0072 16.8918 19.1205 16.827 19.1841 16.7931C19.7064 16.8071 20.1872 16.8998 20.6153 17.0692C21.0777 17.2522 21.4703 17.4965 21.7817 17.7945C22.1148 18.1131 22.4165 18.5088 22.6788 18.9705C22.9539 19.4541 23.1757 19.9567 23.338 20.4636C23.5076 20.9933 23.6502 21.5775 23.7618 22.1998C23.8749 22.8315 23.9515 23.4252 23.9889 23.9644V23.9649C24.0274 24.5133 24.0468 25.0866 24.0471 25.6692C24.0468 26.7862 23.7313 27.6296 23.0821 28.2474Z" fill="white"/>
</svg>
