<svg width="22" height="24" viewBox="0 0 22 24" fill="none" xmlns="http://www.w3.org/2000/svg">
<path d="M21.3974 6.15994V6.13335C21.156 5.15562 20.526 4.14517 19.6997 3.29426C18.7342 2.29608 17.5049 1.51267 16.3308 1.25904H16.3062C12.8049 0.588134 9.20804 0.588134 5.7067 1.25904H5.68216C3.5017 1.73154 1.13511 4.01017 0.607386 6.13335V6.15994C-0.0410038 9.10352 -0.0410038 12.153 0.607386 15.0965V15.1211C0.98375 16.6347 2.29284 18.2261 3.80239 19.1874C4.29537 19.5087 4.832 19.7574 5.3958 19.9258V22.2945C5.39659 22.4838 5.45373 22.6685 5.55993 22.8252C5.66613 22.9819 5.81658 23.1035 5.99211 23.1743C6.16764 23.2452 6.36029 23.2622 6.54552 23.2232C6.73075 23.1841 6.90016 23.0908 7.03216 22.9552L9.43352 20.4597C9.95307 20.4883 10.4767 20.5047 10.9963 20.5047C12.7747 20.5042 14.5492 20.3357 16.296 20.0015H16.3206C18.4949 19.527 20.8635 17.2483 21.3872 15.1252V15.1006C22.0395 12.1565 22.043 9.10558 21.3974 6.15994ZM19.4972 14.6588C19.1453 16.0436 17.3494 17.7679 15.9197 18.0849C14.0626 18.4407 12.1726 18.595 10.2824 18.5452C10.264 18.544 10.2456 18.5471 10.2285 18.5542C10.2115 18.5613 10.1964 18.5722 10.1842 18.5861L8.43125 20.3861L6.5658 22.2986C6.53595 22.3301 6.49733 22.352 6.45493 22.3613C6.41252 22.3706 6.36829 22.367 6.32796 22.3509C6.28763 22.3349 6.25306 22.307 6.22873 22.2711C6.20439 22.2351 6.19142 22.1927 6.19148 22.1493V18.222C6.19152 18.1904 6.1805 18.1598 6.16032 18.1355C6.14014 18.1112 6.11208 18.0948 6.08102 18.089C5.7828 18.0182 5.49529 17.9082 5.22602 17.7618C4.01102 17.1133 2.7858 15.7838 2.50352 14.6588C1.91885 11.998 1.91885 9.24206 2.50352 6.58131C2.8533 5.20267 4.65943 3.48244 6.07898 3.16335C9.32972 2.54136 12.6689 2.54136 15.9197 3.16335C16.7072 3.33926 17.6072 3.93858 18.3108 4.67494C18.8897 5.27426 19.3335 5.96562 19.4972 6.58744C20.0809 9.24623 20.0809 12 19.4972 14.6588Z" fill="white"/>
<path d="M15.9699 14.8638C15.7041 15.4703 15.2472 15.9732 14.669 16.2957C14.4875 16.3727 14.2992 16.4322 14.1065 16.4736C13.8876 16.4082 13.679 16.3632 13.4928 16.2834C11.9423 15.68 10.4988 14.8312 9.21781 13.7695C8.83728 13.445 8.47982 13.0944 8.14803 12.7202C7.32869 11.7767 6.64065 10.7267 6.10257 9.59884C5.84075 9.06497 5.61984 8.5127 5.39484 7.96247C5.19029 7.46134 5.49302 6.93974 5.80393 6.56543C6.10826 6.21828 6.4826 5.93945 6.90235 5.74724C7.05005 5.67301 7.21908 5.65283 7.38011 5.69019C7.54114 5.72755 7.68401 5.8201 7.78394 5.95179C8.30655 6.53895 8.76717 7.17848 9.15849 7.8602C9.28176 8.05842 9.32397 8.2965 9.27636 8.52503C9.22875 8.75355 9.09498 8.95496 8.90281 9.08747C8.80053 9.15906 8.69826 9.24088 8.6103 9.32065C8.5236 9.38486 8.44883 9.46379 8.38939 9.55384C8.33811 9.63811 8.307 9.7331 8.29848 9.83138C8.28997 9.92966 8.30428 10.0286 8.3403 10.1204C8.73508 11.2066 9.3344 12.1127 10.2303 12.7488C10.5335 12.9632 10.8602 13.1423 11.2039 13.2827C11.4285 13.4048 11.6807 13.4668 11.9362 13.4627C12.3821 13.4095 12.5294 12.9166 12.8403 12.6629C12.983 12.5461 13.1596 12.4784 13.3439 12.4699C13.5281 12.4614 13.7102 12.5126 13.863 12.6159C14.1944 12.8204 14.5135 13.0516 14.8326 13.2766C15.1482 13.492 15.4521 13.7241 15.7428 13.972C15.8788 14.0708 15.976 14.214 16.0174 14.3769C16.0589 14.5398 16.0421 14.7121 15.9699 14.8638Z" fill="white"/>
<path d="M11.586 5.06001H11.3242C11.4081 5.05683 11.496 5.06001 11.586 5.06001Z" fill="white"/>
<path d="M16.114 11.1917C15.9095 11.1917 15.8093 11.0178 15.795 10.8276C15.7684 10.4533 15.7479 10.0769 15.6968 9.70463C15.6084 9.07653 15.3896 8.47386 15.0545 7.93531C14.7101 7.37428 14.2518 6.89177 13.7091 6.519C13.1665 6.14622 12.5517 5.89147 11.9045 5.77122C11.61 5.71804 11.3093 5.70577 11.0127 5.67509C10.8245 5.65463 10.577 5.64236 10.5361 5.40918C10.53 5.36389 10.5336 5.31782 10.5467 5.27404C10.5598 5.23027 10.5821 5.18979 10.6122 5.15533C10.6422 5.12087 10.6792 5.09321 10.7207 5.07419C10.7623 5.05518 10.8074 5.04526 10.8531 5.04509C10.9022 5.04226 10.9514 5.04226 11.0004 5.04509C11.8945 5.05265 12.7729 5.28061 13.5578 5.70875C14.3428 6.1369 15.01 6.75202 15.5004 7.49963C15.8876 8.10223 16.1504 8.7761 16.2736 9.48168C16.3513 9.9235 16.38 10.3776 16.4147 10.8276C16.4217 10.8717 16.4192 10.9168 16.4075 10.9598C16.3957 11.0029 16.3749 11.043 16.3465 11.0774C16.3181 11.1119 16.2826 11.1399 16.2425 11.1596C16.2025 11.1792 16.1587 11.1902 16.114 11.1917Z" fill="white"/>
<path d="M15.0083 10.2372C15.0072 10.298 14.9989 10.3584 14.9838 10.4172C14.9659 10.4764 14.9303 10.5286 14.8817 10.5667C14.8331 10.6049 14.7739 10.6272 14.7122 10.6305C14.6506 10.6339 14.5893 10.6181 14.5369 10.5855C14.4845 10.5528 14.4434 10.5048 14.4192 10.4479C14.3967 10.3653 14.3864 10.2799 14.3885 10.1943C14.3933 9.73678 14.3027 9.28329 14.1226 8.8627C14.0817 8.7727 14.0367 8.68065 13.9856 8.5927C13.6928 8.08803 13.2582 7.68048 12.7358 7.42065C12.4206 7.27185 12.0859 7.16854 11.7417 7.11384C11.5904 7.08929 11.439 7.07497 11.2876 7.05452C11.2482 7.05254 11.2096 7.0425 11.1743 7.02502C11.1389 7.00754 11.1075 6.98299 11.082 6.95289C11.0565 6.92279 11.0375 6.88778 11.026 6.85003C11.0146 6.81227 11.0111 6.77257 11.0156 6.73338C11.0156 6.6933 11.0241 6.65367 11.0405 6.6171C11.0569 6.58053 11.0809 6.54784 11.1108 6.52119C11.1408 6.49453 11.176 6.47451 11.2142 6.46243C11.2525 6.45035 11.2928 6.44649 11.3326 6.45111C11.9332 6.47429 12.5216 6.62784 13.0569 6.90111C13.7107 7.23007 14.2439 7.75689 14.5808 8.40656C14.7705 8.7859 14.8976 9.19344 14.9572 9.61338C14.9682 9.66815 14.9764 9.72345 14.9817 9.77906C14.9919 9.90179 14.996 10.0245 15.0063 10.1759C15.0063 10.1902 15.0083 10.2086 15.0083 10.2372Z" fill="white"/>
<path d="M13.6051 9.95456C13.5935 10.0064 13.5667 10.0536 13.528 10.0901C13.4894 10.1265 13.4407 10.1506 13.3883 10.1591H13.3433C13.2763 10.1634 13.2096 10.1458 13.1535 10.1089C13.0974 10.072 13.0549 10.0178 13.0324 9.95456C13.0196 9.92101 13.0114 9.88594 13.0078 9.85024C12.9971 9.7126 12.9766 9.57589 12.9465 9.44115C12.8856 9.16838 12.7307 8.92576 12.5087 8.75592C12.4014 8.67888 12.2818 8.62077 12.1549 8.5841C11.9933 8.53706 11.8235 8.54933 11.664 8.51047C11.5851 8.49649 11.515 8.45183 11.469 8.38628C11.423 8.32072 11.4048 8.23961 11.4185 8.16069C11.4337 8.0851 11.476 8.01765 11.5374 7.97097C11.5987 7.92428 11.675 7.90156 11.7519 7.90706C12.6887 7.97456 13.3883 8.42456 13.5683 9.42888C13.5868 9.52212 13.5998 9.61637 13.6071 9.71115C13.6186 9.79193 13.6179 9.87398 13.6051 9.95456Z" fill="white"/>
</svg>
