<svg width="24" height="24" viewBox="0 0 24 24" fill="none" xmlns="http://www.w3.org/2000/svg">
<path d="M19.9377 4.06249C18.0649 2.17106 15.5779 1.0111 12.9252 0.791854C10.2726 0.572608 7.62887 1.3085 5.47099 2.8668C3.31312 4.4251 1.78313 6.70322 1.15699 9.29025C0.53086 11.8773 0.849802 14.6029 2.05629 16.9755L0.871972 22.7252C0.859683 22.7825 0.859335 22.8416 0.87095 22.899C0.882564 22.9563 0.905891 23.0107 0.939471 23.0586C0.988665 23.1314 1.05888 23.1874 1.14075 23.2192C1.22262 23.251 1.31225 23.2571 1.39765 23.2366L7.03288 21.9009C9.39878 23.0769 12.1052 23.3753 14.6704 22.7431C17.2357 22.1109 19.4935 20.5891 21.0421 18.4485C22.5907 16.3079 23.3296 13.6873 23.1274 11.053C22.9251 8.41874 21.7948 5.94164 19.9377 4.06249ZM18.1806 18.0861C16.8849 19.3782 15.2163 20.2312 13.4101 20.5248C11.6039 20.8183 9.75115 20.5377 8.11288 19.7225L7.32743 19.3339L3.87265 20.152L3.88288 20.1091L4.59879 16.6318L4.21425 15.873C3.37716 14.229 3.08187 12.3622 3.37067 10.5401C3.65947 8.71804 4.51755 7.0341 5.82197 5.72954C7.46101 4.09101 9.68371 3.17054 12.0013 3.17054C14.3189 3.17054 16.5416 4.09101 18.1806 5.72954C18.1946 5.74555 18.2096 5.76058 18.2256 5.77454C19.8443 7.41729 20.748 9.63336 20.7395 11.9396C20.7311 14.2459 19.8113 16.4553 18.1806 18.0861Z" fill="white"/>
<path d="M17.8737 15.5356C17.4503 16.2024 16.7814 17.0185 15.9408 17.221C14.468 17.5769 12.2078 17.2333 9.3953 14.611L9.36052 14.5803C6.88757 12.2874 6.2453 10.379 6.40075 8.86535C6.48666 8.00626 7.20257 7.22899 7.80598 6.72172C7.90138 6.6403 8.0145 6.58233 8.13631 6.55245C8.25812 6.52256 8.38523 6.5216 8.50747 6.54963C8.62972 6.57765 8.74371 6.6339 8.84034 6.71386C8.93696 6.79382 9.01353 6.89528 9.06393 7.01012L9.97416 9.05558C10.0333 9.18821 10.0552 9.33443 10.0376 9.47857C10.0199 9.62272 9.96335 9.75933 9.87393 9.87376L9.41371 10.471C9.31495 10.5944 9.25537 10.7444 9.24261 10.9019C9.22985 11.0594 9.26451 11.2171 9.34212 11.3547C9.59984 11.8067 10.2176 12.4715 10.9028 13.0872C11.6719 13.7826 12.5248 14.4188 13.0648 14.6356C13.2093 14.6946 13.3682 14.709 13.521 14.6769C13.6737 14.6448 13.8134 14.5677 13.9219 14.4556L14.4558 13.9176C14.5588 13.816 14.6869 13.7436 14.827 13.7077C14.9671 13.6717 15.1143 13.6736 15.2535 13.7131L17.4155 14.3267C17.5348 14.3633 17.6441 14.4267 17.7351 14.512C17.8261 14.5973 17.8964 14.7023 17.9407 14.8189C17.9849 14.9356 18.0018 15.0608 17.9902 15.185C17.9786 15.3092 17.9388 15.4291 17.8737 15.5356Z" fill="white"/>
</svg>
