<svg width="35" height="29" viewBox="0 0 35 29" fill="none" xmlns="http://www.w3.org/2000/svg">
<path d="M31.5276 5.02236L32.2445 3.05361C32.4064 2.61314 32.4417 2.13613 32.3464 1.67663C32.2511 1.21713 32.029 0.793509 31.7053 0.453763C31.6563 0.400261 31.5971 0.357052 31.5312 0.326655C31.4653 0.296257 31.394 0.279279 31.3215 0.27671C31.249 0.274141 31.1767 0.286032 31.1088 0.31169C31.0409 0.337348 30.9788 0.376259 30.9261 0.426158C30.8734 0.476056 30.8312 0.535943 30.8019 0.602328C30.7725 0.668713 30.7567 0.740269 30.7554 0.812826C30.754 0.885382 30.767 0.957488 30.7938 1.02494C30.8206 1.0924 30.8605 1.15385 30.9112 1.20572C31.095 1.39817 31.2211 1.63832 31.2751 1.89886C31.3292 2.15941 31.309 2.42989 31.217 2.67954L30.5 4.64829C30.6785 4.68792 30.8544 4.73851 31.0266 4.79978C31.1981 4.86337 31.3654 4.93771 31.5276 5.02236Z" fill="url(#paint0_linear_557_15693)"/>
<path d="M16.9538 6.4024V5.83912C16.9543 5.22066 16.76 4.61775 16.3983 4.11607C16.0366 3.6144 15.526 3.23947 14.9391 3.04459C14.8013 2.99876 14.6509 3.00954 14.5211 3.07456C14.3913 3.13958 14.2926 3.25352 14.2467 3.39131C14.2009 3.5291 14.2117 3.67945 14.2767 3.80929C14.3417 3.93913 14.4557 4.03782 14.5935 4.08365C14.9621 4.20634 15.2828 4.4419 15.5101 4.75696C15.7374 5.07202 15.8598 5.45062 15.86 5.83912V6.4024C16.2187 6.49538 16.5951 6.49538 16.9538 6.4024Z" fill="url(#paint1_linear_557_15693)"/>
<path d="M9.07783 9.20795L7.82549 9.66404C7.75791 9.6886 7.68616 9.69959 7.61433 9.69638C7.54251 9.69317 7.47202 9.67584 7.4069 9.64536C7.34178 9.61488 7.28331 9.57187 7.23483 9.51877C7.18636 9.46567 7.14883 9.40353 7.12439 9.33592C7.09984 9.26834 7.08885 9.19659 7.09205 9.12476C7.09526 9.05294 7.1126 8.98245 7.14307 8.91733C7.17355 8.85221 7.21657 8.79374 7.26967 8.74526C7.32276 8.69679 7.3849 8.65926 7.45252 8.63482L8.86619 8.12021L8.8558 8.06553C8.66805 7.11341 8.11782 6.27143 7.32118 5.71722C6.52455 5.163 5.54379 4.93987 4.5858 5.0949L5.70416 2.69631C5.76532 2.56496 5.77186 2.4147 5.72233 2.27854C5.67281 2.14237 5.57127 2.03142 5.44002 1.97006C5.30867 1.90889 5.15841 1.90236 5.02225 1.95188C4.88608 2.00141 4.77514 2.10294 4.71377 2.2342L3.964 3.84201L3.48056 2.5131C3.45702 2.44431 3.42 2.3809 3.37166 2.32659C3.32332 2.27228 3.26464 2.22815 3.19904 2.19679C3.13344 2.16543 3.06225 2.14746 2.98963 2.14394C2.917 2.14042 2.84441 2.15142 2.77608 2.17629C2.70776 2.20116 2.64508 2.23941 2.59172 2.28879C2.53835 2.33817 2.49537 2.3977 2.46529 2.46389C2.4352 2.53009 2.41862 2.60161 2.41651 2.67429C2.41439 2.74697 2.4268 2.81934 2.45299 2.88717L2.93205 4.21935L1.32424 3.47014C1.19289 3.40897 1.04263 3.40244 0.906467 3.45196C0.770301 3.50148 0.659354 3.60302 0.597987 3.73428C0.536825 3.86563 0.530288 4.01588 0.579812 4.15205C0.629336 4.28821 0.730873 4.39916 0.862127 4.46053L3.26072 5.57943C2.42707 6.07633 1.81907 6.87766 1.56501 7.81432C1.31095 8.75098 1.4307 9.7497 1.899 10.5997L2.72697 12.1004L4.41299 11.4873C4.48081 11.4611 4.55318 11.4487 4.62586 11.4508C4.69854 11.453 4.77007 11.4695 4.83626 11.4996C4.90245 11.5297 4.96198 11.5727 5.01136 11.6261C5.06075 11.6794 5.09899 11.7421 5.12386 11.8104C5.14874 11.8787 5.15973 11.9513 5.15621 12.024C5.15269 12.0966 5.13473 12.1678 5.10336 12.2334C5.072 12.299 5.02787 12.3577 4.97356 12.406C4.91925 12.4543 4.85584 12.4914 4.78705 12.5149L3.26127 13.07L4.05041 14.5006H10.1169L9.07783 9.20795ZM4.18056 9.24459C4.11302 9.26906 4.04132 9.27998 3.96956 9.27674C3.89779 9.27349 3.82737 9.25613 3.76231 9.22566C3.69726 9.19519 3.63884 9.1522 3.5904 9.09915C3.54197 9.04609 3.50446 8.98402 3.48002 8.91646C3.45546 8.84889 3.44447 8.77713 3.44768 8.70531C3.45088 8.63348 3.46822 8.56299 3.4987 8.49787C3.52917 8.43276 3.57219 8.37429 3.62529 8.32581C3.67839 8.27734 3.74053 8.23981 3.80814 8.21537L5.34978 7.65428C5.41736 7.62972 5.48911 7.61873 5.56094 7.62194C5.63276 7.62514 5.70325 7.64248 5.76837 7.67296C5.83349 7.70343 5.89196 7.74645 5.94044 7.79955C5.98891 7.85265 6.02644 7.91478 6.05088 7.9824C6.07543 8.04997 6.08642 8.12173 6.08322 8.19355C6.08001 8.26538 6.06267 8.33587 6.0322 8.40099C6.00172 8.46611 5.9587 8.52458 5.9056 8.57305C5.85251 8.62153 5.79037 8.65906 5.72275 8.6835L4.18056 9.24459ZM7.9201 13.1214L6.37791 13.683C6.31037 13.7075 6.23866 13.7184 6.1669 13.7152C6.09513 13.7119 6.02471 13.6946 5.95965 13.6641C5.8946 13.6336 5.83618 13.5906 5.78775 13.5376C5.73931 13.4845 5.7018 13.4225 5.67736 13.3549C5.65289 13.2874 5.64197 13.2157 5.64521 13.1439C5.64846 13.0721 5.66582 13.0017 5.69629 12.9366C5.72676 12.8716 5.76975 12.8132 5.8228 12.7647C5.87586 12.7163 5.93793 12.6788 6.00549 12.6544L7.54658 12.0944C7.61412 12.0699 7.68582 12.059 7.75759 12.0622C7.82936 12.0655 7.89978 12.0828 7.96483 12.1133C8.02989 12.1438 8.0883 12.1867 8.13674 12.2398C8.18518 12.2928 8.22269 12.3549 8.24713 12.4225C8.29599 12.5588 8.28877 12.709 8.22705 12.84C8.16533 12.971 8.05415 13.0722 7.91791 13.1214H7.9201Z" fill="url(#paint2_linear_557_15693)"/>
<path d="M33.4946 10.7595C33.5475 10.6451 33.596 10.5277 33.6401 10.4074C34.0036 9.40628 33.9895 8.30699 33.6003 7.3156C33.2112 6.32421 32.4738 5.5088 31.5264 5.02227L30.9795 6.52837C30.956 6.59716 30.919 6.66056 30.8706 6.71488C30.8223 6.76919 30.7636 6.81332 30.698 6.84468C30.6324 6.87604 30.5612 6.89401 30.4886 6.89753C30.416 6.90105 30.3434 6.89005 30.275 6.86518C30.2067 6.84031 30.1441 6.80206 30.0907 6.75268C30.0373 6.7033 29.9943 6.64377 29.9643 6.57758C29.9342 6.51138 29.9176 6.43986 29.9155 6.36718C29.9134 6.2945 29.9258 6.22213 29.952 6.1543L30.4988 4.64821C29.4603 4.4118 28.3713 4.56233 27.4359 5.07157C26.5005 5.58081 25.7829 6.41379 25.4178 7.4143C25.3741 7.53498 25.3358 7.6562 25.303 7.77798C25.1272 8.43721 24.869 9.07166 24.5346 9.66633C24.6533 10.6893 24.6303 11.7237 24.4663 12.7403C24.3722 13.3373 24.2307 13.9258 24.043 14.5002H32.7662C32.6816 13.2113 32.9326 11.9225 33.4946 10.7595Z" fill="url(#paint3_linear_557_15693)"/>
<path d="M23.387 12.5698C23.953 8.97301 22.5859 5.69559 20.3316 5.25317C19.8757 5.17992 19.4092 5.209 18.9658 5.33829C18.5225 5.46759 18.1135 5.69387 17.7684 6.00075C17.5283 6.191 17.2503 6.32784 16.953 6.40215V8.36161C17.0966 8.29754 17.2276 8.20826 17.3397 8.09801C17.4428 7.99839 17.581 7.94327 17.7244 7.94452C17.8677 7.94576 18.0049 8.00328 18.1063 8.10467C18.2077 8.20607 18.2652 8.34323 18.2665 8.48662C18.2677 8.63001 18.2126 8.76815 18.113 8.87129C17.66 9.3234 17.0462 9.57731 16.4062 9.57731C15.7662 9.57731 15.1523 9.3234 14.6994 8.87129C14.6471 8.82085 14.6055 8.7605 14.5768 8.69378C14.5482 8.62706 14.5331 8.5553 14.5324 8.48268C14.5318 8.41007 14.5456 8.33806 14.5731 8.27085C14.6006 8.20364 14.6412 8.14258 14.6926 8.09123C14.7439 8.03989 14.805 7.99928 14.8722 7.97178C14.9394 7.94428 15.0114 7.93045 15.084 7.93108C15.1567 7.93171 15.2284 7.9468 15.2951 7.97546C15.3619 8.00412 15.4222 8.04578 15.4727 8.09801C15.5848 8.20826 15.7157 8.29754 15.8593 8.36161V6.40215C15.5621 6.32784 15.2841 6.191 15.0439 6.00075C14.6988 5.69387 14.2898 5.46759 13.8465 5.33829C13.4032 5.209 12.9366 5.17992 12.4807 5.25317C11.353 5.47684 10.4452 6.40653 9.89453 7.72887C9.90437 7.77207 9.9175 7.81418 9.9257 7.85793L11.2311 14.5003H22.885C23.1159 13.875 23.2841 13.2283 23.387 12.5698Z" fill="url(#paint4_linear_557_15693)"/>
<path d="M0.546875 23.9792H34.4531V20.3337H0.546875V23.9792ZM30.625 21.6096H31.7188C31.8638 21.6096 32.0029 21.6672 32.1054 21.7698C32.208 21.8723 32.2656 22.0114 32.2656 22.1565C32.2656 22.3015 32.208 22.4406 32.1054 22.5432C32.0029 22.6457 31.8638 22.7033 31.7188 22.7033H30.625C30.48 22.7033 30.3409 22.6457 30.2383 22.5432C30.1357 22.4406 30.0781 22.3015 30.0781 22.1565C30.0781 22.0114 30.1357 21.8723 30.2383 21.7698C30.3409 21.6672 30.48 21.6096 30.625 21.6096ZM3.28125 21.6096H4.375C4.52004 21.6096 4.65914 21.6672 4.7617 21.7698C4.86426 21.8723 4.92188 22.0114 4.92188 22.1565C4.92188 22.3015 4.86426 22.4406 4.7617 22.5432C4.65914 22.6457 4.52004 22.7033 4.375 22.7033H3.28125C3.13621 22.7033 2.99711 22.6457 2.89455 22.5432C2.79199 22.4406 2.73438 22.3015 2.73438 22.1565C2.73438 22.0114 2.79199 21.8723 2.89455 21.7698C2.99711 21.6672 3.13621 21.6096 3.28125 21.6096Z" fill="url(#paint5_linear_557_15693)"/>
<path d="M0.546875 28.1724C0.546875 28.3174 0.604492 28.4565 0.707051 28.5591C0.80961 28.6616 0.94871 28.7193 1.09375 28.7193H33.9062C34.0513 28.7193 34.1904 28.6616 34.2929 28.5591C34.3955 28.4565 34.4531 28.3174 34.4531 28.1724V25.0732H0.546875V28.1724ZM30.625 26.3496H31.7188C31.8638 26.3496 32.0029 26.4073 32.1054 26.5098C32.208 26.6124 32.2656 26.7515 32.2656 26.8965C32.2656 27.0416 32.208 27.1807 32.1054 27.2832C32.0029 27.3858 31.8638 27.4434 31.7188 27.4434H30.625C30.48 27.4434 30.3409 27.3858 30.2383 27.2832C30.1357 27.1807 30.0781 27.0416 30.0781 26.8965C30.0781 26.7515 30.1357 26.6124 30.2383 26.5098C30.3409 26.4073 30.48 26.3496 30.625 26.3496ZM3.28125 26.3496H4.375C4.52004 26.3496 4.65914 26.4073 4.7617 26.5098C4.86426 26.6124 4.92188 26.7515 4.92188 26.8965C4.92188 27.0416 4.86426 27.1807 4.7617 27.2832C4.65914 27.3858 4.52004 27.4434 4.375 27.4434H3.28125C3.13621 27.4434 2.99711 27.3858 2.89455 27.2832C2.79199 27.1807 2.73438 27.0416 2.73438 26.8965C2.73438 26.7515 2.79199 26.6124 2.89455 26.5098C2.99711 26.4073 3.13621 26.3496 3.28125 26.3496Z" fill="url(#paint6_linear_557_15693)"/>
<path d="M33.9062 15.5938H1.09375C0.94871 15.5938 0.80961 15.6514 0.707051 15.7539C0.604492 15.8565 0.546875 15.9956 0.546875 16.1406V19.2398H34.4531V16.1406C34.4531 15.9956 34.3955 15.8565 34.2929 15.7539C34.1904 15.6514 34.0513 15.5938 33.9062 15.5938ZM4.375 17.9634H3.28125C3.13621 17.9634 2.99711 17.9057 2.89455 17.8032C2.79199 17.7006 2.73438 17.5615 2.73438 17.4165C2.73438 17.2714 2.79199 17.1323 2.89455 17.0298C2.99711 16.9272 3.13621 16.8696 3.28125 16.8696H4.375C4.52004 16.8696 4.65914 16.9272 4.7617 17.0298C4.86426 17.1323 4.92188 17.2714 4.92188 17.4165C4.92188 17.5615 4.86426 17.7006 4.7617 17.8032C4.65914 17.9057 4.52004 17.9634 4.375 17.9634ZM31.7188 17.9634H30.625C30.48 17.9634 30.3409 17.9057 30.2383 17.8032C30.1357 17.7006 30.0781 17.5615 30.0781 17.4165C30.0781 17.2714 30.1357 17.1323 30.2383 17.0298C30.3409 16.9272 30.48 16.8696 30.625 16.8696H31.7188C31.8638 16.8696 32.0029 16.9272 32.1054 17.0298C32.208 17.1323 32.2656 17.2714 32.2656 17.4165C32.2656 17.5615 32.208 17.7006 32.1054 17.8032C32.0029 17.9057 31.8638 17.9634 31.7188 17.9634Z" fill="url(#paint7_linear_557_15693)"/>
<defs>
<linearGradient id="paint0_linear_557_15693" x1="30.5" y1="3.03896" x2="32.3988" y2="3.03981" gradientUnits="userSpaceOnUse">
<stop stop-color="#957DF3"/>
<stop offset="1" stop-color="#662D91"/>
</linearGradient>
<linearGradient id="paint1_linear_557_15693" x1="14.2187" y1="5.02803" x2="16.9539" y2="5.03047" gradientUnits="userSpaceOnUse">
<stop stop-color="#957DF3"/>
<stop offset="1" stop-color="#662D91"/>
</linearGradient>
<linearGradient id="paint2_linear_557_15693" x1="0.546875" y1="9.2426" x2="10.1172" y2="9.25079" gradientUnits="userSpaceOnUse">
<stop stop-color="#957DF3"/>
<stop offset="1" stop-color="#662D91"/>
</linearGradient>
<linearGradient id="paint3_linear_557_15693" x1="24.043" y1="10.3373" x2="33.9031" y2="10.3483" gradientUnits="userSpaceOnUse">
<stop stop-color="#957DF3"/>
<stop offset="1" stop-color="#662D91"/>
</linearGradient>
<linearGradient id="paint4_linear_557_15693" x1="9.89453" y1="10.6193" x2="23.5152" y2="10.6418" gradientUnits="userSpaceOnUse">
<stop stop-color="#957DF3"/>
<stop offset="1" stop-color="#662D91"/>
</linearGradient>
<linearGradient id="paint5_linear_557_15693" x1="0.546875" y1="22.4557" x2="34.4505" y2="22.8107" gradientUnits="userSpaceOnUse">
<stop stop-color="#957DF3"/>
<stop offset="1" stop-color="#662D91"/>
</linearGradient>
<linearGradient id="paint6_linear_557_15693" x1="0.546875" y1="27.1955" x2="34.4505" y2="27.5505" gradientUnits="userSpaceOnUse">
<stop stop-color="#957DF3"/>
<stop offset="1" stop-color="#662D91"/>
</linearGradient>
<linearGradient id="paint7_linear_557_15693" x1="0.546875" y1="17.7161" x2="34.4505" y2="18.071" gradientUnits="userSpaceOnUse">
<stop stop-color="#957DF3"/>
<stop offset="1" stop-color="#662D91"/>
</linearGradient>
</defs>
</svg>
