<svg width="35" height="35" viewBox="0 0 35 35" fill="none" xmlns="http://www.w3.org/2000/svg">
<path d="M17.5013 2.74121C9.34953 2.74121 2.74219 9.34856 2.74219 17.5004C2.74219 23.374 6.18206 28.4305 11.1488 30.806L11.6108 21.8797C11.6108 21.8797 10.7418 21.5945 10.5516 21.5016C8.70859 20.6898 7.36971 18.2994 7.36971 15.197C7.36971 11.8117 9.99516 8.8957 12.5335 8.87162C12.5367 8.87162 12.5367 8.87162 12.5388 8.87162C12.5399 8.87162 12.542 8.87162 12.543 8.87162C15.0819 8.89561 17.7074 11.8116 17.7074 15.197C17.7074 18.2994 16.3669 20.6888 14.5276 21.5016C14.5132 21.508 13.46 21.8904 13.46 21.8904L13.976 31.8154C15.1081 32.094 16.2852 32.2575 17.5033 32.2575C19.1461 32.2575 20.7194 31.9777 22.1956 31.4831L22.6528 22.6381C21.448 22.3731 20.4204 21.6062 19.7763 20.6439C18.9785 19.4487 20.3905 8.87061 20.3905 8.87061H21.3091V18.7971H22.2213V8.87171H23.219V18.7993H24.1269V8.87171H25.1619V18.7993H26.0729V8.87171H26.7779C26.7779 8.87171 28.1899 19.4498 27.3911 20.645C26.7533 21.5978 25.7354 22.3626 24.5456 22.6339C24.5243 22.6414 24.505 22.6487 24.505 22.6487L24.9023 30.257C29.2987 27.701 32.2616 22.9522 32.2616 17.5005C32.2594 9.34865 25.6521 2.74121 17.5013 2.74121Z" fill="url(#paint0_linear_557_15674)"/>
<path d="M9.5298 13.6958C9.58266 13.4806 9.65373 13.276 9.65694 13.2724C9.67993 13.1917 9.63718 13.1095 9.54957 13.0572C9.46628 13.0123 9.36479 13.0353 9.31781 13.1074C9.31781 13.1074 9.21687 13.2681 9.07052 13.5058C8.95147 13.7103 8.77524 14.0371 8.65499 14.4441C8.55083 14.8008 8.42645 15.2751 8.37037 15.8059C8.34638 16.0847 8.34095 16.3362 8.3495 16.5952C8.37037 16.8905 8.41514 17.1431 8.50064 17.4321C8.79059 18.2561 9.01389 19.0541 9.81975 19.8412C10.0745 20.1029 10.3362 20.2813 10.5252 20.4126L10.592 20.4596C10.6326 20.4864 10.6716 20.511 10.71 20.5334C10.8687 20.6167 10.9749 20.6466 10.9942 20.6508C11.0731 20.6722 11.1544 20.6337 11.188 20.5697C11.2195 20.5024 11.1965 20.418 11.1309 20.3646C11.1309 20.3646 11.0389 20.2846 10.921 20.135C10.8404 20.0442 10.7528 19.9128 10.6508 19.7644C10.5787 19.6597 10.4938 19.5411 10.4147 19.4258C10.0222 18.8266 9.79585 17.9903 9.48283 17.1336C9.42142 16.9477 9.37122 16.7068 9.35247 16.5023C9.32746 16.2662 9.3157 16.0388 9.3157 15.8278C9.3066 15.3375 9.32848 14.9166 9.37122 14.5754C9.42031 14.1904 9.45874 13.9014 9.5298 13.6958Z" fill="url(#paint1_linear_557_15674)"/>
<path d="M17.5011 0C7.85227 0 0 7.85062 0 17.5C0 27.1472 7.85227 35 17.5011 35C27.1494 35 35.0001 27.1472 35.0001 17.5C35 7.85062 27.1494 0 17.5011 0ZM17.5011 33.6948C8.57053 33.6948 1.30468 26.4295 1.30468 17.5C1.30468 8.56943 8.57053 1.30358 17.5011 1.30358C26.4306 1.30358 33.697 8.56943 33.697 17.5C33.6969 26.4295 26.4305 33.6948 17.5011 33.6948Z" fill="url(#paint2_linear_557_15674)"/>
<defs>
<linearGradient id="paint0_linear_557_15674" x1="2.74219" y1="19.9224" x2="32.2626" y2="19.9556" gradientUnits="userSpaceOnUse">
<stop stop-color="#957DF3"/>
<stop offset="1" stop-color="#662D91"/>
</linearGradient>
<linearGradient id="paint1_linear_557_15674" x1="8.3457" y1="17.4712" x2="11.202" y2="17.4724" gradientUnits="userSpaceOnUse">
<stop stop-color="#957DF3"/>
<stop offset="1" stop-color="#662D91"/>
</linearGradient>
<linearGradient id="paint2_linear_557_15674" x1="-1.8647e-07" y1="20.3731" x2="35.0012" y2="20.4125" gradientUnits="userSpaceOnUse">
<stop stop-color="#957DF3"/>
<stop offset="1" stop-color="#662D91"/>
</linearGradient>
</defs>
</svg>
