<svg width="35" height="33" viewBox="0 0 35 33" fill="none" xmlns="http://www.w3.org/2000/svg">
<path d="M33.9223 2.63512L33.037 2.66451L33.4685 1.62306C33.689 1.09102 33.4363 0.480909 32.9043 0.26045C32.3722 0.0397855 31.7621 0.292579 31.5417 0.824688L31.1438 1.78507C30.0389 0.982051 28.5452 0.777588 27.2155 1.38168C24.1984 2.75188 20.8389 3.49228 17.4999 3.52324C14.1608 3.49228 10.8014 2.75181 7.78432 1.38161C6.45467 0.77793 4.96088 0.982256 3.85598 1.78514L3.45813 0.824756C3.23774 0.292715 2.62763 0.0399907 2.09552 0.260518C1.56348 0.480977 1.31083 1.09095 1.53129 1.62313L1.96277 2.66458L1.07752 2.63519C0.500153 2.61789 0.019587 3.06735 0.00058307 3.64287C-0.0184892 4.21853 0.432683 4.70066 1.00827 4.7198L2.25104 4.76109C2.1779 6.31695 3.04141 7.83549 4.54375 8.51772C8.58413 10.3527 13.0615 11.3411 17.4916 11.3764C17.4944 11.3765 17.4972 11.3765 17.5 11.3765C17.5028 11.3765 17.5056 11.3765 17.5083 11.3764C21.9385 11.3411 26.4157 10.3526 30.4562 8.51772C31.9586 7.83549 32.822 6.31689 32.7489 4.76109L33.9917 4.7198C34.5673 4.70066 35.0184 4.21853 34.9994 3.64287C34.98 3.06715 34.499 2.61734 33.9223 2.63512Z" fill="url(#paint0_linear_557_15682)"/>
<path d="M20.4948 13.3049V15.4388H18.5441V13.4374C18.2066 13.4505 17.8692 13.459 17.5319 13.4618C17.5217 13.4619 17.5114 13.462 17.5012 13.462C17.4911 13.462 17.4807 13.4619 17.4704 13.4618C17.1332 13.459 16.7958 13.4505 16.4583 13.4374V15.4388H14.5076V13.3049C13.8105 13.2371 13.1148 13.1477 12.4219 13.0371V16.4815V18.6444C12.4219 20.4419 13.8843 21.9043 15.6819 21.9043H16.4582V31.7767C16.4582 32.3526 16.9251 32.8195 17.501 32.8195C18.077 32.8195 18.5439 32.3526 18.5439 31.7767V21.9044H19.3202C21.1177 21.9044 22.5802 20.442 22.5802 18.6444V16.4816V13.0371C21.8876 13.1478 21.1918 13.2372 20.4948 13.3049Z" fill="url(#paint1_linear_557_15682)"/>
<defs>
<linearGradient id="paint0_linear_557_15682" x1="-1.86469e-07" y1="6.69764" x2="35.0007" y2="6.82083" gradientUnits="userSpaceOnUse">
<stop stop-color="#957DF3"/>
<stop offset="1" stop-color="#662D91"/>
</linearGradient>
<linearGradient id="paint1_linear_557_15682" x1="12.4219" y1="24.5522" x2="22.5806" y2="24.5581" gradientUnits="userSpaceOnUse">
<stop stop-color="#957DF3"/>
<stop offset="1" stop-color="#662D91"/>
</linearGradient>
</defs>
</svg>
