<svg width="32" height="18" viewBox="0 0 32 18" fill="none" xmlns="http://www.w3.org/2000/svg">
<path d="M0.211494 9.51221L7.48405 16.7848C7.7453 17.0899 8.20442 17.1255 8.50947 16.8642C8.81453 16.6029 8.85009 16.1438 8.58879 15.8387C8.56441 15.8103 8.53791 15.7837 8.50947 15.7594L2.48052 9.72315H31.2728C31.6744 9.72315 32 9.39753 32 8.99585C32 8.59417 31.6744 8.26861 31.2728 8.26861H2.48052L8.50947 2.23965C8.81453 1.9784 8.85009 1.51929 8.58879 1.21423C8.32748 0.909172 7.86842 0.873611 7.56337 1.13492C7.53493 1.15929 7.50837 1.18579 7.48405 1.21423L0.211432 8.48686C-0.0704994 8.77041 -0.0704994 9.22853 0.211494 9.51221Z" fill="#30C5FF"/>
</svg>
