<svg width="88" height="88" viewBox="0 0 88 88" fill="none" xmlns="http://www.w3.org/2000/svg">
<g filter="url(#filter0_bd_397_7027)">
<rect x="25" y="21" width="38" height="38" rx="19" fill="url(#paint0_linear_397_7027)" shape-rendering="crispEdges"/>
<rect x="25.5" y="21.5" width="37" height="37" rx="18.5" stroke="#C1F0FB" shape-rendering="crispEdges"/>
<rect x="25.5" y="21.5" width="37" height="37" rx="18.5" stroke="url(#paint1_radial_397_7027)" shape-rendering="crispEdges"/>
</g>
<g clip-path="url(#clip0_397_7027)">
<path d="M36.7804 48.0001C36.6259 48.0001 36.4748 47.9543 36.3463 47.8685C36.2178 47.7826 36.1176 47.6606 36.0585 47.5178C35.9994 47.3751 35.9839 47.218 36.014 47.0664C36.0442 46.9148 36.1186 46.7756 36.2279 46.6664L50.6654 32.2289C50.812 32.0823 51.0107 32 51.2179 32C51.4251 32 51.6239 32.0823 51.7704 32.2289C51.917 32.3754 51.9993 32.5741 51.9993 32.7814C51.9993 32.9886 51.917 33.1873 51.7704 33.3339L37.3329 47.7714C37.2604 47.844 37.1743 47.9016 37.0795 47.9408C36.9847 47.9801 36.883 48.0002 36.7804 48.0001Z" fill="#102B32"/>
<path d="M51.219 48.0001C51.1164 48.0002 51.0147 47.9801 50.9199 47.9408C50.8251 47.9016 50.739 47.844 50.6665 47.7714L36.229 33.3339C36.0824 33.1873 36.0001 32.9886 36.0001 32.7814C36.0001 32.5741 36.0824 32.3754 36.229 32.2289C36.3755 32.0823 36.5742 32 36.7815 32C36.9887 32 37.1874 32.0823 37.334 32.2289L51.7715 46.6664C51.8808 46.7756 51.9552 46.9148 51.9854 47.0664C52.0155 47.218 52 47.3751 51.9409 47.5178C51.8818 47.6606 51.7816 47.7826 51.6531 47.8685C51.5246 47.9543 51.3735 48.0001 51.219 48.0001Z" fill="#102B32"/>
</g>
<defs>
<filter id="filter0_bd_397_7027" x="-75" y="-79" width="238" height="238" filterUnits="userSpaceOnUse" color-interpolation-filters="sRGB">
<feFlood flood-opacity="0" result="BackgroundImageFix"/>
<feGaussianBlur in="BackgroundImageFix" stdDeviation="50"/>
<feComposite in2="SourceAlpha" operator="in" result="effect1_backgroundBlur_397_7027"/>
<feColorMatrix in="SourceAlpha" type="matrix" values="0 0 0 0 0 0 0 0 0 0 0 0 0 0 0 0 0 0 127 0" result="hardAlpha"/>
<feOffset dy="4"/>
<feGaussianBlur stdDeviation="12.5"/>
<feComposite in2="hardAlpha" operator="out"/>
<feColorMatrix type="matrix" values="0 0 0 0 0.756863 0 0 0 0 0.941176 0 0 0 0 0.984314 0 0 0 0.5 0"/>
<feBlend mode="normal" in2="effect1_backgroundBlur_397_7027" result="effect2_dropShadow_397_7027"/>
<feBlend mode="normal" in="SourceGraphic" in2="effect2_dropShadow_397_7027" result="shape"/>
</filter>
<linearGradient id="paint0_linear_397_7027" x1="25" y1="23" x2="68.9845" y2="31.2952" gradientUnits="userSpaceOnUse">
<stop stop-color="white"/>
<stop offset="1" stop-color="white" stop-opacity="0"/>
<stop offset="1" stop-color="white"/>
</linearGradient>
<radialGradient id="paint1_radial_397_7027" cx="0" cy="0" r="1" gradientUnits="userSpaceOnUse" gradientTransform="translate(44 40) rotate(-43.7156) scale(26.2874 71.4083)">
<stop stop-color="white"/>
<stop offset="1" stop-color="white" stop-opacity="0"/>
</radialGradient>
<clipPath id="clip0_397_7027">
<rect width="16" height="16" fill="white" transform="translate(36 32)"/>
</clipPath>
</defs>
</svg>
