<svg width="175" height="43" viewBox="0 0 175 43" fill="none" xmlns="http://www.w3.org/2000/svg">
<path d="M16.3415 3.46798C8.24982 6.4792 3.24194 11.8994 0 18.6675C1.58144 8.94553 6.85289 3.06649 15.2872 0.456768C15.4981 0.399411 15.6826 0.342055 15.8934 0.313377C19.0036 -0.288866 19.9524 0.714872 18.2392 2.32085C17.6857 2.83706 17.0268 3.20988 16.3415 3.46798Z" fill="url(#paint0_linear_501_5311)"/>
<path d="M3.05783 33.5535C0.39575 29.3665 -0.18411 24.8354 2.2144 19.788C3.79584 16.6907 5.77263 14.081 8.1975 12.0162C9.96344 10.4962 11.9666 9.37779 14.1015 8.54612C21.1389 5.793 24.0646 2.95386 21.7715 0C24.4336 0.200748 26.4894 1.0611 26.2786 4.18702C25.1189 9.32043 21.0335 12.5611 15.3403 14.8267C13.7062 15.4863 12.1247 16.2892 10.6487 17.3503C5.00827 21.3366 2.31983 26.6708 3.05783 33.5535Z" fill="url(#paint1_linear_501_5311)"/>
<path d="M21.7187 24.1764C13.6271 28.134 8.48739 31.1166 9.7789 39.9495C3.55858 34.8161 5.69352 24.4632 13.3635 20.0468C26.2785 13.5368 31.3918 7.37097 28.4662 2.29492C34.3702 7.74379 34.3966 13.3934 28.5453 19.2724C26.5421 21.3373 24.2227 22.9719 21.7187 24.1764Z" fill="url(#paint2_linear_501_5311)"/>
<path d="M29.2292 31.1159C20.0305 38.7443 15.1807 37.3677 16.7622 42.243C7.29993 39.9488 13.4148 32.8939 22.5344 27.7605C24.9593 26.384 27.3051 25.0074 29.4664 23.2007C36.082 17.7231 35.6867 10.7256 33.9998 7.51367C40.6419 14.7119 37.2681 24.1471 29.2292 31.1159Z" fill="url(#paint3_linear_501_5311)"/>
<path d="M22.6679 38.6018C30.7596 35.5906 35.7675 30.1704 39.0094 23.4023C37.428 33.0956 32.1565 39.0033 23.7222 41.613C23.5114 41.6704 23.3269 41.7277 23.116 41.7564C20.0058 42.3587 19.057 41.3549 20.7702 39.7489C21.3237 39.2614 21.9826 38.8599 22.6679 38.6018Z" fill="url(#paint4_linear_501_5311)"/>
<path d="M58.877 10.8117C60.8333 11.8796 61.0913 13.8762 60.8978 15.0602C60.5323 17.5442 58.9845 19.0533 55.8027 19.0533H49.9551V3.56836H55.7167C58.447 3.56836 60.4464 5.33276 60.3819 8.28116C60.3389 9.00084 59.9304 10.2313 58.877 10.8117ZM55.7167 9.62767C57.4796 9.62767 57.5441 6.865 55.7167 6.865H53.6098V9.62767H55.7167ZM55.7167 15.6173C57.9095 15.6173 57.8665 12.4368 55.7167 12.4368H53.6098V15.6173H55.7167Z" fill="#222222"/>
<path d="M66.186 13.8762C66.186 16.3602 70.2708 16.3602 70.2923 13.8762V3.56836H73.9685V13.8762C73.947 21.1427 62.5098 21.1427 62.5313 13.8762V3.56836H66.186V13.8762Z" fill="#222222"/>
<path d="M77.7105 14.1545C79.1509 16.035 82.3112 16.1278 82.4186 14.4563C82.4616 13.5741 81.1502 13.0865 79.9678 12.9008C77.6675 12.5062 75.5606 10.9275 75.5606 7.97909C75.5606 4.93782 78.1189 3.33594 80.7418 3.33594C82.4831 3.33594 84.16 3.8699 85.6434 5.79681L83.2786 7.77014C81.7737 6.05218 79.2154 6.09861 79.1509 7.90944C79.1939 8.65234 79.9463 9.09344 81.0642 9.34882C83.6226 9.85956 86.1594 10.8114 86.0089 14.6188C85.8799 17.6136 82.9776 19.2619 80.3333 19.2619C78.6134 19.2619 76.786 18.3101 75.4531 16.4528L77.7105 14.1545Z" fill="#222222"/>
<path d="M91.1469 19.0533H87.5137V3.56836H91.1469V19.0533Z" fill="#222222"/>
<path d="M93.4258 3.56836H96.8655L100.327 10.1616L101.552 13.2725L101.66 13.2493C101.638 13.2493 101.273 10.5795 101.251 10.5795V3.56836H104.863V19.0533H101.187L97.9405 12.9475L96.6935 9.83661L96.5861 9.85983L97.059 12.8547V19.0533H93.4258V3.56836Z" fill="#222222"/>
<path d="M110.774 9.65088H116.578V13.0404H110.774V15.362H117.094V19.0533H107.119V3.56836H117.094V7.23645H110.774V9.65088Z" fill="#222222"/>
<path d="M120.621 14.1545C122.061 16.035 125.221 16.1278 125.329 14.4563C125.372 13.5741 124.06 13.0865 122.878 12.9008C120.578 12.5062 118.471 10.9275 118.471 7.97909C118.471 4.93782 121.029 3.33594 123.652 3.33594C125.393 3.33594 127.07 3.8699 128.554 5.79681L126.189 7.77014C124.684 6.05218 122.125 6.09861 122.061 7.90944C122.104 8.65234 122.856 9.09344 123.974 9.34882C126.533 9.85956 129.069 10.8114 128.919 14.6188C128.79 17.6136 125.888 19.2619 123.243 19.2619C121.524 19.2619 119.696 18.3101 118.363 16.4528L120.621 14.1545Z" fill="#222222"/>
<path d="M132.058 14.1545C133.499 16.035 136.659 16.1278 136.766 14.4563C136.809 13.5741 135.498 13.0865 134.315 12.9008C132.015 12.5062 129.908 10.9275 129.908 7.97909C129.908 4.93782 132.467 3.33594 135.089 3.33594C136.831 3.33594 138.508 3.8699 139.991 5.79681L137.626 7.77014C136.121 6.05218 133.563 6.09861 133.499 7.90944C133.542 8.65234 134.294 9.09344 135.412 9.34882C137.97 9.85956 140.507 10.8114 140.357 14.6188C140.228 17.6136 137.325 19.2619 134.681 19.2619C132.961 19.2619 131.134 18.3101 129.801 16.4528L132.058 14.1545Z" fill="#222222"/>
<path d="M147.989 14.5719H141.668V10.8574H147.989V14.5719Z" fill="#222222"/>
<path d="M153.643 13.8762C153.643 16.3602 157.728 16.3602 157.749 13.8762V3.56836H161.426V13.8762C161.404 21.1427 149.967 21.1427 149.988 13.8762V3.56836H153.665V13.8762H153.643Z" fill="#222222"/>
<path d="M163.574 3.56836H169.314C172.819 3.56836 174.56 6.30782 174.56 9.04728C174.56 11.8099 172.797 14.5262 169.336 14.5262H167.207V19.0533H163.574V3.56836ZM169.293 11.0438C171.486 11.067 171.486 7.19002 169.293 7.21323H167.186V11.0438H169.293Z" fill="#222222"/>
<path d="M49.9551 35.2643V25.541H53.0789C54.4877 25.541 55.6515 26.004 56.5397 26.9301C57.4278 27.8561 57.8872 29.0136 57.8872 30.4026C57.8872 31.7917 57.4278 32.9492 56.5397 33.8752C55.6515 34.8013 54.4877 35.2643 53.1096 35.2643H49.9551ZM50.9657 34.2721H53.0789C54.2121 34.2721 55.1003 33.9083 55.8047 33.1807C56.4784 32.4531 56.8153 31.5271 56.8153 30.4357C56.8153 29.3443 56.4784 28.4183 55.774 27.6907C55.1003 26.9631 54.1815 26.5993 53.0789 26.5993H50.9657V34.2721Z" fill="#222222"/>
<path d="M59.875 26.4993V25.3418H61.0082V26.5324H59.875V26.4993ZM59.9363 35.2635V28.0868H60.9163V35.2635H59.9363Z" fill="#222222"/>
<path d="M66.1865 37.5131C65.0533 37.5131 64.0427 37.1824 63.1545 36.5209L63.6139 35.6941C64.4102 36.3225 65.2371 36.6201 66.1865 36.6201C66.9215 36.6201 67.5341 36.3886 67.9628 35.9587C68.3916 35.5288 68.606 34.9004 68.606 34.0736V33.2137C67.9016 34.2389 67.044 34.735 66.0028 34.735C65.1759 34.735 64.4408 34.4374 63.7977 33.809C63.1852 33.1806 62.8789 32.3538 62.8789 31.3617C62.8789 30.3364 63.1852 29.5427 63.8283 28.9143C64.4408 28.2859 65.1759 27.9883 66.0028 27.9883C67.0747 27.9883 67.9322 28.4844 68.606 29.4435V28.1536H69.586V34.1067C69.586 35.198 69.3104 36.0248 68.7285 36.6532C68.1466 37.2154 67.289 37.5131 66.1865 37.5131ZM66.1865 33.7759C66.8297 33.7759 67.4116 33.5444 67.9016 33.0814C68.3916 32.6184 68.6366 32.0231 68.6366 31.3286C68.6366 30.6341 68.3916 30.0388 67.9016 29.5758C67.4116 29.1127 66.8297 28.8812 66.1865 28.8812C65.5434 28.8812 64.9921 29.1127 64.5327 29.5427C64.1039 30.0057 63.8589 30.5679 63.8589 31.3286C63.8589 32.0231 64.0733 32.6184 64.5327 33.0814C64.9921 33.5444 65.5434 33.7759 66.1865 33.7759Z" fill="#222222"/>
<path d="M71.8203 26.4993V25.3418H72.9535V26.5324H71.8203V26.4993ZM71.8816 35.2635V28.0868H72.8616V35.2635H71.8816Z" fill="#222222"/>
<path d="M77.3977 35.3961C76.8158 35.3961 76.3564 35.2307 76.0195 34.9C75.6826 34.5692 75.4989 34.0732 75.4989 33.3786V29.0462H74.5801V28.0871H75.4989V25.9043H76.4789V28.0871H78.5921V29.0462H76.4789V33.2464C76.4789 34.0401 76.8464 34.437 77.6121 34.437C77.949 34.437 78.2552 34.3377 78.5921 34.1724V35.0984C78.2552 35.2968 77.8264 35.3961 77.3977 35.3961Z" fill="#222222"/>
<path d="M82.3577 35.4294C81.6839 35.4294 81.102 35.231 80.612 34.8341C80.122 34.4373 79.877 33.875 79.877 33.1805C79.877 32.4198 80.122 31.8576 80.6426 31.4277C81.1632 31.0308 81.837 30.7993 82.7252 30.7993C83.3989 30.7993 84.1033 30.8985 84.7465 31.097V30.8654C84.7465 30.2371 84.5627 29.741 84.2258 29.4103C83.889 29.0795 83.3989 28.9142 82.7558 28.9142C82.1126 28.9142 81.4389 29.0795 80.7345 29.4433L80.4282 28.5835C81.2551 28.1866 82.0514 27.9551 82.8477 27.9551C83.7971 27.9551 84.5015 28.2197 84.9915 28.7488C85.4509 29.2449 85.6959 29.9394 85.6959 30.8654V35.2641H84.7465V34.2058C84.1646 35.0326 83.3683 35.4294 82.3577 35.4294ZM82.5414 34.5696C83.1539 34.5696 83.6746 34.4042 84.1033 34.0404C84.5321 33.6766 84.7465 33.2136 84.7465 32.6514V31.9899C84.1033 31.7915 83.4602 31.6923 82.8171 31.6923C82.2045 31.6923 81.7451 31.8245 81.3776 32.0891C81.0407 32.3537 80.857 32.7175 80.857 33.1805C80.857 33.6105 81.0101 33.9742 81.347 34.2388C81.6839 34.4373 82.082 34.5696 82.5414 34.5696Z" fill="#222222"/>
<path d="M87.9316 35.2645V25.1113H88.9117V35.2645H87.9316Z" fill="#222222"/>
<path d="M97.0588 35.4294C96.3851 35.4294 95.8032 35.231 95.3131 34.8341C94.8231 34.4373 94.5781 33.875 94.5781 33.1805C94.5781 32.4198 94.8231 31.8576 95.3438 31.4277C95.8644 31.0308 96.5382 30.7993 97.4263 30.7993C98.1001 30.7993 98.8045 30.8985 99.4477 31.097V30.8654C99.4477 30.2371 99.2639 29.741 98.927 29.4103C98.5901 29.0795 98.1001 28.9142 97.457 28.9142C96.8138 28.9142 96.1401 29.0795 95.4357 29.4433L95.1294 28.5835C95.9563 28.1866 96.7526 27.9551 97.5489 27.9551C98.4983 27.9551 99.2027 28.2197 99.6927 28.7488C100.152 29.2449 100.397 29.9394 100.397 30.8654V35.2641H99.4477V34.2058C98.8658 35.0326 98.0695 35.4294 97.0588 35.4294ZM97.2426 34.5696C97.8551 34.5696 98.3758 34.4042 98.8045 34.0404C99.2333 33.6766 99.4477 33.2136 99.4477 32.6514V31.9899C98.8045 31.7915 98.1614 31.6923 97.5182 31.6923C96.9057 31.6923 96.4463 31.8245 96.0788 32.0891C95.7419 32.3537 95.5582 32.7175 95.5582 33.1805C95.5582 33.6105 95.7113 33.9742 96.0482 34.2388C96.3851 34.4373 96.7832 34.5696 97.2426 34.5696Z" fill="#222222"/>
<path d="M105.481 37.5131C104.348 37.5131 103.338 37.1824 102.449 36.5209L102.909 35.6941C103.705 36.3225 104.532 36.6201 105.481 36.6201C106.216 36.6201 106.829 36.3886 107.258 35.9587C107.687 35.5288 107.901 34.9004 107.901 34.0736V33.2137C107.197 34.2389 106.339 34.735 105.298 34.735C104.471 34.735 103.736 34.4374 103.093 33.809C102.48 33.1806 102.174 32.3538 102.174 31.3617C102.174 30.3364 102.48 29.5427 103.123 28.9143C103.736 28.2859 104.471 27.9883 105.298 27.9883C106.37 27.9883 107.227 28.4844 107.901 29.4435V28.1536H108.881V34.1067C108.881 35.198 108.605 36.0248 108.023 36.6532C107.442 37.2154 106.584 37.5131 105.481 37.5131ZM105.481 33.7759C106.125 33.7759 106.706 33.5444 107.197 33.0814C107.687 32.6184 107.932 32.0231 107.932 31.3286C107.932 30.6341 107.687 30.0388 107.197 29.5758C106.706 29.1127 106.125 28.8812 105.481 28.8812C104.838 28.8812 104.287 29.1127 103.828 29.5427C103.399 30.0057 103.154 30.5679 103.154 31.3286C103.154 32.0231 103.368 32.6184 103.828 33.0814C104.287 33.5444 104.838 33.7759 105.481 33.7759Z" fill="#222222"/>
<path d="M111.667 32.1221C111.728 32.8496 112.004 33.4449 112.433 33.8749C112.861 34.3048 113.413 34.5363 113.994 34.5363C114.791 34.5363 115.495 34.2056 116.108 33.5111L116.72 34.1064C115.985 34.9993 115.066 35.4624 113.964 35.4624C113.014 35.4624 112.249 35.0986 111.606 34.404C110.963 33.7095 110.656 32.8166 110.656 31.6921C110.656 30.6338 110.963 29.7408 111.575 29.0133C112.188 28.2857 112.953 27.9219 113.841 27.9219C114.791 27.9219 115.556 28.2857 116.108 29.0133C116.659 29.7408 116.935 30.6338 116.935 31.7252C116.935 31.8575 116.935 31.9898 116.935 32.089H111.667V32.1221ZM111.667 31.2622H115.955C115.893 30.5677 115.679 30.0054 115.311 29.5424C114.944 29.0794 114.454 28.8479 113.811 28.8479C113.259 28.8479 112.769 29.0794 112.341 29.5424C111.973 29.9724 111.759 30.5346 111.667 31.2622Z" fill="#222222"/>
<path d="M118.709 35.2641V28.0874H119.689V29.3441C120.21 28.4181 120.975 27.9551 121.955 27.9551C122.752 27.9551 123.364 28.2197 123.824 28.7488C124.283 29.278 124.497 29.9725 124.497 30.8324V35.2641H123.517V31.0639C123.517 30.4024 123.364 29.8733 123.027 29.4764C122.69 29.0795 122.262 28.9142 121.68 28.9142C121.098 28.9142 120.638 29.1126 120.24 29.5425C119.873 29.9725 119.658 30.5016 119.658 31.1631V35.2641H118.709Z" fill="#222222"/>
<path d="M129.646 35.4294C128.696 35.4294 127.869 35.0656 127.226 34.338C126.583 33.6105 126.246 32.7175 126.246 31.6923C126.246 30.667 126.583 29.7741 127.226 29.0465C127.869 28.3189 128.696 27.9551 129.646 27.9551C130.687 27.9551 131.575 28.385 132.31 29.2449L131.667 29.9725C131.054 29.278 130.381 28.9142 129.615 28.9142C128.941 28.9142 128.39 29.1788 127.931 29.741C127.471 30.2701 127.257 30.9647 127.257 31.7253C127.257 32.5191 127.502 33.1805 127.961 33.7097C128.421 34.2388 129.002 34.5365 129.707 34.5365C130.411 34.5365 131.085 34.1727 131.728 33.4451L132.371 34.1065C131.575 34.9664 130.687 35.4294 129.646 35.4294Z" fill="#222222"/>
<path d="M135.032 37.5465C134.542 37.5465 134.083 37.4142 133.623 37.1827L133.96 36.3228C134.266 36.4881 134.634 36.5874 135.001 36.5874C135.308 36.5874 135.553 36.4881 135.767 36.2897C135.981 36.0913 136.165 35.7275 136.38 35.2314L133.348 28.0547H134.45L136.87 34.0408L139.013 28.0547H140.055L137.268 35.496C136.992 36.2236 136.686 36.7527 136.318 37.0504C135.951 37.3811 135.522 37.5465 135.032 37.5465Z" fill="#222222"/>
<defs>
<linearGradient id="paint0_linear_501_5311" x1="-0.63301" y1="17.9754" x2="18.6565" y2="0.246953" gradientUnits="userSpaceOnUse">
<stop stop-color="#CE2000"/>
<stop offset="0.6128" stop-color="#A61A00"/>
<stop offset="1" stop-color="#DD1500"/>
</linearGradient>
<linearGradient id="paint1_linear_501_5311" x1="-0.653082" y1="29.4912" x2="27.5275" y2="3.59137" gradientUnits="userSpaceOnUse">
<stop stop-color="#CE2000"/>
<stop offset="0.6128" stop-color="#A61A00"/>
<stop offset="1" stop-color="#DD1500"/>
</linearGradient>
<linearGradient id="paint2_linear_501_5311" x1="5.75143" y1="35.7175" x2="34.7716" y2="9.04602" gradientUnits="userSpaceOnUse">
<stop stop-color="#CE2000"/>
<stop offset="0.6128" stop-color="#A61A00"/>
<stop offset="1" stop-color="#DD1500"/>
</linearGradient>
<linearGradient id="paint3_linear_501_5311" x1="12.6416" y1="40.11" x2="40.4821" y2="14.5227" gradientUnits="userSpaceOnUse">
<stop stop-color="#CE2000"/>
<stop offset="0.6128" stop-color="#A61A00"/>
<stop offset="1" stop-color="#DD1500"/>
</linearGradient>
<linearGradient id="paint4_linear_501_5311" x1="21.8451" y1="43.463" x2="41.1347" y2="25.7346" gradientUnits="userSpaceOnUse">
<stop stop-color="#CE2000"/>
<stop offset="0.6128" stop-color="#A61A00"/>
<stop offset="1" stop-color="#DD1500"/>
</linearGradient>
</defs>
</svg>
