<?xml version="1.0" encoding="utf-8"?>
<!-- Generator: Adobe Illustrator 26.0.1, SVG Export Plug-In . SVG Version: 6.00 Build 0)  -->
<svg version="1.1" id="Слой_1" xmlns="http://www.w3.org/2000/svg" xmlns:xlink="http://www.w3.org/1999/xlink" x="0px" y="0px"
	 viewBox="0 0 40 40" style="enable-background:new 0 0 40 40;" xml:space="preserve">
<style type="text/css">
	.st0{fill:url(#SVGID_1_);}
	.st1{fill:none;stroke:#C1F0FB;}
	.st2{fill:none;stroke:url(#SVGID_00000143585571900021127420000009332221241658224006_);}
	.st3{fill:#222222;}
</style>
<g>
	
		<linearGradient id="SVGID_1_" gradientUnits="userSpaceOnUse" x1="-2.572" y1="38.147" x2="43.7275" y2="29.4152" gradientTransform="matrix(1 0 0 -1 0 53.89)">
		<stop  offset="0" style="stop-color:#FFFFFF"/>
		<stop  offset="1" style="stop-color:#FFFFFF;stop-opacity:0"/>
		<stop  offset="1" style="stop-color:#FFFFFF"/>
	</linearGradient>
	<path shape-rendering="crispEdges" class="st0" d="M20,0L20,0c11,0,20,9,20,20l0,0c0,11-9,20-20,20l0,0C9,40,0,31,0,20l0,0
		C0,9,9,0,20,0z"/>
	<path shape-rendering="crispEdges" class="st1" d="M20,0.5L20,0.5c10.8,0,19.5,8.7,19.5,19.5l0,0c0,10.8-8.7,19.5-19.5,19.5l0,0
		C9.2,39.5,0.5,30.8,0.5,20l0,0C0.5,9.2,9.2,0.5,20,0.5z"/>
	
		<radialGradient id="SVGID_00000060018547038262221260000005804804625541737869_" cx="-284.7525" cy="441.8828" r="1" gradientTransform="matrix(20 -19.1229 -51.9461 -54.3288 28669.1348 18581.7031)" gradientUnits="userSpaceOnUse">
		<stop  offset="0" style="stop-color:#FFFFFF"/>
		<stop  offset="1" style="stop-color:#FFFFFF;stop-opacity:0"/>
	</radialGradient>
	
		<path shape-rendering="crispEdges" style="fill:none;stroke:url(#SVGID_00000060018547038262221260000005804804625541737869_);" d="
		M20,0.5L20,0.5c10.8,0,19.5,8.7,19.5,19.5l0,0c0,10.8-8.7,19.5-19.5,19.5l0,0C9.2,39.5,0.5,30.8,0.5,20l0,0C0.5,9.2,9.2,0.5,20,0.5
		z"/>
</g>
<path class="st3" d="M14.5,13.4c0-0.6,0.5-1.1,1.1-1.1h14.3c0.6,0,1.1,0.5,1.1,1.1s-0.5,1.1-1.1,1.1H15.6C15,14.5,14.5,14,14.5,13.4
	z M29.9,18.9H10.1C9.5,18.9,9,19.4,9,20c0,0.6,0.5,1.1,1.1,1.1h19.8c0.6,0,1.1-0.5,1.1-1.1C31,19.4,30.5,18.9,29.9,18.9z M29.9,25.5
	H20c-0.6,0-1.1,0.5-1.1,1.1c0,0.6,0.5,1.1,1.1,1.1h9.9c0.6,0,1.1-0.5,1.1-1.1C31,26,30.5,25.5,29.9,25.5z"/>
</svg>
