<?xml version="1.0" encoding="utf-8"?>
<!-- Generator: Adobe Illustrator 26.0.1, SVG Export Plug-In . SVG Version: 6.00 Build 0)  -->
<svg version="1.1" id="Слой_1" xmlns="http://www.w3.org/2000/svg" xmlns:xlink="http://www.w3.org/1999/xlink" x="0px" y="0px"
	 viewBox="0 0 38 38" style="enable-background:new 0 0 38 38;" xml:space="preserve">
<style type="text/css">
	.st0{fill:url(#SVGID_1_);}
	.st1{fill:none;stroke:#C1F0FB;}
	.st2{fill:none;stroke:url(#SVGID_00000056385351316617561790000005507984734756058544_);}
	.st3{clip-path:url(#SVGID_00000088101118492283952230000004221571441591541682_);}
	.st4{fill:#102B32;}
</style>
<g>
	
		<linearGradient id="SVGID_1_" gradientUnits="userSpaceOnUse" x1="-2.4434" y1="30.9341" x2="41.5411" y2="22.6389" gradientTransform="matrix(1 0 0 -1 0 45.89)">
		<stop  offset="0" style="stop-color:#FFFFFF"/>
		<stop  offset="1" style="stop-color:#FFFFFF;stop-opacity:0"/>
		<stop  offset="1" style="stop-color:#FFFFFF"/>
	</linearGradient>
	<path shape-rendering="crispEdges" class="st0" d="M19,0L19,0c10.5,0,19,8.5,19,19l0,0c0,10.5-8.5,19-19,19l0,0C8.5,38,0,29.5,0,19
		l0,0C0,8.5,8.5,0,19,0z"/>
	<path shape-rendering="crispEdges" class="st1" d="M19,0.5L19,0.5c10.2,0,18.5,8.3,18.5,18.5l0,0c0,10.2-8.3,18.5-18.5,18.5l0,0
		C8.8,37.5,0.5,29.2,0.5,19l0,0C0.5,8.8,8.8,0.5,19,0.5z"/>
	
		<radialGradient id="SVGID_00000111188979672910871480000011665994739301587108_" cx="-285.8173" cy="437.5772" r="1" gradientTransform="matrix(19 -18.1667 -49.3488 -51.6124 27043.4316 17411.0703)" gradientUnits="userSpaceOnUse">
		<stop  offset="0" style="stop-color:#FFFFFF"/>
		<stop  offset="1" style="stop-color:#FFFFFF;stop-opacity:0"/>
	</radialGradient>
	
		<path shape-rendering="crispEdges" style="fill:none;stroke:url(#SVGID_00000111188979672910871480000011665994739301587108_);" d="
		M19,0.5L19,0.5c10.2,0,18.5,8.3,18.5,18.5l0,0c0,10.2-8.3,18.5-18.5,18.5l0,0C8.8,37.5,0.5,29.2,0.5,19l0,0C0.5,8.8,8.8,0.5,19,0.5
		z"/>
</g>
<g>
	<defs>
		<rect id="SVGID_00000039107132864335125700000005076618523993282944_" x="11" y="11" width="16" height="16"/>
	</defs>
	<clipPath id="SVGID_00000147912666912696551730000009867586020815330438_">
		<use xlink:href="#SVGID_00000039107132864335125700000005076618523993282944_"  style="overflow:visible;"/>
	</clipPath>
	<g style="clip-path:url(#SVGID_00000147912666912696551730000009867586020815330438_);">
		<path class="st4" d="M11.8,27c-0.2,0-0.3,0-0.4-0.1c-0.1-0.1-0.2-0.2-0.3-0.4c-0.1-0.1-0.1-0.3,0-0.5c0-0.2,0.1-0.3,0.2-0.4
			l14.4-14.4c0.1-0.1,0.3-0.2,0.6-0.2s0.4,0.1,0.6,0.2c0.1,0.1,0.2,0.3,0.2,0.6c0,0.2-0.1,0.4-0.2,0.6L12.3,26.8
			c-0.1,0.1-0.2,0.1-0.3,0.2C12,27,11.9,27,11.8,27z"/>
		<path class="st4" d="M26.2,27c-0.1,0-0.2,0-0.3-0.1c-0.1,0-0.2-0.1-0.3-0.2L11.2,12.3C11.1,12.2,11,12,11,11.8
			c0-0.2,0.1-0.4,0.2-0.6c0.1-0.1,0.3-0.2,0.6-0.2c0.2,0,0.4,0.1,0.6,0.2l14.4,14.4c0.1,0.1,0.2,0.2,0.2,0.4c0,0.2,0,0.3,0,0.5
			c-0.1,0.1-0.2,0.3-0.3,0.4C26.5,27,26.4,27,26.2,27z"/>
	</g>
</g>
</svg>
