<svg width="37" height="37" viewBox="0 0 37 37" fill="none" xmlns="http://www.w3.org/2000/svg">
<path d="M36.5917 7.48744L36.5859 7.43252C36.3986 5.63394 35.5981 3.95459 34.3189 2.67645C33.0397 1.39832 31.3597 0.599224 29.561 0.413359C26.924 0.13875 22.5787 0 18.5 0C14.4213 0 10.076 0.13875 7.43902 0.413359C5.64029 0.599224 3.96029 1.39832 2.68109 2.67645C1.4019 3.95459 0.601428 5.63394 0.414082 7.43252L0.408301 7.48744C0.179941 9.6742 0 10.0254 0 14.6374C0 19.2494 0.179941 19.9937 0.408301 22.1812L0.414082 22.2354C0.601428 24.034 1.4019 25.7133 2.68109 26.9915C3.96029 28.2696 5.64029 29.0687 7.43902 29.2546C8.89373 29.4063 10.8688 29.5162 13.0317 29.5848L17.2288 36.2499C17.3736 36.4796 17.5743 36.6689 17.8121 36.8001C18.0498 36.9313 18.317 37.0001 18.5885 37.0001C18.8601 37.0001 19.1272 36.9313 19.365 36.8001C19.6028 36.6689 19.8034 36.4796 19.9482 36.2499L24.149 29.579C26.2411 29.5068 28.1467 29.402 29.5603 29.2546C31.3591 29.0689 33.0393 28.2698 34.3186 26.9917C35.598 25.7135 36.3985 24.0341 36.5859 22.2354L36.5917 22.1805C36.8201 19.9937 37 19.2494 37 14.6374C37 10.0254 36.8201 9.67492 36.5917 7.48744ZM18.4957 25.8032C18.0108 25.8023 17.537 25.6577 17.1342 25.3877C16.7314 25.1177 16.4177 24.7343 16.2328 24.2861C16.0478 23.8378 15.9998 23.3448 16.095 22.8693C16.1901 22.3938 16.424 21.9572 16.7672 21.6146C17.1104 21.272 17.5474 21.0389 18.0231 20.9446C18.4988 20.8503 18.9917 20.8991 19.4396 21.0849C19.8875 21.2707 20.2703 21.585 20.5396 21.9883C20.809 22.3915 20.9527 22.8656 20.9527 23.3505C20.9515 24.0014 20.6922 24.6252 20.2315 25.0851C19.7709 25.5449 19.1466 25.8032 18.4957 25.8032ZM20.8746 17.356C20.8336 17.7353 20.6622 18.0885 20.3897 18.3555C20.1139 18.6247 19.755 18.7925 19.3715 18.8317H19.36C19.1201 18.8595 18.8788 18.8735 18.6373 18.8736C18.3477 18.875 18.0582 18.861 17.7701 18.8317H17.7578C17.3736 18.7932 17.0138 18.6253 16.7374 18.3555C16.4648 18.0889 16.2934 17.7358 16.2525 17.3568C16.1933 16.8032 16.1637 12.9594 16.1637 12.103C16.1637 11.2467 16.1933 7.39205 16.2525 6.83922C16.2936 6.45997 16.4649 6.10672 16.7374 5.83979C17.0131 5.5708 17.3718 5.40319 17.7549 5.36428H17.7672C18.0553 5.33556 18.3451 5.32687 18.6344 5.33826C18.8756 5.32682 19.1173 5.33552 19.3571 5.36428H19.3686C19.752 5.40314 20.1109 5.57075 20.3869 5.83979C20.6591 6.1069 20.8305 6.46006 20.8718 6.83922C20.9303 7.39205 20.9606 11.2474 20.9606 12.103C20.9606 12.9587 20.9332 16.8025 20.8746 17.356Z" fill="url(#paint0_linear_495_15948)"/>
<defs>
<linearGradient id="paint0_linear_495_15948" x1="7.41075e-08" y1="14.0821" x2="37" y2="14.0821" gradientUnits="userSpaceOnUse">
<stop stop-color="#6CD4FF"/>
<stop offset="1" stop-color="#00B2F7"/>
</linearGradient>
</defs>
</svg>
