<svg width="82" height="82" viewBox="0 0 82 82" fill="none" xmlns="http://www.w3.org/2000/svg">
<path d="M78.5154 39.8739C75.6081 37.466 71.2917 37.5813 68.4994 40.1302L59.0598 48.7371C57.7406 46.9312 55.6143 45.7656 53.2066 45.7656H43.1905C41.9352 45.7656 40.7057 45.5608 39.5659 45.1251C36.7353 44.0748 31.1382 42.6661 25.5154 44.9842C24.4396 45.4325 23.3765 46.0986 22.339 46.9565L12.5536 55.1413C11.0168 54.2446 9.01865 54.4368 7.71226 55.7432L3.2423 60.2259C1.67965 61.7884 1.67965 64.3117 3.2423 65.8742L18.1894 80.8212C19.7392 82.3711 22.2751 82.3711 23.8378 80.8212L28.3079 76.3385C29.8704 74.7888 29.8704 72.2526 28.3079 70.6901L28.1669 70.5493L29.2429 69.4734C31.2792 67.437 34.0203 66.361 36.7741 66.5531C43.3831 66.9759 50.0944 66.4507 56.6906 64.9778C58.996 64.4656 61.1095 63.2998 62.7873 61.622L78.7974 45.6118C80.4112 43.9981 80.2831 41.3341 78.5154 39.8739V39.8739ZM76.9912 43.7931L60.981 59.8161C59.6362 61.1481 57.9712 62.0703 56.1397 62.4803C49.7613 63.902 43.3059 64.4143 36.9403 63.9915C33.4564 63.7611 29.9855 65.1061 27.4366 67.6548L26.3609 68.7434C17.8306 60.1492 15.3331 57.6388 14.7183 57.0113C14.7183 57.0113 14.6542 56.96 14.616 56.9088C14.5903 56.8832 14.5647 56.8577 14.5263 56.8193L23.9787 48.9295C24.8112 48.2251 25.6565 47.7 26.489 47.3542C31.3177 45.3689 36.1975 46.6114 38.6695 47.5336C40.104 48.0587 41.6282 48.3276 43.1909 48.3276H53.2069C55.8453 48.3276 57.9075 50.4667 57.8818 53.0282C57.8818 53.8094 57.2286 54.4371 56.4345 54.4371H33.9175C33.2131 54.4371 32.6367 55.0133 32.6367 55.7179C32.6367 56.4352 33.2131 56.9986 33.9175 56.9986H56.4342C58.6245 56.9986 60.4302 55.2311 60.4431 53.0537C60.4431 52.4004 60.3662 51.7601 60.2126 51.1452L70.2286 42.0259C72.0858 40.3224 74.9548 40.2583 76.8889 41.8592C77.4909 42.3459 77.5421 43.2553 76.9912 43.7931V43.7931Z" fill="url(#paint0_linear_495_16096)"/>
<path d="M46.143 40.7694C55.9404 40.7694 63.913 32.7993 63.9155 23.0018C63.9155 22.2965 63.343 21.721 62.6348 21.721H47.4287V6.51643C47.4287 5.80853 46.8512 5.23438 46.1428 5.23438C36.3491 5.23438 28.3809 13.2031 28.3809 22.9968C28.381 32.7969 36.3493 40.7694 46.143 40.7694V40.7694ZM44.8672 7.84861V23.0019C44.8672 23.7098 45.4401 24.2827 46.148 24.2827H61.3C60.6447 32.0702 54.0967 38.2078 46.1428 38.2078C37.7612 38.2078 30.9426 31.3847 30.9426 22.997C30.9427 15.0444 37.0804 8.499 44.8672 7.84861V7.84861Z" fill="url(#paint1_linear_495_16096)"/>
<path d="M69.1277 17.7803C69.1277 18.4847 68.5641 19.0611 67.8469 19.0611H51.3628C50.6583 19.0611 50.082 18.4847 50.082 17.7803V1.29639C50.082 0.591867 50.6583 0.015625 51.3628 0.015625C61.1608 0.0154648 69.1277 7.98212 69.1277 17.7803Z" fill="url(#paint2_linear_495_16096)"/>
<defs>
<linearGradient id="paint0_linear_495_16096" x1="2.07031" y1="63.6612" x2="79.9314" y2="63.8168" gradientUnits="userSpaceOnUse">
<stop stop-color="#957DF3"/>
<stop offset="1" stop-color="#662D91"/>
</linearGradient>
<linearGradient id="paint1_linear_495_16096" x1="28.3809" y1="25.9189" x2="63.9167" y2="25.9589" gradientUnits="userSpaceOnUse">
<stop stop-color="#957DF3"/>
<stop offset="1" stop-color="#662D91"/>
</linearGradient>
<linearGradient id="paint2_linear_495_16096" x1="50.082" y1="11.1018" x2="69.1283" y2="11.1232" gradientUnits="userSpaceOnUse">
<stop stop-color="#957DF3"/>
<stop offset="1" stop-color="#662D91"/>
</linearGradient>
</defs>
</svg>
