<svg width="82" height="82" viewBox="0 0 82 82" fill="none" xmlns="http://www.w3.org/2000/svg">
<path d="M81.2499 55.2016C80.4743 54.4466 79.3041 54.2757 78.3459 54.779C64.0627 62.2756 45.9946 60.0225 33.9866 48.0148C21.9784 36.0063 19.7259 17.9374 27.2226 3.65462C27.7262 2.69763 27.5533 1.52555 26.7968 0.752695C26.0431 -0.0210062 24.8746 -0.221626 23.9061 0.260064C19.8387 2.27923 16.022 4.97767 12.6329 8.36667C-4.20965 25.2109 -4.20965 52.522 12.6329 69.3662C29.4809 86.2115 56.7895 86.2115 73.6346 69.3662C77.0234 65.9772 79.7208 62.163 81.7401 58.0954C82.2213 57.1263 82.0226 55.9581 81.2499 55.2016Z" fill="url(#paint0_linear_495_16109)"/>
<path d="M51.4263 45.8197C51.3672 45.966 51.4106 46.1358 51.537 46.2343C51.6611 46.3324 51.8363 46.3376 51.9649 46.2464L57.5235 42.2983L63.8355 44.8843C63.9843 44.9434 64.1509 44.8991 64.2509 44.7754C64.35 44.6515 64.353 44.4766 64.2616 44.3471L60.3132 38.7859L62.8989 32.4763C62.9589 32.3297 62.9157 32.1602 62.7895 32.0616C62.6654 31.9635 62.49 31.9582 62.3603 32.0495L56.8027 35.9974L50.4895 33.4122C50.3417 33.3527 50.1756 33.3968 50.0753 33.5208C49.9752 33.6445 49.9732 33.82 50.0647 33.9491L54.0133 39.5103L51.4263 45.8197Z" fill="url(#paint1_linear_495_16109)"/>
<path d="M36.8212 15.91L41.4083 16.2494L43.5748 20.3044C43.6473 20.4445 43.8065 20.5188 43.9629 20.4852C44.1186 20.4525 44.2311 20.3206 44.2451 20.162L44.5846 15.5779L48.6406 13.4094C48.7806 13.334 48.8538 13.1765 48.8217 13.0205C48.7892 12.8657 48.6576 12.75 48.4984 12.7393L43.9114 12.4L41.7446 8.3448C41.6716 8.2046 41.5127 8.13055 41.3568 8.16437C41.2006 8.19669 41.0882 8.32847 41.0744 8.48735L40.7346 13.0717L36.6788 15.2398C36.5386 15.3152 36.466 15.4727 36.4975 15.6289C36.5303 15.7837 36.6623 15.8994 36.8212 15.91Z" fill="url(#paint2_linear_495_16109)"/>
<path d="M65.8605 11.3273L65.7206 13.8753C65.713 14.0325 65.8102 14.1779 65.9606 14.2304C66.1084 14.2831 66.2759 14.2304 66.3664 14.1012L67.847 12.0246L70.3992 12.1631C70.5582 12.1726 70.7038 12.0755 70.7543 11.925C70.808 11.7755 70.7543 11.6086 70.6255 11.5172L68.5475 10.0351L68.6847 7.48475C68.6921 7.32722 68.5951 7.1818 68.4473 7.12946C68.2967 7.07712 68.1299 7.12946 68.0384 7.25872L66.5551 9.33814L64.0086 9.19945C63.8497 9.19019 63.7043 9.28848 63.654 9.43777C63.5991 9.58723 63.654 9.75402 63.7822 9.84574L65.8605 11.3273Z" fill="url(#paint3_linear_495_16109)"/>
<defs>
<linearGradient id="paint0_linear_495_16109" x1="0.000976126" y1="47.7315" x2="82.0031" y2="47.8238" gradientUnits="userSpaceOnUse">
<stop stop-color="#957DF3"/>
<stop offset="1" stop-color="#662D91"/>
</linearGradient>
<linearGradient id="paint1_linear_495_16109" x1="49.998" y1="40.324" x2="64.3282" y2="40.3402" gradientUnits="userSpaceOnUse">
<stop stop-color="#957DF3"/>
<stop offset="1" stop-color="#662D91"/>
</linearGradient>
<linearGradient id="paint2_linear_495_16109" x1="36.4902" y1="15.3375" x2="48.8296" y2="15.3514" gradientUnits="userSpaceOnUse">
<stop stop-color="#957DF3"/>
<stop offset="1" stop-color="#662D91"/>
</linearGradient>
<linearGradient id="paint3_linear_495_16109" x1="63.6328" y1="11.2662" x2="70.7752" y2="11.2743" gradientUnits="userSpaceOnUse">
<stop stop-color="#957DF3"/>
<stop offset="1" stop-color="#662D91"/>
</linearGradient>
</defs>
</svg>
