<svg width="21" height="29" viewBox="0 0 21 29" fill="none" xmlns="http://www.w3.org/2000/svg">
<path d="M3.92531 4.74635C3.92531 4.90969 3.79406 5.03802 3.63365 5.03802H3.18156V5.49302C3.18156 5.65344 3.05031 5.78469 2.8899 5.78469C2.72656 5.78469 2.59823 5.65344 2.59823 5.49302V5.03802H2.14323C1.98281 5.03802 1.85156 4.90969 1.85156 4.74635C1.85156 4.58594 1.98281 4.45469 2.14323 4.45469H2.59823V4.0026C2.59823 3.84219 2.72656 3.71094 2.8899 3.71094C3.05031 3.71094 3.18156 3.84219 3.18156 4.0026V4.45469H3.63365C3.79406 4.45469 3.92531 4.58594 3.92531 4.74635Z" fill="url(#paint0_linear_446_11994)"/>
<path d="M18.8504 20.7768C18.8504 21.331 18.4013 21.7772 17.85 21.7772C17.2958 21.7772 16.8467 21.331 16.8467 20.7768C16.8467 20.2255 17.2958 19.7764 17.85 19.7764C18.4013 19.7764 18.8504 20.2255 18.8504 20.7768Z" fill="url(#paint1_linear_446_11994)"/>
<path d="M17.8645 15.3251L18.1853 15.0043C18.2991 14.8905 18.4828 14.8905 18.5966 15.0043C18.7103 15.118 18.7103 15.3047 18.5966 15.4184L18.2758 15.7393L18.5966 16.0572C18.7103 16.1709 18.7103 16.3576 18.5966 16.4713C18.5383 16.5268 18.4653 16.5559 18.3895 16.5559C18.3166 16.5559 18.2408 16.5268 18.1853 16.4713L17.8645 16.1505L17.5437 16.4713C17.4853 16.5268 17.4124 16.5559 17.3366 16.5559C17.2637 16.5559 17.1878 16.5268 17.1324 16.4713C17.0158 16.3576 17.0158 16.1709 17.1324 16.0572L17.4503 15.7393L17.1324 15.4184C17.0158 15.3047 17.0158 15.118 17.1324 15.0043C17.2462 14.8905 17.4299 14.8905 17.5437 15.0043L17.8645 15.3251Z" fill="url(#paint2_linear_446_11994)"/>
<path d="M1.60979 11.204C1.05854 11.204 0.609375 10.7548 0.609375 10.2035C0.609375 9.65229 1.05854 9.20312 1.60979 9.20312C2.16104 9.20312 2.61021 9.65229 2.61021 10.2035C2.61021 10.7548 2.16104 11.204 1.60979 11.204Z" fill="url(#paint3_linear_446_11994)"/>
<path d="M6.20354 16.2088C6.75606 16.2088 7.20396 15.7609 7.20396 15.2084C7.20396 14.6559 6.75606 14.208 6.20354 14.208C5.65103 14.208 5.20312 14.6559 5.20312 15.2084C5.20312 15.7609 5.65103 16.2088 6.20354 16.2088Z" fill="url(#paint4_linear_446_11994)"/>
<path d="M3.55228 19.8284C3.55228 19.9888 3.42395 20.12 3.26061 20.12H2.80853V20.5721C2.80853 20.7325 2.67728 20.8638 2.51686 20.8638C2.35645 20.8638 2.2252 20.7325 2.2252 20.5721V20.12H1.77311C1.60978 20.12 1.48145 19.9888 1.48145 19.8284C1.48145 19.665 1.60978 19.5367 1.77311 19.5367H2.2252V19.0817C2.2252 18.9213 2.35645 18.79 2.51686 18.79C2.67728 18.79 2.80853 18.9213 2.80853 19.0817V19.5367H3.26061C3.42395 19.5367 3.55228 19.665 3.55228 19.8284Z" fill="url(#paint5_linear_446_11994)"/>
<path d="M11.9767 7.0052C13.425 6.40491 14.1123 4.74427 13.5121 3.29605C12.9118 1.84783 11.2511 1.16044 9.8029 1.76073C8.35468 2.36102 7.6673 4.02167 8.26759 5.46989C8.86788 6.91811 10.5285 7.6055 11.9767 7.0052Z" fill="url(#paint6_linear_446_11994)"/>
<path d="M14.1541 10.183C13.9062 10.4747 13.9208 10.9005 14.1862 11.198C16.2133 13.4555 15.6737 18.0114 15.6504 18.2039C15.4112 21.4647 13.7954 26.1051 13.1129 27.9484C12.9262 28.453 12.4362 28.7914 11.8966 28.7914H11.8033C11.3891 28.7914 11.007 28.5989 10.762 28.2664C10.5141 27.928 10.4412 27.5051 10.5666 27.1055C11.5962 23.7864 11.7216 20.7414 11.7275 19.6418C8.89829 21.0855 7.34079 26.2305 6.91496 27.8289C6.76621 28.3976 6.24996 28.7914 5.66371 28.7914C5.27871 28.7914 4.91704 28.6251 4.66912 28.3334C4.42412 28.0447 4.31912 27.6655 4.38037 27.2951C5.01329 23.4393 6.37246 20.7122 7.40204 19.1051C8.42287 17.5068 8.47537 15.4943 7.54204 13.8493C6.63496 12.2539 5.55287 10.2122 5.21746 8.59052C4.50287 5.13135 5.29621 2.32844 5.82996 0.963438C5.94662 0.663021 6.17412 0.426771 6.47162 0.301354C6.76621 0.178854 7.08996 0.175938 7.38454 0.298438C7.95621 0.537604 8.24204 1.1676 8.04954 1.7626C7.64412 3.01677 7.45162 4.24469 7.47496 5.40552C7.48954 6.26302 7.84537 7.05927 8.46954 7.65427C9.10829 8.2551 9.93954 8.5701 10.8175 8.53802C11.7362 8.50594 12.5937 8.09177 13.1683 7.3976C14.6529 5.61552 15.4404 3.57385 15.7787 2.5151C15.8837 2.1826 16.1287 1.91427 16.4466 1.77427C16.7645 1.63427 17.1291 1.6401 17.4441 1.78885C17.9516 2.0251 18.2287 2.57927 18.115 3.13052C17.5695 5.8226 15.3995 8.70427 14.1541 10.183Z" fill="url(#paint7_linear_446_11994)"/>
<path d="M18.2002 7.48756C18.2002 7.32715 18.3285 7.1959 18.4919 7.1959H18.9439V6.74382C18.9439 6.58048 19.0752 6.45215 19.2356 6.45215C19.396 6.45215 19.5273 6.58048 19.5273 6.74382V7.1959H19.9794C20.1427 7.1959 20.271 7.32715 20.271 7.48756C20.271 7.64798 20.1427 7.77923 19.9794 7.77923H19.5273V8.23131C19.5273 8.39465 19.396 8.52298 19.2356 8.52298C19.0752 8.52298 18.9439 8.39465 18.9439 8.23131V7.77923H18.4919C18.3285 7.77923 18.2002 7.64798 18.2002 7.48756Z" fill="url(#paint8_linear_446_11994)"/>
<path d="M20.3024 11.5826C20.4162 11.6963 20.4162 11.883 20.3024 11.9967C20.247 12.0521 20.1712 12.0813 20.0953 12.0813C20.0224 12.0813 19.9466 12.0521 19.8912 11.9967L19.5703 11.6759L19.2495 11.9967C19.1941 12.0521 19.1182 12.0813 19.0424 12.0813C18.9695 12.0813 18.8937 12.0521 18.8382 11.9967C18.7245 11.883 18.7245 11.6963 18.8382 11.5826L19.1591 11.2646L18.8382 10.9438C18.7245 10.8301 18.7245 10.6434 18.8382 10.5296C18.952 10.4159 19.1357 10.4159 19.2495 10.5296L19.5703 10.8505L19.8912 10.5296C20.0049 10.4159 20.1887 10.4159 20.3024 10.5296C20.4162 10.6434 20.4162 10.8301 20.3024 10.9438L19.9816 11.2646L20.3024 11.5826Z" fill="url(#paint9_linear_446_11994)"/>
<defs>
<linearGradient id="paint0_linear_446_11994" x1="1.85156" y1="4.91805" x2="3.92538" y2="4.92038" gradientUnits="userSpaceOnUse">
<stop stop-color="#957DF3"/>
<stop offset="1" stop-color="#662D91"/>
</linearGradient>
<linearGradient id="paint1_linear_446_11994" x1="16.8467" y1="20.941" x2="18.8505" y2="20.9433" gradientUnits="userSpaceOnUse">
<stop stop-color="#957DF3"/>
<stop offset="1" stop-color="#662D91"/>
</linearGradient>
<linearGradient id="paint2_linear_446_11994" x1="17.0449" y1="15.8718" x2="18.682" y2="15.8737" gradientUnits="userSpaceOnUse">
<stop stop-color="#957DF3"/>
<stop offset="1" stop-color="#662D91"/>
</linearGradient>
<linearGradient id="paint3_linear_446_11994" x1="0.609375" y1="10.3678" x2="2.61027" y2="10.37" gradientUnits="userSpaceOnUse">
<stop stop-color="#957DF3"/>
<stop offset="1" stop-color="#662D91"/>
</linearGradient>
<linearGradient id="paint4_linear_446_11994" x1="5.20312" y1="15.3727" x2="7.20402" y2="15.3749" gradientUnits="userSpaceOnUse">
<stop stop-color="#957DF3"/>
<stop offset="1" stop-color="#662D91"/>
</linearGradient>
<linearGradient id="paint5_linear_446_11994" x1="1.48145" y1="19.9971" x2="3.55235" y2="19.9995" gradientUnits="userSpaceOnUse">
<stop stop-color="#957DF3"/>
<stop offset="1" stop-color="#662D91"/>
</linearGradient>
<linearGradient id="paint6_linear_446_11994" x1="8.44604" y1="5.90041" x2="13.6931" y2="3.7324" gradientUnits="userSpaceOnUse">
<stop stop-color="#957DF3"/>
<stop offset="1" stop-color="#662D91"/>
</linearGradient>
<linearGradient id="paint7_linear_446_11994" x1="4.36328" y1="16.8461" x2="18.1408" y2="16.8535" gradientUnits="userSpaceOnUse">
<stop stop-color="#957DF3"/>
<stop offset="1" stop-color="#662D91"/>
</linearGradient>
<linearGradient id="paint8_linear_446_11994" x1="18.2002" y1="7.65756" x2="20.2711" y2="7.65989" gradientUnits="userSpaceOnUse">
<stop stop-color="#957DF3"/>
<stop offset="1" stop-color="#662D91"/>
</linearGradient>
<linearGradient id="paint9_linear_446_11994" x1="18.7529" y1="11.3972" x2="20.3878" y2="11.399" gradientUnits="userSpaceOnUse">
<stop stop-color="#957DF3"/>
<stop offset="1" stop-color="#662D91"/>
</linearGradient>
</defs>
</svg>
