<svg width="35" height="35" viewBox="0 0 35 35" fill="none" xmlns="http://www.w3.org/2000/svg">
<path d="M24.0648 23.1314L19.7932 20.627C19.5602 20.655 19.327 20.7012 19.0948 20.7676C17.9796 21.0877 16.3667 22.0055 15.0147 24.5617C13.9414 26.591 14.3375 28.3283 14.687 29.8613C15.021 31.3265 15.2849 32.4839 14.3035 33.6417C14.207 33.7554 14.1806 33.9129 14.2348 34.052C14.2688 34.1395 14.3313 34.2107 14.4095 34.2562C14.456 34.2831 14.5079 34.301 14.5628 34.308C17.0453 34.6199 20.7606 33.156 23.0521 29.2048C24.0929 27.4102 24.5399 25.6846 24.3449 24.2147C24.2942 23.8312 24.1989 23.4692 24.0648 23.1314ZM19.8782 23.4021C19.8017 23.6053 19.6506 23.7665 19.4527 23.8561C18.0104 24.5089 17.7523 25.6501 17.742 25.6985C17.6849 25.9985 17.4531 26.2473 17.1531 26.3271C17.1265 26.3341 17.0995 26.3398 17.0722 26.3443C16.9795 26.3591 16.8853 26.3576 16.7924 26.3398C16.3519 26.2558 16.0619 25.8295 16.1458 25.3891C16.1612 25.3077 16.551 23.3847 18.7824 22.3747C18.8235 22.3561 18.8659 22.3411 18.909 22.3295C19.2946 22.227 19.6938 22.4165 19.8584 22.7801C19.9476 22.978 19.9548 23.1988 19.8782 23.4021Z" fill="url(#paint0_linear_446_12059)"/>
<path d="M34.0593 0.907093C33.2026 0.410275 32.1074 0.660513 31.5515 1.48025C31.202 1.99552 22.9818 14.1198 21.9234 15.9446C21.3943 16.8571 20.7978 18.3383 20.3018 19.6925L24.5734 22.1969C25.5037 21.0932 26.498 19.8343 27.0347 18.9089C28.1054 17.0628 34.5345 3.92686 34.8076 3.36858C35.2431 2.47876 34.9163 1.40391 34.0593 0.907093Z" fill="url(#paint1_linear_446_12059)"/>
<path d="M13.5438 27.7297C13.1781 27.6076 12.8218 27.5359 12.4603 27.5137C12.3996 27.51 12.3344 27.5081 12.2666 27.5081C11.7227 27.5081 11.0392 27.6273 10.3782 27.7426C9.78923 27.8454 9.23282 27.9423 8.84462 27.9423C8.57154 27.9423 8.47715 27.8923 8.44666 27.8662C8.11667 27.452 8.59357 26.3278 8.79771 25.846C8.8499 25.7231 8.89104 25.626 8.91478 25.5567C9.24583 24.5827 9.489 23.5456 9.03063 22.5614C8.64958 21.7431 7.75887 21.0918 6.76857 20.9036C6.48012 20.8355 6.14907 20.8038 5.72664 20.8038C5.37893 20.8038 5.00682 20.8258 4.64691 20.8472C4.27782 20.8692 3.89612 20.8918 3.5306 20.8918C2.27339 20.8918 1.54967 20.6049 1.11204 19.935C0.299697 18.6452 1.27537 16.3348 2.27721 15.3727C2.33884 15.3135 2.34412 15.2168 2.28933 15.1512C2.23445 15.0856 2.13835 15.0735 2.06917 15.1238C0.78619 16.0533 -0.0632209 17.742 0.00368807 19.2305C0.0393783 20.0243 0.3449 21.127 1.59812 21.8732C2.27274 22.2748 3.36377 22.3594 4.41887 22.4412C5.45689 22.5216 6.53028 22.6048 6.86109 23.0084C6.94775 23.1142 6.98076 23.2422 6.96133 23.4034C6.88914 24.1414 6.53102 24.8683 6.1846 25.5709C5.53039 26.8983 4.8539 28.2708 6.02314 29.7939C7.05003 31.1314 8.41325 31.1314 9.8137 31.1216C9.92834 31.1208 10.0432 31.12 10.158 31.12C10.769 31.12 11.4747 31.1387 12.1147 31.3616C12.5701 31.5381 12.7992 31.9032 12.9063 32.6275C12.9883 33.0716 13.1857 33.4212 13.4475 33.6844C13.4858 33.4803 13.5757 33.2857 13.715 33.1212C14.4026 32.3094 14.2681 31.5506 13.9245 30.0472C13.765 29.3484 13.5882 28.5739 13.5438 27.7297Z" fill="url(#paint2_linear_446_12059)"/>
<defs>
<linearGradient id="paint0_linear_446_12059" x1="14.207" y1="28.6142" x2="24.3898" y2="28.6227" gradientUnits="userSpaceOnUse">
<stop stop-color="#957DF3"/>
<stop offset="1" stop-color="#662D91"/>
</linearGradient>
<linearGradient id="paint1_linear_446_12059" x1="20.3018" y1="13.1932" x2="35.0005" y2="13.2045" gradientUnits="userSpaceOnUse">
<stop stop-color="#957DF3"/>
<stop offset="1" stop-color="#662D91"/>
</linearGradient>
<linearGradient id="paint2_linear_446_12059" x1="-7.56903e-08" y1="25.9148" x2="14.2074" y2="25.927" gradientUnits="userSpaceOnUse">
<stop stop-color="#957DF3"/>
<stop offset="1" stop-color="#662D91"/>
</linearGradient>
</defs>
</svg>
