<svg width="35" height="29" viewBox="0 0 35 29" fill="none" xmlns="http://www.w3.org/2000/svg">
<path d="M18.0303 15.5344L23.2538 13.0261C23.4659 12.9253 23.5985 12.7079 23.5985 12.4746V6.0791L18.0303 8.75183V15.5344Z" fill="url(#paint0_linear_446_12069)"/>
<path d="M17.5009 7.82871L22.91 5.23553L17.766 2.76962C17.5963 2.69007 17.4054 2.69007 17.2357 2.76962L12.0918 5.23553L17.5009 7.82871Z" fill="url(#paint1_linear_446_12069)"/>
<path d="M9.49244 25.8965H2.13714H1.29396L1.25684 28.1874L10.9667 28.2245L10.9985 25.9283L10.9667 25.8965H9.49244Z" fill="url(#paint2_linear_446_12069)"/>
<path d="M8.94663 17.2418C8.31026 16.4464 7.96026 15.4653 7.96026 14.4896V11.1434C7.96026 10.7562 7.79057 10.3903 7.4936 10.1411C7.19663 9.88655 6.80951 9.78049 6.41708 9.84412C6.05117 9.90246 5.7436 10.1305 5.54739 10.454C5.53678 10.4858 5.52087 10.5123 5.49966 10.5388C5.38829 10.7509 5.32466 10.9896 5.32466 11.2441V15.2108C5.32466 15.5025 5.08602 15.7411 4.79435 15.7411C4.50269 15.7411 4.26405 15.5025 4.26405 15.2108V11.2441C4.26405 10.7987 4.38072 10.3797 4.57693 10.0138L7.23905 2.58428C7.36632 2.22897 7.33981 1.83124 7.15951 1.50246C6.86784 0.956245 6.25799 0.680487 5.66935 0.818366C5.31405 0.903215 5.01178 1.12064 4.82617 1.41761C2.54587 5.14034 1.38981 9.02746 0.822385 11.6312C0.27087 14.1661 0.4989 16.8282 1.47466 19.3312C2.51935 22.004 2.68375 23.9184 2.68905 24.8305H9.19587C11.386 21.2562 9.99133 18.5517 8.94663 17.2418Z" fill="url(#paint3_linear_446_12069)"/>
<path d="M11.3965 12.4746C11.3965 12.7079 11.5344 12.9253 11.7412 13.0261L16.97 15.5344V8.75183L11.3965 6.0791V12.4746Z" fill="url(#paint4_linear_446_12069)"/>
<path d="M30.1689 1.40692C29.9886 1.10995 29.681 0.892526 29.3257 0.807678C28.7371 0.669799 28.1272 0.945557 27.8409 1.48116C27.6553 1.82586 27.6234 2.22359 27.7507 2.57889L30.4128 10.0084C30.6143 10.3743 30.7257 10.7933 30.7257 11.2387V15.2054C30.7257 15.4971 30.4871 15.7357 30.1954 15.7357C29.9037 15.7357 29.6651 15.4971 29.6651 15.2054V11.2387C29.6651 10.9842 29.6015 10.7403 29.4901 10.5334C29.4742 10.5069 29.4583 10.4804 29.4424 10.4486C29.2462 10.1304 28.9333 9.89707 28.5727 9.83874C28.1749 9.7751 27.7931 9.88116 27.4962 10.1357C27.2098 10.3903 27.0454 10.7562 27.0454 11.1433V14.4895C27.0454 15.4706 26.6954 16.4463 26.059 17.2418C25.0143 18.5516 23.6196 21.2562 25.8045 24.8304H32.3113C32.3166 23.9183 32.481 22.0039 33.5257 19.3312C34.5068 16.8281 34.7295 14.166 34.178 11.6312C33.6106 9.02738 32.4545 5.14025 30.1689 1.40692Z" fill="url(#paint5_linear_446_12069)"/>
<path d="M25.508 25.8965H24.0338L24.002 28.1874L33.7065 28.2245L33.7436 25.9283L33.7065 25.8965H32.8633H25.508Z" fill="url(#paint6_linear_446_12069)"/>
<defs>
<linearGradient id="paint0_linear_446_12069" x1="18.0303" y1="11.5829" x2="23.5986" y2="11.5866" gradientUnits="userSpaceOnUse">
<stop stop-color="#957DF3"/>
<stop offset="1" stop-color="#662D91"/>
</linearGradient>
<linearGradient id="paint1_linear_446_12069" x1="12.0918" y1="5.68953" x2="22.9103" y2="5.71527" gradientUnits="userSpaceOnUse">
<stop stop-color="#957DF3"/>
<stop offset="1" stop-color="#662D91"/>
</linearGradient>
<linearGradient id="paint2_linear_446_12069" x1="1.25684" y1="27.2516" x2="10.9986" y2="27.2975" gradientUnits="userSpaceOnUse">
<stop stop-color="#957DF3"/>
<stop offset="1" stop-color="#662D91"/>
</linearGradient>
<linearGradient id="paint3_linear_446_12069" x1="0.52832" y1="14.7809" x2="10.3563" y2="14.7854" gradientUnits="userSpaceOnUse">
<stop stop-color="#957DF3"/>
<stop offset="1" stop-color="#662D91"/>
</linearGradient>
<linearGradient id="paint4_linear_446_12069" x1="11.3965" y1="11.5829" x2="16.9702" y2="11.5866" gradientUnits="userSpaceOnUse">
<stop stop-color="#957DF3"/>
<stop offset="1" stop-color="#662D91"/>
</linearGradient>
<linearGradient id="paint5_linear_446_12069" x1="24.6484" y1="14.7763" x2="34.4737" y2="14.7809" gradientUnits="userSpaceOnUse">
<stop stop-color="#957DF3"/>
<stop offset="1" stop-color="#662D91"/>
</linearGradient>
<linearGradient id="paint6_linear_446_12069" x1="24.002" y1="27.2516" x2="33.7437" y2="27.2975" gradientUnits="userSpaceOnUse">
<stop stop-color="#957DF3"/>
<stop offset="1" stop-color="#662D91"/>
</linearGradient>
</defs>
</svg>
