<svg width="31" height="35" viewBox="0 0 31 35" fill="none" xmlns="http://www.w3.org/2000/svg">
<path d="M28.494 10.6581L28.2116 11.1743C28.1044 11.3706 27.943 11.532 27.7467 11.6392L27.2308 11.9202C27.207 11.9332 27.1872 11.9523 27.1734 11.9756C27.1596 11.9989 27.1523 12.0254 27.1523 12.0525C27.1523 12.0795 27.1596 12.106 27.1734 12.1293C27.1872 12.1526 27.207 12.1717 27.2308 12.1847L27.7467 12.4668C27.943 12.574 28.1044 12.7354 28.2116 12.9317L28.494 13.4477C28.507 13.4714 28.5261 13.4912 28.5494 13.505C28.5726 13.5188 28.5992 13.5261 28.6262 13.5261C28.6533 13.5261 28.6798 13.5188 28.7031 13.505C28.7264 13.4912 28.7455 13.4714 28.7584 13.4477L29.0406 12.9317C29.1478 12.7354 29.3092 12.574 29.5055 12.4668L30.0217 12.1847C30.0455 12.1717 30.0653 12.1526 30.0791 12.1293C30.0929 12.106 30.1001 12.0795 30.1001 12.0525C30.1001 12.0254 30.0929 11.9989 30.0791 11.9756C30.0653 11.9523 30.0455 11.9332 30.0217 11.9202L29.5055 11.6381C29.3092 11.5309 29.1478 11.3695 29.0406 11.1732L28.7584 10.657C28.7454 10.6333 28.7262 10.6136 28.7029 10.5999C28.6795 10.5862 28.653 10.579 28.6259 10.5791C28.5989 10.5792 28.5724 10.5866 28.5491 10.6005C28.5259 10.6144 28.5069 10.6343 28.494 10.6581Z" fill="url(#paint0_linear_446_12047)"/>
<path d="M3.03159 29.0667L2.58343 29.8871C2.41343 30.1979 2.15788 30.4534 1.84706 30.6234L1.02675 31.0716C0.989096 31.0922 0.957675 31.1225 0.935785 31.1594C0.913895 31.1963 0.902344 31.2384 0.902344 31.2813C0.902344 31.3242 0.913895 31.3663 0.935785 31.4032C0.957675 31.4401 0.989096 31.4705 1.02675 31.491L1.84706 31.9395C2.15792 32.1093 2.4135 32.3648 2.58343 32.6756L3.03159 33.4959C3.0522 33.5335 3.08256 33.5649 3.11948 33.5868C3.15641 33.6087 3.19854 33.6202 3.24146 33.6202C3.28438 33.6202 3.3265 33.6087 3.36343 33.5868C3.40035 33.5649 3.43071 33.5335 3.45132 33.4959L3.89948 32.6756C4.06949 32.3648 4.32505 32.1094 4.63585 31.9395L5.45616 31.491C5.49382 31.4705 5.52524 31.4401 5.54713 31.4032C5.56902 31.3663 5.58057 31.3242 5.58057 31.2813C5.58057 31.2384 5.56902 31.1963 5.54713 31.1594C5.52524 31.1225 5.49382 31.0922 5.45616 31.0716L4.63585 30.6234C4.32509 30.4533 4.06956 30.1978 3.89948 29.8871L3.45132 29.0667C3.43071 29.0291 3.40035 28.9977 3.36343 28.9758C3.3265 28.9539 3.28438 28.9424 3.24146 28.9424C3.19854 28.9424 3.15641 28.9539 3.11948 28.9758C3.08256 28.9977 3.0522 29.0291 3.03159 29.0667Z" fill="url(#paint1_linear_446_12047)"/>
<path d="M25.2786 5.5158L24.8941 6.21881C24.7485 6.48539 24.5293 6.70453 24.2628 6.85017L23.5597 7.23463C23.5275 7.25233 23.5005 7.27838 23.4818 7.31006C23.463 7.34173 23.4531 7.37787 23.4531 7.41469C23.4531 7.4515 23.463 7.48764 23.4818 7.51931C23.5005 7.55099 23.5275 7.57704 23.5597 7.59474L24.2628 7.9792C24.5293 8.12484 24.7485 8.34399 24.8941 8.61056L25.2786 9.31357C25.2963 9.34585 25.3223 9.37278 25.354 9.39154C25.3857 9.41029 25.4218 9.42019 25.4586 9.42019C25.4954 9.42019 25.5316 9.41029 25.5633 9.39154C25.5949 9.37278 25.621 9.34585 25.6387 9.31357L26.0229 8.61056C26.1687 8.34406 26.3879 8.12495 26.6545 7.9792L27.3575 7.59474C27.3898 7.57704 27.4167 7.55099 27.4355 7.51931C27.4542 7.48764 27.4641 7.4515 27.4641 7.41469C27.4641 7.37787 27.4542 7.34173 27.4355 7.31006C27.4167 7.27838 27.3898 7.25233 27.3575 7.23463L26.6545 6.85017C26.3879 6.70442 26.1687 6.48531 26.0229 6.21881L25.6387 5.5158C25.621 5.48352 25.5949 5.45659 25.5633 5.43783C25.5316 5.41908 25.4954 5.40918 25.4586 5.40918C25.4218 5.40918 25.3857 5.41908 25.354 5.43783C25.3223 5.45659 25.2963 5.48352 25.2786 5.5158Z" fill="url(#paint2_linear_446_12047)"/>
<path d="M19.2121 8.99383C18.9306 8.45824 18.5225 7.99949 18.0234 7.65744C17.5243 7.31539 16.9492 7.10038 16.3481 7.03109V0.631836C16.3481 0.523056 16.3049 0.418731 16.228 0.341812C16.1511 0.264892 16.0468 0.22168 15.938 0.22168C15.8292 0.22168 15.7249 0.264892 15.648 0.341812C15.571 0.418731 15.5278 0.523056 15.5278 0.631836V7.02781C14.9222 7.09439 14.3422 7.30875 13.8389 7.65204C13.3355 7.99533 12.9242 8.45704 12.6411 8.99656C9.55619 9.79846 6.86945 11.6976 5.08426 14.3383C3.29906 16.9789 2.5379 20.1799 2.94336 23.3414C3.34883 26.503 4.8931 29.4083 7.28687 31.513C9.68065 33.6177 12.7597 34.7774 15.9471 34.7749C19.1346 34.7724 22.2118 33.6078 24.6023 31.4993C26.9927 29.3908 28.5324 26.4831 28.9328 23.3209C29.3333 20.1587 28.5671 16.959 26.7777 14.3211C24.9883 11.6833 22.2986 9.78839 19.2124 8.99137L19.2121 8.99383ZM21.9673 12.963C20.9471 12.7232 19.913 12.5472 18.8709 12.4361C18.6082 11.4394 18.1832 10.4927 17.6131 9.63394C19.2922 10.1141 20.7953 11.2997 21.9673 12.963ZM3.73501 23.1907C3.61014 22.189 3.61014 21.1756 3.73501 20.1739C4.69112 19.8057 5.67749 19.5215 6.68294 19.3246C6.47294 20.8895 6.47294 22.4754 6.68294 24.0403C5.67753 23.843 4.69118 23.5588 3.73501 23.1907ZM9.25407 13.9704C10.4027 13.6557 11.5734 13.4281 12.7563 13.2895C12.4025 14.7734 12.1591 16.2814 12.0278 17.8013C10.4736 17.9106 9.00497 18.0815 7.67661 18.3079C7.97064 16.788 8.50303 15.3241 9.25407 13.9704ZM7.67743 25.0588C9.00579 25.285 10.4747 25.4567 12.0286 25.565C12.16 27.0848 12.4037 28.5928 12.7576 30.0767C11.5754 29.9371 10.4054 29.7086 9.25762 29.3931C8.50595 28.0406 7.97265 26.5778 7.67743 25.0588ZM9.89856 30.4043C10.9166 30.6428 11.9486 30.8176 12.9884 30.9276C13.2513 31.9244 13.6763 32.8711 14.2462 33.7301C12.5676 33.2505 11.0691 32.0638 9.89856 30.4043ZM15.929 24.8789C14.8576 24.8789 13.8041 24.8475 12.7817 24.7903C12.7103 23.81 12.6709 22.7715 12.6709 21.6824C12.6709 20.5933 12.7103 19.5545 12.7817 18.5745C13.8041 18.5174 14.8576 18.4859 15.929 18.4859C17.0003 18.4859 18.0538 18.5174 19.0762 18.5745C19.1476 19.5545 19.187 20.593 19.187 21.6824C19.187 22.7718 19.1476 23.81 19.0762 24.7903C18.0538 24.8475 17.0003 24.8789 15.929 24.8789ZM22.5989 29.395C21.4515 29.7097 20.282 29.9374 19.1003 30.0761C19.4542 28.5923 19.6979 27.0842 19.8293 25.5644C21.3835 25.455 22.8521 25.2839 24.1802 25.0577C23.8853 26.5779 23.3516 28.0418 22.5989 29.395ZM23.694 14.3012C24.6923 14.6337 25.6584 15.056 26.5804 15.5629C27.24 16.7054 27.7097 17.9473 27.9711 19.2404C27.0142 18.9107 26.0346 18.6507 25.0402 18.4624C24.7847 17.0206 24.3317 15.621 23.694 14.3029V14.3012ZM25.1744 24.0386C25.3844 22.4737 25.3844 20.8876 25.1744 19.3227C26.1799 19.52 27.1663 19.8042 28.1226 20.1722C28.2473 21.174 28.2473 22.1873 28.1226 23.1891C27.1664 23.5576 26.1799 23.8424 25.1744 24.0403V24.0386Z" fill="url(#paint3_linear_446_12047)"/>
<defs>
<linearGradient id="paint0_linear_446_12047" x1="27.1523" y1="12.2945" x2="30.1002" y2="12.2978" gradientUnits="userSpaceOnUse">
<stop stop-color="#957DF3"/>
<stop offset="1" stop-color="#662D91"/>
</linearGradient>
<linearGradient id="paint1_linear_446_12047" x1="0.902344" y1="31.6653" x2="5.58072" y2="31.6706" gradientUnits="userSpaceOnUse">
<stop stop-color="#957DF3"/>
<stop offset="1" stop-color="#662D91"/>
</linearGradient>
<linearGradient id="paint2_linear_446_12047" x1="23.4531" y1="7.74395" x2="27.4643" y2="7.74846" gradientUnits="userSpaceOnUse">
<stop stop-color="#957DF3"/>
<stop offset="1" stop-color="#662D91"/>
</linearGradient>
<linearGradient id="paint3_linear_446_12047" x1="2.83691" y1="20.3348" x2="29.0375" y2="20.3571" gradientUnits="userSpaceOnUse">
<stop stop-color="#957DF3"/>
<stop offset="1" stop-color="#662D91"/>
</linearGradient>
</defs>
</svg>
