<svg width="29" height="35" viewBox="0 0 29 35" fill="none" xmlns="http://www.w3.org/2000/svg">
<path d="M21.0817 14.347C25.0435 14.347 28.2552 11.1353 28.2552 7.1735C28.2552 3.21168 25.0435 0 21.0817 0C17.1199 0 13.9082 3.21168 13.9082 7.1735C13.9082 11.1353 17.1199 14.347 21.0817 14.347Z" fill="url(#paint0_linear_446_12082)"/>
<path d="M8.60207 26.3264C7.64976 26.3264 6.75426 26.6974 6.08085 27.3708L5.20107 28.2505C4.70943 28.7422 3.90943 28.7422 3.41751 28.2505C2.92587 27.7588 2.92587 26.9588 3.41751 26.4671L4.38979 25.4946C5.23491 25.7962 6.20533 25.6662 6.95407 25.082L18.291 16.2353C16.8299 15.7874 15.4912 14.9864 14.3801 13.8751C13.2687 12.7638 12.4677 11.425 12.0197 9.96387L3.17279 21.3009C2.58859 22.0495 2.45857 23.02 2.76017 23.8652L1.78783 24.8376C0.397545 26.2279 0.397545 28.4899 1.78783 29.8803C3.17846 31.2706 5.4404 31.2705 6.83055 29.8803L7.71033 29.0006C8.20204 28.5089 9.00198 28.5089 9.49382 29.0006C9.98546 29.4923 9.98546 30.2923 9.49382 30.7841L6.90752 33.3703L8.53713 34.9999L11.1234 32.4136C12.5137 31.0234 12.5137 28.7613 11.1234 27.371C10.45 26.6974 9.55452 26.3264 8.60207 26.3264Z" fill="url(#paint1_linear_446_12082)"/>
<defs>
<linearGradient id="paint0_linear_446_12082" x1="13.9082" y1="8.35123" x2="28.2557" y2="8.36739" gradientUnits="userSpaceOnUse">
<stop stop-color="#957DF3"/>
<stop offset="1" stop-color="#662D91"/>
</linearGradient>
<linearGradient id="paint1_linear_446_12082" x1="0.745117" y1="24.5371" x2="18.2915" y2="24.5509" gradientUnits="userSpaceOnUse">
<stop stop-color="#957DF3"/>
<stop offset="1" stop-color="#662D91"/>
</linearGradient>
</defs>
</svg>
