<svg width="35" height="30" viewBox="0 0 35 30" fill="none" xmlns="http://www.w3.org/2000/svg">
<path d="M16.0791 2.37282V3.13438C17.136 3.06282 17.7018 3.14854 17.7606 3.15815C18.1008 3.21369 18.3913 3.43346 18.5376 3.74535L20.0229 6.91071C20.2026 6.95263 20.3737 7.04128 20.5153 7.17934C20.6944 7.35397 20.9089 7.49069 21.1518 7.54997C21.637 7.66827 22.1185 7.53342 22.4587 7.20257C22.8098 6.86131 23.3455 6.77452 23.7594 7.03621C24.3511 7.41005 24.4147 8.20206 23.9506 8.66615C23.2958 9.32117 22.425 9.68193 21.4987 9.68193C21.4392 9.68193 21.3799 9.68033 21.3206 9.67739L23.3172 13.933C23.4016 14.1125 23.4814 14.2933 23.5572 14.4748C25.8054 13.7659 28.3624 14.2924 30.1491 16.0588C30.5486 16.4535 30.5929 17.0981 30.2196 17.5179C30.0111 17.7523 29.7243 17.8696 29.4375 17.8696C29.1702 17.8696 28.9026 17.7676 28.6989 17.5636C27.4879 16.3528 25.7493 15.9846 24.2165 16.457C24.7979 18.7748 24.7591 21.1668 24.1591 23.4099C24.4416 23.5033 24.7292 23.5867 25.0214 23.6593C25.3605 23.7434 25.7148 23.7442 26.0542 23.6604C31.2792 22.3679 35 17.669 35 12.2251V2.37282C35 1.88496 34.6988 1.44756 34.2421 1.27586C32.8031 0.73513 30.022 0 25.5399 0C21.0576 0 18.2762 0.735397 16.8369 1.27613C16.3803 1.44756 16.0791 1.88496 16.0791 2.37282ZM27.63 7.18868C28.038 6.78066 28.6994 6.78066 29.1077 7.18868C29.3678 7.44877 29.7136 7.59216 30.0816 7.59216C30.4495 7.59216 30.7956 7.44877 31.0557 7.18868C31.4637 6.7804 32.1254 6.7804 32.5334 7.18868C32.9414 7.5967 32.9414 8.25813 32.5334 8.66615C31.8784 9.32117 31.0079 9.68193 30.0816 9.68193C29.1555 9.68193 28.2847 9.32117 27.6297 8.66615C27.2219 8.25813 27.2219 7.5967 27.63 7.18868Z" fill="url(#paint0_linear_446_11883)"/>
<path d="M21.4255 14.8206L17.2185 5.85379C17.0249 5.44096 16.596 5.19236 16.1413 5.2268C14.6222 5.34163 11.7727 5.84551 7.66847 7.77105C3.61043 9.67497 1.40478 11.522 0.331587 12.6227C-0.0088747 12.972 -0.0959262 13.4959 0.111288 13.9376L4.2959 22.8571C6.6081 27.7854 11.973 30.4592 17.2524 29.4097C17.5937 29.3419 17.913 29.1921 18.1833 28.9729C22.3649 25.5837 23.7377 19.7492 21.4255 14.8206ZM12.9709 14.1522C13.6205 12.3541 15.612 11.4195 17.4102 12.0694C17.9528 12.2654 18.2337 12.8644 18.0377 13.4072C17.8417 13.9498 17.2428 14.231 16.6999 14.0347C15.9856 13.7768 15.1944 14.148 14.9362 14.8623C14.7824 15.2879 14.3813 15.5525 13.9535 15.5525C13.8355 15.5525 13.7156 15.5325 13.5984 15.4901C13.0558 15.2938 12.7746 14.6948 12.9709 14.1522ZM8.92991 17.6802C8.58385 17.5553 8.20974 17.5723 7.87649 17.7288C7.5435 17.885 7.29116 18.1617 7.16619 18.5077C7.01238 18.9334 6.61104 19.198 6.18326 19.198C6.0655 19.198 5.9456 19.1777 5.82838 19.1355C5.28551 18.9395 5.00459 18.3406 5.20059 17.7977C5.51542 16.9267 6.15041 16.2303 6.98888 15.8369C7.82762 15.4436 8.7689 15.4001 9.63994 15.7149C10.1828 15.9109 10.4637 16.5098 10.2677 17.0527C10.0715 17.5953 9.47252 17.8762 8.92991 17.6802ZM12.4384 24.5103C11.7001 24.5103 10.95 24.3848 10.2165 24.1196C9.67359 23.9236 9.39268 23.3247 9.58867 22.7818C9.78494 22.2392 10.3836 21.958 10.9265 22.1543C13.2435 22.9914 15.8096 21.7874 16.6468 19.4707C16.8428 18.9278 17.4417 18.6469 17.9846 18.8429C18.5272 19.0391 18.8081 19.6381 18.6121 20.181C17.6484 22.8478 15.1234 24.5103 12.4384 24.5103Z" fill="url(#paint1_linear_446_11883)"/>
<defs>
<linearGradient id="paint0_linear_446_11883" x1="16.0791" y1="13.8088" x2="35.0006" y2="13.8258" gradientUnits="userSpaceOnUse">
<stop stop-color="#957DF3"/>
<stop offset="1" stop-color="#662D91"/>
</linearGradient>
<linearGradient id="paint1_linear_446_11883" x1="-1.20099e-07" y1="19.4337" x2="22.5431" y2="19.4572" gradientUnits="userSpaceOnUse">
<stop stop-color="#957DF3"/>
<stop offset="1" stop-color="#662D91"/>
</linearGradient>
</defs>
</svg>
