<svg width="35" height="35" viewBox="0 0 35 35" fill="none" xmlns="http://www.w3.org/2000/svg">
<path d="M32.0957 2.90544C27.7234 -1.46681 19.8909 -0.841121 14.6942 4.35555C8.32785 10.7214 10.4757 20.1788 4.71882 25.9357C3.47393 27.1806 3.78045 26.873 3.73048 26.923C3.72877 26.9263 0.902393 29.7477 0.899727 29.7503C-0.299909 30.95 -0.299909 32.9006 0.899727 34.1002C2.09936 35.2999 4.04993 35.2999 5.24963 34.1002C9.14802 30.2018 7.72622 31.629 8.08134 31.2739C8.08312 31.2706 9.06606 30.2882 9.06866 30.2856C13.1063 26.2479 18.5596 26.3088 24.6883 23.9816C26.6456 23.2383 28.5219 22.4305 30.6454 20.3068C35.8362 15.116 36.4701 7.27989 32.0957 2.90544ZM30.6454 4.35555C31.1444 4.8545 31.5533 5.41361 31.8903 6.01107L29.1953 8.706L26.2951 5.80572L28.99 3.11079C29.5874 3.44767 30.1465 3.85659 30.6454 4.35555ZM17.5944 14.5063L20.4947 11.6061L23.3949 14.5063L20.4947 17.4066L17.5944 14.5063ZM19.0445 18.8567L16.3527 21.5484C15.7495 21.2091 15.1882 20.8008 14.6943 20.3068C14.2002 19.8129 13.7919 19.2514 13.4525 18.6484L16.1443 15.9565L19.0445 18.8567ZM21.9448 10.156L24.845 7.25576L27.7453 10.156L24.845 13.0562L21.9448 10.156ZM26.9038 2.29684L24.845 4.35548L22.7153 2.22582C24.1531 1.94848 25.5802 1.97589 26.9038 2.29684ZM20.4898 2.90066L23.3949 5.80558L20.4947 8.70586L16.8993 5.11051C18.0135 4.1504 19.2333 3.4141 20.4898 2.90066ZM15.4633 6.57476L19.0445 10.156L16.1442 13.0562L13.244 10.156C13.7679 8.8728 14.5222 7.66687 15.4633 6.57476ZM12.5753 12.3874L14.6942 14.5063L12.6377 16.5628C12.3215 15.2623 12.2956 13.8442 12.5753 12.3874ZM13.6269 25.1521C12.5637 25.0751 11.6483 24.69 10.9813 24.0231C10.3144 23.3561 9.9293 22.4407 9.85233 21.3775C10.2846 20.0848 9.63665 22.2998 10.9137 17.8088C11.0161 18.1198 11.0922 18.4425 11.2221 18.7405C11.2453 18.8211 11.2813 18.8943 11.3247 18.9682C11.8037 19.9959 12.432 20.9448 13.244 21.757C14.0559 22.5687 15.0047 23.1967 16.0317 23.6755C16.1062 23.7193 16.1801 23.7559 16.2613 23.7793C16.5615 23.9101 16.8862 23.987 17.1996 24.0897C12.7043 25.3677 14.9184 24.7201 13.6269 25.1521ZM18.4385 22.363L20.4948 20.3067L22.6134 22.4254C21.1565 22.7049 19.7388 22.679 18.4385 22.363ZM24.845 21.7569L21.9448 18.8567L24.845 15.9565L28.4262 19.5377C27.3341 20.4788 26.1283 21.2331 24.845 21.7569ZM29.8905 18.1016L26.2953 14.5063L29.1955 11.6061L32.1005 14.5111C31.5869 15.7677 30.8506 16.9875 29.8905 18.1016ZM30.6455 10.156L32.7043 8.09733C33.0251 9.42076 33.0525 10.8478 32.7752 12.2856L30.6455 10.156Z" fill="url(#paint0_linear_446_12094)"/>
<path d="M5.12891 0.00195312C2.30204 0.00195312 0.00195312 2.30204 0.00195312 5.12891C0.00195312 7.95577 2.30211 10.2559 5.12891 10.2559C7.95577 10.2559 10.2559 7.95577 10.2559 5.12891C10.2559 2.30204 7.95577 0.00195312 5.12891 0.00195312Z" fill="url(#paint1_linear_446_12094)"/>
<defs>
<linearGradient id="paint0_linear_446_12094" x1="-1.86469e-07" y1="20.3731" x2="35.0011" y2="20.4125" gradientUnits="userSpaceOnUse">
<stop stop-color="#957DF3"/>
<stop offset="1" stop-color="#662D91"/>
</linearGradient>
<linearGradient id="paint1_linear_446_12094" x1="0.00195307" y1="5.97064" x2="10.2562" y2="5.98219" gradientUnits="userSpaceOnUse">
<stop stop-color="#957DF3"/>
<stop offset="1" stop-color="#662D91"/>
</linearGradient>
</defs>
</svg>
