<svg width="35" height="35" viewBox="0 0 35 35" fill="none" xmlns="http://www.w3.org/2000/svg">
<path d="M23.8816 23.1421C24.1738 23.0666 24.3772 22.8021 24.3754 22.5003C24.3799 20.8413 25.6815 19.4756 27.3384 19.3916C27.8834 19.8493 28.176 20.5405 28.1253 21.2503C28.1258 21.5336 27.9356 21.7818 27.662 21.8551C27.3883 21.9284 27.0996 21.8084 26.9585 21.5628C26.7807 21.2756 26.4069 21.1815 26.1143 21.3504C25.8218 21.5194 25.7165 21.8903 25.8766 22.1878C26.3009 22.9227 27.1659 23.281 27.9856 23.0613C28.8053 22.8417 29.3753 22.0989 29.3753 21.2503C29.3795 20.7872 29.3043 20.3268 29.1528 19.8891C30.0543 20.4686 30.6067 21.4601 30.6253 22.5315C30.6254 22.8226 30.8266 23.0751 31.1103 23.1403C31.5426 23.2425 31.8548 23.619 31.8752 24.0627C31.8759 24.5192 31.5461 24.909 31.0959 24.984C30.832 25.0287 30.6259 25.2366 30.5834 25.5008C30.3339 27.0094 29.0294 28.1159 27.5004 28.1159C25.9713 28.1159 24.6668 27.0094 24.4173 25.5008C24.3749 25.2368 24.1691 25.029 23.9055 24.984C23.455 24.9093 23.1248 24.5194 23.1255 24.0627C23.1356 23.6184 23.4477 23.2384 23.8816 23.1421ZM3.514 15.4954V8.62061C3.46791 3.98301 7.1317 0.156348 11.7669 0.000770259C14.0113 -0.0296033 16.1745 0.839406 17.7742 2.41402C19.3738 3.98864 20.2768 6.13792 20.2817 8.38249V15.4955C20.28 16.9824 19.075 18.1874 17.588 18.1892H15.6731C15.3603 17.9185 15.1189 17.5751 14.97 17.1892C15.3618 16.9003 15.7219 16.5708 16.0444 16.2061C16.4724 15.6954 16.7988 15.1076 17.0062 14.4743L17.5781 12.7612C18.7866 12.5371 19.6564 11.4727 19.6352 10.2438C19.614 9.01489 18.708 7.98108 17.4925 7.79884C17.1088 7.17387 16.1357 5.86137 14.7426 5.86137C10.0996 5.86137 9.16401 3.89201 9.1596 3.88389C9.04808 3.60618 8.75541 3.44649 8.46153 3.50301C8.16765 3.55958 7.95509 3.81648 7.95463 4.11575C7.93225 4.9574 7.34942 5.68005 6.53153 5.88009C6.25318 5.94953 6.05784 6.19948 6.05778 6.48634V7.84504C4.91205 8.13573 4.12315 9.18478 4.16181 10.3662C4.20047 11.5475 5.05615 12.5428 6.2184 12.7581L6.78901 14.4712C6.99716 15.1043 7.32379 15.692 7.75152 16.203C8.06377 16.5562 8.41168 16.8762 8.78961 17.158C8.64221 17.5554 8.39748 17.9096 8.07774 18.1879H6.2078C4.72117 18.1861 3.51637 16.9819 3.514 15.4954ZM11.8975 17.2454C10.8976 17.2454 9.34004 16.1536 8.70632 15.4023C8.38073 15.012 8.13235 14.5635 7.97445 14.0804L7.2751 11.983C7.19007 11.7276 6.95114 11.5554 6.68201 11.5555C5.98237 11.5555 5.41519 10.9883 5.41519 10.2887C5.41519 9.58903 5.98237 9.02184 6.68201 9.02184C7.02719 9.02184 7.30698 8.74205 7.30698 8.39686V6.92815C7.9861 6.63439 8.5454 6.11879 8.89319 5.4657C9.79507 6.23379 11.5294 7.11381 14.7418 7.11381C15.5843 7.11381 16.3355 8.2388 16.5542 8.67626C16.66 8.88794 16.8763 9.02173 17.113 9.0219C17.5656 9.0219 17.9838 9.26338 18.2101 9.65534C18.4364 10.0473 18.4364 10.5302 18.2101 10.9222C17.9838 11.3141 17.5656 11.5556 17.113 11.5556C16.8438 11.5555 16.6049 11.7278 16.5199 11.9831L15.8205 14.0806C15.6625 14.5635 15.4141 15.0121 15.0887 15.4024C14.4549 16.1511 12.8968 17.2429 11.8975 17.2429V17.2454H11.8975ZM14.8687 19.1472C14.573 19.3762 14.2385 19.5502 13.8812 19.6609C12.5978 20.1153 11.1973 20.1153 9.91384 19.6609C9.54588 19.5487 9.20267 19.3674 8.90258 19.1266C9.3037 18.7735 9.62668 18.3405 9.85072 17.8553C10.4717 18.23 11.1738 18.4495 11.8976 18.4953C12.6081 18.4514 13.2978 18.2384 13.9094 17.8741C14.1361 18.3605 14.463 18.7935 14.8688 19.1447V19.1472H14.8687ZM19.3755 26.8752C19.0303 26.8752 18.7505 27.155 18.7505 27.5002V35H5.00079V27.5002C5.00079 27.155 4.721 26.8752 4.37582 26.8752C4.03064 26.8752 3.75084 27.155 3.75084 27.5002V35H1.25093C0.560569 35 0.000976562 34.4404 0.000976562 33.7501V28.7502C0.000976562 28.5215 0.00700491 28.2989 0.0191196 28.0827C0.246342 24.6814 2.46176 21.7356 5.66646 20.5735L7.79516 19.7742C8.25199 20.2798 8.84097 20.6478 9.49574 20.8366C11.0499 21.3858 12.7452 21.3858 14.2994 20.8366C14.9479 20.648 15.5317 20.2843 15.9869 19.7854L18.085 20.5735C19.6199 21.1469 20.9646 22.1368 21.968 23.4322C21.906 23.6366 21.8748 23.8492 21.8755 24.0628C21.8737 24.9636 22.4264 25.7725 23.2661 26.0984C23.4003 26.6146 23.6282 27.1019 23.9386 27.5358C22.3967 27.6567 20.9726 28.4072 20.0012 29.6108V27.5002C20.0012 27.3344 19.9353 27.1753 19.8179 27.0581C19.7005 26.9408 19.5413 26.875 19.3755 26.8752ZM35.0002 35H33.1252V31.8751C33.1252 31.5299 32.8454 31.2501 32.5003 31.2501C32.1551 31.2501 31.8753 31.5299 31.8753 31.8751V35H24.3754V31.8751C24.3754 31.5299 24.0956 31.2501 23.7504 31.2501C23.4052 31.2501 23.1254 31.5299 23.1254 31.8751V35H20.0005V33.7419C19.9477 32.5798 20.2669 31.431 20.9117 30.4626C21.7762 29.3506 23.1173 28.7151 24.5253 28.7502H25.2572C26.6365 29.5835 28.3641 29.5835 29.7433 28.7502H30.4752C31.8826 28.7152 33.2231 29.3502 34.0876 30.4614C34.3475 30.8259 34.5501 31.2281 34.6883 31.6539C34.9037 32.3314 35.009 33.0392 35.0001 33.7501L35.0002 35Z" fill="url(#paint0_linear_446_11923)"/>
<defs>
<linearGradient id="paint0_linear_446_11923" x1="0.000976376" y1="20.3731" x2="35.0018" y2="20.4125" gradientUnits="userSpaceOnUse">
<stop stop-color="#957DF3"/>
<stop offset="1" stop-color="#662D91"/>
</linearGradient>
</defs>
</svg>
