<svg width="29" height="35" viewBox="0 0 29 35" fill="none" xmlns="http://www.w3.org/2000/svg">
<path d="M10.449 12.5016C10.4651 14.0954 11.761 15.3794 13.355 15.3809H16.1666C15.1273 16.6018 15.2744 18.4341 16.4953 19.4735C17.021 19.921 17.689 20.1666 18.3794 20.166H25.2379C25.0582 21.2319 24.3731 22.1446 23.3997 22.6146L20.5512 23.9757C20.2956 24.0976 20.1871 24.4035 20.309 24.6591C20.3941 24.8376 20.5743 24.9512 20.772 24.9512H25.7964C25.9228 24.9504 26.0446 24.9029 26.1382 24.8179L27.0002 24.0345C28.2333 22.9115 28.9368 21.3212 28.9382 19.6533C28.9363 18.0506 27.6383 16.7515 26.0356 16.748H23.224C24.2633 15.5271 24.1162 13.6948 22.8953 12.6554C22.3696 12.2079 21.7016 11.9623 21.0112 11.9629H17.3096C18.4723 10.8456 19.13 9.30303 19.1313 7.69043C19.1294 6.08665 17.8298 4.78707 16.2261 4.78516H10.7826C11.8219 3.56426 11.6748 1.73195 10.4539 0.69255C9.92818 0.245001 9.26017 -0.000477817 8.56981 6.98264e-07H4.98095C3.54882 0.00232492 2.33113 1.04604 2.10985 2.46094C1.37752 2.66697 0.86537 3.32671 0.847255 4.08721L0.750184 7.67676C0.742665 7.9599 0.966063 8.19561 1.24921 8.20313C1.53235 8.21064 1.76806 7.98725 1.77558 7.7041L1.87265 4.11524C1.87265 3.71882 2.194 3.39746 2.59042 3.39746C2.98683 3.39746 3.30819 3.71882 3.30819 4.11524L3.87079 24.9307C3.87858 25.2081 4.10533 25.4291 4.3828 25.4297H4.39647C4.67948 25.4219 4.90274 25.1864 4.8955 24.9033L4.32948 4.08721C4.32381 3.85629 4.2722 3.62879 4.17772 3.41797H6.35634C5.317 4.63887 5.46418 6.47117 6.68508 7.51058C7.21076 7.95813 7.87877 8.20367 8.56913 8.20313H15.4283C15.2487 9.26905 14.5635 10.1817 13.5901 10.6518L10.7402 12.0128C10.5246 12.1358 10.4386 12.3047 10.449 12.5016ZM3.17216 2.39258C3.40246 1.5843 4.14047 1.02649 4.98095 1.02539H8.56981C9.41029 1.02649 10.1483 1.5843 10.3786 2.39258H3.17216ZM8.57255 7.17773C7.73207 7.17664 6.99406 6.61883 6.76376 5.81055H16.2261C17.0665 5.81164 17.8046 6.36945 18.0349 7.17773H8.57255ZM13.3577 14.3555C12.5172 14.3544 11.7792 13.7966 11.5489 12.9883H21.0112C21.8517 12.9894 22.5897 13.5472 22.82 14.3555H13.3577ZM18.3821 19.1406C17.5416 19.1395 16.8036 18.5817 16.5733 17.7734H26.0356C26.8761 17.7745 27.6141 18.3323 27.8444 19.1406H18.3821Z" fill="url(#paint0_linear_446_12013)"/>
<path d="M4.44386 26.8049H1.25831L1.71017 10.1047C1.71769 9.82153 1.49429 9.58583 1.21115 9.57831C0.928002 9.57079 0.692298 9.79419 0.684779 10.0773L0.0797986 32.4308C0.0474646 33.816 1.14415 34.9652 2.52932 34.9975C3.91449 35.0299 5.06368 33.9332 5.09601 32.548C5.0969 32.509 5.0969 32.4699 5.09601 32.4308L4.95724 27.2964C4.95724 26.9994 4.73015 26.8049 4.44386 26.8049Z" fill="url(#paint1_linear_446_12013)"/>
<defs>
<linearGradient id="paint0_linear_446_12013" x1="0.75" y1="14.8024" x2="28.9391" y2="14.8375" gradientUnits="userSpaceOnUse">
<stop stop-color="#957DF3"/>
<stop offset="1" stop-color="#662D91"/>
</linearGradient>
<linearGradient id="paint1_linear_446_12013" x1="0.0791015" y1="24.3749" x2="5.09684" y2="24.376" gradientUnits="userSpaceOnUse">
<stop stop-color="#957DF3"/>
<stop offset="1" stop-color="#662D91"/>
</linearGradient>
</defs>
</svg>
