<svg width="31" height="23" viewBox="0 0 31 23" fill="none" xmlns="http://www.w3.org/2000/svg">
<path d="M20.4219 11.5H10.5781C9.07048 11.5 7.84375 12.7262 7.84375 14.2344C7.84375 15.7426 9.07048 16.9688 10.5781 16.9688H20.4219C21.9301 16.9688 23.1562 15.7426 23.1562 14.2344C23.1562 12.7262 21.9301 11.5 20.4219 11.5ZM11.6719 15.875C10.7672 15.875 10.0312 15.1391 10.0312 14.2344C10.0312 13.3297 10.7672 12.5938 11.6719 12.5938C12.5766 12.5938 13.3125 13.3297 13.3125 14.2344C13.3125 15.1391 12.5766 15.875 11.6719 15.875ZM19.3281 15.875C18.4234 15.875 17.6875 15.1391 17.6875 14.2344C17.6875 13.3297 18.4234 12.5938 19.3281 12.5938C20.2328 12.5938 20.9688 13.3297 20.9688 14.2344C20.9688 15.1391 20.2328 15.875 19.3281 15.875ZM29.7188 12.6945V3.74301C30.3539 3.51651 30.8125 2.91516 30.8125 2.20312C30.8125 1.29843 30.0766 0.5625 29.1719 0.5625C28.2672 0.5625 27.5312 1.29843 27.5312 2.20312C27.5312 2.91516 27.9898 3.51651 28.625 3.74301V12.6945C28.4008 12.7745 28.1977 12.8973 28.0303 13.0599C26.3629 7.72561 21.3768 3.84375 15.5 3.84375C9.62363 3.84375 4.6372 7.72568 2.96974 13.06C2.80238 12.8973 2.59917 12.7745 2.375 12.6945V3.74301C3.01019 3.51651 3.46875 2.91516 3.46875 2.20312C3.46875 1.29843 2.73282 0.5625 1.82812 0.5625C0.923431 0.5625 0.1875 1.29843 0.1875 2.20312C0.1875 2.91516 0.646055 3.51651 1.28125 3.74301V12.6945C0.646055 12.921 0.1875 13.5223 0.1875 14.2344V18.6094C0.1875 19.5141 0.923431 20.25 1.82812 20.25C2.34302 20.25 2.79757 20.0068 3.09858 19.6346C4.03752 21.2984 5.80111 22.4375 7.84375 22.4375H23.1562C25.1989 22.4375 26.9625 21.2984 27.9014 19.6346C28.2024 20.0068 28.657 20.25 29.1719 20.25C30.0766 20.25 30.8125 19.5141 30.8125 18.6094V14.2344C30.8125 13.5223 30.3539 12.921 29.7188 12.6945ZM20.4219 18.0625H10.5781C8.46753 18.0625 6.75 16.345 6.75 14.2344C6.75 12.1238 8.46753 10.4062 10.5781 10.4062H20.4219C22.5325 10.4062 24.25 12.1238 24.25 14.2344C24.25 16.345 22.5325 18.0625 20.4219 18.0625Z" fill="url(#paint0_linear_446_11913)"/>
<defs>
<linearGradient id="paint0_linear_446_11913" x1="0.1875" y1="13.2957" x2="30.8135" y2="13.344" gradientUnits="userSpaceOnUse">
<stop stop-color="#957DF3"/>
<stop offset="1" stop-color="#662D91"/>
</linearGradient>
</defs>
</svg>
