<svg width="27" height="31" viewBox="0 0 27 31" fill="none" xmlns="http://www.w3.org/2000/svg">
<path d="M23.2398 19.8587C24.6282 18.4304 25.6276 16.6701 26.1427 14.7459C26.6577 12.8216 26.6712 10.7975 26.1819 8.86656C26.0343 8.22125 23.8249 -0.528754 12.7398 0.236871C12.6652 0.23009 4.08265 0.844077 2.61712 8.10647C2.61165 8.16656 2.10306 14.3736 0.653842 16.4025C0.559237 16.5366 0.49672 16.6907 0.471119 16.8529C0.445517 17.015 0.457515 17.1809 0.506185 17.3377C0.55546 17.5007 0.64112 17.6503 0.756698 17.7754C0.872277 17.9004 1.01475 17.9976 1.17337 18.0595L2.90697 18.7267V18.8416L2.5679 19.0877C2.45674 19.1667 2.36772 19.273 2.30936 19.3962C2.251 19.5195 2.22525 19.6557 2.23458 19.7918C2.2439 19.9279 2.288 20.0593 2.36264 20.1735C2.43727 20.2877 2.53996 20.3808 2.66087 20.4439C2.55765 20.5259 2.47624 20.6321 2.42385 20.7531C2.37147 20.8741 2.34972 21.0062 2.36053 21.1376C2.37135 21.269 2.41439 21.3957 2.48586 21.5065C2.55732 21.6173 2.655 21.7088 2.77025 21.7728L3.29525 22.0517C2.9057 22.5287 2.72095 23.1406 2.78143 23.7535C2.84191 24.3664 3.14268 24.9303 3.61795 25.322C3.73275 25.4478 4.8429 26.5361 7.87806 25.7267C8.00581 25.6971 8.13826 25.694 8.26727 25.7175C8.39628 25.741 8.51912 25.7906 8.62823 25.8634C8.73734 25.9361 8.83041 26.0304 8.90172 26.1405C8.97304 26.2505 9.02108 26.374 9.0429 26.5033C9.2179 27.1923 9.61165 29.1939 9.3929 30.1455C9.3744 30.2329 9.37734 30.3235 9.40147 30.4095C9.42561 30.4955 9.47021 30.5744 9.53148 30.6395C9.59275 30.7045 9.66886 30.7537 9.75329 30.7829C9.83773 30.8121 9.92799 30.8205 10.0163 30.8072L23.4367 28.5212C23.5176 28.5074 23.5944 28.4755 23.6613 28.4278C23.7282 28.3801 23.7835 28.3179 23.8229 28.2458C23.8624 28.1738 23.885 28.0937 23.8891 28.0117C23.8933 27.9296 23.8788 27.8477 23.8468 27.772C21.2492 21.5923 23.2288 19.8697 23.2398 19.8587ZM19.9421 17.2556C19.1097 17.2657 18.3012 16.9772 17.6631 16.4424C17.0251 15.9077 16.5997 15.1621 16.464 14.3408C15.8292 14.2716 15.237 13.988 14.7851 13.5369C14.35 13.1072 13.8065 12.1881 14.5937 11.9017C14.663 11.8834 14.7352 11.8788 14.8063 11.8884C14.8773 11.898 14.9458 11.9215 15.0078 11.9576C15.0697 11.9936 15.124 12.0416 15.1674 12.0986C15.2108 12.1557 15.2426 12.2207 15.2609 12.29C15.6386 13.3328 17.1308 13.5684 17.9515 12.8806C18.1858 12.6983 18.3689 12.4584 18.4829 12.1843C18.597 11.9102 18.6381 11.6113 18.6023 11.3166C18.5944 11.1728 18.6434 11.0317 18.7386 10.9237C18.8339 10.8158 18.9678 10.7496 19.1114 10.7396C19.2551 10.7295 19.3969 10.7763 19.5063 10.87C19.6157 10.9636 19.6838 11.0965 19.696 11.24C19.7519 11.9142 19.5688 12.5866 19.1789 13.1395C18.789 13.6924 18.217 14.0905 17.5631 14.2642C17.9992 16.1248 19.9424 16.5127 21.3585 15.8665C23.3706 15.1219 23.567 12.9286 22.474 11.5681C22.2711 11.9992 21.9619 12.9041 21.3476 12.9736C21.2437 12.9722 21.1423 12.9414 21.055 12.885C20.9678 12.8285 20.8982 12.7486 20.8543 12.6544C20.8103 12.5602 20.7938 12.4556 20.8066 12.3524C20.8193 12.2493 20.8609 12.1518 20.9265 12.0712C22.3265 10.4306 21.1672 8.31419 21.1562 8.29232C20.2539 6.64076 18.1648 6.61888 18.1047 6.61888C18.0106 6.62121 17.9176 6.59867 17.835 6.55354C17.7524 6.50841 17.6832 6.44229 17.6343 6.36185C15.2903 2.75165 9.45819 4.58054 10.1149 8.82831C10.1381 8.96995 10.1048 9.11503 10.0221 9.23235C9.9394 9.34967 9.81398 9.42985 9.67279 9.45564C9.5316 9.48143 9.38593 9.45076 9.26712 9.37025C9.14831 9.28973 9.06585 9.1658 9.03748 9.0251C8.96597 8.55972 8.96045 8.08657 9.02108 7.61963C6.5492 8.16651 6.3742 10.1353 6.36873 10.2228C6.23547 11.1042 6.43331 12.0039 6.92409 12.7481C7.41487 13.4923 8.16383 14.0285 9.02655 14.2532C9.02404 13.8103 9.10899 13.3712 9.27651 12.9611C9.44404 12.5511 9.69084 12.1781 10.0028 11.8637C10.3147 11.5492 10.6857 11.2994 11.0943 11.1285C11.503 10.9577 11.9414 10.8692 12.3844 10.8681C12.7876 10.8285 13.1721 10.9551 13.1883 11.4149C13.1747 11.8794 12.7836 12.0006 12.3844 11.9618C11.7874 11.9672 11.2168 12.2081 10.7966 12.6321C10.3765 13.0561 10.1407 13.6289 10.1407 14.2259C10.1407 14.8228 10.3765 15.3956 10.7967 15.8196C11.2169 16.2436 11.7875 16.4845 12.3844 16.4899H13.932C14.4693 16.4909 14.9842 16.7051 15.3636 17.0856C15.7431 17.466 15.9559 17.9815 15.9554 18.5188V21.4282C15.9534 21.5719 15.8949 21.709 15.7925 21.8099C15.6902 21.9108 15.5522 21.9674 15.4085 21.9674C15.2648 21.9674 15.1269 21.9108 15.0245 21.8099C14.9222 21.709 14.8637 21.5719 14.8617 21.4282V18.5189C14.8621 18.2717 14.7644 18.0344 14.5902 17.8591C14.4159 17.6838 14.1792 17.5848 13.932 17.5837H12.3843C11.7086 17.5822 11.0489 17.3775 10.491 16.9962C9.93319 16.6149 9.50293 16.0745 9.25619 15.4455C7.57728 15.1173 4.97962 13.7009 5.27493 10.1408C5.27493 10.1244 5.50462 6.97984 9.29994 6.46578C10.6216 2.75339 16.2269 2.28095 18.3945 5.54166C19.5817 5.58406 20.7037 6.09543 21.5146 6.9637C22.3254 7.83196 22.759 8.98628 22.7202 10.1737C25.3582 12.6066 24.6094 16.9931 19.9421 17.2556ZM15.2663 7.49937C15.0171 7.31425 14.7049 7.23509 14.3976 7.27913C14.0903 7.32318 13.8129 7.48686 13.6257 7.73453C13.5919 7.81242 13.5409 7.88165 13.4765 7.93701C13.4121 7.99236 13.336 8.03242 13.2539 8.05416C13.1719 8.0759 13.0859 8.07876 13.0026 8.06253C12.9192 8.0463 12.8406 8.0114 12.7727 7.96045C12.7048 7.9095 12.6492 7.84382 12.6103 7.76835C12.5714 7.69287 12.5501 7.60956 12.548 7.52468C12.5459 7.43979 12.563 7.35552 12.5981 7.27821C12.6333 7.20089 12.6854 7.13254 12.7508 7.07828C14.6113 4.73483 18.1009 7.35052 16.3765 9.80176C16.3424 9.87916 16.2913 9.94786 16.2269 10.0027C16.1626 10.0576 16.0867 10.0973 16.0049 10.1187C15.9231 10.1401 15.8375 10.1428 15.7545 10.1265C15.6715 10.1103 15.5933 10.0755 15.5256 10.0247C15.458 9.97397 15.4026 9.9086 15.3638 9.83348C15.3249 9.75837 15.3036 9.67545 15.3012 9.59091C15.2989 9.50638 15.3157 9.42241 15.3504 9.34528C15.3851 9.26814 15.4367 9.19984 15.5015 9.14546C15.6883 8.8959 15.7685 8.5824 15.7244 8.27377C15.6803 7.96515 15.5156 7.68664 15.2663 7.49937Z" fill="url(#paint0_linear_446_11954)"/>
<defs>
<linearGradient id="paint0_linear_446_11954" x1="0.458008" y1="18.0153" x2="26.54" y2="18.0403" gradientUnits="userSpaceOnUse">
<stop stop-color="#957DF3"/>
<stop offset="1" stop-color="#662D91"/>
</linearGradient>
</defs>
</svg>
