<svg width="35" height="35" viewBox="0 0 35 35" fill="none" xmlns="http://www.w3.org/2000/svg">
<path d="M13.9244 12.0312H13.6721C13.37 12.0312 13.1252 12.276 13.1252 12.5781C13.1252 12.8803 13.37 13.125 13.6721 13.125H21.3284C21.6305 13.125 21.8752 12.8803 21.8752 12.5781C21.8752 12.276 21.6305 12.0312 21.3284 12.0312H21.0761L22.2382 9.4165C22.7211 8.32836 21.9234 7.10938 20.7391 7.10938H19.1409V5.46875H19.6877C20.5921 5.46875 21.3284 4.73252 21.3284 3.82812C21.3284 2.92373 20.5921 2.1875 19.6877 2.1875H19.1409V1.64062C19.1409 0.73623 18.4046 0 17.5002 0C16.5958 0 15.8596 0.73623 15.8596 1.64062V2.1875H15.3127C14.4083 2.1875 13.6721 2.92373 13.6721 3.82812C13.6721 4.73252 14.4083 5.46875 15.3127 5.46875H15.8596V7.10938H14.2614C13.0757 7.10938 12.28 8.32979 12.7623 9.4165L13.9244 12.0312Z" fill="url(#paint0_linear_446_11892)"/>
<path d="M20.2344 17.5C21.1388 17.5 21.875 16.7638 21.875 15.8594C21.875 14.955 21.1388 14.2188 20.2344 14.2188H14.7656C13.8612 14.2188 13.125 14.955 13.125 15.8594C13.125 16.7638 13.8612 17.5 14.7656 17.5H20.2344Z" fill="url(#paint1_linear_446_11892)"/>
<path d="M12.0566 26.2498H22.9427C23.0927 26.2498 23.192 26.0935 23.1281 25.9577C21.7294 22.985 21.3558 20.6496 21.0566 18.7015C21.0384 18.5832 20.9238 18.508 20.8068 18.5332C20.6221 18.5729 20.4305 18.5936 20.2341 18.5936C15.2444 18.5936 14.5977 18.6256 14.1879 18.5354C14.0726 18.51 13.9602 18.5879 13.9425 18.7048C13.6905 20.3735 13.3397 22.8331 11.8712 25.9575C11.8075 26.0934 11.9064 26.2498 12.0566 26.2498Z" fill="url(#paint2_linear_446_11892)"/>
<path d="M24.383 19.8572C24.1793 21.2036 23.8749 22.5352 23.4711 23.8437C23.4576 23.8873 23.4589 23.9343 23.4753 23.977C23.611 24.3328 23.7556 24.6852 23.9104 25.0341C23.9433 25.1082 24.0172 25.1558 24.0983 25.1558H31.3658C31.5076 25.1558 31.6057 25.0157 31.5586 24.8819C30.9837 23.2498 30.5642 21.5687 30.3049 19.8571C30.2896 19.7561 30.2035 19.6817 30.1013 19.6826C29.2281 19.6908 25.4604 19.691 24.5867 19.6827C24.4845 19.6818 24.3983 19.7563 24.383 19.8572Z" fill="url(#paint3_linear_446_11892)"/>
<path d="M8.50499 33.888C8.39822 33.8807 8.32678 33.9921 8.37443 34.0879C8.64308 34.6277 9.20062 34.9998 9.84361 34.9998H25.1561C25.7989 34.9998 26.3568 34.6278 26.6258 34.0879C26.6758 33.9874 26.5949 33.8764 26.4835 33.8895C25.9167 33.9569 9.05802 33.9263 8.50499 33.888Z" fill="url(#paint4_linear_446_11892)"/>
<path d="M34.8483 29.7008C34.8124 29.66 34.8187 29.6689 33.9057 28.9844C33.2232 28.4722 32.8149 27.6585 32.8119 26.806C32.8109 26.5004 32.5707 26.25 32.265 26.25H24.4912L24.4916 26.2507C24.5136 26.2936 24.5523 26.3249 24.5979 26.3406C25.2492 26.5654 25.7025 27.185 25.7025 27.8906C25.7025 28.8849 26.1074 29.8018 26.7689 30.465L26.8688 30.5649C26.9073 30.6034 26.9595 30.625 27.0138 30.625H34.4525C34.9354 30.625 35.1772 30.0446 34.8483 29.7008Z" fill="url(#paint5_linear_446_11892)"/>
<path d="M26.7103 31.9717C26.4612 31.5733 24.6089 30.4352 24.6089 27.8906C24.6089 27.5885 24.3642 27.3438 24.062 27.3438H10.937C10.6349 27.3438 10.3901 27.5885 10.3901 27.8906C10.3901 28.9919 9.96972 29.8353 9.96425 29.8519C9.24163 31.442 8.14699 31.6968 8.20537 32.3192C8.21268 32.3942 8.23914 32.4797 8.28507 32.5533C8.3481 32.6547 8.41844 32.6983 8.44674 32.7209C8.63904 32.849 8.27571 32.8125 14.7652 32.8125C26.9719 32.8125 26.3397 32.8441 26.51 32.7462C26.6561 32.686 26.8217 32.4544 26.7937 32.2116C26.7936 32.1157 26.7256 31.9922 26.7103 31.9717Z" fill="url(#paint6_linear_446_11892)"/>
<path d="M24.6094 18.5938H30.0781C30.9825 18.5938 31.7188 17.8575 31.7188 16.9531C31.7188 16.0487 30.9825 15.3125 30.0781 15.3125H29.3133C30.4259 14.6421 31.1719 13.4224 31.1719 12.0312C31.1719 9.92031 29.4547 8.20312 27.3438 8.20312C25.2328 8.20312 23.5156 9.92031 23.5156 12.0312C23.5156 13.4224 24.2616 14.6421 25.3742 15.3125H24.6094C23.705 15.3125 22.9688 16.0487 22.9688 16.9531C22.9688 17.8575 23.705 18.5938 24.6094 18.5938Z" fill="url(#paint7_linear_446_11892)"/>
<path d="M4.69511 19.8569C4.44437 21.5142 4.03298 23.1997 3.44064 24.8818C3.39355 25.0155 3.49164 25.1558 3.63342 25.1558H10.9007C10.9819 25.1558 11.056 25.108 11.0889 25.0337C11.2433 24.6854 11.3883 24.3328 11.524 23.9777C11.5403 23.9349 11.5417 23.8879 11.5282 23.8441C11.1264 22.5398 10.8217 21.2083 10.6171 19.8571C10.6018 19.7562 10.5156 19.6817 10.4135 19.6827C9.5398 19.691 5.77218 19.6908 4.89882 19.6826C4.79655 19.6817 4.71035 19.756 4.69511 19.8569Z" fill="url(#paint8_linear_446_11892)"/>
<path d="M10.5081 26.25H2.73423C2.42893 26.25 2.18824 26.4999 2.18735 26.8051C2.18475 27.6642 1.77576 28.4721 1.0936 28.9844C0.141217 29.6985 0.204176 29.649 0.168698 29.683C0.112848 29.7326 0.0519398 29.8221 0.0224085 29.923C-0.0817028 30.2861 0.191188 30.625 0.546725 30.625H7.98484C8.0396 30.625 8.09244 30.6031 8.13086 30.564C8.67431 30.0117 8.83386 29.7214 9.0185 29.2871C9.42435 28.3078 9.19549 27.8869 9.39106 27.3437C9.55697 26.8753 9.93021 26.5035 10.4007 26.3409C10.4467 26.3249 10.4857 26.2933 10.5081 26.25Z" fill="url(#paint9_linear_446_11892)"/>
<path d="M7.01941 31.7184C1.75526 31.7187 0.660755 31.7343 0.307064 31.7009C0.198372 31.6906 0.12263 31.8026 0.171302 31.9003C0.440023 32.44 0.997562 32.8121 1.64048 32.8121H7.02036C7.10773 32.8121 7.17404 32.7309 7.15367 32.6459C7.09324 32.3942 7.09412 32.1355 7.15196 31.8896C7.1724 31.8024 7.10896 31.7184 7.01941 31.7184Z" fill="url(#paint10_linear_446_11892)"/>
<path d="M4.92188 18.5938H10.3906C11.295 18.5938 12.0312 17.8575 12.0312 16.9531C12.0312 16.0487 11.295 15.3125 10.3906 15.3125H9.62575C10.7384 14.6421 11.4844 13.4224 11.4844 12.0312C11.4844 9.92031 9.76719 8.20312 7.65625 8.20312C5.54531 8.20312 3.82812 9.92031 3.82812 12.0312C3.82812 13.4224 4.57406 14.6421 5.68675 15.3125H4.92188C4.01748 15.3125 3.28125 16.0487 3.28125 16.9531C3.28125 17.8575 4.01748 18.5938 4.92188 18.5938Z" fill="url(#paint11_linear_446_11892)"/>
<path d="M27.9778 31.7184C33.242 31.7187 34.3365 31.7343 34.6902 31.7009C34.7988 31.6906 34.8746 31.8026 34.8259 31.9003C34.5573 32.44 33.9997 32.8121 33.3567 32.8121H27.9769C27.8895 32.8121 27.8232 32.7309 27.8435 32.6459C27.904 32.3942 27.9031 32.1355 27.8453 31.8896C27.8248 31.8024 27.8883 31.7184 27.9778 31.7184Z" fill="url(#paint12_linear_446_11892)"/>
<defs>
<linearGradient id="paint0_linear_446_11892" x1="12.6191" y1="7.63992" x2="22.3818" y2="7.6481" gradientUnits="userSpaceOnUse">
<stop stop-color="#957DF3"/>
<stop offset="1" stop-color="#662D91"/>
</linearGradient>
<linearGradient id="paint1_linear_446_11892" x1="13.125" y1="16.1287" x2="21.8752" y2="16.155" gradientUnits="userSpaceOnUse">
<stop stop-color="#957DF3"/>
<stop offset="1" stop-color="#662D91"/>
</linearGradient>
<linearGradient id="paint2_linear_446_11892" x1="11.8516" y1="23.0229" x2="23.1482" y2="23.0415" gradientUnits="userSpaceOnUse">
<stop stop-color="#957DF3"/>
<stop offset="1" stop-color="#662D91"/>
</linearGradient>
<linearGradient id="paint3_linear_446_11892" x1="23.4619" y1="22.8685" x2="31.5708" y2="22.882" gradientUnits="userSpaceOnUse">
<stop stop-color="#957DF3"/>
<stop offset="1" stop-color="#662D91"/>
</linearGradient>
<linearGradient id="paint4_linear_446_11892" x1="8.35937" y1="34.535" x2="26.6353" y2="34.8733" gradientUnits="userSpaceOnUse">
<stop stop-color="#957DF3"/>
<stop offset="1" stop-color="#662D91"/>
</linearGradient>
<linearGradient id="paint5_linear_446_11892" x1="24.4912" y1="28.7966" x2="34.9998" y2="28.8251" gradientUnits="userSpaceOnUse">
<stop stop-color="#957DF3"/>
<stop offset="1" stop-color="#662D91"/>
</linearGradient>
<linearGradient id="paint6_linear_446_11892" x1="8.20312" y1="30.5299" x2="26.7972" y2="30.601" gradientUnits="userSpaceOnUse">
<stop stop-color="#957DF3"/>
<stop offset="1" stop-color="#662D91"/>
</linearGradient>
<linearGradient id="paint7_linear_446_11892" x1="22.9687" y1="14.2514" x2="31.719" y2="14.2597" gradientUnits="userSpaceOnUse">
<stop stop-color="#957DF3"/>
<stop offset="1" stop-color="#662D91"/>
</linearGradient>
<linearGradient id="paint8_linear_446_11892" x1="3.42871" y1="22.8685" x2="11.5376" y2="22.882" gradientUnits="userSpaceOnUse">
<stop stop-color="#957DF3"/>
<stop offset="1" stop-color="#662D91"/>
</linearGradient>
<linearGradient id="paint9_linear_446_11892" x1="-5.59837e-08" y1="28.7966" x2="10.5083" y2="28.8251" gradientUnits="userSpaceOnUse">
<stop stop-color="#957DF3"/>
<stop offset="1" stop-color="#662D91"/>
</linearGradient>
<linearGradient id="paint10_linear_446_11892" x1="0.15625" y1="32.3474" x2="7.15725" y2="32.3971" gradientUnits="userSpaceOnUse">
<stop stop-color="#957DF3"/>
<stop offset="1" stop-color="#662D91"/>
</linearGradient>
<linearGradient id="paint11_linear_446_11892" x1="3.28125" y1="14.2514" x2="12.0315" y2="14.2597" gradientUnits="userSpaceOnUse">
<stop stop-color="#957DF3"/>
<stop offset="1" stop-color="#662D91"/>
</linearGradient>
<linearGradient id="paint12_linear_446_11892" x1="27.8398" y1="32.3474" x2="34.8408" y2="32.3971" gradientUnits="userSpaceOnUse">
<stop stop-color="#957DF3"/>
<stop offset="1" stop-color="#662D91"/>
</linearGradient>
</defs>
</svg>
