<svg width="42" height="42" viewBox="0 0 42 42" fill="none" xmlns="http://www.w3.org/2000/svg">
<path d="M21.6348 22.2409L27.9029 19.2309C28.1575 19.11 28.3166 18.8491 28.3166 18.5691V10.8945L21.6348 14.1018V22.2409Z" fill="url(#paint0_linear_694_45992)"/>
<path d="M20.9987 12.9941L27.4896 9.88224L21.3169 6.92315C21.1133 6.8277 20.8842 6.8277 20.6805 6.92315L14.5078 9.88224L20.9987 12.9941Z" fill="url(#paint1_linear_694_45992)"/>
<path d="M11.3905 34.6758H2.56418H1.55236L1.50781 37.4249L13.1596 37.4694L13.1978 34.714L13.1596 34.6758H11.3905Z" fill="url(#paint2_linear_694_45992)"/>
<path d="M10.7348 24.2894C9.97115 23.3349 9.55115 22.1576 9.55115 20.9867V16.9713C9.55115 16.5067 9.34751 16.0676 8.99115 15.7685C8.63478 15.4631 8.17024 15.3358 7.69933 15.4122C7.26024 15.4822 6.89114 15.7558 6.65569 16.144C6.64296 16.1822 6.62387 16.214 6.59842 16.2458C6.46478 16.5003 6.38842 16.7867 6.38842 17.0922V21.8522C6.38842 22.2022 6.10205 22.4885 5.75205 22.4885C5.40205 22.4885 5.11569 22.2022 5.11569 21.8522V17.0922C5.11569 16.5576 5.25569 16.0549 5.49115 15.6158L8.68569 6.70035C8.83842 6.27399 8.8066 5.79671 8.59024 5.40217C8.24024 4.74671 7.50842 4.4158 6.80205 4.58126C6.37569 4.68308 6.01296 4.94399 5.79024 5.30035C3.05387 9.76762 1.6666 14.4322 0.98569 17.5567C0.323872 20.5985 0.597508 23.7931 1.76842 26.7967C3.02205 30.004 3.21933 32.3013 3.22569 33.3958H11.0339C13.6621 29.1067 11.9884 25.8613 10.7348 24.2894Z" fill="url(#paint3_linear_694_45992)"/>
<path d="M13.6738 18.5691C13.6738 18.8491 13.8393 19.11 14.0875 19.2309L20.362 22.2409V14.1018L13.6738 10.8945V18.5691Z" fill="url(#paint4_linear_694_45992)"/>
<path d="M36.2027 5.2887C35.9863 4.93233 35.6172 4.67142 35.1908 4.5696C34.4845 4.40415 33.7527 4.73506 33.409 5.37779C33.1863 5.79142 33.1481 6.2687 33.3008 6.69506L36.4954 15.6105C36.7372 16.0496 36.8708 16.5523 36.8708 17.0869V21.8469C36.8708 22.1969 36.5845 22.4832 36.2345 22.4832C35.8845 22.4832 35.5981 22.1969 35.5981 21.8469V17.0869C35.5981 16.7814 35.5218 16.4887 35.3881 16.2405C35.369 16.2087 35.3499 16.1769 35.3308 16.1387C35.0954 15.7569 34.7199 15.4769 34.2872 15.4069C33.8099 15.3305 33.3518 15.4578 32.9954 15.7632C32.6518 16.0687 32.4545 16.5078 32.4545 16.9723V20.9878C32.4545 22.1651 32.0345 23.336 31.2708 24.2905C30.0172 25.8623 28.3436 29.1078 30.9654 33.3969H38.7736C38.7799 32.3023 38.9772 30.0051 40.2308 26.7978C41.4081 23.7941 41.6754 20.5996 41.0136 17.5578C40.3327 14.4332 38.9454 9.7687 36.2027 5.2887Z" fill="url(#paint5_linear_694_45992)"/>
<path d="M30.6081 34.6758H28.839L28.8008 37.4249L40.4462 37.4694L40.4908 34.714L40.4462 34.6758H39.4344H30.6081Z" fill="url(#paint6_linear_694_45992)"/>
<defs>
<linearGradient id="paint0_linear_694_45992" x1="21.6348" y1="17.4991" x2="28.3168" y2="17.5036" gradientUnits="userSpaceOnUse">
<stop stop-color="#957DF3"/>
<stop offset="1" stop-color="#662D91"/>
</linearGradient>
<linearGradient id="paint1_linear_694_45992" x1="14.5078" y1="10.427" x2="27.49" y2="10.4579" gradientUnits="userSpaceOnUse">
<stop stop-color="#957DF3"/>
<stop offset="1" stop-color="#662D91"/>
</linearGradient>
<linearGradient id="paint2_linear_694_45992" x1="1.50781" y1="36.3019" x2="13.1979" y2="36.357" gradientUnits="userSpaceOnUse">
<stop stop-color="#957DF3"/>
<stop offset="1" stop-color="#662D91"/>
</linearGradient>
<linearGradient id="paint3_linear_694_45992" x1="0.632812" y1="21.3363" x2="12.4264" y2="21.3417" gradientUnits="userSpaceOnUse">
<stop stop-color="#957DF3"/>
<stop offset="1" stop-color="#662D91"/>
</linearGradient>
<linearGradient id="paint4_linear_694_45992" x1="13.6738" y1="17.4991" x2="20.3622" y2="17.5036" gradientUnits="userSpaceOnUse">
<stop stop-color="#957DF3"/>
<stop offset="1" stop-color="#662D91"/>
</linearGradient>
<linearGradient id="paint5_linear_694_45992" x1="29.5781" y1="21.332" x2="41.3684" y2="21.3374" gradientUnits="userSpaceOnUse">
<stop stop-color="#957DF3"/>
<stop offset="1" stop-color="#662D91"/>
</linearGradient>
<linearGradient id="paint6_linear_694_45992" x1="28.8008" y1="36.3019" x2="40.4909" y2="36.357" gradientUnits="userSpaceOnUse">
<stop stop-color="#957DF3"/>
<stop offset="1" stop-color="#662D91"/>
</linearGradient>
</defs>
</svg>
