<svg width="42" height="42" viewBox="0 0 42 42" fill="none" xmlns="http://www.w3.org/2000/svg">
<g clip-path="url(#clip0_694_46080)">
<path d="M28.8781 27.7553L23.7522 24.75C23.4727 24.7837 23.1928 24.8391 22.9142 24.9188C21.5759 25.3029 19.6404 26.4043 18.0181 29.4716C16.7301 31.9068 17.2054 33.9916 17.6248 35.8312C18.0256 37.5895 18.3423 38.9784 17.1645 40.3677C17.0487 40.5042 17.0171 40.6931 17.0821 40.8601C17.123 40.965 17.198 41.0505 17.2918 41.1051C17.3476 41.1373 17.4099 41.1589 17.4757 41.1673C20.4547 41.5415 24.9131 39.7849 27.6629 35.0434C28.9119 32.8899 29.4482 30.8192 29.2143 29.0553C29.1534 28.5951 29.0391 28.1607 28.8781 27.7553ZM23.8542 28.0802C23.7624 28.3241 23.5811 28.5174 23.3436 28.6249C21.6128 29.4083 21.3032 30.7778 21.2908 30.8358C21.2223 31.1958 20.9442 31.4944 20.5841 31.5901C20.5522 31.5986 20.5198 31.6054 20.487 31.6108C20.3758 31.6286 20.2627 31.6267 20.1513 31.6054C19.6227 31.5047 19.2747 30.9931 19.3753 30.4646C19.3938 30.3669 19.8616 28.0593 22.5392 26.8473C22.5886 26.825 22.6394 26.8069 22.6911 26.7931C23.1539 26.6701 23.633 26.8975 23.8304 27.3337C23.9375 27.5712 23.9461 27.8363 23.8542 28.0802Z" fill="url(#paint0_linear_694_46080)"/>
<path d="M40.8704 1.08695C39.8423 0.490768 38.5281 0.791053 37.861 1.77474C37.4416 2.39306 27.5774 16.9422 26.3073 19.132C25.6723 20.227 24.9566 22.0044 24.3613 23.6294L29.4873 26.6347C30.6036 25.3103 31.7969 23.7996 32.4408 22.6892C33.7257 20.4738 41.4406 4.71067 41.7683 4.04073C42.291 2.97295 41.8988 1.68313 40.8704 1.08695Z" fill="url(#paint1_linear_694_46080)"/>
<path d="M16.2525 33.2737C15.8137 33.1272 15.3861 33.0412 14.9524 33.0145C14.8795 33.01 14.8013 33.0078 14.7199 33.0078C14.0672 33.0078 13.247 33.1508 12.4539 33.2891C11.7471 33.4126 11.0794 33.5288 10.6135 33.5288C10.2858 33.5288 10.1726 33.4688 10.136 33.4375C9.74 32.9405 10.3123 31.5914 10.5573 31.0133C10.6199 30.8658 10.6693 30.7493 10.6977 30.6661C11.095 29.4972 11.3868 28.2528 10.8368 27.0717C10.3795 26.0898 9.31065 25.3083 8.12228 25.0824C7.77615 25.0007 7.37889 24.9626 6.87197 24.9626C6.45471 24.9626 6.00819 24.989 5.5763 25.0147C5.13338 25.041 4.67534 25.0682 4.23672 25.0682C2.72807 25.0682 1.8596 24.724 1.33444 23.92C0.359637 22.3722 1.53044 19.5998 2.73265 18.4453C2.8066 18.3743 2.81295 18.2582 2.74719 18.1795C2.68134 18.1007 2.56602 18.0863 2.483 18.1466C0.943428 19.262 -0.0758651 21.2885 0.00442569 23.0747C0.047254 24.0272 0.41388 25.3504 1.91775 26.2459C2.72729 26.7278 4.03653 26.8293 5.30264 26.9274C6.54827 27.0239 7.83634 27.1238 8.23331 27.6081C8.3373 27.735 8.37691 27.8887 8.3536 28.0821C8.26696 28.9678 7.83722 29.84 7.42152 30.6832C6.63647 32.276 5.82468 33.923 7.22777 35.7507C8.46003 37.3557 10.0959 37.3557 11.7764 37.344C11.914 37.343 12.0519 37.342 12.1896 37.342C12.9228 37.342 13.7697 37.3645 14.5376 37.632C15.0842 37.8438 15.359 38.2819 15.4876 39.1511C15.586 39.6839 15.8228 40.1034 16.137 40.4193C16.183 40.1744 16.2909 39.9409 16.458 39.7435C17.2831 38.7693 17.1217 37.8588 16.7094 36.0546C16.518 35.2161 16.3058 34.2867 16.2525 33.2737Z" fill="url(#paint2_linear_694_46080)"/>
</g>
<defs>
<linearGradient id="paint0_linear_694_46080" x1="17.0488" y1="34.3347" x2="29.2682" y2="34.3449" gradientUnits="userSpaceOnUse">
<stop stop-color="#957DF3"/>
<stop offset="1" stop-color="#662D91"/>
</linearGradient>
<linearGradient id="paint1_linear_694_46080" x1="24.3613" y1="15.8303" x2="41.9998" y2="15.8438" gradientUnits="userSpaceOnUse">
<stop stop-color="#957DF3"/>
<stop offset="1" stop-color="#662D91"/>
</linearGradient>
<linearGradient id="paint2_linear_694_46080" x1="-9.08284e-08" y1="31.0958" x2="17.0489" y2="31.1104" gradientUnits="userSpaceOnUse">
<stop stop-color="#957DF3"/>
<stop offset="1" stop-color="#662D91"/>
</linearGradient>
<clipPath id="clip0_694_46080">
<rect width="42" height="42" fill="white"/>
</clipPath>
</defs>
</svg>
