<svg width="42" height="42" viewBox="0 0 42 42" fill="none" xmlns="http://www.w3.org/2000/svg">
<path d="M38.5148 3.48653C33.2681 -1.76018 23.8691 -1.00935 17.6331 5.22666C9.99342 12.8656 12.5708 24.2146 5.66259 31.1228C4.16872 32.6167 4.53654 32.2476 4.47658 32.3076C4.47453 32.3115 1.08287 35.6972 1.07967 35.7004C-0.359891 37.1399 -0.359891 39.4807 1.07967 40.9203C2.51924 42.3598 4.85991 42.3598 6.29956 40.9203C10.9776 36.2421 9.27146 37.9548 9.69761 37.5287C9.69975 37.5248 10.8793 36.3459 10.8824 36.3427C15.7276 31.4975 22.2715 31.5706 29.626 28.7779C31.9747 27.8859 34.2263 26.9166 36.7745 24.3681C43.0034 18.1393 43.7641 8.73586 38.5148 3.48653ZM36.7745 5.22666C37.3733 5.8254 37.864 6.49633 38.2683 7.21328L35.0344 10.4472L31.5541 6.96686L34.7881 3.73295C35.5049 4.1372 36.1759 4.62791 36.7745 5.22666ZM21.1133 17.4075L24.5936 13.9273L28.0739 17.4075L24.5936 20.8879L21.1133 17.4075ZM22.8534 22.628L19.6233 25.8581C18.8995 25.4509 18.2258 24.961 17.6331 24.3681C17.0403 23.7754 16.5503 23.1017 16.143 22.378L19.3732 19.1477L22.8534 22.628ZM26.3338 12.1872L29.814 8.70691L33.2943 12.1872L29.814 15.6675L26.3338 12.1872ZM32.2845 2.75621L29.814 5.22657L27.2584 2.67098C28.9838 2.33818 30.6963 2.37107 32.2845 2.75621ZM24.5878 3.48079L28.0739 6.9667L24.5936 10.447L20.2792 6.13261C21.6162 4.98048 23.0799 4.09692 24.5878 3.48079ZM18.5559 7.88971L22.8533 12.1872L19.3731 15.6674L15.8928 12.1872C16.5215 10.6474 17.4267 9.20024 18.5559 7.88971ZM15.0904 14.8649L17.6331 17.4075L15.1652 19.8754C14.7858 18.3147 14.7547 16.6131 15.0904 14.8649ZM16.3523 30.1825C15.0765 30.0901 13.9779 29.628 13.1776 28.8277C12.3773 28.0274 11.9152 26.9288 11.8228 25.653C12.3416 24.1018 11.564 26.7598 13.0964 21.3705C13.2193 21.7438 13.3106 22.131 13.4665 22.4886C13.4943 22.5853 13.5376 22.6732 13.5897 22.7619C14.1645 23.995 14.9184 25.1337 15.8928 26.1084C16.867 27.0824 18.0056 27.8361 19.238 28.4106C19.3275 28.4632 19.4162 28.5071 19.5136 28.5351C19.8738 28.6921 20.2635 28.7843 20.6396 28.9076C15.2451 30.4413 17.902 29.6641 16.3523 30.1825ZM22.1261 26.8356L24.5937 24.368L27.136 26.9105C25.3878 27.2458 23.6865 27.2148 22.1261 26.8356ZM29.814 26.1083L26.3338 22.628L29.814 19.1477L34.1115 23.4452C32.8009 24.5745 31.3539 25.4797 29.814 26.1083ZM35.8686 21.722L31.5543 17.4075L35.0346 13.9273L38.5206 17.4134C37.9042 18.9213 37.0208 20.385 35.8686 21.722ZM36.7746 12.1872L39.2451 9.71679C39.6301 11.3049 39.663 13.0174 39.3303 14.7428L36.7746 12.1872Z" fill="url(#paint0_linear_694_46197)"/>
<path d="M6.1543 0.00390625C2.76206 0.00390625 0.00195312 2.76401 0.00195312 6.15625C0.00195312 9.54849 2.76214 12.3086 6.1543 12.3086C9.54654 12.3086 12.3066 9.54849 12.3066 6.15625C12.3066 2.76401 9.54654 0.00390625 6.1543 0.00390625Z" fill="url(#paint1_linear_694_46197)"/>
<defs>
<linearGradient id="paint0_linear_694_46197" x1="-2.23763e-07" y1="24.4477" x2="42.0013" y2="24.495" gradientUnits="userSpaceOnUse">
<stop stop-color="#957DF3"/>
<stop offset="1" stop-color="#662D91"/>
</linearGradient>
<linearGradient id="paint1_linear_694_46197" x1="0.00195306" y1="7.16633" x2="12.307" y2="7.18019" gradientUnits="userSpaceOnUse">
<stop stop-color="#957DF3"/>
<stop offset="1" stop-color="#662D91"/>
</linearGradient>
</defs>
</svg>
