<svg width="42" height="42" viewBox="0 0 42 42" fill="none" xmlns="http://www.w3.org/2000/svg">
<path d="M28.6568 27.7706C29.0074 27.6799 29.2515 27.3625 29.2493 27.0004C29.2547 25.0095 30.8166 23.3708 32.8049 23.27C33.4589 23.8192 33.8101 24.6486 33.7492 25.5004C33.7497 25.8403 33.5216 26.1382 33.1932 26.2261C32.8648 26.314 32.5184 26.1701 32.349 25.8754C32.1357 25.5307 31.6871 25.4178 31.336 25.6205C30.985 25.8233 30.8586 26.2683 31.0508 26.6254C31.5599 27.5072 32.5979 27.9372 33.5816 27.6736C34.5652 27.4101 35.2491 26.5187 35.2491 25.5004C35.2543 24.9446 35.164 24.3921 34.9822 23.8669C36.0639 24.5624 36.7269 25.7521 36.7491 27.0378C36.7494 27.3872 36.9907 27.6901 37.3311 27.7683C37.85 27.891 38.2245 28.3428 38.2491 28.8753C38.2499 29.423 37.8541 29.8908 37.3139 29.9808C36.9973 30.0345 36.7499 30.2839 36.6989 30.601C36.3996 32.4113 34.8342 33.7391 32.9993 33.7391C31.1644 33.7391 29.599 32.4113 29.2996 30.601C29.2487 30.2841 29.0018 30.0348 28.6854 29.9808C28.1448 29.8912 27.7486 29.4233 27.7494 28.8753C27.7615 28.3421 28.1361 27.8861 28.6568 27.7706ZM4.21562 18.5945V10.3447C4.16032 4.77962 8.55687 0.187618 14.1191 0.000924311C16.8124 -0.035524 19.4082 1.00729 21.3278 2.89683C23.2473 4.78637 24.331 7.3655 24.3369 10.059V18.5946C24.3348 20.3789 22.8888 21.8249 21.1045 21.827H18.8066C18.4312 21.5022 18.1415 21.0902 17.9628 20.6271C18.433 20.2804 18.8651 19.8849 19.2521 19.4473C19.7657 18.8345 20.1574 18.1291 20.4063 17.3692L21.0926 15.3135C22.5428 15.0445 23.5865 13.7673 23.5611 12.2926C23.5356 10.8179 22.4485 9.5773 20.9898 9.35861C20.5294 8.60864 19.3616 7.03364 17.69 7.03364C12.1183 7.03364 10.9956 4.67041 10.9903 4.66067C10.8565 4.32742 10.5053 4.13579 10.1527 4.20361C9.8 4.2715 9.54494 4.57978 9.54438 4.93891C9.51753 5.94889 8.81813 6.81606 7.83667 7.05611C7.50265 7.13944 7.26824 7.43937 7.26817 7.78361V9.41405C5.89329 9.76288 4.94661 11.0217 4.993 12.4394C5.0394 13.8571 6.06621 15.0514 7.46091 15.3097L8.14564 17.3654C8.39542 18.1251 8.78738 18.8304 9.30065 19.4436C9.67536 19.8674 10.0928 20.2514 10.5464 20.5896C10.3695 21.0665 10.0758 21.4915 9.69212 21.8255H7.44818C5.66423 21.8234 4.21847 20.3783 4.21562 18.5945ZM14.2758 20.6945C13.0759 20.6945 11.2069 19.3843 10.4464 18.4827C10.0557 18.0145 9.75764 17.4762 9.56817 16.8965L8.72895 14.3796C8.62691 14.0732 8.34019 13.8665 8.01724 13.8666C7.17767 13.8666 6.49705 13.186 6.49705 12.3464C6.49705 11.5068 7.17767 10.8262 8.01724 10.8262C8.43145 10.8262 8.76721 10.4905 8.76721 10.0762V8.31378C9.58215 7.96126 10.2533 7.34255 10.6707 6.55884C11.7529 7.48055 13.8341 8.53658 17.689 8.53658C18.6999 8.53658 19.6014 9.88655 19.8639 10.4115C19.9909 10.6655 20.2504 10.8261 20.5344 10.8263C21.0775 10.8263 21.5793 11.1161 21.8509 11.5864C22.1225 12.0568 22.1225 12.6362 21.8509 13.1066C21.5793 13.5769 21.0775 13.8667 20.5344 13.8667C20.2114 13.8667 19.9247 14.0733 19.8227 14.3797L18.9834 16.8967C18.7938 17.4762 18.4958 18.0145 18.1052 18.4829C17.3447 19.3813 15.475 20.6915 14.2758 20.6915V20.6945H14.2758ZM17.8413 22.9766C17.4864 23.2515 17.0851 23.4603 16.6563 23.5931C15.1162 24.1383 13.4356 24.1383 11.8954 23.5931C11.4539 23.4585 11.042 23.2408 10.6819 22.9519C11.1633 22.5282 11.5508 22.0086 11.8197 21.4264C12.5649 21.876 13.4073 22.1394 14.2759 22.1944C15.1286 22.1417 15.9562 21.8861 16.6901 21.4489C16.9622 22.0326 17.3545 22.5522 17.8414 22.9737V22.9766H17.8413ZM23.2494 32.2502C22.8352 32.2502 22.4995 32.586 22.4995 33.0002V42H5.99978V33.0002C5.99978 32.586 5.66403 32.2502 5.24981 32.2502C4.83559 32.2502 4.49984 32.586 4.49984 33.0002V42H1.49995C0.671511 42 0 41.3284 0 40.5001V34.5002C0 34.2257 0.00723402 33.9587 0.0217716 33.6993C0.294438 29.6177 2.95294 26.0828 6.79858 24.6882L9.35303 23.729C9.90121 24.3357 10.608 24.7774 11.3937 25.004C13.2587 25.663 15.2931 25.663 17.1581 25.004C17.9363 24.7776 18.6369 24.3412 19.1831 23.7425L21.7008 24.6882C23.5428 25.3763 25.1564 26.5642 26.3605 28.1186C26.286 28.364 26.2486 28.619 26.2495 28.8754C26.2473 29.9563 26.9105 30.927 27.9182 31.318C28.0792 31.9376 28.3527 32.5223 28.7252 33.043C26.8749 33.1881 25.166 34.0886 24.0002 35.5329V33.0003C24.0002 32.8013 23.9212 32.6103 23.7803 32.4697C23.6394 32.329 23.4484 32.25 23.2494 32.2502ZM41.999 42H39.7491V38.2501C39.7491 37.8359 39.4134 37.5001 38.9991 37.5001C38.5849 37.5001 38.2492 37.8359 38.2492 38.2501V42H29.2493V38.2501C29.2493 37.8359 28.9135 37.5001 28.4993 37.5001C28.0851 37.5001 27.7493 37.8359 27.7493 38.2501V42H23.9994V40.4903C23.936 39.0957 24.3191 37.7172 25.0929 36.5552C26.1302 35.2208 27.7396 34.4581 29.4292 34.5002H30.3075C31.9626 35.5003 34.0357 35.5003 35.6908 34.5002H36.5691C38.258 34.4583 39.8666 35.2203 40.904 36.5537C41.2159 36.9911 41.459 37.4737 41.6247 37.9847C41.8832 38.7977 42.0096 39.647 41.999 40.5001L41.999 42Z" fill="url(#paint0_linear_694_46274)"/>
<defs>
<linearGradient id="paint0_linear_694_46274" x1="-2.23761e-07" y1="24.4478" x2="42.0009" y2="24.4951" gradientUnits="userSpaceOnUse">
<stop stop-color="#957DF3"/>
<stop offset="1" stop-color="#662D91"/>
</linearGradient>
</defs>
</svg>
