<svg width="42" height="42" viewBox="0 0 42 42" fill="none" xmlns="http://www.w3.org/2000/svg">
<path d="M13.1096 9.29719C13.1096 9.49319 12.9521 9.64719 12.7596 9.64719H12.2171V10.1932C12.2171 10.3857 12.0596 10.5432 11.8671 10.5432C11.6711 10.5432 11.5171 10.3857 11.5171 10.1932V9.64719H10.9711C10.7786 9.64719 10.6211 9.49319 10.6211 9.29719C10.6211 9.10469 10.7786 8.94719 10.9711 8.94719H11.5171V8.40469C11.5171 8.21219 11.6711 8.05469 11.8671 8.05469C12.0596 8.05469 12.2171 8.21219 12.2171 8.40469V8.94719H12.7596C12.9521 8.94719 13.1096 9.10469 13.1096 9.29719Z" fill="url(#paint0_linear_694_46223)"/>
<path d="M31.0197 28.5325C31.0197 29.1975 30.4807 29.733 29.8192 29.733C29.1542 29.733 28.6152 29.1975 28.6152 28.5325C28.6152 27.871 29.1542 27.332 29.8192 27.332C30.4807 27.332 31.0197 27.871 31.0197 28.5325Z" fill="url(#paint1_linear_694_46223)"/>
<path d="M29.837 21.9913L30.222 21.6063C30.3585 21.4698 30.579 21.4698 30.7155 21.6063C30.852 21.7428 30.852 21.9668 30.7155 22.1033L30.3305 22.4883L30.7155 22.8698C30.852 23.0063 30.852 23.2303 30.7155 23.3668C30.6455 23.4333 30.558 23.4683 30.467 23.4683C30.3795 23.4683 30.2885 23.4333 30.222 23.3668L29.837 22.9818L29.452 23.3668C29.382 23.4333 29.2945 23.4683 29.2035 23.4683C29.116 23.4683 29.025 23.4333 28.9585 23.3668C28.8185 23.2303 28.8185 23.0063 28.9585 22.8698L29.34 22.4883L28.9585 22.1033C28.8185 21.9668 28.8185 21.7428 28.9585 21.6063C29.095 21.4698 29.3155 21.4698 29.452 21.6063L29.837 21.9913Z" fill="url(#paint2_linear_694_46223)"/>
<path d="M10.3314 17.0455C9.66986 17.0455 9.13086 16.5065 9.13086 15.845C9.13086 15.1835 9.66986 14.6445 10.3314 14.6445C10.9929 14.6445 11.5319 15.1835 11.5319 15.845C11.5319 16.5065 10.9929 17.0455 10.3314 17.0455Z" fill="url(#paint3_linear_694_46223)"/>
<path d="M15.8431 23.0533C16.5061 23.0533 17.0436 22.5159 17.0436 21.8528C17.0436 21.1898 16.5061 20.6523 15.8431 20.6523C15.1801 20.6523 14.6426 21.1898 14.6426 21.8528C14.6426 22.5159 15.1801 23.0533 15.8431 23.0533Z" fill="url(#paint4_linear_694_46223)"/>
<path d="M12.6627 27.3944C12.6627 27.5869 12.5087 27.7444 12.3127 27.7444H11.7702V28.2869C11.7702 28.4794 11.6127 28.6369 11.4202 28.6369C11.2277 28.6369 11.0702 28.4794 11.0702 28.2869V27.7444H10.5277C10.3317 27.7444 10.1777 27.5869 10.1777 27.3944C10.1777 27.1984 10.3317 27.0444 10.5277 27.0444H11.0702V26.4984C11.0702 26.3059 11.2277 26.1484 11.4202 26.1484C11.6127 26.1484 11.7702 26.3059 11.7702 26.4984V27.0444H12.3127C12.5087 27.0444 12.6627 27.1984 12.6627 27.3944Z" fill="url(#paint5_linear_694_46223)"/>
<path d="M22.7709 12.0086C24.5088 11.2882 25.3336 9.29546 24.6133 7.5576C23.8929 5.81974 21.9002 4.99488 20.1623 5.71522C18.4244 6.43557 17.5996 8.42835 18.3199 10.1662C19.0403 11.9041 21.0331 12.7289 22.7709 12.0086Z" fill="url(#paint6_linear_694_46223)"/>
<path d="M25.3857 15.8216C25.0882 16.1716 25.1057 16.6826 25.4242 17.0396C27.8567 19.7486 27.2092 25.2156 27.1812 25.4466C26.8942 29.3596 24.9552 34.9281 24.1362 37.1401C23.9122 37.7456 23.3242 38.1516 22.6767 38.1516H22.5647C22.0677 38.1516 21.6092 37.9206 21.3152 37.5216C21.0177 37.1156 20.9302 36.6081 21.0807 36.1286C22.3162 32.1456 22.4667 28.4916 22.4737 27.1721C19.0787 28.9046 17.2097 35.0786 16.6987 36.9966C16.5202 37.6791 15.9007 38.1516 15.1972 38.1516C14.7352 38.1516 14.3012 37.9521 14.0037 37.6021C13.7097 37.2556 13.5837 36.8006 13.6572 36.3561C14.4167 31.7291 16.0477 28.4566 17.2832 26.5281C18.5082 24.6101 18.5712 22.1951 17.4512 20.2211C16.3627 18.3066 15.0642 15.8566 14.6617 13.9106C13.8042 9.75958 14.7562 6.39608 15.3967 4.75808C15.5367 4.39758 15.8097 4.11408 16.1667 3.96358C16.5202 3.81658 16.9087 3.81308 17.2622 3.96008C17.9482 4.24708 18.2912 5.00308 18.0602 5.71708C17.5737 7.22208 17.3427 8.69558 17.3707 10.0886C17.3882 11.1176 17.8152 12.0731 18.5642 12.7871C19.3307 13.5081 20.3282 13.8861 21.3817 13.8476C22.4842 13.8091 23.5132 13.3121 24.2027 12.4791C25.9842 10.3406 26.9292 7.89058 27.3352 6.62008C27.4612 6.22108 27.7552 5.89908 28.1367 5.73108C28.5182 5.56308 28.9557 5.57008 29.3337 5.74858C29.9427 6.03208 30.2752 6.69708 30.1387 7.35858C29.4842 10.5891 26.8802 14.0471 25.3857 15.8216Z" fill="url(#paint7_linear_694_46223)"/>
<path d="M30.2402 12.5862C30.2402 12.3937 30.3942 12.2362 30.5902 12.2362H31.1327V11.6938C31.1327 11.4978 31.2902 11.3438 31.4827 11.3438C31.6752 11.3438 31.8327 11.4978 31.8327 11.6938V12.2362H32.3752C32.5712 12.2362 32.7252 12.3937 32.7252 12.5862C32.7252 12.7787 32.5712 12.9362 32.3752 12.9362H31.8327V13.4787C31.8327 13.6747 31.6752 13.8287 31.4827 13.8287C31.2902 13.8287 31.1327 13.6747 31.1327 13.4787V12.9362H30.5902C30.3942 12.9362 30.2402 12.7787 30.2402 12.5862Z" fill="url(#paint8_linear_694_46223)"/>
<path d="M32.7637 17.5026C32.9002 17.6391 32.9002 17.8631 32.7637 17.9996C32.6972 18.0661 32.6062 18.1011 32.5152 18.1011C32.4277 18.1011 32.3367 18.0661 32.2702 17.9996L31.8852 17.6146L31.5002 17.9996C31.4337 18.0661 31.3427 18.1011 31.2517 18.1011C31.1642 18.1011 31.0732 18.0661 31.0067 17.9996C30.8702 17.8631 30.8702 17.6391 31.0067 17.5026L31.3917 17.1211L31.0067 16.7361C30.8702 16.5996 30.8702 16.3756 31.0067 16.2391C31.1432 16.1026 31.3637 16.1026 31.5002 16.2391L31.8852 16.6241L32.2702 16.2391C32.4067 16.1026 32.6272 16.1026 32.7637 16.2391C32.9002 16.3756 32.9002 16.5996 32.7637 16.7361L32.3787 17.1211L32.7637 17.5026Z" fill="url(#paint9_linear_694_46223)"/>
<defs>
<linearGradient id="paint0_linear_694_46223" x1="10.6211" y1="9.50322" x2="13.1097" y2="9.50602" gradientUnits="userSpaceOnUse">
<stop stop-color="#957DF3"/>
<stop offset="1" stop-color="#662D91"/>
</linearGradient>
<linearGradient id="paint1_linear_694_46223" x1="28.6152" y1="28.7296" x2="31.0198" y2="28.7323" gradientUnits="userSpaceOnUse">
<stop stop-color="#957DF3"/>
<stop offset="1" stop-color="#662D91"/>
</linearGradient>
<linearGradient id="paint2_linear_694_46223" x1="28.8535" y1="22.6473" x2="30.818" y2="22.6496" gradientUnits="userSpaceOnUse">
<stop stop-color="#957DF3"/>
<stop offset="1" stop-color="#662D91"/>
</linearGradient>
<linearGradient id="paint3_linear_694_46223" x1="9.13086" y1="16.0421" x2="11.5319" y2="16.0448" gradientUnits="userSpaceOnUse">
<stop stop-color="#957DF3"/>
<stop offset="1" stop-color="#662D91"/>
</linearGradient>
<linearGradient id="paint4_linear_694_46223" x1="14.6426" y1="22.0499" x2="17.0437" y2="22.0526" gradientUnits="userSpaceOnUse">
<stop stop-color="#957DF3"/>
<stop offset="1" stop-color="#662D91"/>
</linearGradient>
<linearGradient id="paint5_linear_694_46223" x1="10.1777" y1="27.597" x2="12.6628" y2="27.5998" gradientUnits="userSpaceOnUse">
<stop stop-color="#957DF3"/>
<stop offset="1" stop-color="#662D91"/>
</linearGradient>
<linearGradient id="paint6_linear_694_46223" x1="18.5341" y1="10.6828" x2="24.8306" y2="8.08122" gradientUnits="userSpaceOnUse">
<stop stop-color="#957DF3"/>
<stop offset="1" stop-color="#662D91"/>
</linearGradient>
<linearGradient id="paint7_linear_694_46223" x1="13.6367" y1="23.8172" x2="30.1697" y2="23.8262" gradientUnits="userSpaceOnUse">
<stop stop-color="#957DF3"/>
<stop offset="1" stop-color="#662D91"/>
</linearGradient>
<linearGradient id="paint8_linear_694_46223" x1="30.2402" y1="12.7902" x2="32.7253" y2="12.793" gradientUnits="userSpaceOnUse">
<stop stop-color="#957DF3"/>
<stop offset="1" stop-color="#662D91"/>
</linearGradient>
<linearGradient id="paint9_linear_694_46223" x1="30.9043" y1="17.2802" x2="32.8661" y2="17.2824" gradientUnits="userSpaceOnUse">
<stop stop-color="#957DF3"/>
<stop offset="1" stop-color="#662D91"/>
</linearGradient>
</defs>
</svg>
