<svg width="42" height="42" viewBox="0 0 42 42" fill="none" xmlns="http://www.w3.org/2000/svg">
<path d="M26.9062 21H15.0938C13.2846 21 11.8125 22.4714 11.8125 24.2812C11.8125 26.0911 13.2846 27.5625 15.0938 27.5625H26.9062C28.7161 27.5625 30.1875 26.0911 30.1875 24.2812C30.1875 22.4714 28.7161 21 26.9062 21ZM16.4062 26.25C15.3206 26.25 14.4375 25.3669 14.4375 24.2812C14.4375 23.1956 15.3206 22.3125 16.4062 22.3125C17.4919 22.3125 18.375 23.1956 18.375 24.2812C18.375 25.3669 17.4919 26.25 16.4062 26.25ZM25.5938 26.25C24.5081 26.25 23.625 25.3669 23.625 24.2812C23.625 23.1956 24.5081 22.3125 25.5938 22.3125C26.6794 22.3125 27.5625 23.1956 27.5625 24.2812C27.5625 25.3669 26.6794 26.25 25.5938 26.25ZM38.0625 22.4334V11.6916C38.8247 11.4198 39.375 10.6982 39.375 9.84375C39.375 8.75812 38.4919 7.875 37.4062 7.875C36.3206 7.875 35.4375 8.75812 35.4375 9.84375C35.4375 10.6982 35.9878 11.4198 36.75 11.6916V22.4334C36.481 22.5294 36.2372 22.6768 36.0364 22.8719C34.0355 16.4707 28.0521 11.8125 21 11.8125C13.9484 11.8125 7.96464 16.4708 5.96369 22.872C5.76286 22.6768 5.519 22.5294 5.25 22.4334V11.6916C6.01223 11.4198 6.5625 10.6982 6.5625 9.84375C6.5625 8.75812 5.67938 7.875 4.59375 7.875C3.50812 7.875 2.625 8.75812 2.625 9.84375C2.625 10.6982 3.17527 11.4198 3.9375 11.6916V22.4334C3.17527 22.7052 2.625 23.4268 2.625 24.2812V29.5312C2.625 30.6169 3.50812 31.5 4.59375 31.5C5.21163 31.5 5.75709 31.2082 6.1183 30.7616C7.24503 32.758 9.36134 34.125 11.8125 34.125H30.1875C32.6387 34.125 34.755 32.758 35.8817 30.7616C36.2429 31.2082 36.7884 31.5 37.4062 31.5C38.4919 31.5 39.375 30.6169 39.375 29.5312V24.2812C39.375 23.4268 38.8247 22.7052 38.0625 22.4334ZM26.9062 28.875H15.0938C12.561 28.875 10.5 26.814 10.5 24.2812C10.5 21.7485 12.561 19.6875 15.0938 19.6875H26.9062C29.439 19.6875 31.5 21.7485 31.5 24.2812C31.5 26.814 29.439 28.875 26.9062 28.875Z" fill="url(#paint0_linear_694_46011)"/>
<defs>
<linearGradient id="paint0_linear_694_46011" x1="2.625" y1="23.1548" x2="39.3761" y2="23.2128" gradientUnits="userSpaceOnUse">
<stop stop-color="#957DF3"/>
<stop offset="1" stop-color="#662D91"/>
</linearGradient>
</defs>
</svg>
