<svg width="42" height="42" viewBox="0 0 42 42" fill="none" xmlns="http://www.w3.org/2000/svg">
<g clip-path="url(#clip0_694_46032)">
<path d="M16.1388 15.0019C16.1582 16.9145 17.7132 18.4553 19.626 18.457H22.9999C21.7527 19.9221 21.9293 22.1209 23.3944 23.3682C24.0252 23.9052 24.8268 24.1999 25.6553 24.1992H33.8855C33.6699 25.4783 32.8477 26.5735 31.6796 27.1376L28.2614 28.7708C27.9547 28.9171 27.8246 29.2843 27.9708 29.591C28.073 29.8052 28.2891 29.9415 28.5264 29.9414H34.5557C34.7074 29.9405 34.8535 29.8835 34.9658 29.7814L36.0002 28.8414C37.48 27.4938 38.3242 25.5855 38.3258 23.584C38.3236 21.6608 36.766 20.1018 34.8428 20.0977H31.4688C32.716 18.6326 32.5394 16.4338 31.0743 15.1865C30.4435 14.6495 29.6419 14.3548 28.8135 14.3555H24.3715C25.7667 13.0147 26.556 11.1636 26.5576 9.22852C26.5553 7.30398 24.9958 5.74448 23.0713 5.74219H16.5391C17.7863 4.27711 17.6097 2.07834 16.1446 0.831059C15.5138 0.294001 14.7122 -0.000573381 13.8838 8.37916e-07H9.57714C7.85858 0.0027899 6.39736 1.25524 6.13182 2.95313C5.25302 3.20037 4.63844 3.99205 4.61671 4.90465L4.50022 9.21211C4.4912 9.55188 4.75928 9.83473 5.09905 9.84375C5.43882 9.85277 5.72167 9.5847 5.73069 9.24492L5.84717 4.93828C5.84717 4.46258 6.2328 4.07695 6.7085 4.07695C7.1842 4.07695 7.56983 4.46258 7.56983 4.93828L8.24495 29.9168C8.2543 30.2497 8.5264 30.5149 8.85936 30.5156H8.87577C9.21538 30.5063 9.48329 30.2237 9.4746 29.884L8.79538 4.90465C8.78857 4.62755 8.72664 4.35455 8.61327 4.10156H11.2276C9.9804 5.56664 10.157 7.76541 11.6221 9.01269C12.2529 9.54975 13.0545 9.84441 13.883 9.84375H22.114C21.8984 11.1229 21.0762 12.2181 19.9082 12.7821L16.4883 14.4154C16.2295 14.5629 16.1263 14.7656 16.1388 15.0019ZM7.40659 2.87109C7.68295 1.90116 8.56856 1.23178 9.57714 1.23047H13.8838C14.8924 1.23178 15.778 1.90116 16.0543 2.87109H7.40659ZM13.8871 8.61328C12.8785 8.61197 11.9929 7.94259 11.7165 6.97266H23.0713C24.0799 6.97397 24.9655 7.64334 25.2418 8.61328H13.8871ZM19.6292 17.2266C18.6207 17.2253 17.7351 16.5559 17.4587 15.5859H28.8135C29.822 15.5873 30.7076 16.2566 30.984 17.2266H19.6292ZM25.6585 22.9688C24.65 22.9674 23.7644 22.2981 23.488 21.3281H34.8428C35.8513 21.3294 36.7369 21.9988 37.0133 22.9688H25.6585Z" fill="url(#paint0_linear_694_46032)"/>
<path d="M8.93302 32.1643H5.11037L5.65259 12.124C5.66162 11.7843 5.39354 11.5014 5.05377 11.4924C4.71399 11.4834 4.43115 11.7515 4.42213 12.0912L3.69615 38.9155C3.65735 40.5777 4.97338 41.9567 6.63557 41.9955C8.29777 42.0343 9.6768 40.7183 9.7156 39.0561C9.71667 39.0092 9.71667 38.9624 9.7156 38.9155L9.54908 32.7541C9.54908 32.3977 9.27657 32.1643 8.93302 32.1643Z" fill="url(#paint1_linear_694_46032)"/>
</g>
<defs>
<linearGradient id="paint0_linear_694_46032" x1="4.5" y1="17.7628" x2="38.3269" y2="17.805" gradientUnits="userSpaceOnUse">
<stop stop-color="#957DF3"/>
<stop offset="1" stop-color="#662D91"/>
</linearGradient>
<linearGradient id="paint1_linear_694_46032" x1="3.69531" y1="29.2483" x2="9.7166" y2="29.2497" gradientUnits="userSpaceOnUse">
<stop stop-color="#957DF3"/>
<stop offset="1" stop-color="#662D91"/>
</linearGradient>
<clipPath id="clip0_694_46032">
<rect width="42" height="42" fill="white"/>
</clipPath>
</defs>
</svg>
