<svg width="19" height="42" viewBox="0 0 19 42" fill="none" xmlns="http://www.w3.org/2000/svg">
<path d="M18.4175 17.0954C19.0428 15.9841 19.1668 14.7965 18.776 13.6621C18.3704 12.4838 17.5293 11.5984 16.3427 11.1014L15.6515 10.812C14.4463 10.307 13.18 10.324 11.9898 10.8607C10.7866 11.4033 9.96277 12.3393 9.60718 13.5676L5.10605 29.1153C4.65055 30.689 4.84189 32.2096 5.67453 33.6349L9.74204 40.5967C10.255 41.4745 11.1768 41.9987 12.2079 41.9987H15.1352C16.0436 41.9987 16.8472 41.6078 17.3974 40.8983C17.9368 40.2023 18.1079 39.3444 17.8793 38.483L15.2554 28.5952C14.5419 25.9063 14.9001 23.3459 16.3506 20.7681L18.4175 17.0954Z" fill="url(#paint0_linear_694_45843)"/>
<path d="M0.160552 4.16406C-0.034056 7.39902 -0.0516883 10.6327 0.107329 13.6738L10.5097 6.57418L0.160552 4.16406Z" fill="url(#paint1_linear_694_45843)"/>
<path d="M7.19628 12.9012C7.34975 12.3712 7.56493 11.8732 7.83203 11.4102L0.3125 16.5009C0.335683 16.7492 0.359846 16.9956 0.385641 17.2398L5.54995 18.5883L7.19628 12.9012Z" fill="url(#paint2_linear_694_45843)"/>
<path d="M13.0609 1.34237C13.0926 0.998208 12.9753 0.656606 12.738 0.401206C12.5002 0.145806 12.1643 0.000320452 11.8119 0.000320452L1.6443 0C0.997125 0 0.456074 0.483562 0.395667 1.11613C0.377709 1.3052 0.360403 1.49427 0.34375 1.68365L12.785 4.56676C12.8735 3.46088 12.9649 2.37647 13.0609 1.34237Z" fill="url(#paint3_linear_694_45843)"/>
<path d="M2.78923 28.1211L4.86462 20.9513L0.722656 19.8672C1.1922 22.9573 1.88247 25.7138 2.78923 28.1211Z" fill="url(#paint4_linear_694_45843)"/>
<defs>
<linearGradient id="paint0_linear_694_45843" x1="4.86523" y1="28.8122" x2="18.9997" y2="28.8193" gradientUnits="userSpaceOnUse">
<stop stop-color="#957DF3"/>
<stop offset="1" stop-color="#662D91"/>
</linearGradient>
<linearGradient id="paint1_linear_694_45843" x1="-5.59927e-08" y1="9.69958" x2="10.5101" y2="9.71265" gradientUnits="userSpaceOnUse">
<stop stop-color="#957DF3"/>
<stop offset="1" stop-color="#662D91"/>
</linearGradient>
<linearGradient id="paint2_linear_694_45843" x1="0.3125" y1="15.5885" x2="7.83227" y2="15.5973" gradientUnits="userSpaceOnUse">
<stop stop-color="#957DF3"/>
<stop offset="1" stop-color="#662D91"/>
</linearGradient>
<linearGradient id="paint3_linear_694_45843" x1="0.34375" y1="2.65826" x2="13.0663" y2="2.69816" gradientUnits="userSpaceOnUse">
<stop stop-color="#957DF3"/>
<stop offset="1" stop-color="#662D91"/>
</linearGradient>
<linearGradient id="paint4_linear_694_45843" x1="0.722656" y1="24.6717" x2="4.86475" y2="24.674" gradientUnits="userSpaceOnUse">
<stop stop-color="#957DF3"/>
<stop offset="1" stop-color="#662D91"/>
</linearGradient>
</defs>
</svg>
