<svg width="42" height="42" viewBox="0 0 42 42" fill="none" xmlns="http://www.w3.org/2000/svg">
<path d="M34.125 2.625H10.5C9.62985 2.62531 8.79544 2.97112 8.18015 3.5864C7.56487 4.20169 7.21906 5.0361 7.21875 5.90625V36.0938C7.21906 36.9639 7.56487 37.7983 8.18015 38.4136C8.79544 39.0289 9.62985 39.3747 10.5 39.375H34.125C34.2989 39.3745 34.4655 39.3052 34.5885 39.1822C34.7114 39.0593 34.7807 38.8926 34.7812 38.7188V3.28125C34.7807 3.10736 34.7114 2.94074 34.5885 2.81778C34.4655 2.69483 34.2989 2.62552 34.125 2.625ZM16.6556 12.7969C16.6561 12.623 16.7255 12.4564 16.8484 12.3334C16.9714 12.2105 17.138 12.1411 17.3119 12.1406H20.7506C21.969 12.1406 23.1374 12.6246 23.9989 13.4861C24.8604 14.3476 25.3444 15.516 25.3444 16.7344C25.3444 17.9527 24.8604 19.1212 23.9989 19.9826C23.1374 20.8441 21.969 21.3281 20.7506 21.3281H17.3119C17.138 21.3276 16.9714 21.2583 16.8484 21.1353C16.7255 21.0124 16.6561 20.8458 16.6556 20.6719V12.7969ZM15.75 23.2969H26.25C26.424 23.2969 26.591 23.366 26.714 23.4891C26.8371 23.6122 26.9062 23.7791 26.9062 23.9531C26.9062 24.1272 26.8371 24.2941 26.714 24.4172C26.591 24.5402 26.424 24.6094 26.25 24.6094H15.75C15.576 24.6094 15.409 24.5402 15.286 24.4172C15.1629 24.2941 15.0938 24.1272 15.0938 23.9531C15.0938 23.7791 15.1629 23.6122 15.286 23.4891C15.409 23.366 15.576 23.2969 15.75 23.2969ZM33.4688 38.0625H10.5C9.97785 38.0625 9.4771 37.8551 9.10788 37.4859C8.73867 37.1167 8.53125 36.6159 8.53125 36.0938C8.53125 35.5716 8.73867 35.0708 9.10788 34.7016C9.4771 34.3324 9.97785 34.125 10.5 34.125H33.4688V38.0625Z" fill="url(#paint0_linear_694_45891)"/>
<path d="M24.0325 16.7344C24.0311 17.6042 23.6849 18.4379 23.0699 19.053C22.4548 19.668 21.6211 20.0142 20.7513 20.0156H17.9688V13.4531H20.7513C21.6211 13.4546 22.4548 13.8007 23.0699 14.4158C23.6849 15.0308 24.0311 15.8646 24.0325 16.7344Z" fill="url(#paint1_linear_694_45891)"/>
<defs>
<linearGradient id="paint0_linear_694_45891" x1="7.21875" y1="24.0168" x2="34.7822" y2="24.0401" gradientUnits="userSpaceOnUse">
<stop stop-color="#957DF3"/>
<stop offset="1" stop-color="#662D91"/>
</linearGradient>
<linearGradient id="paint1_linear_694_45891" x1="17.9687" y1="17.2731" x2="24.0327" y2="17.2794" gradientUnits="userSpaceOnUse">
<stop stop-color="#957DF3"/>
<stop offset="1" stop-color="#662D91"/>
</linearGradient>
</defs>
</svg>
