<svg width="44" height="44" viewBox="0 0 44 44" fill="none" xmlns="http://www.w3.org/2000/svg">
<path d="M31.2389 4.57837L31.3153 4.502C32.2351 3.58225 33.8406 3.58225 34.7619 4.502L37.0597 6.80056C37.4479 7.19023 37.6928 7.69974 37.7548 8.24626C37.8167 8.79279 37.692 9.3442 37.4009 9.81087C35.6862 7.70258 33.5973 5.92873 31.2389 4.57837ZM9.59963 4.52719L9.57444 4.502C8.65306 3.58225 7.04756 3.58225 6.12781 4.502L3.82844 6.80137C3.45635 7.17676 3.21651 7.66303 3.14513 8.18674C3.07375 8.71045 3.1747 9.24316 3.43275 9.70444C5.15389 7.61551 7.24423 5.86062 9.59963 4.52719ZM24.3936 2.06287C24.2914 1.50222 23.996 0.995095 23.5587 0.629644C23.1214 0.264193 22.5699 0.0635193 22 0.0625H18.75C18.1801 0.0635193 17.6286 0.264193 17.1913 0.629644C16.754 0.995095 16.4586 1.50222 16.3564 2.06287C17.6613 1.82075 19.0019 1.6875 20.375 1.6875C21.7481 1.6875 23.0896 1.82075 24.3936 2.06287ZM12.25 18.75H11.4375V22H12.25V18.75ZM20.375 41.5C10.5194 41.5 2.5 33.4806 2.5 23.625C2.5 13.7694 10.5194 5.75 20.375 5.75C30.2306 5.75 38.25 13.7694 38.25 23.625C38.25 24.5448 38.1801 25.4483 38.0452 26.3306C38.8626 26.5232 39.6426 26.8132 40.3666 27.1976C40.5737 26.0365 40.6875 24.8446 40.6875 23.625C40.6875 12.4247 31.5753 3.3125 20.375 3.3125C9.17469 3.3125 0.0625 12.4247 0.0625 23.625C0.0625 34.8253 9.17469 43.9375 20.375 43.9375C23.2594 43.9375 26.0032 43.3289 28.4902 42.241C27.9418 41.6166 27.4756 40.9244 27.1033 40.1813C24.9674 41.0534 22.6821 41.5013 20.375 41.5ZM17.125 18.75H16.3125V22H17.125V18.75ZM10.625 29.3125C10.4158 29.3219 10.2183 29.4115 10.0735 29.5629C9.92881 29.7142 9.84803 29.9156 9.84803 30.125C9.84803 30.3344 9.92881 30.5358 10.0735 30.6871C10.2183 30.8385 10.4158 30.9281 10.625 30.9375H12.25C12.4592 30.9281 12.6567 30.8385 12.8015 30.6871C12.9462 30.5358 13.027 30.3344 13.027 30.125C13.027 29.9156 12.9462 29.7142 12.8015 29.5629C12.6567 29.4115 12.4592 29.3219 12.25 29.3125H10.625ZM29.3125 18.75H28.5V22H29.3125V18.75ZM9 24.4375V16.3125H31.75V24.4375H9ZM26.875 22.8125C26.875 23.028 26.9606 23.2347 27.113 23.387C27.2653 23.5394 27.472 23.625 27.6875 23.625H30.125C30.3405 23.625 30.5472 23.5394 30.6995 23.387C30.8519 23.2347 30.9375 23.028 30.9375 22.8125V17.9375C30.9375 17.722 30.8519 17.5153 30.6995 17.363C30.5472 17.2106 30.3405 17.125 30.125 17.125H27.6875C27.472 17.125 27.2653 17.2106 27.113 17.363C26.9606 17.5153 26.875 17.722 26.875 17.9375V22.8125ZM22 22.8125C22 23.028 22.0856 23.2347 22.238 23.387C22.3903 23.5394 22.597 23.625 22.8125 23.625H25.25C25.4655 23.625 25.6722 23.5394 25.8245 23.387C25.9769 23.2347 26.0625 23.028 26.0625 22.8125V17.9375C26.0625 17.722 25.9769 17.5153 25.8245 17.363C25.6722 17.2106 25.4655 17.125 25.25 17.125H22.8125C22.597 17.125 22.3903 17.2106 22.238 17.363C22.0856 17.5153 22 17.722 22 17.9375V22.8125ZM19.5625 18.75C19.5625 18.9655 19.6481 19.1722 19.8005 19.3245C19.9528 19.4769 20.1595 19.5625 20.375 19.5625C20.5905 19.5625 20.7972 19.4769 20.9495 19.3245C21.1019 19.1722 21.1875 18.9655 21.1875 18.75C21.1875 18.5345 21.1019 18.3278 20.9495 18.1755C20.7972 18.0231 20.5905 17.9375 20.375 17.9375C20.1595 17.9375 19.9528 18.0231 19.8005 18.1755C19.6481 18.3278 19.5625 18.5345 19.5625 18.75ZM19.5625 21.1875C19.5625 21.403 19.6481 21.6097 19.8005 21.762C19.9528 21.9144 20.1595 22 20.375 22C20.5905 22 20.7972 21.9144 20.9495 21.762C21.1019 21.6097 21.1875 21.403 21.1875 21.1875C21.1875 20.972 21.1019 20.7653 20.9495 20.613C20.7972 20.4606 20.5905 20.375 20.375 20.375C20.1595 20.375 19.9528 20.4606 19.8005 20.613C19.6481 20.7653 19.5625 20.972 19.5625 21.1875ZM14.6875 22.8125C14.6875 23.028 14.7731 23.2347 14.9255 23.387C15.0778 23.5394 15.2845 23.625 15.5 23.625H17.9375C18.153 23.625 18.3597 23.5394 18.512 23.387C18.6644 23.2347 18.75 23.028 18.75 22.8125V17.9375C18.75 17.722 18.6644 17.5153 18.512 17.363C18.3597 17.2106 18.153 17.125 17.9375 17.125H15.5C15.2845 17.125 15.0778 17.2106 14.9255 17.363C14.7731 17.5153 14.6875 17.722 14.6875 17.9375V22.8125ZM9.8125 22.8125C9.8125 23.028 9.8981 23.2347 10.0505 23.387C10.2028 23.5394 10.4095 23.625 10.625 23.625H13.0625C13.278 23.625 13.4847 23.5394 13.637 23.387C13.7894 23.2347 13.875 23.028 13.875 22.8125V17.9375C13.875 17.722 13.7894 17.5153 13.637 17.363C13.4847 17.2106 13.278 17.125 13.0625 17.125H10.625C10.4095 17.125 10.2028 17.2106 10.0505 17.363C9.8981 17.5153 9.8125 17.722 9.8125 17.9375V22.8125ZM24.4375 18.75H23.625V22H24.4375V18.75ZM32.5625 26.0625H35.8125C36.0164 26.0625 36.2163 26.0804 36.417 26.0934C36.5413 25.2857 36.625 24.4659 36.625 23.625C36.625 14.6648 29.3353 7.375 20.375 7.375C11.4148 7.375 4.125 14.6648 4.125 23.625C4.125 32.5853 11.4148 39.875 20.375 39.875C22.1682 39.875 23.8891 39.5719 25.5035 39.0324L15.3749 34.8131C14.9302 34.6285 14.5503 34.3161 14.2833 33.9155C14.0163 33.5148 13.8742 33.044 13.875 32.5625V31.9288C13.4427 32.3188 12.8764 32.5625 12.25 32.5625H10.625C9.28113 32.5625 8.1875 31.4689 8.1875 30.125C8.1875 28.7811 9.28113 27.6875 10.625 27.6875H12.25C12.8837 27.6875 13.4574 27.9369 13.8913 28.3351C13.932 27.7201 14.2046 27.1434 14.654 26.7216C15.1034 26.2998 15.6961 26.0642 16.3125 26.0625H8.1875C7.97201 26.0625 7.76535 25.9769 7.61298 25.8245C7.4606 25.6722 7.375 25.4655 7.375 25.25V15.5C7.375 15.2845 7.4606 15.0778 7.61298 14.9255C7.76535 14.7731 7.97201 14.6875 8.1875 14.6875H32.5625C32.778 14.6875 32.9847 14.7731 33.137 14.9255C33.2894 15.0778 33.375 15.2845 33.375 15.5V25.25C33.375 25.4655 33.2894 25.6722 33.137 25.8245C32.9847 25.9769 32.778 26.0625 32.5625 26.0625ZM35.8125 32.5625C34.0201 32.5625 32.5625 34.0201 32.5625 35.8125C32.5625 37.6049 34.0201 39.0625 35.8125 39.0625C37.6049 39.0625 39.0625 37.6049 39.0625 35.8125C39.0625 34.0201 37.6049 32.5625 35.8125 32.5625ZM43.9375 35.8125C43.9375 40.2926 40.2926 43.9375 35.8125 43.9375C32.3058 43.9375 29.1906 41.6625 28.1019 38.3556L15.9997 33.3124C15.8517 33.2507 15.7253 33.1465 15.6363 33.0131C15.5474 32.8796 15.5 32.7229 15.5 32.5625V28.5C15.5 28.2845 15.5856 28.0778 15.738 27.9255C15.8903 27.7731 16.097 27.6875 16.3125 27.6875H27.6875C27.903 27.6875 28.1097 27.7731 28.262 27.9255C28.4144 28.0778 28.5 28.2845 28.5 28.5V30.125H30.125V28.5C30.125 28.2845 30.2106 28.0778 30.363 27.9255C30.5153 27.7731 30.722 27.6875 30.9375 27.6875H35.8125C40.2926 27.6875 43.9375 31.3324 43.9375 35.8125ZM40.6875 35.8125C40.6875 33.1239 38.5011 30.9375 35.8125 30.9375C33.1239 30.9375 30.9375 33.1239 30.9375 35.8125C30.9375 38.5011 33.1239 40.6875 35.8125 40.6875C38.5011 40.6875 40.6875 38.5011 40.6875 35.8125Z" fill="url(#paint0_linear_694_44546)"/>
<defs>
<linearGradient id="paint0_linear_694_44546" x1="0.0624998" y1="25.6017" x2="43.9389" y2="25.6511" gradientUnits="userSpaceOnUse">
<stop stop-color="#957DF3"/>
<stop offset="1" stop-color="#662D91"/>
</linearGradient>
</defs>
</svg>
