<svg width="42" height="50" viewBox="0 0 42 50" fill="none" xmlns="http://www.w3.org/2000/svg">
<path d="M26.7032 4.15314L22.0308 12.0373C21.9834 12.1137 21.8932 12.1627 21.8091 12.1214C21.7659 12.1115 21.7282 12.0852 21.704 12.0482C21.6798 12.0111 21.6708 11.9661 21.6791 11.9226L22.3826 5.5602L20.0808 6.11079C20.047 6.11877 20.0116 6.11754 19.9783 6.10723C19.9451 6.09692 19.9152 6.07791 19.8918 6.05216C19.8684 6.02641 19.8523 5.99487 19.8452 5.9608C19.8381 5.92674 19.8403 5.8914 19.8514 5.85844L21.8855 0.52079C21.9161 0.44432 21.9849 0.398438 22.0614 0.398438H25.3879C25.5102 0.398438 25.6074 0.517732 25.5714 0.643143L24.5085 4.02314L26.5273 3.86256C26.6688 3.84726 26.7896 4.0155 26.7032 4.15314ZM8.25847 3.51079L7.95259 12.672C7.95259 12.7637 7.88377 12.8402 7.792 12.8555H7.76141C7.68494 12.8555 7.61612 12.8096 7.58553 12.7408L5.14612 6.81432L3.3873 8.40491C3.34142 8.45844 3.26495 8.47373 3.19612 8.45079C3.16277 8.43811 3.13364 8.41634 3.11202 8.38796C3.0904 8.35959 3.07715 8.32572 3.07377 8.2902L2.28612 2.63903C2.27847 2.56256 2.31671 2.47844 2.38553 2.4402L5.29906 0.849614C5.35259 0.819026 5.42142 0.819026 5.47494 0.841967C5.52847 0.864908 5.56671 0.918437 5.582 0.979614L6.27024 4.45138L7.96789 3.34256C8.02906 3.30432 8.10553 3.29667 8.16671 3.33491C8.22789 3.3655 8.26612 3.43432 8.25847 3.51079ZM41.7526 5.0555L39.3361 7.6402L41.2249 8.36667C41.2938 8.39726 41.3396 8.45844 41.3473 8.52726C41.3549 8.59609 41.3244 8.66491 41.2632 8.71079L33.6391 13.8037C33.6029 13.8276 33.5596 13.8383 33.5165 13.8341C33.4734 13.8299 33.4329 13.8111 33.402 13.7808C33.3698 13.7512 33.3491 13.7112 33.3435 13.6678C33.3379 13.6245 33.3478 13.5805 33.3714 13.5437L36.7514 8.10667L34.442 7.60961C34.3655 7.59432 34.312 7.54844 34.2967 7.47961C34.2738 7.41079 34.2967 7.33432 34.3502 7.28844L38.4796 3.3502C38.5408 3.29667 38.6249 3.28138 38.6938 3.31961L41.6914 4.74961C41.7449 4.7802 41.7908 4.82609 41.7985 4.88726C41.8061 4.94844 41.7908 5.00961 41.7526 5.0555Z" fill="url(#paint0_linear_694_44529)"/>
<path d="M36.7745 23.6603C35.398 17.5809 30.2057 12.4727 24.0498 10.8744L23.0175 12.618C22.1946 13.9348 20.3158 13.1257 20.5475 11.7309L20.7004 10.3621C15.5692 10.1403 10.1475 12.4574 5.8957 18.6285C5.8957 18.6285 3.75452 22.1233 3.53276 27.3844C3.50981 27.9962 3.31099 28.585 2.98981 29.0974L0.443344 33.2421C-0.22195 34.3203 0.550403 35.7121 1.81982 35.7121H2.94393C3.39511 35.7121 3.76217 36.0791 3.76217 36.5303V39.0462H6.34687C6.66805 39.0462 6.9204 39.2985 6.9204 39.6197C6.9204 39.9333 6.66805 40.1933 6.34687 40.1933H3.76217V42.1203C3.76217 43.2291 4.65687 44.1238 5.7657 44.1238H9.29864C9.84158 44.1238 10.2775 44.5597 10.2775 45.095V48.4368C10.2775 49.0791 10.7975 49.5991 11.4398 49.5991H24.4169C24.9904 49.5991 25.4722 49.1862 25.5716 48.6203C26.0151 46.1656 27.2539 42.6556 30.6569 40.2927C30.6569 40.2927 39.0916 33.8997 36.7745 23.6603ZM30.9016 26.4209C31.2763 27.0785 31.4675 27.8203 31.4675 28.5927C31.4675 30.5656 30.1445 32.3244 28.2481 32.8674L29.1428 34.328C29.8845 35.5668 29.3722 37.1803 28.0416 37.7538C26.9633 38.2127 25.7169 37.8303 25.0898 36.8286L23.3004 33.9762C23.2698 33.9303 23.2086 33.9074 23.1398 33.9074C22.3292 33.9074 21.5569 33.6933 20.8763 33.288C20.4027 33.6913 19.8498 33.9908 19.2534 34.1673C18.6569 34.3438 18.03 34.3933 17.4132 34.3126C16.7965 34.2319 16.2034 34.0228 15.6724 33.6988C15.1415 33.3748 14.6843 32.9431 14.3304 32.4315C13.8678 32.8412 13.325 33.15 12.7365 33.3383C12.1479 33.5266 11.5266 33.5902 10.9122 33.525C8.87805 33.3185 7.21099 31.6974 6.95864 29.6709C6.82864 28.6309 7.0504 27.6138 7.59335 26.7421C6.33923 24.8074 6.87452 22.1615 8.90864 20.9074C8.90099 20.8921 8.90099 20.8844 8.90099 20.8691C8.89334 18.2309 11.4475 16.0591 14.208 16.8238C14.8886 15.3709 16.3492 14.4303 17.9933 14.4303C19.3622 14.4303 20.6163 15.088 21.3963 16.1815C22.0922 15.7533 22.8951 15.5238 23.7286 15.5238C25.6328 15.5238 27.3304 16.7627 27.9345 18.5291C30.4198 18.4374 32.5304 20.4715 32.5304 22.9797C32.5304 24.3333 31.9339 25.5797 30.9016 26.4209Z" fill="url(#paint1_linear_694_44529)"/>
<path d="M28.0814 19.6731C27.9178 19.6731 27.7534 19.6861 27.5958 19.7091C27.452 19.7306 27.3054 19.6966 27.1858 19.6139C27.0662 19.5313 26.9826 19.4062 26.9519 19.264C26.6246 17.7621 25.2673 16.6724 23.7249 16.6724C23.0795 16.6724 22.4555 16.8713 21.9225 17.2207C22.2016 18.0267 22.6054 19.6785 21.5929 20.5159C21.4748 20.6039 21.3274 20.6432 21.1811 20.6256C21.0349 20.608 20.901 20.5349 20.8071 20.4214C20.7132 20.3079 20.6666 20.1626 20.6767 20.0157C20.6869 19.8687 20.7532 19.7313 20.8618 19.6319C21.5424 19.069 20.8481 15.5781 17.9926 15.5781C17.3432 15.5755 16.7101 15.782 16.187 16.1671C15.664 16.5521 15.2787 17.0953 15.0883 17.7163C15.0645 17.7935 15.0247 17.8649 14.9713 17.9256C14.918 17.9864 14.8524 18.0351 14.7788 18.0686C14.7052 18.1021 14.6254 18.1197 14.5446 18.1201C14.4637 18.1206 14.3837 18.1038 14.3098 18.0711C12.4837 17.2704 10.4435 18.429 10.1009 20.3346C11.0774 19.9676 12.6917 19.5974 14.1049 20.3958C14.1705 20.4329 14.2281 20.4825 14.2745 20.5418C14.3209 20.6011 14.3552 20.669 14.3753 20.7416C14.3955 20.8142 14.4012 20.89 14.392 20.9648C14.3829 21.0395 14.3591 21.1118 14.3221 21.1773C14.285 21.2429 14.2354 21.3005 14.1761 21.3469C14.1167 21.3933 14.0488 21.4276 13.9763 21.4478C13.9037 21.4679 13.8279 21.4736 13.7531 21.4645C13.6783 21.4553 13.6061 21.4316 13.5405 21.3945C11.2908 20.1236 6.79047 22.5546 8.38488 25.8C9.27959 25.0016 10.8503 24.2675 12.7475 25.1416C12.8857 25.2051 12.993 25.321 13.0458 25.4637C13.0986 25.6064 13.0925 25.7642 13.0289 25.9024C12.9654 26.0407 12.8495 26.148 12.7068 26.2007C12.5641 26.2535 12.4063 26.2474 12.2681 26.1839C10.0259 25.1507 7.80064 27.1726 8.09659 29.5294C8.28547 31.0329 9.51894 32.2334 11.0277 32.3856C11.5888 32.4453 12.1558 32.36 12.6745 32.1379C13.1932 31.9157 13.6462 31.5642 13.9902 31.117C14.051 31.0383 14.1312 30.9767 14.2229 30.9383C14.3147 30.9 14.4148 30.8861 14.5135 30.8982C14.6122 30.9102 14.7061 30.9477 14.786 31.007C14.8658 31.0662 14.9289 31.1453 14.969 31.2363C15.2276 31.8226 15.6511 32.3211 16.1879 32.671C16.7248 33.0209 17.3518 33.2071 17.9926 33.2069C18.8721 33.2069 19.7155 32.8444 20.3304 32.2212C21.2748 29.9906 20.208 28.634 20.1621 28.5766C20.0663 28.4592 20.0207 28.3086 20.0351 28.1578C20.0496 28.0069 20.123 27.8678 20.2394 27.7706C20.3552 27.6736 20.5048 27.6265 20.6554 27.6397C20.8059 27.6529 20.9451 27.7253 21.0423 27.841C21.105 27.9151 22.4991 29.6227 21.5202 32.3283C22.0131 32.6096 22.5708 32.7577 23.1384 32.758C23.6071 32.758 24.0292 32.9874 24.2709 33.3698L26.0634 36.2183C26.2393 36.4866 26.513 36.6756 26.8261 36.7453C27.1393 36.815 27.4673 36.7599 27.7404 36.5917C28.0136 36.4234 28.2104 36.1553 28.2891 35.8443C28.3677 35.5333 28.322 35.2038 28.1617 34.926L27.2769 33.46C26.8877 32.8161 27.2104 31.9727 27.9315 31.7662C28.6188 31.566 29.2228 31.1487 29.6532 30.5766C30.0835 30.0046 30.3171 29.3085 30.3189 28.5927C30.3189 28.0887 30.2019 27.6047 29.9878 27.1627C29.5879 27.4204 28.9784 27.6659 28.086 27.6659C27.4658 27.6659 26.7103 27.5473 25.7995 27.2315C25.6601 27.1786 25.5468 27.0734 25.4836 26.9383C25.4204 26.8032 25.4123 26.6488 25.4611 26.5079C25.5098 26.3669 25.6115 26.2505 25.7447 26.1833C25.8778 26.1161 26.0319 26.1034 26.1742 26.1479C29.0786 27.1527 31.3849 25.267 31.3849 22.9782C31.3843 22.1021 31.0361 21.262 30.4168 20.6424C29.7974 20.0227 28.9575 19.6742 28.0814 19.6731ZM16.6468 29.7657C14.7625 29.9929 13.5879 28.7028 13.4579 27.1428C13.4476 26.9929 13.4966 26.845 13.5942 26.7308C13.6918 26.6166 13.8304 26.5453 13.98 26.5322C14.1297 26.519 14.2785 26.5652 14.3945 26.6606C14.5105 26.7561 14.5845 26.8932 14.6004 27.0426C14.6876 28.0711 15.3697 28.7655 16.5068 28.6271C16.6579 28.6085 16.8102 28.6508 16.9302 28.7445C17.0501 28.8382 17.1279 28.9757 17.1465 29.1268C17.1651 29.2779 17.1228 29.4302 17.0291 29.5502C16.9354 29.6701 16.7979 29.7472 16.6468 29.7657ZM18.8369 25.5438C18.7812 25.6855 18.6715 25.7992 18.532 25.86C18.3925 25.9208 18.2345 25.9237 18.0928 25.868C17.9512 25.8124 17.8374 25.7027 17.7766 25.5632C17.7158 25.4236 17.7129 25.2656 17.7686 25.124C18.1984 24.0312 17.5116 23.2611 16.4556 22.7511C15.6465 23.6274 14.5874 23.8569 13.4289 23.6374C13.2794 23.609 13.1473 23.5224 13.0617 23.3966C12.9761 23.2708 12.944 23.1162 12.9724 22.9667C13.0007 22.8173 13.0874 22.6852 13.2131 22.5996C13.3389 22.514 13.4935 22.4818 13.643 22.5102C15.4217 22.8467 16.3394 21.513 16.4571 19.8314C16.467 19.6796 16.5367 19.538 16.651 19.4376C16.7653 19.3372 16.9148 19.2863 17.0666 19.2961C17.2184 19.306 17.3601 19.3757 17.4605 19.49C17.5608 19.6043 17.6117 19.7538 17.6019 19.9056C17.5413 20.557 17.3699 21.1932 17.0949 21.7868C18.6251 22.5882 19.4754 23.9173 18.8369 25.5438ZM26.3027 31.1766C26.3188 31.2507 26.32 31.3272 26.3063 31.4018C26.2926 31.4763 26.2642 31.5475 26.2229 31.611C26.1815 31.6745 26.128 31.7292 26.0654 31.7719C26.0028 31.8147 25.9323 31.8445 25.8581 31.8599C25.7838 31.8752 25.7073 31.8756 25.6329 31.8612C25.5584 31.8467 25.4876 31.8177 25.4245 31.7757C25.3614 31.7337 25.3072 31.6796 25.2652 31.6165C25.2231 31.5535 25.1939 31.4827 25.1794 31.4083C24.7695 29.4239 23.0718 30.0762 23.1483 30.1037C23.0067 30.1544 22.8509 30.1474 22.7144 30.0844C22.5779 30.0213 22.4717 29.9071 22.4185 29.7664C22.3654 29.6258 22.3696 29.4698 22.4303 29.3323C22.491 29.1947 22.6033 29.0865 22.743 29.0309C24.2931 28.4619 25.8844 29.1471 26.3027 31.1766ZM23.9856 23.6397C23.8356 23.6646 23.6817 23.6289 23.558 23.5404C23.4342 23.452 23.3507 23.3179 23.3257 23.1679C23.3008 23.0178 23.3365 22.8639 23.4249 22.7402C23.5134 22.6164 23.6474 22.5329 23.7975 22.5079C24.7588 22.3473 24.992 21.471 24.81 20.6038C24.7815 20.4565 24.8118 20.3039 24.8945 20.1787C24.9771 20.0535 25.1056 19.9657 25.2522 19.9341C25.3989 19.9025 25.5521 19.9296 25.679 20.0096C25.8059 20.0896 25.8964 20.2162 25.9311 20.3621C26.2645 21.8939 25.6045 23.369 23.9856 23.6397Z" fill="url(#paint2_linear_694_44529)"/>
<defs>
<linearGradient id="paint0_linear_694_44529" x1="2.28516" y1="8.21972" x2="41.8013" y2="8.35055" gradientUnits="userSpaceOnUse">
<stop stop-color="#957DF3"/>
<stop offset="1" stop-color="#662D91"/>
</linearGradient>
<linearGradient id="paint1_linear_694_44529" x1="0.199219" y1="33.1955" x2="37.1786" y2="33.2347" gradientUnits="userSpaceOnUse">
<stop stop-color="#957DF3"/>
<stop offset="1" stop-color="#662D91"/>
</linearGradient>
<linearGradient id="paint2_linear_694_44529" x1="8.05029" y1="27.9165" x2="31.3857" y2="27.9454" gradientUnits="userSpaceOnUse">
<stop stop-color="#957DF3"/>
<stop offset="1" stop-color="#662D91"/>
</linearGradient>
</defs>
</svg>
