<svg width="32" height="52" viewBox="0 0 32 52" fill="none" xmlns="http://www.w3.org/2000/svg">
<path d="M29.7229 20.643C28.7091 20.6631 27.8983 21.4984 27.8471 22.511L27.8445 22.5606V31.1678C27.8445 32.0107 27.1602 32.6906 26.3173 32.6913C23.378 32.6933 20.9848 35.0748 20.9639 38.0099C20.9581 38.818 20.3489 39.5162 19.5425 39.5688C18.6548 39.6267 17.9169 38.9238 17.9169 38.0487C17.9169 33.9347 20.8884 30.5016 24.7977 29.7827V5.42955C24.7977 4.36162 23.9629 3.46929 22.9368 3.44055C22.414 3.42511 21.9188 3.61879 21.5444 3.98299C21.1713 4.34588 20.9655 4.83195 20.9641 5.35205L20.9644 5.35754V19.0761C20.9644 19.8964 20.334 20.6023 19.5146 20.6409C18.6397 20.6821 17.9175 19.985 17.9175 19.1192L17.917 5.35754V1.98851C17.917 0.920578 17.082 0.0288596 16.0559 0.000726768C15.5336 -0.0133904 15.0398 0.178563 14.6657 0.541242C14.2825 0.912656 14.083 1.43489 14.083 1.9686V19.0762C14.083 19.8965 13.4526 20.6024 12.6332 20.641C11.7583 20.6822 11.0361 19.9851 11.0361 19.1193V5.40507C11.0361 4.3669 10.2306 3.48127 9.19318 3.44166C8.1026 3.40002 7.20215 4.2757 7.20215 5.35774L7.20266 12.2386V22.5167C7.20266 23.337 6.57226 24.0429 5.75285 24.0815C4.87799 24.1227 4.15578 23.4256 4.15578 22.5598V12.2483C4.15578 12.2449 4.15527 12.2417 4.15527 12.2384C4.15527 11.716 3.949 11.2277 3.57444 10.8635C3.20038 10.4999 2.70608 10.3092 2.18364 10.3226C1.15664 10.3514 0.321289 11.2436 0.321289 12.3115L0.325961 33.8184C0.326593 36.6722 0.89511 39.4974 1.99839 42.1294L3.6433 46.0535C3.72147 46.24 3.76173 46.4403 3.76172 46.6425V50.4766C3.76172 51.3179 4.44381 52 5.28516 52H23.2686C24.11 52 24.7921 51.3179 24.7921 50.4766V46.6425C24.7921 46.2382 24.9527 45.8505 25.2387 45.5648L29.3941 41.4129C30.8672 39.941 31.6786 37.9834 31.6786 35.9008V22.5597C31.6785 21.4897 30.7976 20.6218 29.7229 20.643ZM5.67922 30.9639C4.82518 30.9639 4.19275 30.2658 4.15578 29.4404C4.11891 28.6177 4.88236 27.917 5.67922 27.917C6.53326 27.917 7.16569 28.615 7.20266 29.4404C7.23952 30.2632 6.47608 30.9639 5.67922 30.9639ZM9.11904 44.7256C8.265 44.7256 7.63257 44.0276 7.5956 43.2022C7.55873 42.3794 8.32218 41.6787 9.11904 41.6787C9.97308 41.6787 10.6055 42.3768 10.6425 43.2022C10.6793 44.0249 9.916 44.7256 9.11904 44.7256ZM12.5595 36.7027C11.7054 36.7027 11.073 36.0046 11.036 35.1792C10.9992 34.3565 11.7626 33.6558 12.5595 33.6558C13.4135 33.6558 14.0459 34.3538 14.0829 35.1792C14.1198 36.002 13.3563 36.7027 12.5595 36.7027ZM15.9999 27.5235C15.1459 27.5235 14.5134 26.8254 14.4765 26C14.4396 25.1773 15.203 24.4766 15.9999 24.4766C16.8539 24.4766 17.4864 25.1746 17.5233 26C17.5602 26.8228 16.7968 27.5235 15.9999 27.5235ZM19.4408 48.166C18.5868 48.166 17.9544 47.468 17.9174 46.6426C17.8805 45.8198 18.644 45.1192 19.4408 45.1192C20.2949 45.1192 20.9273 45.8172 20.9643 46.6426C21.0011 47.4652 20.2378 48.166 19.4408 48.166Z" fill="url(#paint0_linear_694_44553)"/>
<defs>
<linearGradient id="paint0_linear_694_44553" x1="0.321289" y1="30.2687" x2="31.6796" y2="30.29" gradientUnits="userSpaceOnUse">
<stop stop-color="#957DF3"/>
<stop offset="1" stop-color="#662D91"/>
</linearGradient>
</defs>
</svg>
