<svg width="52" height="52" viewBox="0 0 52 52" fill="none" xmlns="http://www.w3.org/2000/svg">
<path d="M8.16186 50.3095C8.5009 50.6475 8.5009 51.1956 8.16186 51.5346C7.82326 51.8732 7.27408 51.8719 6.93677 51.5346L0.253467 44.8513C-0.0844891 44.5133 -0.0844891 43.9642 0.253467 43.6262C0.416216 43.4639 0.636695 43.3727 0.866555 43.3727C1.09641 43.3727 1.31689 43.4639 1.47964 43.6262L2.39819 44.5448L7.40937 39.5336C7.48983 39.4531 7.58536 39.3893 7.6905 39.3457C7.79564 39.3022 7.90833 39.2798 8.02213 39.2798C8.13593 39.2798 8.24862 39.3022 8.35375 39.3457C8.45889 39.3893 8.55442 39.4531 8.63489 39.5336L12.6726 43.5713C12.7531 43.6518 12.8169 43.7473 12.8605 43.8524C12.904 43.9576 12.9264 44.0703 12.9264 44.1841C12.9264 44.2979 12.904 44.4105 12.8605 44.5157C12.8169 44.6208 12.7531 44.7163 12.6726 44.7968L7.66143 49.808L8.16186 50.3095ZM51.7398 0.466367C51.5771 0.304046 51.3566 0.212891 51.1267 0.212891C50.8969 0.212891 50.6764 0.304046 50.5136 0.466367L36.7018 14.2792L36.3855 13.963C35.2525 12.8299 33.4165 12.8299 32.2835 13.963L32.134 14.1124C31.795 14.4515 31.795 15.0007 32.1351 15.3386C33.2833 16.4814 35.7248 18.924 36.8665 20.07C36.9467 20.1509 37.0422 20.2151 37.1473 20.259C37.2524 20.3029 37.3652 20.3256 37.4791 20.3258C37.593 20.326 37.7059 20.3037 37.8112 20.2602C37.9165 20.2166 38.0121 20.1528 38.0927 20.0722L38.2432 19.9216C39.3665 18.8005 39.386 16.9645 38.2432 15.8206L37.9269 15.5043L51.7398 1.69146C52.0778 1.3535 52.0778 0.805407 51.7398 0.466367ZM36.0502 21.7028L30.4648 16.1174C29.4509 15.1036 27.8012 15.1036 26.7885 16.1174L8.45432 34.4516L7.39604 33.3933C7.31569 33.3127 7.22022 33.2487 7.11511 33.2051C7.01 33.1615 6.89731 33.139 6.7835 33.139C6.66969 33.139 6.557 33.1615 6.45188 33.2051C6.34677 33.2487 6.2513 33.3127 6.17095 33.3933C6.09035 33.4736 6.0264 33.5691 5.98277 33.6742C5.93913 33.7793 5.91667 33.892 5.91667 34.0058C5.91667 34.1196 5.93913 34.2323 5.98277 34.3374C6.0264 34.4426 6.09035 34.538 6.17095 34.6184L17.5878 46.0352C17.9279 46.3754 18.477 46.3711 18.8129 46.0352C19.1509 45.6962 19.1509 45.1481 18.8129 44.8101L17.7546 43.7519L22.5212 38.9853C22.6017 38.9048 22.6655 38.8093 22.7091 38.7041C22.7526 38.599 22.775 38.4863 22.775 38.3725C22.775 38.2587 22.7526 38.146 22.7091 38.0409C22.6655 37.9357 22.6017 37.8402 22.5212 37.7597L20.5457 35.7842C20.2072 35.4458 20.2072 34.8972 20.5457 34.5588C20.7082 34.3963 20.9286 34.305 21.1584 34.305C21.3882 34.305 21.6086 34.3963 21.7711 34.5588L23.7466 36.5343C23.8271 36.6148 23.9226 36.6786 24.0278 36.7222C24.1329 36.7657 24.2456 36.7881 24.3594 36.7881C24.4732 36.7881 24.5859 36.7657 24.691 36.7222C24.7962 36.6786 24.8917 36.6148 24.9722 36.5343L29.6811 31.8254C29.7616 31.7449 29.8254 31.6494 29.869 31.5442C29.9125 31.4391 29.9349 31.3264 29.9349 31.2126C29.9349 31.0988 29.9125 30.9861 29.869 30.881C29.8254 30.7758 29.7616 30.6803 29.6811 30.5998L26.6224 27.5411C26.5403 27.4591 26.4756 27.3614 26.432 27.2538C26.3884 27.1463 26.3669 27.0311 26.3687 26.9151C26.3704 26.799 26.3955 26.6845 26.4424 26.5784C26.4892 26.4722 26.5569 26.3766 26.6415 26.2971C26.9869 25.9718 27.538 26.0058 27.8736 26.3414L30.9065 29.3743C30.987 29.4548 31.0825 29.5186 31.1877 29.5622C31.2928 29.6057 31.4055 29.6281 31.5193 29.6281C31.6331 29.6281 31.7458 29.6057 31.8509 29.5622C31.9561 29.5186 32.0516 29.4548 32.1321 29.3743L36.0886 25.4177C37.0906 24.4158 37.1302 22.7829 36.0502 21.7028ZM51.0574 16.2647L48.4653 13.0607C48.1179 12.6311 47.4636 12.6329 47.1178 13.0607L44.5257 16.2647C42.2895 19.0278 44.2895 23.1084 47.7916 23.1084C51.2981 23.1084 53.2899 19.0232 51.0574 16.2647Z" fill="url(#paint0_linear_694_44523)"/>
<defs>
<linearGradient id="paint0_linear_694_44523" x1="-2.7704e-07" y1="30.2343" x2="52.0017" y2="30.2933" gradientUnits="userSpaceOnUse">
<stop stop-color="#957DF3"/>
<stop offset="1" stop-color="#662D91"/>
</linearGradient>
</defs>
</svg>
