<svg width="38" height="48" viewBox="0 0 38 48" fill="none" xmlns="http://www.w3.org/2000/svg">
<path fill-rule="evenodd" clip-rule="evenodd" d="M18.1913 5.43075C18.1877 4.77071 17.9231 4.13891 17.4553 3.67328C16.9874 3.20765 16.3544 2.94601 15.6944 2.94547C15.0343 2.94493 14.4009 3.20555 13.9323 3.67042C13.4637 4.13528 13.1981 4.76665 13.1933 5.42668L13.1957 27.029C13.1855 28.2095 12.6546 29.301 11.5247 29.7526C11.0525 29.9382 10.5372 29.9857 10.0391 29.8894C9.54091 29.7931 9.08043 29.5571 8.7114 29.2089L4.82572 25.3036C4.35598 24.8382 3.72158 24.577 3.06036 24.5767C2.39913 24.5764 1.76449 24.837 1.29429 25.3019C0.33696 26.2592 0.315734 27.8788 1.29084 28.8323C5.95997 33.5015 10.7372 38.1049 15.4523 42.7326C15.855 43.1173 16.1741 43.5808 16.3899 44.0941C16.6056 44.6075 16.7134 45.1598 16.7064 45.7166V47.6645H33.9142V46.0824C33.9051 45.0724 34.2712 44.095 34.9416 43.3396C35.3159 42.9077 35.6539 42.4457 35.9522 41.9583C34.9132 41.9249 33.878 41.8168 32.8545 41.6348L32.3951 43.3181C32.3457 43.4992 32.2266 43.6533 32.0639 43.7468C31.9012 43.8404 31.7081 43.8657 31.5268 43.8172C31.3455 43.7688 31.1907 43.6505 31.0964 43.4883C31.002 43.3261 30.9757 43.1332 31.0232 42.9516L31.4532 41.3469C30.1903 41.0484 28.952 40.654 27.7491 40.1672L27.0567 41.659C26.9779 41.8299 26.8345 41.9625 26.6579 42.0276C26.4814 42.0927 26.2862 42.085 26.1153 42.0062C25.9444 41.9274 25.8118 41.7839 25.7467 41.6074C25.6816 41.4308 25.6893 41.2356 25.7681 41.0648L26.4486 39.5995C25.1739 39.0014 23.9482 38.3041 22.7828 37.5139L21.8494 38.8418C21.7409 38.995 21.576 39.099 21.391 39.1309C21.2059 39.1628 21.0157 39.12 20.8621 39.012C20.7085 38.904 20.604 38.7395 20.5715 38.5545C20.539 38.3696 20.5811 38.1793 20.6886 38.0253L21.6286 36.6879C20.6409 35.9426 19.7013 35.1356 18.8153 34.2719L17.6665 35.4207C17.6004 35.4868 17.5221 35.5391 17.4358 35.5749C17.3496 35.6106 17.2571 35.629 17.1637 35.629C17.0704 35.629 16.9779 35.6106 16.8917 35.5749C16.8054 35.5391 16.727 35.4868 16.661 35.4207C16.595 35.3547 16.5426 35.2763 16.5069 35.1901C16.4711 35.1038 16.4528 35.0114 16.4528 34.918C16.4528 34.8246 16.4711 34.7322 16.5069 34.6459C16.5426 34.5597 16.595 34.4813 16.661 34.4153L17.8194 33.2568C17.5478 32.9675 17.2775 32.6685 17.0084 32.36C16.9437 32.2902 16.8937 32.2081 16.8613 32.1185C16.8289 32.029 16.8149 31.9338 16.82 31.8387C16.8251 31.7436 16.8492 31.6505 16.891 31.5649C16.9327 31.4794 16.9913 31.403 17.0631 31.3405C17.1349 31.278 17.2186 31.2305 17.3091 31.201C17.3997 31.1714 17.4952 31.1603 17.5901 31.1684C17.685 31.1765 17.7773 31.2035 17.8615 31.2479C17.9457 31.2924 18.0202 31.3532 18.0804 31.427C18.3274 31.7109 18.5756 31.9857 18.825 32.2514L20.0582 31.0182C20.1242 30.9522 20.2026 30.8998 20.2888 30.8641C20.3751 30.8284 20.4675 30.81 20.5609 30.81C20.6543 30.81 20.7467 30.8284 20.833 30.8641C20.9192 30.8998 20.9976 30.9522 21.0636 31.0182C21.1297 31.0842 21.182 31.1626 21.2178 31.2489C21.2535 31.3351 21.2719 31.4276 21.2719 31.5209C21.2719 31.6143 21.2535 31.7068 21.2178 31.793C21.182 31.8793 21.1297 31.9577 21.0636 32.0237L19.8202 33.2671C20.6476 34.0737 21.524 34.8283 22.4445 35.5269L23.3672 34.214C23.4764 34.0624 23.6409 33.96 23.8251 33.929C24.0094 33.898 24.1984 33.9409 24.3512 34.0484C24.504 34.1558 24.6082 34.3192 24.6413 34.5031C24.6744 34.6869 24.6337 34.8764 24.5279 35.0304L23.5974 36.3544C24.693 37.0976 25.8449 37.7543 27.0426 38.3185L27.7293 36.839C27.8094 36.6701 27.9528 36.5397 28.1284 36.476C28.3041 36.4123 28.4978 36.4205 28.6675 36.4987C28.8372 36.577 28.9691 36.719 29.0347 36.894C29.1003 37.0689 29.0942 37.2627 29.0178 37.4332L28.3437 38.8857C29.4722 39.3402 30.6338 39.7078 31.8183 39.9854L32.2568 38.3486C32.2779 38.2515 32.3188 38.1599 32.3771 38.0794C32.4353 37.999 32.5095 37.9314 32.595 37.881C32.6806 37.8306 32.7757 37.7985 32.8743 37.7866C32.9729 37.7747 33.0729 37.7833 33.1679 37.8119C33.2577 37.8363 33.3417 37.8782 33.4152 37.9351C33.4888 37.992 33.5504 38.0628 33.5965 38.1435C33.6427 38.2243 33.6725 38.3133 33.6842 38.4055C33.696 38.4977 33.6894 38.5914 33.665 38.6811L33.23 40.2678C34.3655 40.4662 35.517 40.5586 36.6696 40.5438C37.1636 39.341 37.4182 38.0533 37.4189 36.7529L37.4331 10.1096C37.4306 9.4476 37.1667 8.81335 36.6989 8.34493C36.2311 7.8765 35.5972 7.61184 34.9351 7.60855C33.432 7.60774 32.4251 8.74981 32.4265 10.2289L32.4367 25.2681C32.4378 25.3618 32.4203 25.4548 32.3853 25.5417C32.3502 25.6286 32.2982 25.7077 32.2323 25.7744C32.1664 25.841 32.088 25.894 32.0015 25.9301C31.9151 25.9662 31.8223 25.9848 31.7286 25.9848C31.6348 25.9848 31.5421 25.9662 31.4556 25.9301C31.3691 25.894 31.2907 25.841 31.2248 25.7744C31.1589 25.7077 31.1069 25.6286 31.0719 25.5417C31.0368 25.4548 31.0193 25.3618 31.0204 25.2681V6.73522C31.021 6.07243 30.7582 5.43657 30.2899 4.96753C29.8216 4.49848 29.1862 4.23468 28.5234 4.23414C27.8606 4.2336 27.2248 4.49637 26.7557 4.96466C26.2867 5.43294 26.0229 6.06837 26.0223 6.73115L26.0248 25.2681C26.0259 25.3618 26.0084 25.4548 25.9733 25.5417C25.9382 25.6286 25.8862 25.7077 25.8204 25.7744C25.7545 25.841 25.6761 25.894 25.5896 25.9301C25.5031 25.9662 25.4103 25.9848 25.3166 25.9848C25.2229 25.9848 25.1301 25.9662 25.0436 25.9301C24.9572 25.894 24.8787 25.841 24.8129 25.7744C24.747 25.7077 24.695 25.6286 24.6599 25.5417C24.6248 25.4548 24.6073 25.3618 24.6085 25.2681C24.6074 17.7903 24.571 10.3117 24.6059 2.83501C24.6065 2.17222 24.3437 1.53637 23.8754 1.06734C23.6435 0.835098 23.3682 0.650801 23.0651 0.524972C22.762 0.399143 22.437 0.334245 22.1089 0.333985C21.4461 0.33346 20.8102 0.596248 20.3412 1.06454C19.8722 1.53283 19.6084 2.16826 19.6078 2.83105C19.6146 10.3094 19.6085 17.7885 19.5897 25.2681C19.5908 25.3618 19.5733 25.4548 19.5382 25.5417C19.5031 25.6286 19.4511 25.7077 19.3853 25.7744C19.3194 25.841 19.241 25.894 19.1545 25.9301C19.068 25.9662 18.9752 25.9848 18.8815 25.9848C18.7878 25.9848 18.695 25.9662 18.6085 25.9301C18.5221 25.894 18.4436 25.841 18.3778 25.7744C18.3119 25.7077 18.2599 25.6286 18.2248 25.5417C18.1897 25.4548 18.1722 25.3618 18.1734 25.2681L18.1913 5.43075Z" fill="url(#paint0_linear_694_44539)"/>
<defs>
<linearGradient id="paint0_linear_694_44539" x1="0.567871" y1="27.8846" x2="37.4343" y2="27.9169" gradientUnits="userSpaceOnUse">
<stop stop-color="#957DF3"/>
<stop offset="1" stop-color="#662D91"/>
</linearGradient>
</defs>
</svg>
