<svg width="30" height="28" viewBox="0 0 30 28" fill="none" xmlns="http://www.w3.org/2000/svg">
<path d="M29.49 3.53388C28.9619 3.17922 28.2463 3.31978 27.8914 3.84798L24.7204 8.56976C24.3724 8.3959 23.9801 8.29767 23.5645 8.29767H21.8366C21.4232 8.29767 21.0327 8.39497 20.6858 8.56717L17.5167 3.84809C17.1618 3.31968 16.4463 3.17933 15.9181 3.53399C15.3898 3.88875 15.2493 4.6044 15.604 5.1326L19.2633 10.5816C19.2363 10.8093 19.248 25.9381 19.248 25.9381C19.248 26.7334 19.8926 27.3781 20.688 27.3781C21.4833 27.3781 22.128 26.7334 22.128 25.9381V19.4579H23.28V25.9381C23.28 26.7334 23.9247 27.3781 24.72 27.3781C25.5153 27.3781 26.16 26.7334 26.16 25.9381C26.16 20.373 26.1671 10.8375 26.1389 10.5904L29.8041 5.1326C30.1588 4.60429 30.0182 3.88865 29.49 3.53388Z" fill="url(#paint0_linear_557_15396)"/>
<path d="M22.7042 7.49322C24.2286 7.49322 25.465 6.25798 25.465 4.7325C25.465 3.76375 24.9646 2.91169 24.2085 2.41917C24.3582 2.31928 24.5288 2.22675 24.727 2.14625C24.8212 2.10798 24.8847 2.01856 24.8895 1.9169C24.8944 1.81525 24.8396 1.72012 24.7493 1.67313C24.3127 1.44637 23.7806 1.44171 23.2785 1.53797C23.3637 1.37843 23.471 1.21547 23.6087 1.05022C23.6739 0.972008 23.6877 0.86309 23.644 0.771287C23.6003 0.679381 23.5072 0.621291 23.4054 0.622328C22.3964 0.633842 21.4709 1.65674 21.1023 2.26845C21.0366 2.37737 20.9838 2.49116 20.9442 2.60662C20.3329 3.11304 19.9434 3.87744 19.9434 4.73239C19.9435 6.25798 21.1798 7.49322 22.7042 7.49322Z" fill="url(#paint1_linear_557_15396)"/>
<path d="M14.0818 3.53458C13.5537 3.17993 12.8381 3.32048 12.4832 3.84868L11.7322 4.96712C11.4366 4.82833 11.1074 4.81049 10.7929 4.97988C10.7736 4.99025 10.7559 5.00218 10.7375 5.01339L10.742 5.00073C10.8211 4.77563 10.7028 4.52906 10.4777 4.44992C10.3242 4.39587 10.1623 4.43508 10.0488 4.5357C9.94759 3.1042 8.75394 1.9729 7.29589 1.9729C5.83773 1.9729 4.64409 3.1042 4.54284 4.5357C4.42915 4.43508 4.26723 4.39577 4.11402 4.44992C3.88892 4.52906 3.77056 4.77563 3.84971 5.00073L3.85417 5.01339C3.83581 5.00208 3.81796 4.99015 3.79888 4.97988C3.48447 4.81049 3.15512 4.82833 2.85948 4.96702L2.10846 3.84868C1.7537 3.32027 1.03774 3.17982 0.50985 3.53458C-0.0183531 3.88935 -0.15891 4.60499 0.19575 5.1332L1.51429 7.09653C1.44323 7.46063 1.44157 7.83168 1.56408 8.16777C1.59893 8.26341 1.68617 8.33011 1.78752 8.33851C1.88907 8.34692 1.98595 8.29557 2.03606 8.20709C2.07081 8.14578 2.1067 8.08842 2.14311 8.03302L3.8551 10.5822C3.82917 10.802 3.83622 10.5971 3.83622 14.2839L2.268 20.6775C2.19487 20.9758 2.26271 21.2911 2.45233 21.5327C2.64175 21.7744 2.93189 21.9155 3.23904 21.9155H3.83975V25.9386C3.83975 26.7339 4.48444 27.3786 5.27975 27.3786C6.07507 27.3786 6.71976 26.7339 6.71976 25.9386V21.9155H7.87181V25.9386C7.87181 26.7339 8.5165 27.3786 9.31181 27.3786C10.1071 27.3786 10.7518 26.7339 10.7518 25.9386V21.9155H11.3458C11.6529 21.9155 11.9431 21.7744 12.1325 21.5327C12.3221 21.2911 12.39 20.9758 12.3168 20.6775L10.7485 14.2833H10.7484C10.7484 10.5955 10.755 10.8044 10.7307 10.5909L12.4486 8.03282C12.4851 8.08821 12.5209 8.14557 12.5556 8.20688C12.6057 8.29546 12.7027 8.34681 12.8042 8.33831C12.9057 8.3299 12.9928 8.2632 13.0277 8.16756C13.1502 7.83147 13.1484 7.46042 13.0774 7.09632L14.3959 5.13299C14.7506 4.60499 14.61 3.88935 14.0818 3.53458ZM9.31233 8.57046C8.96431 8.3966 8.57189 8.29837 8.15634 8.29837H6.42838C6.01501 8.29837 5.62446 8.39567 5.27768 8.56776L4.02709 6.70577C4.12574 6.64457 4.20302 6.5759 4.25053 6.48763C4.28725 6.41937 4.31619 6.34904 4.33756 6.27757C4.41878 6.36512 4.53309 6.41657 4.65332 6.41657C4.70083 6.41657 4.74927 6.40868 4.79657 6.39198C4.87634 6.36387 4.9419 6.31408 4.99086 6.25226C5.48494 7.00016 6.33274 7.49362 7.29589 7.49362C8.25904 7.49362 9.10684 7.00016 9.60081 6.25226C9.64977 6.31408 9.71533 6.36387 9.79521 6.39198C9.84261 6.40868 9.89095 6.41657 9.93846 6.41657C10.0587 6.41657 10.173 6.36501 10.2542 6.27757C10.2756 6.34894 10.3044 6.41937 10.3413 6.48763C10.3888 6.5758 10.466 6.64447 10.5647 6.70567L9.31233 8.57046Z" fill="url(#paint2_linear_557_15396)"/>
<defs>
<linearGradient id="paint0_linear_557_15396" x1="15.4082" y1="17.3316" x2="30.0004" y2="17.3415" gradientUnits="userSpaceOnUse">
<stop stop-color="#957DF3"/>
<stop offset="1" stop-color="#662D91"/>
</linearGradient>
<linearGradient id="paint1_linear_557_15396" x1="19.9434" y1="4.6218" x2="25.4652" y2="4.62679" gradientUnits="userSpaceOnUse">
<stop stop-color="#957DF3"/>
<stop offset="1" stop-color="#662D91"/>
</linearGradient>
<linearGradient id="paint2_linear_557_15396" x1="-7.774e-08" y1="16.7613" x2="14.5922" y2="16.7707" gradientUnits="userSpaceOnUse">
<stop stop-color="#957DF3"/>
<stop offset="1" stop-color="#662D91"/>
</linearGradient>
</defs>
</svg>
