<svg width="30" height="30" viewBox="0 0 30 30" fill="none" xmlns="http://www.w3.org/2000/svg">
<path d="M16.8626 4.03142C16.704 4.12054 16.5542 4.22894 16.4171 4.35614L15.6562 5.06173L19.3136 8.38025C19.8255 8.84472 20.2144 9.43587 20.4381 10.0898C20.6619 10.7438 20.7167 11.4493 20.5967 12.13L18.5015 24.0126C18.1551 25.9767 16.4576 27.4023 14.465 27.4023C14.2265 27.4023 13.9859 27.3812 13.75 27.3396L13.082 27.2218L13.2303 28.0627C13.4308 29.1999 14.4197 29.9999 15.5357 29.9999C15.6708 29.9999 28.0632 27.8273 28.0632 27.8273C29.338 27.6025 30.1892 26.3869 29.9644 25.1122L27.0402 8.52884C26.9026 7.74808 26.3795 7.08984 25.6501 6.77935L18.9288 3.91822C18.8233 3.87333 18.7158 3.83706 18.6071 3.80841L18.3158 1.98556L18.1168 0.740324C18.0402 0.260969 17.5894 -0.0653984 17.1102 0.011125C16.6309 0.0877071 16.3045 0.538352 16.381 1.01771L16.5752 2.23271L16.8626 4.03142Z" fill="url(#paint0_linear_557_15380)"/>
<path d="M9.12869 13.8977L9.60916 11.1729C9.59967 11.1739 9.59053 11.1747 9.58098 11.1758C8.94928 11.2507 8.55236 11.7328 8.39158 12.1589C8.2192 12.6158 8.26666 13.0719 8.51545 13.3493C8.67195 13.5237 8.87229 13.7034 9.12869 13.8977Z" fill="url(#paint1_linear_557_15380)"/>
<path d="M9.97723 15.834L9.3457 19.4155C10.2034 19.3231 10.8067 18.7002 11.0354 18.056C11.1479 17.7389 11.4216 16.6513 10.2173 15.9709C10.135 15.9245 10.0551 15.8788 9.97723 15.834Z" fill="url(#paint2_linear_557_15380)"/>
<path d="M10.7087 4.26367C10.5772 4.29173 10.4471 4.33076 10.3197 4.3822L3.56023 7.1139C2.811 7.41671 2.27059 8.0841 2.13025 8.87992L0.0359961 20.7569C-0.18877 22.0317 0.662422 23.2473 1.93713 23.472L14.0549 25.6087C14.1926 25.633 14.3295 25.6447 14.4646 25.6447C15.5806 25.6447 16.5696 24.8446 16.77 23.7075L18.8653 11.8248C19.0051 11.0321 18.7282 10.2231 18.132 9.68212L12.7728 4.81937C12.6684 4.72468 12.5568 4.64101 12.4399 4.56794L12.7582 2.76255L13.0634 1.03169C13.1477 0.553686 12.8285 0.0978264 12.3505 0.0135686C11.8727 -0.0709822 11.4167 0.248412 11.3324 0.726479L11.0272 2.45757L10.7087 4.26367ZM11.1061 9.43152L10.9851 10.1179C11.7802 10.3513 12.2243 10.8202 12.4368 11.0447C12.4665 11.0761 12.4972 11.1086 12.512 11.1222C12.7495 11.3418 12.7641 11.7126 12.5444 11.9502C12.3247 12.1878 11.9541 12.2023 11.7164 11.9826C11.6731 11.9426 11.6306 11.8977 11.5858 11.8503C11.4281 11.6838 11.1912 11.4341 10.7797 11.2826L10.1943 14.6025C10.3784 14.7129 10.5774 14.8285 10.7937 14.9507C12.1029 15.6904 12.6312 17.0632 12.1396 18.4482C11.8982 19.1284 11.4309 19.7167 10.8237 20.1045C10.3137 20.4304 9.739 20.5978 9.13684 20.5997L8.98871 21.4395C8.93861 21.7238 8.69135 21.9238 8.41238 21.9238C8.37857 21.9238 8.34435 21.9209 8.30996 21.9149C7.99127 21.8587 7.77846 21.5548 7.83465 21.2361L7.97498 20.4403C7.21016 20.2698 6.65932 20.0137 5.89988 19.3007C5.66393 19.0792 5.65221 18.7084 5.87375 18.4725C6.09523 18.2365 6.46602 18.2249 6.70197 18.4463C7.25996 18.9702 7.60789 19.1544 8.17859 19.286L8.90357 15.1744C8.3406 14.7985 7.94557 14.4691 7.64311 14.1319C7.10105 13.5276 6.96775 12.6132 7.29518 11.7454C7.65535 10.7907 8.47836 10.1266 9.44299 10.0122C9.57342 9.99677 9.69828 9.98775 9.81898 9.98324L9.95217 9.22802C10.0083 8.90933 10.3122 8.69658 10.6309 8.75271C10.9495 8.8089 11.1623 9.11283 11.1061 9.43152Z" fill="url(#paint3_linear_557_15380)"/>
<defs>
<linearGradient id="paint0_linear_557_15380" x1="13.082" y1="17.4626" x2="30.0009" y2="17.4734" gradientUnits="userSpaceOnUse">
<stop stop-color="#957DF3"/>
<stop offset="1" stop-color="#662D91"/>
</linearGradient>
<linearGradient id="paint1_linear_557_15380" x1="8.28906" y1="12.759" x2="9.6092" y2="12.7597" gradientUnits="userSpaceOnUse">
<stop stop-color="#957DF3"/>
<stop offset="1" stop-color="#662D91"/>
</linearGradient>
<linearGradient id="paint2_linear_557_15380" x1="9.3457" y1="17.9188" x2="11.1436" y2="17.9198" gradientUnits="userSpaceOnUse">
<stop stop-color="#957DF3"/>
<stop offset="1" stop-color="#662D91"/>
</linearGradient>
<linearGradient id="paint3_linear_557_15380" x1="-1.00698e-07" y1="14.9275" x2="18.9016" y2="14.9432" gradientUnits="userSpaceOnUse">
<stop stop-color="#957DF3"/>
<stop offset="1" stop-color="#662D91"/>
</linearGradient>
</defs>
</svg>
