<svg width="26" height="26" viewBox="0 0 26 26" fill="none" xmlns="http://www.w3.org/2000/svg">
<path d="M13 0.8125C10.5895 0.8125 8.23322 1.52728 6.22899 2.86646C4.22477 4.20564 2.66267 6.10907 1.74022 8.33605C0.817781 10.563 0.576427 13.0135 1.04668 15.3777C1.51694 17.7418 2.67769 19.9134 4.38214 21.6179C6.08659 23.3223 8.2582 24.4831 10.6223 24.9533C12.9865 25.4236 15.437 25.1822 17.664 24.2598C19.8909 23.3373 21.7944 21.7752 23.1335 19.771C24.4727 17.7668 25.1875 15.4105 25.1875 13C25.1838 9.76882 23.8986 6.67104 21.6138 4.38625C19.329 2.10145 16.2312 0.816222 13 0.8125ZM18.3503 18.3503C18.1745 18.5261 17.9361 18.6248 17.6875 18.6248C17.4389 18.6248 17.2005 18.5261 17.0247 18.3503L12.3372 13.6628C12.1614 13.487 12.0626 13.2486 12.0625 13V6.4375C12.0625 6.18886 12.1613 5.9504 12.3371 5.77459C12.5129 5.59877 12.7514 5.5 13 5.5C13.2486 5.5 13.4871 5.59877 13.6629 5.77459C13.8387 5.9504 13.9375 6.18886 13.9375 6.4375V12.6119L18.3503 17.0247C18.5261 17.2005 18.6248 17.4389 18.6248 17.6875C18.6248 17.9361 18.5261 18.1745 18.3503 18.3503Z" fill="url(#paint0_linear_557_15390)"/>
<defs>
<linearGradient id="paint0_linear_557_15390" x1="0.8125" y1="15.0009" x2="25.1883" y2="15.0284" gradientUnits="userSpaceOnUse">
<stop stop-color="#957DF3"/>
<stop offset="1" stop-color="#662D91"/>
</linearGradient>
</defs>
</svg>
