<svg width="40" height="40" viewBox="0 0 40 40" fill="none" xmlns="http://www.w3.org/2000/svg">
<g filter="url(#filter0_b_481_15278)">
<rect width="40" height="40" rx="20" fill="url(#paint0_linear_481_15278)"/>
<rect x="0.5" y="0.5" width="39" height="39" rx="19.5" stroke="#7B51BD"/>
<rect x="0.5" y="0.5" width="39" height="39" rx="19.5" stroke="url(#paint1_radial_481_15278)"/>
</g>
<g clip-path="url(#clip0_481_15278)">
<path d="M18.6169 26.7941C19.0789 27.2617 20.1077 27.1067 20.2185 26.3715C20.9078 21.8071 24.3566 17.9564 26.9665 14.3279C27.6902 13.3224 26.0262 12.3672 25.312 13.3607C22.927 16.6761 19.921 20.1648 18.745 24.188C17.4011 22.8145 16.0518 21.4541 14.5445 20.2472C13.5899 19.4826 12.2244 20.8297 13.1893 21.6024C15.1531 23.1754 16.8502 25.0096 18.6169 26.7941Z" fill="url(#paint2_linear_481_15278)"/>
</g>
<defs>
<filter id="filter0_b_481_15278" x="-50" y="-50" width="140" height="140" filterUnits="userSpaceOnUse" color-interpolation-filters="sRGB">
<feFlood flood-opacity="0" result="BackgroundImageFix"/>
<feGaussianBlur in="BackgroundImageFix" stdDeviation="25"/>
<feComposite in2="SourceAlpha" operator="in" result="effect1_backgroundBlur_481_15278"/>
<feBlend mode="normal" in="SourceGraphic" in2="effect1_backgroundBlur_481_15278" result="shape"/>
</filter>
<linearGradient id="paint0_linear_481_15278" x1="1.80269e-07" y1="2.10526" x2="46.2995" y2="10.8371" gradientUnits="userSpaceOnUse">
<stop stop-color="white"/>
<stop offset="1" stop-color="white" stop-opacity="0"/>
<stop offset="1" stop-color="white"/>
</linearGradient>
<radialGradient id="paint1_radial_481_15278" cx="0" cy="0" r="1" gradientUnits="userSpaceOnUse" gradientTransform="translate(20 20) rotate(-43.7156) scale(27.671 75.1666)">
<stop stop-color="white"/>
<stop offset="1" stop-color="white" stop-opacity="0"/>
</radialGradient>
<linearGradient id="paint2_linear_481_15278" x1="12.8594" y1="21.1596" x2="27.1455" y2="21.1759" gradientUnits="userSpaceOnUse">
<stop stop-color="#957DF3"/>
<stop offset="1" stop-color="#662D91"/>
</linearGradient>
<clipPath id="clip0_481_15278">
<rect width="14.2857" height="14.2857" fill="white" transform="translate(12.8574 12.8574)"/>
</clipPath>
</defs>
</svg>
