<svg width="35" height="30" viewBox="0 0 35 30" fill="none" xmlns="http://www.w3.org/2000/svg">
<path d="M33.4954 11.7813C33.2588 11.2577 32.9955 10.7466 32.7065 10.25L28.9834 20.3635C28.8414 20.7414 28.6349 21.0917 28.373 21.399C29.3724 21.3 30.3355 20.9716 31.187 20.4393C32.0386 19.907 32.7558 19.1852 33.2825 18.3302C33.8093 17.4752 34.1315 16.5101 34.2239 15.5101C34.3164 14.5101 34.1766 13.5022 33.8155 12.5651C33.7164 12.2982 33.6099 12.0386 33.4954 11.7813Z" fill="url(#paint0_linear_495_16827)"/>
<path d="M12.1263 2.66652C9.95389 3.43984 7.9598 4.64354 6.26345 6.20557C4.5671 7.76761 3.20336 9.65586 2.25387 11.7573C1.30439 13.8587 0.788672 16.1302 0.737603 18.4356C0.686534 20.741 1.10116 23.033 1.95666 25.1744C1.97926 25.2204 1.99458 25.2656 2.01718 25.3115C2.47168 26.3969 3.21164 27.3389 4.15849 28.0376C5.10534 28.7362 6.22373 29.1654 7.39488 29.2795C8.56603 29.3936 9.74623 29.1884 10.8101 28.6857C11.874 28.1829 12.7819 27.4015 13.4374 26.4242C14.8083 24.3592 16.7763 22.7612 19.0789 21.8436C19.1519 21.8144 19.2248 21.7926 19.2977 21.7656C19.5569 21.1675 19.9427 20.6327 20.4285 20.1981C20.9143 19.7634 21.4885 19.4392 22.1116 19.2478C22.0964 18.6986 22.209 18.1535 22.4404 17.6553L28.2008 5.18142C25.9381 3.46618 23.2855 2.33866 20.4803 1.89978C17.6751 1.4609 14.8048 1.72434 12.1263 2.66652ZM7.65655 21.6978C7.07969 21.6978 6.51578 21.5267 6.03614 21.2062C5.5565 20.8857 5.18266 20.4302 4.96191 19.8973C4.74115 19.3643 4.68339 18.7779 4.79593 18.2121C4.90847 17.6463 5.18626 17.1266 5.59416 16.7187C6.00206 16.3108 6.52176 16.033 7.08754 15.9205C7.65332 15.8079 8.23976 15.8657 8.77271 16.0865C9.30567 16.3072 9.76119 16.6811 10.0817 17.1607C10.4022 17.6403 10.5732 18.2042 10.5732 18.7811C10.5732 19.5547 10.2659 20.2965 9.71895 20.8435C9.17197 21.3905 8.4301 21.6978 7.65655 21.6978ZM11.3024 13.3124C10.7255 13.3124 10.1616 13.1413 9.68197 12.8208C9.20233 12.5003 8.82849 12.0448 8.60774 11.5119C8.38698 10.9789 8.32922 10.3925 8.44176 9.82668C8.5543 9.2609 8.83209 8.7412 9.23999 8.3333C9.64789 7.92539 10.1676 7.64761 10.7334 7.53507C11.2992 7.42253 11.8856 7.48029 12.4185 7.70104C12.9515 7.9218 13.407 8.29564 13.7275 8.77528C14.048 9.25492 14.2191 9.81883 14.2191 10.3957C14.2191 11.1692 13.9118 11.9111 13.3648 12.4581C12.8178 13.0051 12.0759 13.3124 11.3024 13.3124ZM20.0524 10.7603C19.4755 10.7603 18.9116 10.5892 18.432 10.2687C17.9523 9.94824 17.5785 9.49272 17.3577 8.95977C17.137 8.42682 17.0792 7.84037 17.1918 7.2746C17.3043 6.70882 17.5821 6.18912 17.99 5.78121C18.3979 5.37331 18.9176 5.09552 19.4834 4.98298C20.0492 4.87044 20.6356 4.9282 21.1685 5.14896C21.7015 5.36971 22.157 5.74355 22.4775 6.2232C22.798 6.70284 22.9691 7.26675 22.9691 7.84361C22.9691 8.61716 22.6618 9.35902 22.1148 9.906C21.5678 10.453 20.8259 10.7603 20.0524 10.7603Z" fill="url(#paint1_linear_495_16827)"/>
<path d="M33.1615 1.02745C32.838 0.893079 32.4749 0.889253 32.1487 1.01678C31.8224 1.1443 31.5582 1.39327 31.4115 1.71141L23.7669 18.2671C23.5909 18.648 23.5339 19.0731 23.6035 19.4868C23.6731 19.9005 23.8661 20.2836 24.157 20.5859C23.4464 20.4192 22.6996 20.5103 22.0499 20.843C21.4002 21.1757 20.8898 21.7282 20.6096 22.4022C19.4291 25.2533 21.2965 26.5038 20.1152 29.3549C21.4619 29.2044 22.7447 28.7001 23.8333 27.8933C24.9219 27.0864 25.7775 26.0058 26.3131 24.7611C26.5653 24.1482 26.6129 23.4702 26.4486 22.8282C26.2844 22.1861 25.9172 21.6142 25.4017 21.1977C25.8679 21.2578 26.3407 21.158 26.7429 20.9147C27.1451 20.6714 27.453 20.299 27.6162 19.8582L33.9162 2.74391C34.0358 2.41569 34.0241 2.05395 33.8835 1.73415C33.7429 1.41435 33.4842 1.16118 33.1615 1.02745Z" fill="url(#paint2_linear_495_16827)"/>
<defs>
<linearGradient id="paint0_linear_495_16827" x1="28.373" y1="16.7397" x2="34.2518" y2="16.7432" gradientUnits="userSpaceOnUse">
<stop stop-color="#957DF3"/>
<stop offset="1" stop-color="#662D91"/>
</linearGradient>
<linearGradient id="paint1_linear_495_16827" x1="0.733398" y1="17.7688" x2="28.2017" y2="17.7996" gradientUnits="userSpaceOnUse">
<stop stop-color="#957DF3"/>
<stop offset="1" stop-color="#662D91"/>
</linearGradient>
<linearGradient id="paint2_linear_495_16827" x1="20.1152" y1="17.4732" x2="33.9986" y2="17.4809" gradientUnits="userSpaceOnUse">
<stop stop-color="#957DF3"/>
<stop offset="1" stop-color="#662D91"/>
</linearGradient>
</defs>
</svg>
