<svg width="36" height="36" viewBox="0 0 36 36" fill="none" xmlns="http://www.w3.org/2000/svg">
<path d="M18 36C27.9386 36 36 27.9386 36 18C36 8.06141 27.9386 0 18 0C8.06141 0 0 8.06141 0 18C0 27.9386 8.06141 36 18 36ZM16.7142 7.7143C16.7142 7.00713 17.2928 6.42855 18 6.42855C18.7072 6.42855 19.2858 7.00713 19.2858 7.7143V17.3829L25.2322 22.14C25.7851 22.5836 25.875 23.3935 25.4314 23.9464C25.1807 24.2614 24.8079 24.4285 24.4285 24.4285C24.1457 24.4285 23.8628 24.3385 23.625 24.1457L17.1965 19.0029C16.8943 18.7586 16.7144 18.3922 16.7144 18V7.7143H16.7142Z" fill="url(#paint0_linear_694_35785)"/>
<defs>
<linearGradient id="paint0_linear_694_35785" x1="-1.91797e-07" y1="20.9552" x2="36.0012" y2="20.9957" gradientUnits="userSpaceOnUse">
<stop stop-color="#957DF3"/>
<stop offset="1" stop-color="#662D91"/>
</linearGradient>
</defs>
</svg>
