<svg width="48" height="48" viewBox="0 0 48 48" fill="none" xmlns="http://www.w3.org/2000/svg">
<path d="M1.41563 31.0312C3.24469 35.3962 6.73875 38.9784 11.25 40.8591V43.6875C11.25 44.4638 11.88 45.0938 12.6562 45.0938H35.3438C36.12 45.0938 36.75 44.4638 36.75 43.6875V40.8591C41.2612 38.9784 44.7553 35.3962 46.5844 31.0312H1.41563ZM46.5938 22.5938H1.40625C0.63 22.5938 0 23.2237 0 24C0 25.4419 0.170625 26.8556 0.496875 28.2188H47.5031C47.8294 26.8556 48 25.4419 48 24C48 23.2237 47.37 22.5938 46.5938 22.5938Z" fill="url(#paint0_linear_481_14602)"/>
<path d="M14.5685 16.5569C14.0193 16.0077 14.0193 15.1173 14.5685 14.5681C15.5733 13.5632 15.5734 11.9369 14.5685 10.9319C12.4694 8.8327 12.4694 5.4173 14.5685 3.31814C15.1176 2.76895 16.008 2.76895 16.5572 3.31814C17.1064 3.86733 17.1064 4.75767 16.5572 5.30686C15.5524 6.31177 15.5523 7.93814 16.5572 8.94314C18.6564 11.0423 18.6564 14.4577 16.5572 16.5569C16.0081 17.106 15.1176 17.106 14.5685 16.5569Z" fill="url(#paint1_linear_481_14602)"/>
<path d="M23.006 16.5569C22.4568 16.0077 22.4568 15.1173 23.006 14.5681C24.0108 13.5632 24.0109 11.9369 23.006 10.9319C20.9069 8.8327 20.9069 5.4173 23.006 3.31814C23.5551 2.76895 24.4455 2.76895 24.9947 3.31814C25.5439 3.86733 25.5439 4.75767 24.9947 5.30686C23.9899 6.31177 23.9898 7.93814 24.9947 8.94314C27.0939 11.0423 27.0939 14.4577 24.9947 16.5569C24.4456 17.106 23.5551 17.106 23.006 16.5569Z" fill="url(#paint2_linear_481_14602)"/>
<path d="M31.4435 16.5569C30.8943 16.0077 30.8943 15.1173 31.4435 14.5681C32.4482 13.5633 32.4484 11.9369 31.4435 10.9319C29.3444 8.8327 29.3444 5.4173 31.4435 3.31814C31.9926 2.76895 32.883 2.76895 33.4322 3.31814C33.9814 3.86733 33.9814 4.75767 33.4322 5.30686C32.4275 6.31167 32.4273 7.93814 33.4322 8.94314C35.5314 11.0423 35.5314 14.4577 33.4322 16.5569C32.8831 17.106 31.9926 17.106 31.4435 16.5569Z" fill="url(#paint3_linear_481_14602)"/>
<defs>
<linearGradient id="paint0_linear_481_14602" x1="-2.55729e-07" y1="35.6908" x2="48.0013" y2="35.806" gradientUnits="userSpaceOnUse">
<stop stop-color="#957DF3"/>
<stop offset="1" stop-color="#662D91"/>
</linearGradient>
<linearGradient id="paint1_linear_481_14602" x1="12.9941" y1="11.0919" x2="18.1318" y2="11.094" gradientUnits="userSpaceOnUse">
<stop stop-color="#957DF3"/>
<stop offset="1" stop-color="#662D91"/>
</linearGradient>
<linearGradient id="paint2_linear_481_14602" x1="21.4316" y1="11.0919" x2="26.5693" y2="11.094" gradientUnits="userSpaceOnUse">
<stop stop-color="#957DF3"/>
<stop offset="1" stop-color="#662D91"/>
</linearGradient>
<linearGradient id="paint3_linear_481_14602" x1="29.8691" y1="11.0919" x2="35.0068" y2="11.094" gradientUnits="userSpaceOnUse">
<stop stop-color="#957DF3"/>
<stop offset="1" stop-color="#662D91"/>
</linearGradient>
</defs>
</svg>
