<svg width="70" height="40" viewBox="0 0 70 40" fill="none" xmlns="http://www.w3.org/2000/svg">
<path d="M10.983 20.5271C10.9872 19.6165 10.983 4.06626 10.983 4.06626C10.9287 3.23964 10.5503 2.46786 9.93003 1.91878C9.30975 1.36969 8.49777 1.08769 7.67068 1.13412H3.3123C2.48489 1.08639 1.67219 1.36793 1.05162 1.91727C0.431043 2.46662 0.0529956 3.23916 0 4.06626V22.1732C0.0530017 23.0003 0.431054 23.7729 1.05163 24.3222C1.6722 24.8715 2.4849 25.153 3.3123 25.1053H7.67068C8.3971 25.1334 9.11185 24.9163 9.69997 24.489C10.2881 24.0617 10.7154 23.449 10.9132 22.7494C10.9894 22.0113 11.0127 21.2686 10.983 20.5271Z" fill="url(#paint0_linear_495_16045)"/>
<path d="M47.4248 26.6002C47.1943 26.8065 46.9328 26.9752 46.6498 27.1002C46.9888 27.8067 47.4359 28.4562 47.9748 29.0252C48.7825 29.9345 49.774 30.662 50.8837 31.1598C51.9934 31.6575 53.1961 31.9141 54.4123 31.9127C56.7172 31.9117 58.9277 30.9965 60.5587 29.3679C62.1897 27.7392 63.108 25.5301 63.1123 23.2252C63.1498 15.1752 52.8873 11.4627 47.7998 17.5877C47.2876 18.1759 46.8663 18.8373 46.5498 19.5502C47.1884 19.9793 47.7258 20.5423 48.1248 21.2002C48.442 21.7311 48.6408 22.3242 48.7077 22.9391C48.7746 23.5539 48.7079 24.176 48.5123 24.7627C48.382 25.4858 47.996 26.138 47.4248 26.6002ZM54.4123 24.1002C53.6644 24.0898 52.9448 23.8126 52.3833 23.3186C51.8217 22.8246 51.4551 22.1462 51.3495 21.4057C51.2439 20.6652 51.4064 19.9114 51.8075 19.2801C52.2086 18.6488 52.8221 18.1816 53.5373 17.9627C53.2498 16.1377 55.5748 16.1127 55.2998 17.9502C55.8936 18.1261 56.4219 18.4742 56.8179 18.9503C57.2139 19.4264 57.4599 20.0093 57.5248 20.6252C57.5462 20.8546 57.4768 21.0833 57.3315 21.2622C57.1863 21.4411 56.9767 21.5559 56.7477 21.5821C56.5188 21.6083 56.2887 21.5437 56.1068 21.4022C55.9249 21.2607 55.8057 21.0535 55.7748 20.8252C55.747 20.5621 55.6436 20.3127 55.4771 20.1072C55.3105 19.9017 55.088 19.7488 54.8364 19.6671C54.5848 19.5854 54.3149 19.5783 54.0594 19.6468C53.8039 19.7153 53.5737 19.8563 53.3966 20.0528C53.2196 20.2494 53.1033 20.493 53.0618 20.7543C53.0203 21.0156 53.0554 21.2832 53.1629 21.525C53.2704 21.7667 53.4456 21.9721 53.6673 22.1163C53.8891 22.2605 54.1479 22.3374 54.4124 22.3377C55.1596 22.3452 55.8795 22.6198 56.4421 23.1117C57.0046 23.6036 57.3727 24.2805 57.4798 25.02C57.5869 25.7596 57.4261 26.5131 57.0263 27.1444C56.6265 27.7758 56.0141 28.2433 55.2998 28.4627V28.9627C55.2963 29.1941 55.2019 29.4148 55.037 29.5773C54.8722 29.7397 54.65 29.8307 54.4185 29.8307C54.1871 29.8307 53.9649 29.7397 53.8 29.5773C53.6352 29.4148 53.5408 29.1941 53.5373 28.9627V28.4627C52.9277 28.2843 52.387 27.9243 51.9872 27.4308C51.5875 26.9372 51.3477 26.3335 51.2998 25.7002C51.2855 25.4703 51.3621 25.244 51.5131 25.07C51.6642 24.8961 51.8775 24.7885 52.1071 24.7705C52.3368 24.7525 52.5643 24.8254 52.7406 24.9736C52.917 25.1218 53.028 25.3334 53.0498 25.5627C53.0689 25.8275 53.1649 26.0811 53.3261 26.2922C53.4872 26.5033 53.7064 26.6627 53.9569 26.7511C54.2073 26.8394 54.4781 26.8526 54.736 26.7893C54.9939 26.7259 55.2277 26.5887 55.4087 26.3944C55.5897 26.2001 55.7101 25.9572 55.7551 25.6954C55.8 25.4337 55.7676 25.1645 55.6618 24.9209C55.5561 24.6774 55.3815 24.47 55.1595 24.3242C54.9376 24.1784 54.6779 24.1005 54.4123 24.1002Z" fill="url(#paint1_linear_495_16045)"/>
<path d="M54.2642 7.3893C52.4826 7.38678 50.7137 7.68947 49.0342 8.28424C48.3949 7.74957 47.6976 7.15684 46.9887 6.5873C41.9158 2.17294 37.3831 0.0946909 30.9731 1.27605L17.9446 3.84454C12.1451 4.99169 13.4319 2.59704 13.3074 8.99329C13.2915 10.741 13.3187 18.9791 13.3073 20.534C15.8766 20.413 19.509 23.2757 21.6753 24.509C29.4438 27.6411 35.237 24.7744 42.3281 25.1485C43.5817 25.1471 45.7656 25.6134 46.2099 24.4159C47.5344 20.4147 40.4263 19.6766 37.7141 19.2555C34.8277 18.9014 34.0199 19.2826 31.9726 18.2562C31.3901 17.9016 30.9101 17.4013 30.5801 16.8045C30.2502 16.2077 30.0815 15.5352 30.0909 14.8533C30.1003 14.1714 30.2875 13.5038 30.6338 12.9164C30.9801 12.3289 31.4737 11.842 32.0657 11.5036C32.5148 11.2478 33.001 11.0635 33.5068 10.9573C35.6821 10.9058 37.8417 11.3385 39.8293 12.2241C40.5501 12.5428 41.2455 12.9158 41.9097 13.3398C40.9654 14.4947 40.1977 15.7833 39.6317 17.1636C41.2889 17.4061 42.9143 17.831 44.4782 18.4304C44.8249 17.7278 45.2415 17.062 45.7218 16.4431C52.7796 7.49704 67.0647 13.7969 65.282 25.0205C63.6351 35.7539 48.4686 37.5486 44.2922 27.5769C43.3783 27.5484 42.3806 27.4375 41.4564 27.4726C38.6369 27.5007 38.7531 27.1753 39.8875 29.8319C41.1584 32.577 43.1863 34.9024 45.7329 36.535C48.2796 38.1675 51.2392 39.0395 54.2642 39.0483C75.2326 38.1721 75.2575 8.25715 54.2642 7.3893Z" fill="url(#paint2_linear_495_16045)"/>
<defs>
<linearGradient id="paint0_linear_495_16045" x1="-5.85804e-08" y1="15.0883" x2="10.9958" y2="15.094" gradientUnits="userSpaceOnUse">
<stop stop-color="#957DF3"/>
<stop offset="1" stop-color="#662D91"/>
</linearGradient>
<linearGradient id="paint1_linear_495_16045" x1="46.5498" y1="24.6504" x2="63.1129" y2="24.6682" gradientUnits="userSpaceOnUse">
<stop stop-color="#957DF3"/>
<stop offset="1" stop-color="#662D91"/>
</linearGradient>
<linearGradient id="paint2_linear_495_16045" x1="13.2666" y1="23.1263" x2="70.0016" y2="23.2214" gradientUnits="userSpaceOnUse">
<stop stop-color="#957DF3"/>
<stop offset="1" stop-color="#662D91"/>
</linearGradient>
</defs>
</svg>
