<svg width="35" height="35" viewBox="0 0 35 35" fill="none" xmlns="http://www.w3.org/2000/svg">
<path d="M25.0878 13.7109V12.5439C25.0878 5.62721 19.4607 0 12.5439 0C5.62721 0 0 5.62721 0 12.5439C0 18.0815 1.85165 20.7557 3.20359 22.7083C4.00258 23.8622 4.57987 24.696 4.57987 25.7715V33.9745C4.57987 34.5408 5.03897 34.9999 5.60526 34.9999H18.3202C18.8865 34.9999 19.3456 34.5408 19.3456 33.9745V31.9242H24.0624C24.6287 31.9242 25.0878 31.4651 25.0878 30.8988V27.8225C25.0878 27.4809 24.9177 27.1617 24.6341 26.9713C24.3255 26.764 23.7207 26.1808 23.7207 25.7717C23.7207 25.3975 24.2534 24.8331 24.6341 24.5721C24.9177 24.3817 25.0878 24.0625 25.0878 23.7209V21.6699H26.7971C27.1383 21.6699 27.4572 21.5002 27.6476 21.2171C27.8381 20.9341 27.8754 20.5748 27.7471 20.2587L25.0878 13.7109Z" fill="url(#paint0_linear_495_16766)"/>
<path d="M34.233 21.8483C34.0217 21.3228 33.4245 21.0681 32.8991 21.2794C32.3737 21.4906 32.1189 22.0878 32.3301 22.6132C32.7405 23.634 32.9486 24.7099 32.9486 25.8112C32.9486 26.9124 32.7405 27.9883 32.3301 29.0092C32.1189 29.5346 32.3737 30.1318 32.8991 30.343C33.0245 30.3934 33.1539 30.4172 33.2812 30.4172C33.6875 30.4172 34.0722 30.1741 34.233 29.774C34.7415 28.509 34.9994 27.1756 34.9994 25.8112C34.9994 24.4467 34.7415 23.1134 34.233 21.8483Z" fill="url(#paint1_linear_495_16766)"/>
<path d="M29.0935 22.8086C28.5679 23.0198 28.3132 23.617 28.5245 24.1424C28.7385 24.6748 28.847 25.2361 28.847 25.8108C28.847 26.3854 28.7385 26.9468 28.5245 27.4792C28.3132 28.0046 28.568 28.6018 29.0935 28.813C29.2189 28.8634 29.3483 28.8873 29.4756 28.8873C29.8818 28.8873 30.2665 28.6441 30.4273 28.244C30.7394 27.4674 30.8978 26.6487 30.8978 25.8108C30.8978 24.9729 30.7395 24.1543 30.4273 23.3776C30.2162 22.8522 29.6188 22.5974 29.0935 22.8086Z" fill="url(#paint2_linear_495_16766)"/>
<defs>
<linearGradient id="paint0_linear_495_16766" x1="-1.48229e-07" y1="20.3731" x2="27.8233" y2="20.398" gradientUnits="userSpaceOnUse">
<stop stop-color="#957DF3"/>
<stop offset="1" stop-color="#662D91"/>
</linearGradient>
<linearGradient id="paint1_linear_495_16766" x1="32.2559" y1="26.5674" x2="34.9995" y2="26.5683" gradientUnits="userSpaceOnUse">
<stop stop-color="#957DF3"/>
<stop offset="1" stop-color="#662D91"/>
</linearGradient>
<linearGradient id="paint2_linear_495_16766" x1="28.4502" y1="26.3159" x2="30.8978" y2="26.317" gradientUnits="userSpaceOnUse">
<stop stop-color="#957DF3"/>
<stop offset="1" stop-color="#662D91"/>
</linearGradient>
</defs>
</svg>
