<svg width="56" height="56" viewBox="0 0 56 56" fill="none" xmlns="http://www.w3.org/2000/svg">
<path d="M28.0003 47.3767C39.2003 47.3767 46.7603 43.1207 50.0643 39.3127C50.4003 38.9207 50.5683 38.4167 50.5683 37.8567V36.5687C50.5683 35.7847 49.6163 35.3367 49.0563 35.8967C45.2483 39.4247 38.0243 43.0087 28.0003 43.0087C17.9763 43.0087 10.7523 39.4247 7.00028 35.9527C6.44028 35.3927 5.48828 35.8407 5.48828 36.6247V37.9127C5.48828 38.4167 5.65628 38.9767 5.99228 39.3687C9.24028 43.1207 16.8003 47.3767 28.0003 47.3767Z" fill="url(#paint0_linear_481_14627)"/>
<path d="M12.0961 24.5837C12.3761 24.5837 12.6001 24.4717 12.7681 24.3037C13.5521 23.4077 16.7441 21.6157 18.2001 21.3917C18.3121 21.5037 18.3681 21.6717 18.4241 21.8957C18.4801 22.2317 18.5361 22.9037 18.0321 23.7437C17.9201 23.9677 17.4721 24.4157 17.0801 24.8637C15.5681 26.4877 12.9921 29.2877 12.3761 32.1437C11.9841 33.9357 12.5441 36.4557 12.9921 38.1357C15.1761 39.1997 17.8081 40.1517 20.8321 40.7117C21.8401 39.6477 24.0241 37.9117 27.9441 37.9117H28.0001C32.1441 37.9117 35.2801 39.4237 36.9601 40.4877C39.7041 39.9277 42.0561 39.0317 44.1281 37.7997C43.7361 36.5117 43.1201 33.9917 43.1201 32.3117C43.1201 32.0317 43.1201 31.7517 43.1761 31.4157C43.2321 30.2397 43.3441 28.6717 42.9521 27.1037C42.6721 25.9837 41.9441 24.0237 39.7041 23.4637C37.5761 22.9037 35.7281 24.5837 35.1121 25.4797L33.7681 27.8877C31.4161 28.3357 28.0561 28.5597 26.6001 27.9437C27.4401 25.0317 28.2241 19.3197 26.4881 16.2397C24.0801 11.9277 20.1601 11.0317 18.0321 11.4797C16.9681 11.1997 15.4001 10.0237 14.8961 9.57572C14.6721 9.40772 14.3921 9.35172 14.1681 9.40772C13.8881 9.46372 13.7201 9.68772 13.6081 9.91172C13.1041 11.2557 13.6641 12.9917 14.2801 14.1117C12.5441 15.1757 8.73606 17.7517 8.73606 19.1517C8.68006 20.7197 10.0241 24.4717 12.0961 24.5837Z" fill="url(#paint1_linear_481_14627)"/>
<defs>
<linearGradient id="paint0_linear_481_14627" x1="5.48828" y1="42.4745" x2="50.569" y2="42.6696" gradientUnits="userSpaceOnUse">
<stop stop-color="#957DF3"/>
<stop offset="1" stop-color="#662D91"/>
</linearGradient>
<linearGradient id="paint1_linear_481_14627" x1="8.73437" y1="27.6207" x2="44.1292" y2="27.6657" gradientUnits="userSpaceOnUse">
<stop stop-color="#957DF3"/>
<stop offset="1" stop-color="#662D91"/>
</linearGradient>
</defs>
</svg>
