<svg width="25" height="36" viewBox="0 0 25 36" fill="none" xmlns="http://www.w3.org/2000/svg">
<path d="M12.9981 0C6.38138 0 0.998047 5.38334 0.998047 12C0.998047 13.9864 1.49466 15.9558 2.43875 17.7026L12.3418 35.6133C12.4737 35.8521 12.7249 36 12.9981 36C13.2712 36 13.5225 35.8521 13.6543 35.6133L23.561 17.6967C24.5015 15.9558 24.9981 13.9863 24.9981 12C24.9981 5.38334 19.6148 0 12.9981 0ZM12.9981 18C9.68973 18 6.99809 15.3084 6.99809 12C6.99809 8.69168 9.68973 6.00005 12.9981 6.00005C16.3064 6.00005 18.998 8.69168 18.998 12C18.998 15.3084 16.3064 18 12.9981 18Z" fill="url(#paint0_linear_694_35794)"/>
<defs>
<linearGradient id="paint0_linear_694_35794" x1="0.998047" y1="20.9552" x2="24.9989" y2="20.9732" gradientUnits="userSpaceOnUse">
<stop stop-color="#957DF3"/>
<stop offset="1" stop-color="#662D91"/>
</linearGradient>
</defs>
</svg>
