<svg width="35" height="21" viewBox="0 0 35 21" fill="none" xmlns="http://www.w3.org/2000/svg">
<path d="M32.9492 16.6523H31.2046C29.5714 16.6523 27.8501 16.2378 26.0867 15.4187C24.916 14.8769 23.7525 14.6016 22.627 14.6016C20.3691 14.6016 18.4661 15.7065 17.5 16.3888C16.5339 15.7065 14.6309 14.6016 12.373 14.6016C11.2475 14.6016 10.084 14.8769 8.91338 15.4187C7.14998 16.2378 5.42862 16.6523 3.79538 16.6523H2.05078V18.7031H0V20.7539H16.4746V19.7285C16.4746 19.1628 16.9343 18.7031 17.5 18.7031C18.0657 18.7031 18.5254 19.1628 18.5254 19.7285V20.7539H35V18.7031H32.9492V16.6523Z" fill="url(#paint0_linear_495_16788)"/>
<path d="M14.5254 12.8305C15.6764 13.1022 16.702 13.53 17.4997 13.9717C18.2939 13.532 19.314 13.1063 20.459 12.8341C20.1064 11.4727 18.9197 10.5 17.4997 10.5C16.0619 10.5 14.8609 11.4954 14.5254 12.8305Z" fill="url(#paint1_linear_495_16788)"/>
<path d="M22.5242 12.5593C22.5595 12.5589 22.5916 12.5508 22.6271 12.5508C23.6248 12.5508 24.6376 12.7269 25.6507 13.0561C25.3767 8.77905 21.8452 5.37305 17.5002 5.37305C13.155 5.37305 9.62346 8.77919 9.34961 13.0564C10.3635 12.7267 11.3757 12.5508 12.3732 12.5508C12.4088 12.5508 12.4408 12.5589 12.4761 12.5593C12.9493 10.218 15.0215 8.44922 17.5002 8.44922C19.9788 8.44922 22.051 10.218 22.5242 12.5593Z" fill="url(#paint2_linear_495_16788)"/>
<path d="M30.8301 14.5774V13.5762C30.8301 6.22617 24.85 0.246094 17.5 0.246094C10.15 0.246094 4.16992 6.22617 4.16992 13.5762V14.5774C5.14849 14.5307 6.18454 14.2576 7.24609 13.8513V13.5762C7.24609 7.92251 11.8463 3.32227 17.5 3.32227C23.1537 3.32227 27.7539 7.92251 27.7539 13.5762V13.8508C28.8161 14.2576 29.852 14.5307 30.8301 14.5774Z" fill="url(#paint3_linear_495_16788)"/>
<defs>
<linearGradient id="paint0_linear_495_16788" x1="-1.86469e-07" y1="18.1828" x2="34.9997" y2="18.4069" gradientUnits="userSpaceOnUse">
<stop stop-color="#957DF3"/>
<stop offset="1" stop-color="#662D91"/>
</linearGradient>
<linearGradient id="paint1_linear_495_16788" x1="14.5254" y1="12.5208" x2="20.4592" y2="12.5323" gradientUnits="userSpaceOnUse">
<stop stop-color="#957DF3"/>
<stop offset="1" stop-color="#662D91"/>
</linearGradient>
<linearGradient id="paint2_linear_495_16788" x1="9.34961" y1="9.84547" x2="25.6512" y2="9.8844" gradientUnits="userSpaceOnUse">
<stop stop-color="#957DF3"/>
<stop offset="1" stop-color="#662D91"/>
</linearGradient>
<linearGradient id="paint3_linear_495_16788" x1="4.16992" y1="8.58821" x2="30.8309" y2="8.64405" gradientUnits="userSpaceOnUse">
<stop stop-color="#957DF3"/>
<stop offset="1" stop-color="#662D91"/>
</linearGradient>
</defs>
</svg>
