<svg width="36" height="36" viewBox="0 0 36 36" fill="none" xmlns="http://www.w3.org/2000/svg">
<path d="M35.0205 26.4204L29.9966 21.3965C28.2023 19.6022 25.1521 20.32 24.4344 22.6524C23.8961 24.2673 22.1018 25.1645 20.487 24.8055C16.8985 23.9084 12.054 19.2434 11.1569 15.4754C10.6186 13.8605 11.6952 12.0663 13.31 11.5281C15.6425 10.8104 16.3602 7.76014 14.566 5.96589L9.54207 0.941983C8.10667 -0.313994 5.95357 -0.313994 4.69759 0.941983L1.28851 4.35106C-2.12057 7.93957 1.64736 17.4491 10.0803 25.8821C18.5133 34.3151 28.0229 38.2625 31.6114 34.6739L35.0205 31.2649C36.2765 29.8295 36.2765 27.6764 35.0205 26.4204Z" fill="url(#paint0_linear_694_35778)"/>
<defs>
<linearGradient id="paint0_linear_694_35778" x1="0.0380857" y1="20.9552" x2="35.9637" y2="20.9956" gradientUnits="userSpaceOnUse">
<stop stop-color="#957DF3"/>
<stop offset="1" stop-color="#662D91"/>
</linearGradient>
</defs>
</svg>
