<svg width="39" height="39" viewBox="0 0 39 39" fill="none" xmlns="http://www.w3.org/2000/svg">
<circle r="19.5" transform="matrix(-1 0 0 1 19.5 19.5)" fill="url(#paint0_linear_481_14752)"/>
<g clip-path="url(#clip0_481_14752)">
<path d="M29.76 10.0703L26.9159 10.0703C26.8051 10.0617 26.7084 10.1445 26.6998 10.2553C26.6913 10.366 26.7741 10.4628 26.8848 10.4713C26.8952 10.4721 26.9055 10.4721 26.9159 10.4713L29.2751 10.4727L23.645 16.1028C23.5665 16.1813 23.5665 16.3087 23.645 16.3872C23.7236 16.4658 23.8509 16.4658 23.9295 16.3872L29.5595 10.7572L29.5595 13.115C29.551 13.2257 29.6338 13.3224 29.7445 13.331C29.8553 13.3396 29.952 13.2567 29.9606 13.146C29.9614 13.1357 29.9614 13.1253 29.9606 13.115L29.9606 10.2708C29.9602 10.1602 29.8707 10.0706 29.76 10.0703Z" fill="white"/>
</g>
<g clip-path="url(#clip1_481_14752)">
<path d="M9.27121 10.0703L12.1154 10.0703C12.2261 10.0617 12.3229 10.1445 12.3314 10.2553C12.34 10.366 12.2572 10.4628 12.1464 10.4713C12.1361 10.4721 12.1257 10.4721 12.1154 10.4713L9.75614 10.4727L15.3862 16.1028C15.4647 16.1813 15.4647 16.3087 15.3862 16.3872C15.3077 16.4658 15.1803 16.4658 15.1018 16.3872L9.47172 10.7572L9.47172 13.115C9.48028 13.2257 9.39746 13.3224 9.28671 13.331C9.17597 13.3396 9.07925 13.2567 9.07069 13.146C9.0699 13.1357 9.06989 13.1253 9.07069 13.115L9.07069 10.2708C9.07101 10.1602 9.16059 10.0706 9.27121 10.0703Z" fill="white"/>
</g>
<g clip-path="url(#clip2_481_14752)">
<path d="M9.27121 28.4453L12.1154 28.4453C12.2261 28.4539 12.3229 28.3711 12.3314 28.2603C12.34 28.1496 12.2572 28.0529 12.1464 28.0443C12.1361 28.0435 12.1257 28.0435 12.1154 28.0443L9.75614 28.0429L15.3862 22.4128C15.4647 22.3343 15.4647 22.2069 15.3862 22.1284C15.3077 22.0498 15.1803 22.0499 15.1018 22.1284L9.47172 27.7585L9.47172 25.4006C9.48028 25.2899 9.39746 25.1932 9.28671 25.1846C9.17597 25.1761 9.07925 25.2589 9.07069 25.3696C9.0699 25.38 9.06989 25.3903 9.07069 25.4006L9.07069 28.2448C9.07101 28.3554 9.16059 28.445 9.27121 28.4453Z" fill="white"/>
</g>
<g clip-path="url(#clip3_481_14752)">
<path d="M29.76 28.4453L26.9159 28.4453C26.8051 28.4539 26.7084 28.3711 26.6998 28.2603C26.6913 28.1496 26.7741 28.0529 26.8848 28.0443C26.8952 28.0435 26.9055 28.0435 26.9159 28.0443L29.2751 28.0429L23.645 22.4128C23.5665 22.3343 23.5665 22.2069 23.645 22.1284C23.7236 22.0498 23.8509 22.0499 23.9295 22.1284L29.5595 27.7585L29.5595 25.4006C29.551 25.2899 29.6338 25.1932 29.7445 25.1846C29.8553 25.1761 29.952 25.2589 29.9606 25.3696C29.9614 25.38 29.9614 25.3903 29.9606 25.4006L29.9606 28.2448C29.9602 28.3554 29.8707 28.445 29.76 28.4453Z" fill="white"/>
</g>
<defs>
<linearGradient id="paint0_linear_481_14752" x1="7.81133e-08" y1="14.8433" x2="39" y2="14.8433" gradientUnits="userSpaceOnUse">
<stop stop-color="#6CD4FF"/>
<stop offset="1" stop-color="#00B2F7"/>
</linearGradient>
<clipPath id="clip0_481_14752">
<rect width="8.84919" height="8.84919" fill="white" transform="translate(20.5156 13.2578) rotate(-45)"/>
</clipPath>
<clipPath id="clip1_481_14752">
<rect width="8.84919" height="8.84919" fill="white" transform="matrix(-0.707107 -0.707107 -0.707107 0.707107 18.5156 13.2578)"/>
</clipPath>
<clipPath id="clip2_481_14752">
<rect width="8.84919" height="8.84919" fill="white" transform="translate(18.5156 25.2578) rotate(135)"/>
</clipPath>
<clipPath id="clip3_481_14752">
<rect width="8.84919" height="8.84919" fill="white" transform="matrix(0.707107 0.707107 0.707107 -0.707107 20.5156 25.2578)"/>
</clipPath>
</defs>
</svg>
