<svg width="60" height="75" viewBox="0 0 60 75" fill="none" xmlns="http://www.w3.org/2000/svg">
<path d="M59.6617 44.9948C59.6617 61.3764 46.3819 74.6562 30.0003 74.6562C13.6591 74.6564 0.461273 61.5614 0.339711 45.2206C0.294086 39.102 2.10128 33.4083 5.23362 28.6667C5.93096 27.6111 10.0003 22 10.0003 22L12.7452 24.745C14.1541 26.1538 16.1738 26.7653 18.1275 26.3745C20.9239 25.8153 22.9331 23.3539 22.9174 20.5022C22.9013 17.5624 23.3013 13.7314 25.0003 10.3334C28.5652 3.20361 35.0003 0.333443 35.0003 0.333443C35.0003 0.333443 38.0855 11.9999 51.6669 27C55.883 31.6564 59.6617 38.2283 59.6617 44.9948Z" fill="url(#paint0_linear_495_16078)"/>
<path d="M39.2392 52.6723C39.2392 50.6123 38.5628 49.9973 37.8864 49.9973C37.21 49.9973 36.5336 50.6123 36.5336 52.6723C36.5336 54.7323 37.21 55.3473 37.8864 55.3473C38.5628 55.3473 39.2392 54.7323 39.2392 52.6723ZM32.1675 52.6723C32.1675 48.8598 34.6272 46.6767 37.8864 46.6767C41.1455 46.6767 43.6052 48.8598 43.6052 52.6723C43.6052 56.5156 41.1455 58.668 37.8864 58.668C34.6272 58.668 32.1675 56.5156 32.1675 52.6723ZM23.4662 42.5259C23.4662 40.4659 22.7898 39.8511 22.1134 39.8511C21.437 39.8511 20.7606 40.4659 20.7606 42.5259C20.7606 44.5859 21.437 45.2009 22.1134 45.2009C22.7898 45.2009 23.4662 44.5859 23.4662 42.5259ZM34.7503 36.838H39.9464L25.2495 58.3605H20.0534L34.7503 36.838ZM16.3945 42.5259C16.3945 38.7134 18.8544 36.5305 22.1134 36.5305C25.3725 36.5305 27.8323 38.7134 27.8323 42.5259C27.8323 46.3694 25.3725 48.5216 22.1134 48.5216C18.8544 48.5216 16.3945 46.3694 16.3945 42.5259Z" fill="white"/>
<defs>
<linearGradient id="paint0_linear_495_16078" x1="0.338867" y1="31.3937" x2="59.6637" y2="31.3404" gradientUnits="userSpaceOnUse">
<stop stop-color="#957DF3"/>
<stop offset="1" stop-color="#662D91"/>
</linearGradient>
</defs>
</svg>
