<svg width="36" height="40" viewBox="0 0 36 40" fill="none" xmlns="http://www.w3.org/2000/svg">
<path d="M18.0003 12.3796C13.7978 12.3796 10.3789 15.7985 10.3789 20.0008C10.3789 24.2033 13.7978 27.6222 18.0003 27.6222C22.2026 27.6222 25.6215 24.2033 25.6215 20.0008C25.6215 15.7985 22.2026 12.3796 18.0003 12.3796ZM22.5252 18.5655L17.0653 24.0254C16.8361 24.2546 16.5355 24.3694 16.2352 24.3694C15.9349 24.3694 15.6346 24.2549 15.4054 24.0254L13.319 21.9389C12.8606 21.4809 12.8606 20.7378 13.319 20.2794C13.777 19.821 14.5201 19.821 14.9785 20.2794L16.2352 21.5361L20.8656 16.906C21.3237 16.4476 22.0668 16.4476 22.5252 16.906C22.9835 17.3641 22.9835 18.1072 22.5252 18.5655Z" fill="url(#paint0_linear_481_14641)"/>
<path d="M34.9912 10.8528L34.9899 10.8216C34.9725 10.4374 34.9609 10.0309 34.9539 9.57866C34.9213 7.37316 33.168 5.54883 30.9622 5.42554C26.3633 5.16889 22.8055 3.66926 19.7657 0.706312L19.7397 0.681593C18.7482 -0.227523 17.2526 -0.227523 16.2607 0.681593L16.2348 0.706312C13.195 3.66926 9.63723 5.16889 5.03824 5.42584C2.83274 5.54883 1.07921 7.37316 1.04656 9.57897C1.03984 10.0282 1.02794 10.4347 1.01054 10.8216L1.00871 10.894C0.919297 15.5836 0.808214 21.4201 2.76072 26.7176C3.83433 29.6308 5.4603 32.1631 7.59317 34.2447C10.0224 36.6153 13.2041 38.4973 17.0499 39.8383C17.175 39.8819 17.3051 39.9173 17.4375 39.9439C17.6243 39.9811 17.8123 39.9997 18.0002 39.9997C18.1882 39.9997 18.3765 39.9811 18.563 39.9439C18.6954 39.9173 18.8264 39.8816 18.9521 39.8377C22.7933 38.4943 25.9717 36.6114 28.3988 34.2411C30.5307 32.1589 32.1567 29.6259 33.2312 26.7121C35.1911 21.3987 35.0803 15.5512 34.9912 10.8528ZM17.9996 29.9689C12.5028 29.9689 8.03109 25.4972 8.03109 20.0004C8.03109 14.5036 12.5028 10.0318 17.9996 10.0318C23.4961 10.0318 27.9682 14.5036 27.9682 20.0004C27.9682 25.4972 23.4961 29.9689 17.9996 29.9689Z" fill="url(#paint1_linear_481_14641)"/>
<defs>
<linearGradient id="paint0_linear_481_14641" x1="10.3789" y1="21.2522" x2="25.622" y2="21.2693" gradientUnits="userSpaceOnUse">
<stop stop-color="#957DF3"/>
<stop offset="1" stop-color="#662D91"/>
</linearGradient>
<linearGradient id="paint1_linear_481_14641" x1="0.96875" y1="23.2833" x2="35.032" y2="23.316" gradientUnits="userSpaceOnUse">
<stop stop-color="#957DF3"/>
<stop offset="1" stop-color="#662D91"/>
</linearGradient>
</defs>
</svg>
