<svg width="35" height="35" viewBox="0 0 35 35" fill="none" xmlns="http://www.w3.org/2000/svg">
<path d="M11.8329 14.0539C12.2123 13.8349 12.4951 13.4806 12.6247 13.0621C12.7543 12.6436 12.7211 12.1915 12.5318 11.7964L7.90575 2.13859C7.75334 1.81992 7.53668 1.53619 7.26939 1.30524C7.0021 1.07428 6.68995 0.901077 6.35253 0.796504C6.01512 0.691931 5.65973 0.658246 5.30867 0.697564C4.95762 0.736882 4.61848 0.848354 4.31256 1.02498C4.00664 1.20161 3.74054 1.43958 3.53097 1.72394C3.32139 2.00831 3.17287 2.33293 3.09473 2.67743C3.01659 3.02193 3.01052 3.37886 3.0769 3.72582C3.14327 4.07278 3.28066 4.40226 3.48044 4.69359L9.52888 13.5278C9.7761 13.8895 10.1507 14.1446 10.5778 14.2422C11.0049 14.3397 11.4531 14.2725 11.8329 14.0539Z" fill="url(#paint0_linear_495_16798)"/>
<path d="M11.4644 15.0527L14.0621 19.5519C14.1709 19.7403 14.35 19.8778 14.5602 19.9341C14.7703 19.9904 14.9942 19.9609 15.1826 19.8521C15.371 19.7433 15.5085 19.5642 15.5648 19.354C15.6211 19.1439 15.5916 18.92 15.4829 18.7316L12.8857 14.2324C12.5158 14.6559 12.0162 14.9444 11.4644 15.0527Z" fill="url(#paint1_linear_495_16798)"/>
<path d="M33.2227 24.0625C33.2216 23.2288 32.89 22.4296 32.3005 21.8401C31.711 21.2506 30.9118 20.919 30.0781 20.918C29.8823 20.9185 29.6871 20.9396 29.4957 20.9809C29.2611 20.6247 28.9416 20.3324 28.5659 20.1305C28.1903 19.9286 27.7702 19.8233 27.3438 19.8242C26.7218 19.8246 26.1206 20.0478 25.6491 20.4533C25.1776 20.8588 24.8669 21.4198 24.7734 22.0347C24.1423 22.1121 23.5504 22.3821 23.0781 22.808C22.6982 22.6439 22.2888 22.559 21.875 22.5586C21.0413 22.5596 20.2421 22.8912 19.6526 23.4807C19.0631 24.0702 18.7315 24.8695 18.7305 25.7031C18.7305 25.7759 18.7332 25.8491 18.7398 25.9219C18.3291 25.8641 17.9147 25.8367 17.5 25.8398C16.8248 25.8277 16.1511 25.9085 15.4979 26.0799C15.2358 25.3602 14.7562 24.7398 14.1257 24.3049C13.4951 23.87 12.7449 23.6422 11.979 23.6529C11.2131 23.6637 10.4695 23.9125 9.8514 24.365C9.23331 24.8174 8.77136 25.451 8.52961 26.1778C7.77784 25.9363 6.99099 25.822 6.20156 25.8398C5.18023 25.8162 4.16572 26.012 3.22656 26.4141C2.38151 26.7793 1.46719 26.9566 0.546875 26.9336C0.438095 26.9336 0.33377 26.9768 0.256851 27.0537C0.179932 27.1307 0.136719 27.235 0.136719 27.3438V33.9063C0.136719 34.015 0.179932 34.1194 0.256851 34.1963C0.33377 34.2732 0.438095 34.3164 0.546875 34.3164H34.4531C34.5619 34.3164 34.6662 34.2732 34.7431 34.1963C34.8201 34.1194 34.8633 34.015 34.8633 33.9063V27.3438C34.8627 26.7349 34.7116 26.1357 34.4236 25.5993C34.1355 25.0629 33.7194 24.606 33.2123 24.2692C33.2188 24.2031 33.2227 24.1341 33.2227 24.0625ZM6.74461 28.9844C6.74461 29.0925 6.71254 29.1983 6.65244 29.2882C6.59235 29.3781 6.50694 29.4482 6.40701 29.4896C6.30709 29.531 6.19713 29.5418 6.09104 29.5207C5.98496 29.4996 5.88752 29.4476 5.81104 29.3711C5.73455 29.2946 5.68247 29.1972 5.66137 29.0911C5.64027 28.985 5.6511 28.875 5.69249 28.7751C5.73388 28.6752 5.80397 28.5898 5.89391 28.5297C5.98384 28.4696 6.08957 28.4375 6.19773 28.4375C6.34277 28.4375 6.48187 28.4951 6.58443 28.5977C6.68699 28.7002 6.74461 28.8393 6.74461 28.9844ZM12.396 31.1719C12.396 31.28 12.3639 31.3858 12.3039 31.4757C12.2438 31.5656 12.1583 31.6357 12.0584 31.6771C11.9585 31.7185 11.8485 31.7293 11.7425 31.7082C11.6364 31.6871 11.5389 31.6351 11.4624 31.5586C11.386 31.4821 11.3339 31.3847 11.3128 31.2786C11.2917 31.1725 11.3025 31.0625 11.3439 30.9626C11.3853 30.8627 11.4554 30.7773 11.5453 30.7172C11.6352 30.6571 11.741 30.625 11.8491 30.625C11.9942 30.625 12.1333 30.6826 12.2358 30.7852C12.3384 30.8877 12.396 31.0268 12.396 31.1719ZM18.0469 28.9844C18.0469 29.0925 18.0148 29.1983 17.9547 29.2882C17.8946 29.3781 17.8092 29.4482 17.7093 29.4896C17.6094 29.531 17.4994 29.5418 17.3933 29.5207C17.2872 29.4996 17.1898 29.4476 17.1133 29.3711C17.0368 29.2946 16.9847 29.1972 16.9636 29.0911C16.9425 28.985 16.9534 28.875 16.9948 28.7751C17.0361 28.6752 17.1062 28.5898 17.1962 28.5297C17.2861 28.4696 17.3918 28.4375 17.5 28.4375C17.645 28.4375 17.7841 28.4951 17.8867 28.5977C17.9893 28.7002 18.0469 28.8393 18.0469 28.9844ZM23.6977 31.1719C23.6977 31.28 23.6657 31.3858 23.6056 31.4757C23.5455 31.5656 23.4601 31.6357 23.3601 31.6771C23.2602 31.7185 23.1503 31.7293 23.0442 31.7082C22.9381 31.6871 22.8406 31.6351 22.7642 31.5586C22.6877 31.4821 22.6356 31.3847 22.6145 31.2786C22.5934 31.1725 22.6042 31.0625 22.6456 30.9626C22.687 30.8627 22.7571 30.7773 22.847 30.7172C22.937 30.6571 23.0427 30.625 23.1509 30.625C23.2959 30.625 23.435 30.6826 23.5376 30.7852C23.6401 30.8877 23.6977 31.0268 23.6977 31.1719ZM25.7031 26.25C25.7031 26.3582 25.6711 26.4639 25.611 26.5538C25.5509 26.6438 25.4655 26.7139 25.3655 26.7553C25.2656 26.7966 25.1556 26.8075 25.0496 26.7864C24.9435 26.7653 24.846 26.7132 24.7696 26.6367C24.6931 26.5602 24.641 26.4628 24.6199 26.3567C24.5988 26.2506 24.6096 26.1407 24.651 26.0407C24.6924 25.9408 24.7625 25.8554 24.8524 25.7953C24.9424 25.7352 25.0481 25.7031 25.1562 25.7031C25.3013 25.7031 25.4404 25.7607 25.5429 25.8633C25.6455 25.9659 25.7031 26.105 25.7031 26.25ZM29.3491 28.9844C29.3491 29.0925 29.3171 29.1983 29.257 29.2882C29.1969 29.3781 29.1115 29.4482 29.0115 29.4896C28.9116 29.531 28.8017 29.5418 28.6956 29.5207C28.5895 29.4996 28.492 29.4476 28.4156 29.3711C28.3391 29.2946 28.287 29.1972 28.2659 29.0911C28.2448 28.985 28.2556 28.875 28.297 28.7751C28.3384 28.6752 28.4085 28.5898 28.4984 28.5297C28.5884 28.4696 28.6941 28.4375 28.8023 28.4375C28.9473 28.4375 29.0864 28.4951 29.189 28.5977C29.2915 28.7002 29.3491 28.8393 29.3491 28.9844ZM29.5312 24.0625C29.5312 24.1707 29.4992 24.2764 29.4391 24.3663C29.379 24.4563 29.2936 24.5264 29.1937 24.5678C29.0937 24.6091 28.9838 24.62 28.8777 24.5989C28.7716 24.5778 28.6742 24.5257 28.5977 24.4492C28.5212 24.3727 28.4691 24.2753 28.448 24.1692C28.4269 24.0631 28.4377 23.9532 28.4791 23.8532C28.5205 23.7533 28.5906 23.6679 28.6805 23.6078C28.7705 23.5477 28.8762 23.5156 28.9844 23.5156C29.1294 23.5156 29.2685 23.5732 29.3711 23.6758C29.4736 23.7784 29.5312 23.9175 29.5312 24.0625Z" fill="url(#paint2_linear_495_16798)"/>
<path d="M12.0314 22.8307C12.8332 22.8314 13.6204 23.0453 14.3123 23.4504C15.0043 23.8556 15.576 24.4374 15.9689 25.1364C16.4751 25.0539 16.9873 25.0143 17.5002 25.0182C17.6617 25.0182 17.8177 25.0213 17.9683 25.0275C18.1275 24.1067 18.6067 23.2716 19.3215 22.6695C20.0362 22.0675 20.9407 21.7373 21.8752 21.737C22.2298 21.737 22.5826 21.7865 22.9235 21.8841C23.011 21.8239 23.1013 21.7671 23.1926 21.714L23.232 21.6921C23.0163 20.097 22.4901 18.5596 21.6832 17.1668L20.1471 14.5051C19.9243 14.1179 19.5811 13.8142 19.1697 13.6402C18.7582 13.4662 18.3012 13.4316 17.8682 13.5415C16.6073 13.8705 15.3804 14.3186 14.2042 14.8797L16.1915 18.3218C16.4091 18.6989 16.4679 19.1469 16.3551 19.5674C16.2423 19.9879 15.9671 20.3464 15.5899 20.5639C15.2128 20.7815 14.7648 20.8403 14.3443 20.7275C13.9238 20.6147 13.5653 20.3395 13.3478 19.9624L11.3642 16.5203C10.2906 17.2583 9.28938 18.0964 8.37393 19.0234C8.06246 19.3435 7.86421 19.7566 7.80942 20.1998C7.75462 20.643 7.84628 21.092 8.07042 21.4783L9.35886 23.7101C10.133 23.1392 11.0695 22.831 12.0314 22.8307Z" fill="url(#paint3_linear_495_16798)"/>
<defs>
<linearGradient id="paint0_linear_495_16798" x1="3.03125" y1="8.60048" x2="12.7028" y2="8.60822" gradientUnits="userSpaceOnUse">
<stop stop-color="#957DF3"/>
<stop offset="1" stop-color="#662D91"/>
</linearGradient>
<linearGradient id="paint1_linear_495_16798" x1="11.4639" y1="17.5676" x2="15.5929" y2="17.5709" gradientUnits="userSpaceOnUse">
<stop stop-color="#957DF3"/>
<stop offset="1" stop-color="#662D91"/>
</linearGradient>
<linearGradient id="paint2_linear_495_16798" x1="0.136719" y1="28.26" x2="34.8642" y2="28.3537" gradientUnits="userSpaceOnUse">
<stop stop-color="#957DF3"/>
<stop offset="1" stop-color="#662D91"/>
</linearGradient>
<linearGradient id="paint3_linear_495_16798" x1="7.79395" y1="20.2644" x2="23.2325" y2="20.2874" gradientUnits="userSpaceOnUse">
<stop stop-color="#957DF3"/>
<stop offset="1" stop-color="#662D91"/>
</linearGradient>
</defs>
</svg>
